<svg xmlns="http://www.w3.org/2000/svg" viewBox="0 0 750 500"><path d="M735.73 201C739 116.6 681.68 42.39 600.19 26c-48.72-9.78-108.5-17.37-160.27-11-109.76 13.4-44.78 17.86-34.24 18.76s52.68 11.61-.88 15.18-105.37-21.47-177.37-28.61S66.74 23.9 35.13 94.47 4.4 318.67 24.6 381.2s37.75-48.2 50.92-28.59 66.74 100.05 203.72 119.7S644.51 456.23 677 427.65s17.56-10.72 23.71 3.57 27.22-26.8 30.73-115.23C733 278.13 734 245.25 735.73 201Z" style="fill:#105f38"/><path d="M735.73 201C739 116.6 681.68 42.39 600.19 26c-48.72-9.78-108.5-17.37-160.27-11-109.76 13.4-44.78 17.86-34.24 18.76s52.68 11.61-.88 15.18-105.37-21.47-177.37-28.61S66.74 23.9 35.13 94.47 4.4 318.67 24.6 381.2s37.75-48.2 50.92-28.59 66.74 100.05 203.72 119.7S644.51 456.23 677 427.65s17.56-10.72 23.71 3.57 27.22-26.8 30.73-115.23C733 278.13 734 245.25 735.73 201Z" style="fill:#0c4536;opacity:.7000000000000001"/><path style="fill:none;stroke:#263238;stroke-linecap:round;stroke-linejoin:round" d="M26.63 454.42H731.4"/><path transform="rotate(-45 709.595 218.956)" style="fill:none;stroke:#9c9c9c;stroke-linecap:round;stroke-linejoin:round" d="M702.11 211.48h14.95v14.95h-14.95z"/><path transform="rotate(-45 56.617 86.808)" style="fill:none;stroke:#9c9c9c;stroke-linecap:round;stroke-linejoin:round" d="M49.14 79.34h14.95v14.95H49.14z"/><path transform="rotate(-45 443.16 370.437)" style="fill:none;stroke:#9c9c9c;stroke-linecap:round;stroke-linejoin:round" d="M437.43 364.71h11.46v11.46h-11.46z"/><path transform="rotate(-45 449.048 46.178)" style="fill:none;stroke:#9c9c9c;stroke-linecap:round;stroke-linejoin:round" d="M443.31 40.45h11.46v11.46h-11.46z"/><path transform="rotate(-45 31.043 269.241)" style="fill:none;stroke:#9c9c9c;stroke-linecap:round;stroke-linejoin:round" d="M25.32 263.51h11.46v11.46H25.32z"/><path transform="rotate(-45 38.878 70.876)" style="fill:none;stroke:#9c9c9c;stroke-linecap:round;stroke-linejoin:round" d="M33.14 65.15H44.6v11.46H33.14z"/><path transform="rotate(-45 328.147 433.247)" style="fill:none;stroke:#9c9c9c;stroke-linecap:round;stroke-linejoin:round" d="M322.41 427.52h11.46v11.46h-11.46z"/><path transform="rotate(-45 719.288 203.031)" style="fill:none;stroke:#9c9c9c;stroke-linecap:round;stroke-linejoin:round" d="M713.56 197.29h11.46v11.46h-11.46z"/><path transform="rotate(-45 720.224 385.173)" style="fill:none;stroke:#9c9c9c;stroke-linecap:round;stroke-linejoin:round" d="M714.49 379.44h11.46v11.46h-11.46z"/><path style="fill:none;stroke:#9c9c9c;stroke-linecap:round;stroke-linejoin:round" d="M716.38 68.45v16.57M708.1 76.74h16.57M55.42 117.74v16.57M47.13 126.02H63.7M710.76 313.15v25.77M697.87 326.03h25.78M427.98 304.74l18.23 18.22M427.98 322.96l18.23-18.22M24.04 413.9l13.1 13.09M24.04 426.99l13.1-13.09M338.01 25.89l13.1 13.1M338.01 38.99l13.1-13.1"/><path style="fill:none;stroke:#263238;stroke-linecap:round;stroke-linejoin:round" d="m442.21 76.81-37.69-28.68v15.09h-55.76V90.4h55.76v15.1l37.69-28.69z"/><rect x="473.33" y="36.31" width="214.83" height="418.11" rx="11.27" style="fill:#455a64;stroke:#263238;stroke-linecap:round;stroke-linejoin:round"/><path d="M473.33 418.9v24.24a11.27 11.27 0 0 0 11.27 11.28h192.29a11.28 11.28 0 0 0 11.27-11.28V418.9Z" style="fill:#105f38;stroke:#263238;stroke-miterlimit:10"/><rect x="560.21" y="161.45" width="44.63" height="44.63" rx="6.1" style="fill:#263238;stroke:#263238;stroke-miterlimit:10"/><path style="fill:#105f38;stroke:#263238;stroke-miterlimit:10" d="m594.51 184.63-21.68-12.52v25.04l21.68-12.52zM658.68 78.13h-41.57a16 16 0 0 1-16-16 16 16 0 0 1 16-16h41.57a16 16 0 0 1 16 16 16 16 0 0 1-16 16Z"/><circle cx="616.63" cy="62.09" r="14.26" style="fill:#a3a3a3;stroke:#263238;stroke-linecap:round;stroke-linejoin:round"/><path style="fill:none;stroke:#263238;stroke-linecap:round;stroke-linejoin:round" d="M488.52 64.99h27.84M488.52 72.28h27.84M488.52 79.57h27.84"/><path style="fill:#105f38;stroke:#263238;stroke-miterlimit:10" d="M492.2 285.68h151.58v115.98H492.2z"/><path style="fill:#263238;stroke:#263238;stroke-miterlimit:10" d="m643.78 331.75-23.15-22.21-41.89 47.72-24.81-18.56-61.73 62.96h151.58v-69.91z"/><circle cx="526" cy="318.82" r="15.91" style="fill:#263238;stroke:#263238;stroke-miterlimit:10"/><path style="fill:none;stroke:#263238;stroke-linecap:round;stroke-linejoin:round" d="M487.15 91.69h185.68"/><circle cx="665.6" cy="298.82" r="12.9" transform="rotate(-13.21 665.514 298.792)" style="fill:#263238;stroke:#263238;stroke-linecap:round;stroke-linejoin:round"/><path d="M670.57 294.46a5 5 0 1 0-5 5 5 5 0 0 0 5-5ZM665.6 300.38a8.21 8.21 0 0 0-8.22 8.21v.19a12.92 12.92 0 0 0 16.41 0v-.19a8.21 8.21 0 0 0-8.19-8.21Z" style="fill:#fff;stroke:#263238;stroke-linecap:round;stroke-linejoin:round"/><circle cx="665.6" cy="341.21" r="12.9" transform="rotate(-13.21 665.505 341.194)" style="fill:#263238;stroke:#263238;stroke-linecap:round;stroke-linejoin:round"/><path d="M670.57 336.85a5 5 0 1 0-5 5 5 5 0 0 0 5-5ZM665.6 342.77a8.22 8.22 0 0 0-8.22 8.21v.19a12.92 12.92 0 0 0 16.41 0v-.19a8.22 8.22 0 0 0-8.19-8.21Z" style="fill:#fff;stroke:#263238;stroke-linecap:round;stroke-linejoin:round"/><circle cx="665.6" cy="383.6" r="12.9" transform="rotate(-13.21 665.501 383.553)" style="fill:#263238;stroke:#263238;stroke-linecap:round;stroke-linejoin:round"/><path d="M670.57 379.24a5 5 0 1 0-5 5 5 5 0 0 0 5-5ZM665.6 385.16a8.22 8.22 0 0 0-8.22 8.21v.19a12.92 12.92 0 0 0 16.41 0v-.19a8.22 8.22 0 0 0-8.19-8.21Z" style="fill:#fff;stroke:#263238;stroke-linecap:round;stroke-linejoin:round"/><rect x="489.57" y="106.74" width="183.28" height="35.84" rx="17.92" style="fill:#a3a3a3;stroke:#263238;stroke-miterlimit:10"/><rect x="489.57" y="106.74" width="101.58" height="35.84" rx="17.92" style="fill:#105f38;stroke:#263238;stroke-miterlimit:10"/><rect x="492.2" y="161.45" width="44.63" height="44.63" rx="6.1" style="fill:#105f38;stroke:#263238;stroke-miterlimit:10"/><path d="M533 187.59V181l-5.58-.3a13.16 13.16 0 0 0-1.11-3l3.75-4.16-4.64-4.64-4 3.59a13.5 13.5 0 0 0-3.09-1.34l-.33-5.45h-6.56l-.29 5.46a12.92 12.92 0 0 0-3 1.27l-4.15-3.79-4.64 4.64 3.91 4.34a12.72 12.72 0 0 0-1.06 2.71l-6.06.32v6.56l6.23.33a12.19 12.19 0 0 0 1 2.37l-4.3 4.78 4.64 4.65 4.78-4.31a13.53 13.53 0 0 0 2.24 1l.35 6.55h6.56l.33-6.33a12.38 12.38 0 0 0 2.41-.88l4.74 4.26 4.64-4.64-4-4.45a13.22 13.22 0 0 0 1.24-2.6Zm-18.23 3.17a7.12 7.12 0 1 1 7.11-7.11 7.12 7.12 0 0 1-7.16 7.11Z" style="fill:#263238;stroke:#263238;stroke-miterlimit:10"/><rect x="628.22" y="161.45" width="44.63" height="44.63" rx="6.1" style="fill:#105f38;stroke:#263238;stroke-miterlimit:10"/><circle cx="650.53" cy="183.76" r="15.65" transform="rotate(-67.72 650.582 183.742)" style="fill:#263238;stroke:#263238;stroke-miterlimit:10"/><path style="fill:#a3a3a3;stroke:#263238;stroke-linecap:round;stroke-linejoin:round" d="M642.59 175.82h15.89v15.89h-15.89z"/><rect x="560.21" y="220.29" width="44.63" height="44.63" rx="6.1" style="fill:#a3a3a3;stroke:#263238;stroke-linecap:round;stroke-linejoin:round"/><path style="fill:#105f38;stroke:#263238;stroke-linecap:round;stroke-linejoin:round" d="M567.63 232.43h30.14v21.05h-30.14z"/><path style="fill:#105f38;stroke:#263238;stroke-linecap:round;stroke-linejoin:round" d="m567.63 232.43 15.07 10.53 15.07-10.53h-30.14z"/><rect x="492.2" y="220.29" width="44.63" height="44.63" rx="6.1" style="fill:#105f38;stroke:#263238;stroke-miterlimit:10"/><path d="M525 236.17a15.19 15.19 0 0 0-1.32-3.42c-.65-1.11-1.07-1.4-3.33-1.4h-4.11v20c0 3.21.33 3.66 4.24 3.91v1.15h-12v-1.11c3.83-.25 4.16-.66 4.16-3.91v-20H509c-2.27 0-2.92.25-3.62 1.49a17.91 17.91 0 0 0-1.36 3.33h-1.23c.24-2.51.49-5.1.61-7.41h.95c.62 1 1.07 1 2.22 1h16.29a2.06 2.06 0 0 0 2.1-1h1c0 1.94.17 4.9.37 7.28Z" style="fill:#263238"/><rect x="628.22" y="220.29" width="44.63" height="44.63" rx="6.1" style="fill:#263238;stroke:#263238;stroke-miterlimit:10"/><circle cx="650.53" cy="242.61" r="15.63" style="fill:none;stroke:#105f38;stroke-miterlimit:10"/><ellipse cx="650.53" cy="242.61" rx="6.92" ry="15.63" style="fill:none;stroke:#105f38;stroke-miterlimit:10"/><path style="fill:none;stroke:#105f38;stroke-miterlimit:10" d="M640.43 230.74h20.43M635.74 236.83h29.82M640.43 254.59h20.43M635.74 248.5h29.82M635.23 242.68h30.83"/><rect x="89.2" y="36.31" width="214.83" height="418.11" rx="11.27" style="fill:#455a64;stroke:#263238;stroke-linecap:round;stroke-linejoin:round"/><path d="M89.2 418.9v24.24a11.28 11.28 0 0 0 11.27 11.28h192.29A11.28 11.28 0 0 0 304 443.14V418.9Z" style="fill:#105f38;stroke:#263238;stroke-miterlimit:10"/><path style="fill:#263238;stroke:#263238;stroke-miterlimit:10" d="M172.32 164.99h44.63v44.63h-44.63zM59.07 164.99h44.63v44.63H59.07zM172.32 223.84h44.63v44.63h-44.63zM234.17 223.84h44.63v44.63h-44.63zM59.07 223.84h44.63v44.63H59.07z"/><path style="fill:#a3a3a3;stroke:#263238;stroke-linecap:round;stroke-linejoin:round" d="M174.35 161.45h44.63v44.63h-44.63z"/><path style="fill:#105f38;stroke:#263238;stroke-miterlimit:10" d="M61.09 161.45h44.63v44.63H61.09zM174.35 220.29h44.63v44.63h-44.63zM236.19 220.29h44.63v44.63h-44.63z"/><path style="fill:#a3a3a3;stroke:#263238;stroke-linecap:round;stroke-linejoin:round" d="M61.09 220.29h44.63v44.63H61.09z"/><path d="M315.62 49.76h-41.57a16 16 0 0 0 0 32.09h41.57a16 16 0 0 0 0-32.09Z" style="fill:#263238;stroke:#263238;stroke-miterlimit:10"/><path d="M318.62 78.13h-41.57a16 16 0 0 1-16.05-16 16 16 0 0 1 16.05-16h41.57a16 16 0 0 1 16 16 16 16 0 0 1-16 16Z" style="fill:#105f38;stroke:#263238;stroke-miterlimit:10"/><circle cx="276.56" cy="62.09" r="14.26" style="fill:#a3a3a3;stroke:#263238;stroke-linecap:round;stroke-linejoin:round"/><path style="fill:none;stroke:#263238;stroke-linecap:round;stroke-linejoin:round" d="M107.4 64.99h27.84M107.4 72.28h27.84M107.4 79.57h27.84"/><circle cx="276.4" cy="300.26" r="12.59" style="fill:#fff;stroke:#263238;stroke-linecap:round;stroke-linejoin:round"/><circle cx="276.4" cy="341.35" r="12.59" transform="rotate(-80.75 276.38 341.353)" style="fill:#fff;stroke:#263238;stroke-linecap:round;stroke-linejoin:round"/><circle cx="276.4" cy="382.44" r="12.59" style="fill:#fff;stroke:#263238;stroke-linecap:round;stroke-linejoin:round"/><path style="fill:none;stroke:#263238;stroke-linecap:round;stroke-linejoin:round" d="M106.09 91.69h185.69"/><path style="fill:#263238;stroke:#263238;stroke-miterlimit:10" d="M49.69 290.75h151.58v115.98H49.69zM49.69 406.73l151.59-115.98M49.69 290.75l151.59 115.98"/><path style="fill:#a3a3a3;stroke:#263238;stroke-linecap:round;stroke-linejoin:round" d="M54.25 285.68h151.58v115.98H54.25z"/><path style="fill:none;stroke:#263238;stroke-linecap:round;stroke-linejoin:round" d="m54.25 401.66 151.58-115.98M54.25 285.68l151.58 115.98"/><path d="M325.93 145.12H178.49a17.92 17.92 0 0 1-17.92-17.92 17.92 17.92 0 0 1 17.92-17.93h147.44a17.92 17.92 0 0 1 17.92 17.93 17.92 17.92 0 0 1-17.92 17.92Z" style="fill:#263238;stroke:#263238;stroke-miterlimit:10"/><rect x="164.62" y="106.74" width="183.28" height="35.84" rx="17.92" style="fill:#a3a3a3;stroke:#263238;stroke-linecap:round;stroke-linejoin:round"/><path style="fill:#263238;stroke:#263238;stroke-miterlimit:10" d="M234.49 162.26v45.78h42v-43.78l-42-2"/><path style="fill:#105f38;stroke:#263238;stroke-miterlimit:10" d="M281.85 205.25h-43.7l-3.66-42.99h43.69l3.67 42.99z"/><path d="M314.84 234.79s-27.36-20.28-28.7-21.43-5-5.55-6.31-7.08-9-3.83-9-3.83-4-2.87-4.78-4-3.06.58-1.72 2.87 4.59 4.21 4.59 4.21h-16.07s7.46 6.89 8.8 8.23 15.69 1.92 15.69 1.92 11.29 16.45 20.09 24.3 19.32 13.39 21.24 13 2.68-4 2.1-5.55-5.93-12.64-5.93-12.64Z" style="fill:#fff;stroke:#263238;stroke-miterlimit:10"/><path d="m258.4 206.47 5.93 3.25s7.84-3.44 9.95-2.87 4.21 3.26 4.21 3.26" style="fill:none;stroke:#263238;stroke-miterlimit:10"/><path d="m344 307.11 3.93 68.63s-2.36 16.5-.27 23.31 3.34 25.67 3.34 25.67-2.1 3.15-1.57 4.2 2.35 7.85 2.35 7.85l.79 3.67s5-2.36 6.81-2.36 5.76 2.89 5.76 2.89 4.2-7.08 3.93-9.17-2.09-4.19-2.09-5.5.52-3.93.52-6-.26-.52-.26-6.29 2.1-52.38 2.1-53.17 5.23-39 5.23-39l9.17 40.6s-1.57 22.53 0 36.94a245.6 245.6 0 0 1 1.31 27.76s-2.88 5-2.09 5.76a28.36 28.36 0 0 1 2.35 3.41s-.78 2.88-.26 4.45l.53 1.57 15.19-5.5 3.67 1.05a9.25 9.25 0 0 0 .26-4.45c-.53-2.1-1.84-4.19-1.57-5.24a43.42 43.42 0 0 0 .78-4.72c.26-2.09-.26-5-.26-7.07s2.88-56 2.62-57.36-2.88-52.13-2.88-52.13Z" style="fill:#105f38;stroke:#263238;stroke-miterlimit:10"/><path style="fill:none;stroke:#263238;stroke-miterlimit:10" d="m376.33 317.42 11.64-4.06M386.78 434s15.88-4.93 13.72-5.39-9.1 1.69-9.71 2M353.93 436.73s12.8-5.24 12.95-4.47-2.93 2.46-2.93 2.46M366.58 430.1s-13.27-2.62-14.19-3.55 2.47-1.39 2.47-1.39"/><path d="M352.61 440.44s-2.07 9.09-2.69 11.25-1.54 5.55-.46 6.78 6.17 2 11.41 1.7 6.78-1.7 7.09-3.08-1.08-6.79-1.54-8.95-1.24-7.17-1.24-7.17-3.81-2.46-5.76-2.89-6.81 2.36-6.81 2.36Z" style="fill:#fff;stroke:#263238;stroke-miterlimit:10"/><path d="M349 456.11a3.31 3.31 0 0 0 .47 2.36c1.08 1.24 6.17 2 11.41 1.7s6.78-1.7 7.09-3.08a4.27 4.27 0 0 0 0-1.21 24 24 0 0 1-8.11 1.64 41.55 41.55 0 0 1-10.86-1.41Z" style="fill:none;stroke:#263238;stroke-miterlimit:10"/><path d="M385.62 442.27s-.38 11 .23 12.19 8 1.24 11.11 1.85 6.94 1.86 8.94 2.16 11.57.16 13-.61 1.24-3.24-.15-4.63-3.7-1.54-6.32-3.55-6.94-6.63-7.41-8a16.44 16.44 0 0 1-.49-3.84l-3.67-1.05Z" style="fill:#fff;stroke:#263238;stroke-miterlimit:10"/><path d="M418.94 453.53a13.76 13.76 0 0 1-6.54 3c-5.27 1-10.94-1.75-15.62-2.34a88.43 88.43 0 0 1-11.24-2.54 10.47 10.47 0 0 0 .31 2.8c.62 1.24 8 1.24 11.11 1.85s6.94 1.86 8.94 2.16 11.57.16 13-.61 1.19-2.85.04-4.32Z" style="fill:none;stroke:#263238;stroke-miterlimit:10"/><path d="M368.88 205.67s-21.24 3.25-23.92 4.4-8 8.42-8 8.42l-20 13.24-3.45 1.34s6.12 21.81 7.27 22 23.24-10 23.24-10l-1.15 42.29-1.92 23s6.32 1.15 24.69 1.72 40.75-2.29 41.33-2.29 1-44.2 1-44.2l.39-9 14.35-10.14s-12.06-28.89-13-32.14-2.11-4.79-5.17-6.32-15.5-3.82-15.5-3.82Z" style="fill:#263238;stroke:#263238;stroke-miterlimit:10"/><path style="fill:#fff;stroke:#263238;stroke-linecap:round;stroke-linejoin:round" d="m368.79 218.24-6.9-9.55 5.05-3.22 1.85 12.77zM361.89 208.69l-1.84 8.73 5.67-3.07-3.83-5.66z"/><path d="M359.47 161.59s-5.11 9.77-4.66 11.27a17.5 17.5 0 0 1 .61 2.85s-6.77 7.82-5.56 9.17a19.24 19.24 0 0 0 3.3 2.7s1 8.72 1 9.32-.75 4.36.75 5.56a5.93 5.93 0 0 0 4.51 1c1.2-.15 5.11-1.35 5.11-1.35s3.31 17.43 4.21 16.08 18-16.08 18-16.08l-.6-8.27s8.86-13.22 9.16-16.07-4.05-15.33-5.56-17.28-17-5.86-22.53-5.41-9.39 3.5-7.74 6.51Z" style="fill:#fff;stroke:#263238;stroke-linecap:round;stroke-linejoin:round"/><path d="M372.09 198.7c1.21-1.5 2.56-18.93 3.31-20.28s4.81-2.41 6.31-1.35 1.5 8.11 0 10.51-3.31 1.66-.75 4.06a7.7 7.7 0 0 0 5.26 2.25s8.86-13.22 9.16-16.07-4.05-15.33-5.56-17.28-17-5.86-22.53-5.41-9.47 3.45-7.82 6.46a16.77 16.77 0 0 1 6.61.3c3.46.9 4.06 2.7 3.46 3.16s-5.11 2.7-4.51 4.65 7.66 6.16 7.66 6.16-1.2 7.22-1.5 9.77-3.45 5.56-3.45 5.56-8.57-5.11-11.57-4.36l-3 .75s1 8.72 1 9.32-.75 4.36.75 5.56a5.93 5.93 0 0 0 4.51 1c1.2-.15 5.11-1.35 5.11-1.35s6.35-1.9 7.55-3.41Z" style="fill:#263238;stroke:#263238;stroke-linecap:round;stroke-linejoin:round"/><path d="M361.58 174.36c-2-2.7-4.21-1.5-4.21-1.5" style="fill:none;stroke:#263238;stroke-linecap:round;stroke-linejoin:round"/><path d="M356.17 191.34a14 14 0 0 0 5.41-1.35" style="fill:none;stroke:#fff;stroke-linecap:round;stroke-linejoin:round"/><path d="M360.37 178.57c0 1-.4 1.8-.9 1.8s-.9-.81-.9-1.8.4-1.8.9-1.8.9.8.9 1.8Z" style="fill:#263238"/><path style="fill:none;stroke:#263238;stroke-linecap:round;stroke-linejoin:round" d="m370.46 211.84-1.67 6.4 4.43-3.43-2.76-2.97z"/><path style="fill:#fff;stroke:#263238;stroke-linecap:round;stroke-linejoin:round" d="m370.46 211.84 4.18 9.23 15.85-17.94-3.83-4.18-16.2 12.89z"/><path style="fill:none;stroke:#fff;stroke-miterlimit:10" d="m344.01 245.08-3.26-22M394.52 228.24l7.49 23.04"/><path d="M404.34 253.31s3.21 14.72 3.36 16.5 5.8 8.18 9.52 8.18 9.82-5.35 10.42-7.29-2.83-7.88-6.85-9.07-14.97-9.96-16.45-8.32Z" style="fill:#fff;stroke:#263238;stroke-miterlimit:10"/><path style="fill:#fff;stroke:#263238;stroke-miterlimit:10" d="m428.01 266.14 3.71 6.01-13.39-3.56-8.54.56 18.22-3.01z"/><path d="M413.67 266s-4.7-1.34-3.94 0 6.51 8.66 7.94 9.24 5.53.38 7.05-.19 7.93-1.48 9.17-2 4.57-.95 4.47-1.91-3.14-1.23-5-.85-5-2.24-5-2.24Z" style="fill:#fff;stroke:#263238;stroke-miterlimit:10"/><path style="fill:#a3a3a3;stroke:#263238;stroke-miterlimit:10" d="m393.95 269.96-28.71-4.98 65.06.58 22.2 4.4h-58.55z"/><path style="fill:#a3a3a3;stroke:#263238;stroke-miterlimit:10" d="M452.5 269.96h-58.55l12.62-41.14h58.55l-12.62 41.14z"/><path d="M427.6 272.46s-.35-8.29.26-8.79a1.37 1.37 0 0 1 2.27.77c.32 1.38.46 6 .67 7.43a3.23 3.23 0 0 1-.61 2.74 19.22 19.22 0 0 1-3.09-.15" style="fill:#fff;stroke:#263238;stroke-miterlimit:10"/><path d="M423.58 272.94c-.11-.74.34-8.82.34-8.82s.36-1.56 1.51-1.09 1.46 3.32 1.51 3.63 1 4.9 1.12 5.85a2.13 2.13 0 0 1-1.3 2.45c-1.23.61-4 .36-4 .36" style="fill:#fff;stroke:#263238;stroke-miterlimit:10"/><path d="M420.82 273.71c0-.74 1.09-9.62 1.09-9.62s.65-1.46 1.69-.78.81 3.53.8 3.85 0 5 0 5.95a2.13 2.13 0 0 1-1.74 2.16 7.9 7.9 0 0 1-2.74.21" style="fill:#fff;stroke:#263238;stroke-miterlimit:10"/><path d="M418.25 272.37c0-.58.86-7.59.86-7.59s.51-1.16 1.33-.62.64 2.79.63 3 0 3.94 0 4.7a1.7 1.7 0 0 1-1.38 1.71 6.43 6.43 0 0 1-2.16.16" style="fill:#fff;stroke:#263238;stroke-miterlimit:10"/><path d="M447.13 116.65a32.8 32.8 0 0 0-26.46 52.2l-12.31 16.07 20.05-8.53a32.8 32.8 0 1 0 18.72-59.74Z" style="fill:#fff;stroke:#263238;stroke-linecap:round;stroke-linejoin:round"/><path d="m435.92 161.06-12.52-8.82v-5l12.52-8.82v5.52l-8 5.81 8 5.81ZM440 164.6l10-33.37h3.66l-10 33.37ZM457.51 161.06v-5.52l8.07-5.85-8.07-5.77v-5.52l12.56 8.82v5Z" style="fill:#263238"/></svg>