<svg xmlns="http://www.w3.org/2000/svg" viewBox="0 0 500 500"><path style="fill:rgba(46,168,87,.282)" d="m375.43 165.07-5.21 9.02 5.21 9.02h10.36l5.21-9.02-5.21-9.02h-10.36zM359.35 174.37l-5.2 9.01 5.2 9.02h10.36l5.21-9.02-5.21-9.01h-10.36zM343.28 183.66l-5.21 9.02 5.21 9.02h10.36l5.21-9.02-5.21-9.02h-10.36zM327.2 174.37l-5.2 9.01 5.2 9.02h10.36l5.21-9.02-5.21-9.01H327.2zM401.87 192.4l5.2-9.02-5.2-9.01H391.5l-5.2 9.01 5.2 9.02h10.37zM417.94 183.11l1.67-2.89a86.8 86.8 0 0 0-2.11-15.15h-9.92l-5.21 9 5.21 9ZM385.79 201.7l5.21-9.02-5.21-9.02h-10.36l-5.21 9.02 5.21 9.02h10.36zM391.5 155.78l-5.2 9.01 5.2 9.02h10.37l5.2-9.02-5.2-9.01H391.5zM402.37 155.5l5.21 9h9.79a87.84 87.84 0 0 0-6.62-18h-3.17ZM198.6 174.37l-5.2 9.01 5.2 9.02h10.37l5.2-9.02-5.2-9.01H198.6zM369.71 192.96h-10.36l-5.2 9.01 5.2 9.02h10.36l5.21-9.02-5.21-9.01zM230.75 174.37l-5.2 9.01 5.2 9.02h10.37l5.2-9.02-5.2-9.01h-10.37zM214.68 165.07l-5.21 9.02 5.21 9.02h10.36l5.21-9.02-5.21-9.02h-10.36zM166.45 155.78l-5.2 9.01 5.2 9.02h10.37l5.2-9.02-5.2-9.01h-10.37zM182.53 165.07l-5.21 9.02 5.21 9.02h10.36l5.21-9.02-5.21-9.02h-10.36zM262.9 192.96l-5.2 9.01 5.2 9.02h10.36l5.21-9.02-5.21-9.01H262.9zM278.98 183.66l-5.21 9.02 5.21 9.02h10.36l5.21-9.02-5.21-9.02h-10.36zM295.05 192.96l-5.2 9.01 5.2 9.02h10.37l5.2-9.02-5.2-9.01h-10.37zM311.13 183.66l-5.21 9.02 5.21 9.02h10.36l5.21-9.02-5.21-9.02h-10.36zM246.83 183.66l-5.21 9.02 5.21 9.02h10.36l5.21-9.02-5.21-9.02h-10.36zM353.64 258.02h-10.36l-5.21 9.02 5.21 9.02h10.36l5.21-9.02-5.21-9.02zM160.74 294.65l5.21-9.02-5.21-9.02h-10.36l-5.21 9.02 5.21 9.02h10.36zM176.82 285.35l5.2-9.01-5.2-9.02h-10.37l-5.2 9.02 5.2 9.01h10.37zM192.89 276.06l5.21-9.02-5.21-9.02h-10.36l-5.21 9.02 5.21 9.02h10.36zM208.97 266.76l5.2-9.01-5.2-9.02H198.6l-5.2 9.02 5.2 9.01h10.37zM225.04 276.06l5.21-9.02-5.21-9.02h-10.36l-5.21 9.02 5.21 9.02h10.36zM128.59 294.65l5.21-9.02-5.21-9.02h-10.36l-5.21 9.02 5.21 9.02h10.36zM144.67 285.35l5.2-9.01-5.2-9.02H134.3l-5.2 9.02 5.2 9.01h10.37zM86.08 294.65h10.36l5.21-9.02-5.21-9.02H86.08l-5.21 9.02 5.21 9.02zM112.52 285.35l5.2-9.01-5.2-9.02h-10.37l-5.2 9.02 5.2 9.01h10.37zM241.12 266.76l5.2-9.01-5.2-9.02h-10.37l-5.2 9.02 5.2 9.01h10.37zM353.64 220.84h-10.36l-5.21 9.02 5.21 9.02h10.36l5.21-9.02-5.21-9.02zM353.64 239.43h-10.36l-5.21 9.02 5.21 9.02h10.36l5.21-9.02-5.21-9.02zM353.64 294.65l5.21-9.02-5.21-9.02h-10.36l-5.21 9.02 5.21 9.02h10.36zM273.26 266.76l5.21-9.01-5.21-9.02H262.9l-5.2 9.02 5.2 9.01h10.36zM369.71 229.58l5.21-9.01-5.21-9.02h-10.36l-5.2 9.02 5.2 9.01h10.36zM150.38 146.48l-5.21 9.02 5.21 9.02h10.36l5.21-9.02-5.21-9.02h-10.36zM305.42 266.76l5.2-9.01-5.2-9.02h-10.37l-5.2 9.02 5.2 9.01h10.37zM337.56 285.35l5.21-9.01-5.21-9.02H327.2l-5.2 9.02 5.2 9.01h10.36zM289.34 257.47l5.21-9.02-5.21-9.02h-10.36l-5.21 9.02 5.21 9.02h10.36zM321.49 276.06l5.21-9.02-5.21-9.02h-10.36l-5.21 9.02 5.21 9.02h10.36zM262.9 174.37l-5.2 9.01 5.2 9.02h10.36l5.21-9.02-5.21-9.01H262.9zM385.79 202.25h-10.36l-5.21 9.02 5.21 9.02h10.36l5.21-9.02-5.21-9.02zM96.44 276.06l5.21-9.02-5.21-9.02H86.08l-5.21 9.02 5.21 9.02h10.36zM417.94 201.7l2-3.52c-.11-3.77-.09-7.48-.15-11.25l-1.89-3.27h-10.32l-5.21 9 5.21 9ZM418.45 183.39l1.36 2.35c0-1.47-.08-3-.15-4.46ZM420 199.26l-1.55 2.74 1.92 3.33a128.2 128.2 0 0 1-.37-6.07ZM385.79 238.88l5.21-9.02-5.21-9.02h-10.36l-5.21 9.02 5.21 9.02h10.36zM369.71 267.32h-10.36l-5.2 9.02 5.2 9.01h10.36l5.21-9.01-5.21-9.02zM128.59 145.93l3.13-5.42c-4.85 1.75-9.28 3.54-13.29 5.42ZM369.71 248.73h-10.36l-5.2 9.02 5.2 9.01h10.36l5.21-9.01-5.21-9.02zM369.71 230.14h-10.36l-5.2 9.02 5.2 9.01h10.36l5.21-9.01-5.21-9.02zM295.05 174.37l-5.2 9.01 5.2 9.02h10.37l5.2-9.02-5.2-9.01h-10.37zM327.2 155.78l-5.2 9.01 5.2 9.02h10.36l5.21-9.02-5.21-9.01H327.2zM311.13 165.07l-5.21 9.02 5.21 9.02h10.36l5.21-9.02-5.21-9.02h-10.36zM369.71 322.54l5.21-9.02-5.21-9.02h-10.36l-5.2 9.02 5.2 9.02h10.36zM278.98 165.07l-5.21 9.02 5.21 9.02h10.36l5.21-9.02-5.21-9.02h-10.36zM391.5 137.19l-5.2 9.02 5.2 9.01h10.37l5.2-9.01-5.2-9.02H391.5zM375.43 146.48l-5.21 9.02 5.21 9.02h10.36l5.21-9.02-5.21-9.02h-10.36zM343.28 165.07l-5.21 9.02 5.21 9.02h10.36l5.21-9.02-5.21-9.02h-10.36zM407.58 145.93h2.94a49.58 49.58 0 0 0-6.47-11.93l-1.68 2.91ZM359.35 155.78l-5.2 9.01 5.2 9.02h10.36l5.21-9.02-5.21-9.01h-10.36zM369.71 285.91h-10.36l-5.2 9.02 5.2 9.01h10.36l5.21-9.01-5.21-9.02zM144.67 303.94l5.2-9.01-5.2-9.02H134.3l-5.2 9.02 5.2 9.01h10.37zM128.59 313.24l5.21-9.02-5.21-9.02h-10.36l-5.21 9.02 5.21 9.02h10.36zM112.52 303.94l5.2-9.01-5.2-9.02h-10.37l-5.2 9.02 5.2 9.01h10.37zM160.74 313.24l5.21-9.02-5.21-9.02h-10.36l-5.21 9.02 5.21 9.02h10.36zM176.82 303.94l5.2-9.01-5.2-9.02h-10.37l-5.2 9.02 5.2 9.01h10.37zM70 303.94h10.37l5.2-9.01-5.2-9.02H70l-5.2 9.02 5.2 9.01zM192.89 294.65l5.21-9.02-5.21-9.02h-10.36l-5.21 9.02 5.21 9.02h10.36zM70 285.35h10.37l5.2-9-5.2-9h-9c-1.09 1-2.15 2-3.15 3l-3.47 6ZM70 322.54h10.37l5.2-9.02-5.2-9.02H70l-5.2 9.02 5.2 9.02zM96.44 313.24l5.21-9.02-5.21-9.02H86.08l-5.21 9.02 5.21 9.02h10.36zM289.34 276.06l5.21-9.02-5.21-9.02h-10.36l-5.21 9.02 5.21 9.02h10.36zM321.49 294.65l5.21-9.02-5.21-9.02h-10.36l-5.21 9.02 5.21 9.02h10.36zM353.64 313.24l5.21-9.02-5.21-9.02h-10.36l-5.21 9.02 5.21 9.02h10.36zM305.42 285.35l5.2-9.01-5.2-9.02h-10.37l-5.2 9.02 5.2 9.01h10.37zM337.56 303.94l5.21-9.01-5.21-9.02H327.2l-5.2 9.02 5.2 9.01h10.36zM225.04 294.65l5.21-9.02-5.21-9.02h-10.36l-5.21 9.02 5.21 9.02h10.36zM273.26 285.35l5.21-9.01-5.21-9.02H262.9l-5.2 9.02 5.2 9.01h10.36zM208.97 285.35l5.2-9.01-5.2-9.02H198.6l-5.2 9.02 5.2 9.01h10.37zM241.12 285.35l5.2-9.01-5.2-9.02h-10.37l-5.2 9.02 5.2 9.01h10.37zM257.19 276.06l5.21-9.02-5.21-9.02h-10.36l-5.21 9.02 5.21 9.02h10.36zM401.87 210.99l5.2-9.02-5.2-9.01H391.5l-5.2 9.01 5.2 9.02h10.37zM144.67 229.58l5.2-9.01-5.2-9.02H134.3l-5.2 9.02 5.2 9.01h10.37zM128.59 238.88l5.21-9.02-5.21-9.02h-10.36l-5.21 9.02 5.21 9.02h10.36zM192.89 238.88l5.21-9.02-5.21-9.02h-10.36l-5.21 9.02 5.21 9.02h10.36zM160.74 238.88l5.21-9.02-5.21-9.02h-10.36l-5.21 9.02 5.21 9.02h10.36zM87.84 183.66a34.24 34.24 0 0 0 2.28 18h6.32l5.21-9-5.21-9ZM96.44 202.25h-6.09c2.27 5.45 5.47 10.16 8 14.79l3.33-5.77ZM102.15 192.96l-5.2 9.01 5.2 9.02h10.37l5.2-9.02-5.2-9.01h-10.37zM150.38 202.25l-5.21 9.02 5.21 9.02h10.36l5.21-9.02-5.21-9.02h-10.36zM117.72 220.57l-5.2-9h-10.37l-3.51 6.08c2 3.89 3.56 7.74 3.58 12h10.3ZM128.59 220.29l5.21-9.02-5.21-9.02h-10.36l-5.21 9.02 5.21 9.02h10.36zM160.74 257.47l5.21-9.02-5.21-9.02h-10.36l-5.21 9.02 5.21 9.02h10.36zM128.59 257.47l5.21-9.02-5.21-9.02h-10.36l-5.21 9.02 5.21 9.02h10.36zM134.3 192.96l-5.2 9.01 5.2 9.02h10.37l5.2-9.02-5.2-9.01H134.3zM198.6 211.55l-5.2 9.02 5.2 9.01h10.37l5.2-9.01-5.2-9.02H198.6zM176.82 248.17l5.2-9.01-5.2-9.02h-10.37l-5.2 9.02 5.2 9.01h10.37zM144.67 248.17l5.2-9.01-5.2-9.02H134.3l-5.2 9.02 5.2 9.01h10.37zM118.23 183.66l-5.21 9.02 5.21 9.02h10.36l5.21-9.02-5.21-9.02h-10.36zM102.15 174.37l-5.2 9.01 5.2 9.02h10.37l5.2-9.02-5.2-9.01h-10.37zM94.32 165.07a45.62 45.62 0 0 0-6.4 18h8.52l5.21-9-5.21-9ZM112.52 248.17l5.2-9-5.2-9h-10.31a22.24 22.24 0 0 1-3.89 11.4l3.83 6.63ZM176.82 229.58l5.2-9.01-5.2-9.02h-10.37l-5.2 9.02 5.2 9.01h10.37zM354.15 109l5.2 9h10.36l5.21-9-1.48-2.57c-3.59-2.18-7.5-4.34-11.78-6.44h-2.31ZM337.56 341.68H327.2l-5.2 9 5.2 9h4.58c2.55-1.48 5.31-2.95 8.31-4.37l2.68-4.64ZM214.68 108.75H225l5.21-9-.85-1.46c-2 1.12-3.83 2.25-5.48 3.39-3.39 2.35-6.54 4.47-9.62 6.44ZM214.68 202.25l-5.21 9.02 5.21 9.02h10.36l5.21-9.02-5.21-9.02h-10.36zM385.79 332.38h-10.36l-5.21 9 2.1 3.64a132.71 132.71 0 0 1 17.68-1.85l1-1.77ZM455.46 303.34a60.7 60.7 0 0 0-1.64-14l-3.22 5.58ZM273.27 378.86H262.9l-5.22 9 .71 1.21a62.32 62.32 0 0 0 18.68 1.24l1.41-2.45ZM293.23 83.43a149.38 149.38 0 0 0-17.61.9l3.38 5.83h10.36ZM353.64 332.38h-10.36l-5.21 9 5.21 9h8.85c.63-.22 1.25-.45 1.89-.66l4.83-8.36ZM278.98 108.75h10.36l5.21-9.02-5.21-9.02h-10.36l-5.21 9.02 5.21 9.02zM182.53 127.34h10.36l5.21-9-.48-.83c-4.93 2.38-10.33 4.66-16.72 7ZM102.15 173.81h10.37l5.2-9-5.2-9h-10l-.68.6L97 164.8ZM241.12 229.58l5.2-9.01-5.2-9.02h-10.37l-5.2 9.02 5.2 9.01h10.37zM214.68 220.84l-5.21 9.02 5.21 9.02h10.36l5.21-9.02-5.21-9.02h-10.36zM134.3 155.22h10.37l5.2-9-5.2-9h-3.16q-4.69 1.5-8.95 3l-3.46 6ZM85.57 332.11l-5.2-9H70l-4.81 8.34a38.11 38.11 0 0 0 7.24 9.69h7.94ZM160.74 332.38h-10.36l-5.21 9 5.12 8.87a43.3 43.3 0 0 1 7.15.15h3.3l5.21-9ZM85.57 257.75l-.8-1.39c-4.37 3.7-8.77 6.94-12.77 10.4h8.33ZM150.38 145.93h10.36l5.21-9-3.55-6.15c-3.41 1.07-7 2.19-11 3.36-1.94.58-3.82 1.15-5.66 1.72l-.62 1.07ZM69.5 304.22l-5.21-9h-6.55a58.08 58.08 0 0 0 .2 7.58c.33 3.77.79 7.24 1.37 10.46h5ZM101.65 341.4l-5.21-9H86.08l-5.21 9 4.89 8.46c.41.19.83.38 1.26.56h9.42ZM327.2 192.96l-5.2 9.01 5.2 9.02h10.36l5.21-9.02-5.21-9.01H327.2zM295.05 211.55l-5.2 9.02 5.2 9.01h10.37l5.2-9.01-5.2-9.02h-10.37zM311.13 202.25l-5.21 9.02 5.21 9.02h10.36l5.21-9.02-5.21-9.02h-10.36zM246.83 202.25l-5.21 9.02 5.21 9.02h10.36l5.21-9.02-5.21-9.02h-10.36zM278.98 202.25l-5.21 9.02 5.21 9.02h10.36l5.21-9.02-5.21-9.02h-10.36zM262.9 211.55l-5.2 9.02 5.2 9.01h10.36l5.21-9.01-5.21-9.02H262.9zM337.56 266.76l5.21-9.01-5.21-9.02H327.2l-5.2 9.02 5.2 9.01h10.36zM321.49 257.47l5.21-9.02-5.21-9.02h-10.36l-5.21 9.02 5.21 9.02h10.36zM337.56 230.14H327.2l-5.2 9.02 5.2 9.01h10.36l5.21-9.01-5.21-9.02zM337.56 211.55H327.2l-5.2 9.02 5.2 9.01h10.36l5.21-9.01-5.21-9.02zM353.64 220.29l5.21-9.02-5.21-9.02h-10.36l-5.21 9.02 5.21 9.02h10.36zM150.38 165.07l-5.21 9.02 5.21 9.02h10.36l5.21-9.02-5.21-9.02h-10.36zM134.3 155.78l-5.2 9.01 5.2 9.02h10.37l5.2-9.02-5.2-9.01H134.3zM118.23 146.48l-5.21 9.02 5.21 9.02h10.36l5.21-9.02-5.21-9.02h-10.36zM112.52 155.22l5.16-8.94a70.37 70.37 0 0 0-14.52 8.94ZM198.6 192.96l-5.2 9.01 5.2 9.02h10.37l5.2-9.02-5.2-9.01H198.6zM166.45 174.37l-5.2 9.01 5.2 9.02h10.37l5.2-9.02-5.2-9.01h-10.37zM230.75 192.96l-5.2 9.01 5.2 9.02h10.37l5.2-9.02-5.2-9.01h-10.37zM214.68 183.66l-5.21 9.02 5.21 9.02h10.36l5.21-9.02-5.21-9.02h-10.36zM182.53 183.66l-5.21 9.02 5.21 9.02h10.36l5.21-9.02-5.21-9.02h-10.36zM112.52 266.76l5.2-9.01-5.2-9.02h-10.37l-5.2 9.02 5.2 9.01h10.37zM94.68 164.52h1.76l3.94-6.83a41 41 0 0 0-5.7 6.83ZM160.74 276.06l5.21-9.02-5.21-9.02h-10.36l-5.21 9.02 5.21 9.02h10.36zM182.53 202.25l-5.21 9.02 5.21 9.02h10.36l5.21-9.02-5.21-9.02h-10.36zM128.59 276.06l5.21-9.02-5.21-9.02h-10.36l-5.21 9.02 5.21 9.02h10.36zM144.67 266.76l5.2-9.01-5.2-9.02H134.3l-5.2 9.02 5.2 9.01h10.37zM96.44 257.47l5.21-9-3.65-6.39c-.21.33-.43.66-.67 1A70.21 70.21 0 0 1 85.22 256l.86 1.49ZM150.38 183.66l-5.21 9.02 5.21 9.02h10.36l5.21-9.02-5.21-9.02h-10.36zM166.45 192.96l-5.2 9.01 5.2 9.02h10.37l5.2-9.02-5.2-9.01h-10.37zM118.23 165.07l-5.21 9.02 5.21 9.02h10.36l5.21-9.02-5.21-9.02h-10.36zM134.3 174.37l-5.2 9.01 5.2 9.02h10.37l5.2-9.02-5.2-9.01H134.3zM257.19 238.88l5.21-9.02-5.21-9.02h-10.36l-5.21 9.02 5.21 9.02h10.36zM289.34 238.88l5.21-9.02-5.21-9.02h-10.36l-5.21 9.02 5.21 9.02h10.36zM273.26 248.17l5.21-9.01-5.21-9.02H262.9l-5.2 9.02 5.2 9.01h10.36zM305.42 248.17l5.2-9.01-5.2-9.02h-10.37l-5.2 9.02 5.2 9.01h10.37zM321.49 238.88l5.21-9.02-5.21-9.02h-10.36l-5.21 9.02 5.21 9.02h10.36zM192.89 257.47l5.21-9.02-5.21-9.02h-10.36l-5.21 9.02 5.21 9.02h10.36zM176.82 266.76l5.2-9.01-5.2-9.02h-10.37l-5.2 9.02 5.2 9.01h10.37zM208.97 248.17l5.2-9.01-5.2-9.02H198.6l-5.2 9.02 5.2 9.01h10.37zM241.12 248.17l5.2-9.01-5.2-9.02h-10.37l-5.2 9.02 5.2 9.01h10.37zM225.04 257.47l5.21-9.02-5.21-9.02h-10.36l-5.21 9.02 5.21 9.02h10.36zM257.19 257.47l5.21-9.02-5.21-9.02h-10.36l-5.21 9.02 5.21 9.02h10.36zM375.43 108.75h1.63c-.84-.56-1.7-1.11-2.59-1.66ZM343.28 109.3l-5.21 9.02 5.21 9.02h10.36l5.21-9.02-5.21-9.02h-10.36zM431.38 239.27a100.45 100.45 0 0 1-4.61-9.13h-3.12l-5.2 9 5.2 9H434l1.2-2.08c-1.2-2.2-2.5-4.48-3.82-6.79ZM327.2 100.01l-5.2 9.02 5.2 9.01h10.36l5.21-9.01-5.21-9.02H327.2zM311.13 109.3l-5.21 9.02 5.21 9.02h10.36l5.21-9.02-5.21-9.02h-10.36zM434.01 266.76l5.21-9.01-5.21-9.02h-10.36l-5.2 9.02 5.2 9.01h10.36zM417.94 276.61h-10.36l-5.21 9.02 5.21 9.02h10.36l5.21-9.02-5.21-9.02zM417.94 295.2h-10.36l-5.21 9.02 5.21 9.02h10.36l5.21-9.02-5.21-9.02zM417.94 258.02h-10.36l-5.21 9.02 5.21 9.02h10.36l5.21-9.02-5.21-9.02zM295.05 118.6l-5.2 9.01 5.2 9.02h10.37l5.2-9.02-5.2-9.01h-10.37zM225.04 369.01l5.21-9.02-5.21-9.02h-10.36l-5.21 9.02 5.21 9.02h10.36zM278.98 109.3l-5.21 9.02 5.21 9.02h10.36l5.21-9.02-5.21-9.02h-10.36zM192.89 351h-10.36l-3.41 5.91c5.22 2.2 10.75 4.75 16.48 7.44l2.5-4.33ZM417.94 313.79h-10.36l-5.21 9.02 5.21 9.02h10.36l5.21-9.02-5.21-9.02zM257.19 350.42l5.21-9.02-5.21-9.02h-10.36l-5.21 9.02 5.21 9.02h10.36zM241.12 359.71l5.2-9.01-5.2-9.02h-10.37l-5.2 9.02 5.2 9.01h10.37zM208.97 359.71l5.2-9.01-5.2-9.02H198.6l-5.2 9.02 5.2 9.01h10.37zM198.6 118H209l5.2-9-.35-.61a157.27 157.27 0 0 1-15.68 8.83ZM262.9 118.6l-5.2 9.01 5.2 9.02h10.36l5.21-9.02-5.21-9.01H262.9zM246.83 109.3l-5.21 9.02 5.21 9.02h10.36l5.21-9.02-5.21-9.02h-10.36zM230.75 100.01l-5.2 9.02 5.2 9.01h10.37l5.2-9.01-5.2-9.02h-10.37zM407.58 332.38l-5.21 9 1 1.65c7 .1 13.31.3 19-.25l.81-1.4-5.21-9ZM130.76 354.73l-2.17-3.73h-10.36l-3.65 6.33a53.38 53.38 0 0 0 16.18-2.6ZM144.67 341.68H134.3l-5.2 9 2.23 3.86c5.87-1.74 11.56-3.73 18.32-4.25ZM192.89 350.42l5.21-9.02-5.21-9.02h-10.36l-5.21 9.02 5.21 9.02h10.36zM176.82 341.68h-10.37l-5.2 9 .18.31a60.11 60.11 0 0 1 9.58 2.66c2.43.89 5 1.9 7.57 3l3.44-6ZM112.52 341.68h-10.37l-5.2 9 2.27 3.93c1.29.37 2.59.73 4 1.08a47.63 47.63 0 0 0 10.75 1.57l3.8-6.58ZM230.75 118.6l-5.2 9.01 5.2 9.02h10.37l5.2-9.02-5.2-9.01h-10.37zM214.68 109.3l-5.21 9.02 5.21 9.02h10.36l5.21-9.02-5.21-9.02h-10.36zM246.83 127.89l-5.21 9.02 5.21 9.02h10.36l5.21-9.02-5.21-9.02h-10.36zM208.97 341.12l5.2-9.01-5.2-9.02H198.6l-5.2 9.02 5.2 9.01h10.37zM198.6 118.6l-5.2 9.01 5.2 9.02h10.37l5.2-9.02-5.2-9.01H198.6zM343.28 351l-2.28 3.92c2.93-1.36 6.09-2.68 9.54-3.95ZM305.42 341.12l5.2-9.01-5.2-9.02h-10.37l-5.2 9.02 5.2 9.01h10.37zM321.49 350.42l5.21-9.02-5.21-9.02h-10.36l-5.21 9.02 5.21 9.02h10.36zM225.04 350.42l5.21-9.02-5.21-9.02h-10.36l-5.21 9.02 5.21 9.02h10.36zM423.05 342.72a45.65 45.65 0 0 0 6-1h-5.41ZM273.26 359.71l5.21-9.01-5.21-9.02H262.9l-5.2 9.02 5.2 9.01h10.36zM241.12 341.12l5.2-9.01-5.2-9.02h-10.37l-5.2 9.02 5.2 9.01h10.37zM257.19 331.83l5.21-9.02-5.21-9.02h-10.36l-5.21 9.02 5.21 9.02h10.36zM289.34 331.83l5.21-9.02-5.21-9.02h-10.36l-5.21 9.02 5.21 9.02h10.36zM273.26 341.12l5.21-9.01-5.21-9.02H262.9l-5.2 9.02 5.2 9.01h10.36zM96.44 351h-8.09a103.1 103.1 0 0 0 10.08 3.44ZM305.42 378.31l5.2-9.02-5.2-9.02h-10.37l-5.2 9.02 5.2 9.02h10.37zM289.34 369.01l5.21-9.02-5.21-9.02h-10.36l-5.21 9.02 5.21 9.02h10.36zM311.13 369.57l-5.05 8.74c3.71-2.71 7.33-5.68 11.3-8.74ZM273.26 378.31l5.21-9.02-5.21-9.02H262.9l-5.2 9.02 5.2 9.02h10.36zM305.32 378.86h-10.27l-4.78 8.28a62.93 62.93 0 0 0 15.05-8.28ZM450.11 313.79h-10.38l-5.21 9 5.21 9h5.11c.58-.69 1.15-1.41 1.72-2.18a46.3 46.3 0 0 0 6.18-11.31ZM241.12 378.86h-10.37l-.66 1.15c5 2.06 10 3.93 14.87 5.52ZM230.25 378.58l-5.21-9h-10.36l-1.68 2.91c5.48 2.54 11 5 16.56 7.31ZM241.12 360.27h-10.37l-5.2 9.02 5.2 9.02h10.37l5.2-9.02-5.2-9.02zM209 360.27h-10.4l-2.48 4.29c5.32 2.5 10.8 5.12 16.34 7.69l1.71-3ZM257.19 369.01l5.21-9.02-5.21-9.02h-10.36l-5.21 9.02 5.21 9.02h10.36zM450.6 313.52l2.39 4.15a43.14 43.14 0 0 0 2.41-12.48ZM257.19 388.15h-3.09c1.2.3 2.38.57 3.56.82ZM289 387.6l.47-.17 5.11-8.85-5.21-9H279l-5.21 9 5.21 9ZM450.11 295.2h-10.38l-5.21 9.02 5.21 9.02h10.38l5.21-9.02-5.21-9.02zM279 388.15l-1.21 2.11c.8-.1 1.6-.21 2.39-.35a60.58 60.58 0 0 0 7.11-1.76ZM449.9 276.61h-10.17l-5.21 9 5.21 9h10.38l3.52-6.08a101.72 101.72 0 0 0-3.73-11.92ZM289.85 90.43l5.2 9h10.37l5.2-9-3.62-6.26c-4.46-.44-8.84-.69-13.11-.74ZM257.7 90.43l5.2 9h10.37l5.2-9-3.48-6A142.81 142.81 0 0 0 259.67 87ZM257.19 387.6l5.21-9-5.21-9h-10.36l-5.21 9 4.16 7.21c2.08.66 4.14 1.27 6.18 1.81ZM246.83 90.71l-5.21 9.02 5.21 9.02h10.36l5.21-9.02-5.21-9.02h-10.36zM434.01 285.91h-10.36l-5.2 9.02 5.2 9.01h10.36l5.21-9.01-5.21-9.02zM434.01 304.5h-10.36l-5.2 9.02 5.2 9.02h10.36l5.21-9.02-5.21-9.02zM423.65 323.09l-5.2 9 5.2 9H431a29.77 29.77 0 0 0 3.87-1.5l4.33-7.51-5.2-9ZM449.69 276.06a188.85 188.85 0 0 0-8.13-18h-1.83l-5.21 9 5.21 9ZM434.01 267.32h-10.36l-5.2 9.02 5.2 9.01h10.36l5.21-9.01-5.21-9.02zM439.73 332.38l-3.91 6.77a29.35 29.35 0 0 0 8.53-6.77ZM305.42 359.71l5.2-9.01-5.2-9.02h-10.37l-5.2 9.02 5.2 9.01h10.37zM318.1 369a172.9 172.9 0 0 1 5.87-4.3l2.73-4.7-5.21-9h-10.36l-5.21 9 5.21 9ZM434.52 248.45l5.21 9h1.55q-2.67-5.25-5.74-10.79ZM327.2 360.27l-2.13 3.73c1.82-1.24 3.74-2.47 5.79-3.69ZM230.75 99.45h10.37l4.93-8.54A102.28 102.28 0 0 0 229.91 98ZM262.9 100.01l-5.2 9.02 5.2 9.01h10.36l5.21-9.01-5.21-9.02H262.9zM295.05 100.01l-5.2 9.02 5.2 9.01h10.37l5.2-9.01-5.2-9.02h-10.37zM289.34 350.42l5.21-9.02-5.21-9.02h-10.36l-5.21 9.02 5.21 9.02h10.36zM248.27 90.16h8.92l1.71-3c-3.73.91-7.28 1.91-10.63 3ZM322 90.43l5.2 9h10.36l4.44-7.6a157.42 157.42 0 0 0-17.91-5ZM343.28 108.75h10.36l5.21-9-.85-1.48q-5-2.33-10.73-4.52c-1.59-.61-3.17-1.18-4.75-1.73l-4.45 7.71ZM359.35 99.45h1.17l-1.61-.76ZM311.13 90.16h10.36l2-3.44a151.15 151.15 0 0 0-15.76-2.48ZM311.13 108.75h10.36l5.21-9.02-5.21-9.02h-10.36l-5.21 9.02 5.21 9.02zM311.13 127.89l-5.21 9.02 5.21 9.02h10.36l5.21-9.02-5.21-9.02h-10.36zM369.71 341.12l5.21-9.01-5.21-9.02h-10.36l-5.2 9.02 5.2 9.01h10.36zM385.79 258.02h-10.36l-5.21 9.02 5.21 9.02h10.36l5.21-9.02-5.21-9.02zM353.64 331.83l5.21-9.02-5.21-9.02h-10.36l-5.21 9.02 5.21 9.02h10.36zM385.79 276.61h-10.36l-5.21 9.02 5.21 9.02h10.36l5.21-9.02-5.21-9.02zM385.79 295.2h-10.36l-5.21 9.02 5.21 9.02h10.36l5.21-9.02-5.21-9.02zM385.79 331.83l5.21-9.02-5.21-9.02h-10.36l-5.21 9.02 5.21 9.02h10.36zM305.42 303.94l5.2-9.01-5.2-9.02h-10.37l-5.2 9.02 5.2 9.01h10.37zM289.34 294.65l5.21-9.02-5.21-9.02h-10.36l-5.21 9.02 5.21 9.02h10.36zM337.56 322.54l5.21-9.02-5.21-9.02H327.2l-5.2 9.02 5.2 9.02h10.36zM321.49 313.24l5.21-9.02-5.21-9.02h-10.36l-5.21 9.02 5.21 9.02h10.36zM391.5 136.63h10.36l1.82-3.15a87.43 87.43 0 0 0-12.67-14l-4.71 8.16ZM343.28 146.48l-5.21 9.02 5.21 9.02h10.36l5.21-9.02-5.21-9.02h-10.36zM375.43 127.89l-5.21 9.02 5.21 9.02h10.36l5.21-9.02-5.21-9.02h-10.36zM359.35 137.19l-5.2 9.02 5.2 9.01h10.36l5.21-9.01-5.21-9.02h-10.36zM327.2 137.19l-5.2 9.02 5.2 9.01h10.36l5.21-9.01-5.21-9.02H327.2zM273.26 303.94l5.21-9.01-5.21-9.02H262.9l-5.2 9.02 5.2 9.01h10.36zM385.79 239.43h-10.36l-5.21 9.02 5.21 9.02h10.36l5.21-9.02-5.21-9.02zM401.87 248.17l5.2-9.01-5.2-9.02H391.5l-5.2 9.02 5.2 9.01h10.37zM401.87 211.55H391.5l-5.2 9.02 5.2 9.01h10.37l5.2-9.01-5.2-9.02zM417.94 220.29l3.65-6.32c-.5-2.49-.83-4.9-1.08-7.27l-2.57-4.45h-10.36l-5.21 9 5.21 9ZM214.68 146.48l-5.21 9.02 5.21 9.02h10.36l5.21-9.02-5.21-9.02h-10.36zM64.29 276.06l2.2-3.81a39.44 39.44 0 0 0-2.95 3.81ZM144.67 136.63l.31-.54-1.72.54ZM69.5 322.81l-5.21-9h-4.88a61.77 61.77 0 0 0 5.46 17ZM64.29 294.65l5.21-9-5.21-9h-1.1a35.38 35.38 0 0 0-5.43 18ZM166.45 137.19l-5.2 9.02 5.2 9.01h10.37l5.2-9.01-5.2-9.02h-10.37zM182.53 146.48l-5.21 9.02 5.21 9.02h10.36l5.21-9.02-5.21-9.02h-10.36zM96.44 331.83l5.21-9.02-5.21-9.02H86.08l-5.21 9.02 5.21 9.02h10.36zM230.75 155.78l-5.2 9.01 5.2 9.02h10.37l5.2-9.02-5.2-9.01h-10.37zM311.13 146.48l-5.21 9.02 5.21 9.02h10.36l5.21-9.02-5.21-9.02h-10.36zM198.6 155.78l-5.2 9.01 5.2 9.02h10.37l5.2-9.02-5.2-9.01H198.6zM208.97 303.94l5.2-9.01-5.2-9.02H198.6l-5.2 9.02 5.2 9.01h10.37zM112.52 322.54l5.2-9.02-5.2-9.02h-10.37l-5.2 9.02 5.2 9.02h10.37zM192.89 313.24l5.21-9.02-5.21-9.02h-10.36l-5.21 9.02 5.21 9.02h10.36zM262.9 137.19l-5.2 9.02 5.2 9.01h10.36l5.21-9.01-5.21-9.02H262.9zM241.12 303.94l5.2-9.01-5.2-9.02h-10.37l-5.2 9.02 5.2 9.01h10.37zM257.19 294.65l5.21-9.02-5.21-9.02h-10.36l-5.21 9.02 5.21 9.02h10.36zM128.59 331.83l5.21-9.02-5.21-9.02h-10.36l-5.21 9.02 5.21 9.02h10.36zM144.67 322.54l5.2-9.02-5.2-9.02H134.3l-5.2 9.02 5.2 9.02h10.37zM160.74 331.83l5.21-9.02-5.21-9.02h-10.36l-5.21 9.02 5.21 9.02h10.36zM176.82 322.54l5.2-9.02-5.2-9.02h-10.37l-5.2 9.02 5.2 9.02h10.37zM225.04 313.24l5.21-9.02-5.21-9.02h-10.36l-5.21 9.02 5.21 9.02h10.36zM401.87 304.5H391.5l-5.2 9.02 5.2 9.02h10.37l5.2-9.02-5.2-9.02zM401.87 285.91H391.5l-5.2 9.02 5.2 9.01h10.37l5.2-9.01-5.2-9.02zM401.87 267.32H391.5l-5.2 9.02 5.2 9.01h10.37l5.2-9.01-5.2-9.02zM401.87 323.09H391.5l-5.2 9.02 5.2 9.01h10.37l5.2-9.01-5.2-9.02zM401.87 248.73H391.5l-5.2 9.02 5.2 9.01h10.37l5.2-9.01-5.2-9.02zM321.49 331.83l5.21-9.02-5.21-9.02h-10.36l-5.21 9.02 5.21 9.02h10.36zM337.56 341.12l5.21-9.01-5.21-9.02H327.2l-5.2 9.02 5.2 9.01h10.36zM417.94 257.47l5.21-9.02-5.21-9.02h-10.36l-5.21 9.02 5.21 9.02h10.36zM402.65 343l-.79-1.36H391.5l-.84 1.47c4.21-.11 8.21-.11 11.99-.11ZM371.72 345.15l-2-3.47h-10.37l-4.51 7.81c1.14-.38 2.3-.75 3.49-1.11a121.39 121.39 0 0 1 13.39-3.23ZM370.22 118.32l5.21 9h10.36l4.78-8.29a114.72 114.72 0 0 0-12.67-9.75h-2.47ZM295.05 155.78l-5.2 9.01 5.2 9.02h10.37l5.2-9.02-5.2-9.01h-10.37zM246.83 165.07l-5.21 9.02 5.21 9.02h10.36l5.21-9.02-5.21-9.02h-10.36zM278.98 127.89l-5.21 9.02 5.21 9.02h10.36l5.21-9.02-5.21-9.02h-10.36zM327.2 118.6l-5.2 9.01 5.2 9.02h10.36l5.21-9.02-5.21-9.01H327.2zM359.35 118.6l-5.2 9.01 5.2 9.02h10.36l5.21-9.02-5.21-9.01h-10.36zM343.28 127.89l-5.21 9.02 5.21 9.02h10.36l5.21-9.02-5.21-9.02h-10.36zM426.52 229.58a76.31 76.31 0 0 1-4.75-14.77l-3.32 5.76 5.2 9ZM305.42 322.54l5.2-9.02-5.2-9.02h-10.37l-5.2 9.02 5.2 9.02h10.37zM417.94 220.84h-10.36l-5.21 9.02 5.21 9.02h10.36l5.21-9.02-5.21-9.02zM295.05 137.19l-5.2 9.02 5.2 9.01h10.37l5.2-9.01-5.2-9.02h-10.37zM289.34 313.24l5.21-9.02-5.21-9.02h-10.36l-5.21 9.02 5.21 9.02h10.36zM198.6 137.19l-5.2 9.02 5.2 9.01h10.37l5.2-9.01-5.2-9.02H198.6zM163 130.58l3.49 6h10.37l5.2-9-1.67-2.9c-5.12 1.9-10.83 3.82-17.39 5.9ZM214.68 127.89l-5.21 9.02 5.21 9.02h10.36l5.21-9.02-5.21-9.02h-10.36zM80.37 341.68H73a45.8 45.8 0 0 0 11.82 7.77ZM112.52 341.12l5.2-9.01-5.2-9.02h-10.37l-5.2 9.02 5.2 9.01h10.37zM278.98 146.48l-5.21 9.02 5.21 9.02h10.36l5.21-9.02-5.21-9.02h-10.36zM230.75 137.19l-5.2 9.02 5.2 9.01h10.37l5.2-9.01-5.2-9.02h-10.37zM262.9 155.78l-5.2 9.01 5.2 9.02h10.36l5.21-9.02-5.21-9.01H262.9zM246.83 146.48l-5.21 9.02 5.21 9.02h10.36l5.21-9.02-5.21-9.02h-10.36zM182.53 127.89l-5.21 9.02 5.21 9.02h10.36l5.21-9.02-5.21-9.02h-10.36zM241.12 322.54l5.2-9.02-5.2-9.02h-10.37l-5.2 9.02 5.2 9.02h10.37zM257.19 313.24l5.21-9.02-5.21-9.02h-10.36l-5.21 9.02 5.21 9.02h10.36zM273.26 322.54l5.21-9.02-5.21-9.02H262.9l-5.2 9.02 5.2 9.02h10.36zM128.59 350.42l5.21-9.02-5.21-9.02h-10.36l-5.21 9.02 5.21 9.02h10.36zM225.04 331.83l5.21-9.02-5.21-9.02h-10.36l-5.21 9.02 5.21 9.02h10.36zM208.97 322.54l5.2-9.02-5.2-9.02H198.6l-5.2 9.02 5.2 9.02h10.37zM144.67 341.12l5.2-9.01-5.2-9.02H134.3l-5.2 9.02 5.2 9.01h10.37zM176.82 341.12l5.2-9.01-5.2-9.02h-10.37l-5.2 9.02 5.2 9.01h10.37zM192.89 331.83l5.21-9.02-5.21-9.02h-10.36l-5.21 9.02 5.21 9.02h10.36z"/><g style="opacity:.6000000000000001"><path style="fill:rgba(46,168,87,.282)" d="m375.43 165.07-5.21 9.02 5.21 9.02h10.36l5.21-9.02-5.21-9.02h-10.36zM359.35 174.37l-5.2 9.01 5.2 9.02h10.36l5.21-9.02-5.21-9.01h-10.36zM343.28 183.66l-5.21 9.02 5.21 9.02h10.36l5.21-9.02-5.21-9.02h-10.36zM327.2 174.37l-5.2 9.01 5.2 9.02h10.36l5.21-9.02-5.21-9.01H327.2zM401.87 192.4l5.2-9.02-5.2-9.01H391.5l-5.2 9.01 5.2 9.02h10.37zM417.94 183.11l1.67-2.89a86.8 86.8 0 0 0-2.11-15.15h-9.92l-5.21 9 5.21 9ZM385.79 201.7l5.21-9.02-5.21-9.02h-10.36l-5.21 9.02 5.21 9.02h10.36zM391.5 155.78l-5.2 9.01 5.2 9.02h10.37l5.2-9.02-5.2-9.01H391.5zM402.37 155.5l5.21 9h9.79a87.84 87.84 0 0 0-6.62-18h-3.17ZM198.6 174.37l-5.2 9.01 5.2 9.02h10.37l5.2-9.02-5.2-9.01H198.6zM369.71 192.96h-10.36l-5.2 9.01 5.2 9.02h10.36l5.21-9.02-5.21-9.01zM230.75 174.37l-5.2 9.01 5.2 9.02h10.37l5.2-9.02-5.2-9.01h-10.37zM214.68 165.07l-5.21 9.02 5.21 9.02h10.36l5.21-9.02-5.21-9.02h-10.36zM166.45 155.78l-5.2 9.01 5.2 9.02h10.37l5.2-9.02-5.2-9.01h-10.37zM182.53 165.07l-5.21 9.02 5.21 9.02h10.36l5.21-9.02-5.21-9.02h-10.36zM262.9 192.96l-5.2 9.01 5.2 9.02h10.36l5.21-9.02-5.21-9.01H262.9zM278.98 183.66l-5.21 9.02 5.21 9.02h10.36l5.21-9.02-5.21-9.02h-10.36zM295.05 192.96l-5.2 9.01 5.2 9.02h10.37l5.2-9.02-5.2-9.01h-10.37zM311.13 183.66l-5.21 9.02 5.21 9.02h10.36l5.21-9.02-5.21-9.02h-10.36zM246.83 183.66l-5.21 9.02 5.21 9.02h10.36l5.21-9.02-5.21-9.02h-10.36zM353.64 258.02h-10.36l-5.21 9.02 5.21 9.02h10.36l5.21-9.02-5.21-9.02zM160.74 294.65l5.21-9.02-5.21-9.02h-10.36l-5.21 9.02 5.21 9.02h10.36zM176.82 285.35l5.2-9.01-5.2-9.02h-10.37l-5.2 9.02 5.2 9.01h10.37zM192.89 276.06l5.21-9.02-5.21-9.02h-10.36l-5.21 9.02 5.21 9.02h10.36zM208.97 266.76l5.2-9.01-5.2-9.02H198.6l-5.2 9.02 5.2 9.01h10.37zM225.04 276.06l5.21-9.02-5.21-9.02h-10.36l-5.21 9.02 5.21 9.02h10.36zM128.59 294.65l5.21-9.02-5.21-9.02h-10.36l-5.21 9.02 5.21 9.02h10.36zM144.67 285.35l5.2-9.01-5.2-9.02H134.3l-5.2 9.02 5.2 9.01h10.37zM86.08 294.65h10.36l5.21-9.02-5.21-9.02H86.08l-5.21 9.02 5.21 9.02zM112.52 285.35l5.2-9.01-5.2-9.02h-10.37l-5.2 9.02 5.2 9.01h10.37zM241.12 266.76l5.2-9.01-5.2-9.02h-10.37l-5.2 9.02 5.2 9.01h10.37zM353.64 220.84h-10.36l-5.21 9.02 5.21 9.02h10.36l5.21-9.02-5.21-9.02zM353.64 239.43h-10.36l-5.21 9.02 5.21 9.02h10.36l5.21-9.02-5.21-9.02zM353.64 294.65l5.21-9.02-5.21-9.02h-10.36l-5.21 9.02 5.21 9.02h10.36zM273.26 266.76l5.21-9.01-5.21-9.02H262.9l-5.2 9.02 5.2 9.01h10.36zM369.71 229.58l5.21-9.01-5.21-9.02h-10.36l-5.2 9.02 5.2 9.01h10.36zM150.38 146.48l-5.21 9.02 5.21 9.02h10.36l5.21-9.02-5.21-9.02h-10.36zM305.42 266.76l5.2-9.01-5.2-9.02h-10.37l-5.2 9.02 5.2 9.01h10.37zM337.56 285.35l5.21-9.01-5.21-9.02H327.2l-5.2 9.02 5.2 9.01h10.36zM289.34 257.47l5.21-9.02-5.21-9.02h-10.36l-5.21 9.02 5.21 9.02h10.36zM321.49 276.06l5.21-9.02-5.21-9.02h-10.36l-5.21 9.02 5.21 9.02h10.36zM262.9 174.37l-5.2 9.01 5.2 9.02h10.36l5.21-9.02-5.21-9.01H262.9zM385.79 202.25h-10.36l-5.21 9.02 5.21 9.02h10.36l5.21-9.02-5.21-9.02zM96.44 276.06l5.21-9.02-5.21-9.02H86.08l-5.21 9.02 5.21 9.02h10.36zM417.94 201.7l2-3.52c-.11-3.77-.09-7.48-.15-11.25l-1.89-3.27h-10.32l-5.21 9 5.21 9ZM418.45 183.39l1.36 2.35c0-1.47-.08-3-.15-4.46ZM420 199.26l-1.55 2.74 1.92 3.33a128.2 128.2 0 0 1-.37-6.07ZM385.79 238.88l5.21-9.02-5.21-9.02h-10.36l-5.21 9.02 5.21 9.02h10.36zM369.71 267.32h-10.36l-5.2 9.02 5.2 9.01h10.36l5.21-9.01-5.21-9.02zM128.59 145.93l3.13-5.42c-4.85 1.75-9.28 3.54-13.29 5.42ZM369.71 248.73h-10.36l-5.2 9.02 5.2 9.01h10.36l5.21-9.01-5.21-9.02zM369.71 230.14h-10.36l-5.2 9.02 5.2 9.01h10.36l5.21-9.01-5.21-9.02zM295.05 174.37l-5.2 9.01 5.2 9.02h10.37l5.2-9.02-5.2-9.01h-10.37zM327.2 155.78l-5.2 9.01 5.2 9.02h10.36l5.21-9.02-5.21-9.01H327.2zM311.13 165.07l-5.21 9.02 5.21 9.02h10.36l5.21-9.02-5.21-9.02h-10.36zM369.71 322.54l5.21-9.02-5.21-9.02h-10.36l-5.2 9.02 5.2 9.02h10.36zM278.98 165.07l-5.21 9.02 5.21 9.02h10.36l5.21-9.02-5.21-9.02h-10.36zM391.5 137.19l-5.2 9.02 5.2 9.01h10.37l5.2-9.01-5.2-9.02H391.5zM375.43 146.48l-5.21 9.02 5.21 9.02h10.36l5.21-9.02-5.21-9.02h-10.36zM343.28 165.07l-5.21 9.02 5.21 9.02h10.36l5.21-9.02-5.21-9.02h-10.36zM407.58 145.93h2.94a49.58 49.58 0 0 0-6.47-11.93l-1.68 2.91ZM359.35 155.78l-5.2 9.01 5.2 9.02h10.36l5.21-9.02-5.21-9.01h-10.36zM369.71 285.91h-10.36l-5.2 9.02 5.2 9.01h10.36l5.21-9.01-5.21-9.02zM144.67 303.94l5.2-9.01-5.2-9.02H134.3l-5.2 9.02 5.2 9.01h10.37zM128.59 313.24l5.21-9.02-5.21-9.02h-10.36l-5.21 9.02 5.21 9.02h10.36zM112.52 303.94l5.2-9.01-5.2-9.02h-10.37l-5.2 9.02 5.2 9.01h10.37zM160.74 313.24l5.21-9.02-5.21-9.02h-10.36l-5.21 9.02 5.21 9.02h10.36zM176.82 303.94l5.2-9.01-5.2-9.02h-10.37l-5.2 9.02 5.2 9.01h10.37zM70 303.94h10.37l5.2-9.01-5.2-9.02H70l-5.2 9.02 5.2 9.01zM192.89 294.65l5.21-9.02-5.21-9.02h-10.36l-5.21 9.02 5.21 9.02h10.36zM70 285.35h10.37l5.2-9-5.2-9h-9c-1.09 1-2.15 2-3.15 3l-3.47 6ZM70 322.54h10.37l5.2-9.02-5.2-9.02H70l-5.2 9.02 5.2 9.02zM96.44 313.24l5.21-9.02-5.21-9.02H86.08l-5.21 9.02 5.21 9.02h10.36zM289.34 276.06l5.21-9.02-5.21-9.02h-10.36l-5.21 9.02 5.21 9.02h10.36zM321.49 294.65l5.21-9.02-5.21-9.02h-10.36l-5.21 9.02 5.21 9.02h10.36zM353.64 313.24l5.21-9.02-5.21-9.02h-10.36l-5.21 9.02 5.21 9.02h10.36zM305.42 285.35l5.2-9.01-5.2-9.02h-10.37l-5.2 9.02 5.2 9.01h10.37zM337.56 303.94l5.21-9.01-5.21-9.02H327.2l-5.2 9.02 5.2 9.01h10.36zM225.04 294.65l5.21-9.02-5.21-9.02h-10.36l-5.21 9.02 5.21 9.02h10.36zM273.26 285.35l5.21-9.01-5.21-9.02H262.9l-5.2 9.02 5.2 9.01h10.36zM208.97 285.35l5.2-9.01-5.2-9.02H198.6l-5.2 9.02 5.2 9.01h10.37zM241.12 285.35l5.2-9.01-5.2-9.02h-10.37l-5.2 9.02 5.2 9.01h10.37zM257.19 276.06l5.21-9.02-5.21-9.02h-10.36l-5.21 9.02 5.21 9.02h10.36zM401.87 210.99l5.2-9.02-5.2-9.01H391.5l-5.2 9.01 5.2 9.02h10.37zM144.67 229.58l5.2-9.01-5.2-9.02H134.3l-5.2 9.02 5.2 9.01h10.37zM128.59 238.88l5.21-9.02-5.21-9.02h-10.36l-5.21 9.02 5.21 9.02h10.36zM192.89 238.88l5.21-9.02-5.21-9.02h-10.36l-5.21 9.02 5.21 9.02h10.36zM160.74 238.88l5.21-9.02-5.21-9.02h-10.36l-5.21 9.02 5.21 9.02h10.36zM87.84 183.66a34.24 34.24 0 0 0 2.28 18h6.32l5.21-9-5.21-9ZM96.44 202.25h-6.09c2.27 5.45 5.47 10.16 8 14.79l3.33-5.77ZM102.15 192.96l-5.2 9.01 5.2 9.02h10.37l5.2-9.02-5.2-9.01h-10.37zM150.38 202.25l-5.21 9.02 5.21 9.02h10.36l5.21-9.02-5.21-9.02h-10.36zM117.72 220.57l-5.2-9h-10.37l-3.51 6.08c2 3.89 3.56 7.74 3.58 12h10.3ZM128.59 220.29l5.21-9.02-5.21-9.02h-10.36l-5.21 9.02 5.21 9.02h10.36zM160.74 257.47l5.21-9.02-5.21-9.02h-10.36l-5.21 9.02 5.21 9.02h10.36zM128.59 257.47l5.21-9.02-5.21-9.02h-10.36l-5.21 9.02 5.21 9.02h10.36zM134.3 192.96l-5.2 9.01 5.2 9.02h10.37l5.2-9.02-5.2-9.01H134.3zM198.6 211.55l-5.2 9.02 5.2 9.01h10.37l5.2-9.01-5.2-9.02H198.6zM176.82 248.17l5.2-9.01-5.2-9.02h-10.37l-5.2 9.02 5.2 9.01h10.37zM144.67 248.17l5.2-9.01-5.2-9.02H134.3l-5.2 9.02 5.2 9.01h10.37zM118.23 183.66l-5.21 9.02 5.21 9.02h10.36l5.21-9.02-5.21-9.02h-10.36zM102.15 174.37l-5.2 9.01 5.2 9.02h10.37l5.2-9.02-5.2-9.01h-10.37zM94.32 165.07a45.62 45.62 0 0 0-6.4 18h8.52l5.21-9-5.21-9ZM112.52 248.17l5.2-9-5.2-9h-10.31a22.24 22.24 0 0 1-3.89 11.4l3.83 6.63ZM176.82 229.58l5.2-9.01-5.2-9.02h-10.37l-5.2 9.02 5.2 9.01h10.37zM354.15 109l5.2 9h10.36l5.21-9-1.48-2.57c-3.59-2.18-7.5-4.34-11.78-6.44h-2.31ZM337.56 341.68H327.2l-5.2 9 5.2 9h4.58c2.55-1.48 5.31-2.95 8.31-4.37l2.68-4.64ZM214.68 108.75H225l5.21-9-.85-1.46c-2 1.12-3.83 2.25-5.48 3.39-3.39 2.35-6.54 4.47-9.62 6.44ZM214.68 202.25l-5.21 9.02 5.21 9.02h10.36l5.21-9.02-5.21-9.02h-10.36zM385.79 332.38h-10.36l-5.21 9 2.1 3.64a132.71 132.71 0 0 1 17.68-1.85l1-1.77ZM455.46 303.34a60.7 60.7 0 0 0-1.64-14l-3.22 5.58ZM273.27 378.86H262.9l-5.22 9 .71 1.21a62.32 62.32 0 0 0 18.68 1.24l1.41-2.45ZM293.23 83.43a149.38 149.38 0 0 0-17.61.9l3.38 5.83h10.36ZM353.64 332.38h-10.36l-5.21 9 5.21 9h8.85c.63-.22 1.25-.45 1.89-.66l4.83-8.36ZM278.98 108.75h10.36l5.21-9.02-5.21-9.02h-10.36l-5.21 9.02 5.21 9.02zM182.53 127.34h10.36l5.21-9-.48-.83c-4.93 2.38-10.33 4.66-16.72 7ZM102.15 173.81h10.37l5.2-9-5.2-9h-10l-.68.6L97 164.8ZM241.12 229.58l5.2-9.01-5.2-9.02h-10.37l-5.2 9.02 5.2 9.01h10.37zM214.68 220.84l-5.21 9.02 5.21 9.02h10.36l5.21-9.02-5.21-9.02h-10.36zM134.3 155.22h10.37l5.2-9-5.2-9h-3.16q-4.69 1.5-8.95 3l-3.46 6ZM85.57 332.11l-5.2-9H70l-4.81 8.34a38.11 38.11 0 0 0 7.24 9.69h7.94ZM160.74 332.38h-10.36l-5.21 9 5.12 8.87a43.3 43.3 0 0 1 7.15.15h3.3l5.21-9ZM85.57 257.75l-.8-1.39c-4.37 3.7-8.77 6.94-12.77 10.4h8.33ZM150.38 145.93h10.36l5.21-9-3.55-6.15c-3.41 1.07-7 2.19-11 3.36-1.94.58-3.82 1.15-5.66 1.72l-.62 1.07ZM69.5 304.22l-5.21-9h-6.55a58.08 58.08 0 0 0 .2 7.58c.33 3.77.79 7.24 1.37 10.46h5ZM101.65 341.4l-5.21-9H86.08l-5.21 9 4.89 8.46c.41.19.83.38 1.26.56h9.42ZM327.2 192.96l-5.2 9.01 5.2 9.02h10.36l5.21-9.02-5.21-9.01H327.2zM295.05 211.55l-5.2 9.02 5.2 9.01h10.37l5.2-9.01-5.2-9.02h-10.37zM311.13 202.25l-5.21 9.02 5.21 9.02h10.36l5.21-9.02-5.21-9.02h-10.36zM246.83 202.25l-5.21 9.02 5.21 9.02h10.36l5.21-9.02-5.21-9.02h-10.36zM278.98 202.25l-5.21 9.02 5.21 9.02h10.36l5.21-9.02-5.21-9.02h-10.36zM262.9 211.55l-5.2 9.02 5.2 9.01h10.36l5.21-9.01-5.21-9.02H262.9zM337.56 266.76l5.21-9.01-5.21-9.02H327.2l-5.2 9.02 5.2 9.01h10.36zM321.49 257.47l5.21-9.02-5.21-9.02h-10.36l-5.21 9.02 5.21 9.02h10.36zM337.56 230.14H327.2l-5.2 9.02 5.2 9.01h10.36l5.21-9.01-5.21-9.02zM337.56 211.55H327.2l-5.2 9.02 5.2 9.01h10.36l5.21-9.01-5.21-9.02zM353.64 220.29l5.21-9.02-5.21-9.02h-10.36l-5.21 9.02 5.21 9.02h10.36zM150.38 165.07l-5.21 9.02 5.21 9.02h10.36l5.21-9.02-5.21-9.02h-10.36zM134.3 155.78l-5.2 9.01 5.2 9.02h10.37l5.2-9.02-5.2-9.01H134.3zM118.23 146.48l-5.21 9.02 5.21 9.02h10.36l5.21-9.02-5.21-9.02h-10.36zM112.52 155.22l5.16-8.94a70.37 70.37 0 0 0-14.52 8.94ZM198.6 192.96l-5.2 9.01 5.2 9.02h10.37l5.2-9.02-5.2-9.01H198.6zM166.45 174.37l-5.2 9.01 5.2 9.02h10.37l5.2-9.02-5.2-9.01h-10.37zM230.75 192.96l-5.2 9.01 5.2 9.02h10.37l5.2-9.02-5.2-9.01h-10.37zM214.68 183.66l-5.21 9.02 5.21 9.02h10.36l5.21-9.02-5.21-9.02h-10.36zM182.53 183.66l-5.21 9.02 5.21 9.02h10.36l5.21-9.02-5.21-9.02h-10.36zM112.52 266.76l5.2-9.01-5.2-9.02h-10.37l-5.2 9.02 5.2 9.01h10.37zM94.68 164.52h1.76l3.94-6.83a41 41 0 0 0-5.7 6.83ZM160.74 276.06l5.21-9.02-5.21-9.02h-10.36l-5.21 9.02 5.21 9.02h10.36zM182.53 202.25l-5.21 9.02 5.21 9.02h10.36l5.21-9.02-5.21-9.02h-10.36zM128.59 276.06l5.21-9.02-5.21-9.02h-10.36l-5.21 9.02 5.21 9.02h10.36zM144.67 266.76l5.2-9.01-5.2-9.02H134.3l-5.2 9.02 5.2 9.01h10.37zM96.44 257.47l5.21-9-3.65-6.39c-.21.33-.43.66-.67 1A70.21 70.21 0 0 1 85.22 256l.86 1.49ZM150.38 183.66l-5.21 9.02 5.21 9.02h10.36l5.21-9.02-5.21-9.02h-10.36zM166.45 192.96l-5.2 9.01 5.2 9.02h10.37l5.2-9.02-5.2-9.01h-10.37zM118.23 165.07l-5.21 9.02 5.21 9.02h10.36l5.21-9.02-5.21-9.02h-10.36zM134.3 174.37l-5.2 9.01 5.2 9.02h10.37l5.2-9.02-5.2-9.01H134.3zM257.19 238.88l5.21-9.02-5.21-9.02h-10.36l-5.21 9.02 5.21 9.02h10.36zM289.34 238.88l5.21-9.02-5.21-9.02h-10.36l-5.21 9.02 5.21 9.02h10.36zM273.26 248.17l5.21-9.01-5.21-9.02H262.9l-5.2 9.02 5.2 9.01h10.36zM305.42 248.17l5.2-9.01-5.2-9.02h-10.37l-5.2 9.02 5.2 9.01h10.37zM321.49 238.88l5.21-9.02-5.21-9.02h-10.36l-5.21 9.02 5.21 9.02h10.36zM192.89 257.47l5.21-9.02-5.21-9.02h-10.36l-5.21 9.02 5.21 9.02h10.36zM176.82 266.76l5.2-9.01-5.2-9.02h-10.37l-5.2 9.02 5.2 9.01h10.37zM208.97 248.17l5.2-9.01-5.2-9.02H198.6l-5.2 9.02 5.2 9.01h10.37zM241.12 248.17l5.2-9.01-5.2-9.02h-10.37l-5.2 9.02 5.2 9.01h10.37zM225.04 257.47l5.21-9.02-5.21-9.02h-10.36l-5.21 9.02 5.21 9.02h10.36zM257.19 257.47l5.21-9.02-5.21-9.02h-10.36l-5.21 9.02 5.21 9.02h10.36zM375.43 108.75h1.63c-.84-.56-1.7-1.11-2.59-1.66ZM343.28 109.3l-5.21 9.02 5.21 9.02h10.36l5.21-9.02-5.21-9.02h-10.36zM431.38 239.27a100.45 100.45 0 0 1-4.61-9.13h-3.12l-5.2 9 5.2 9H434l1.2-2.08c-1.2-2.2-2.5-4.48-3.82-6.79ZM327.2 100.01l-5.2 9.02 5.2 9.01h10.36l5.21-9.01-5.21-9.02H327.2zM311.13 109.3l-5.21 9.02 5.21 9.02h10.36l5.21-9.02-5.21-9.02h-10.36zM434.01 266.76l5.21-9.01-5.21-9.02h-10.36l-5.2 9.02 5.2 9.01h10.36zM417.94 276.61h-10.36l-5.21 9.02 5.21 9.02h10.36l5.21-9.02-5.21-9.02zM417.94 295.2h-10.36l-5.21 9.02 5.21 9.02h10.36l5.21-9.02-5.21-9.02zM417.94 258.02h-10.36l-5.21 9.02 5.21 9.02h10.36l5.21-9.02-5.21-9.02zM295.05 118.6l-5.2 9.01 5.2 9.02h10.37l5.2-9.02-5.2-9.01h-10.37zM225.04 369.01l5.21-9.02-5.21-9.02h-10.36l-5.21 9.02 5.21 9.02h10.36zM278.98 109.3l-5.21 9.02 5.21 9.02h10.36l5.21-9.02-5.21-9.02h-10.36zM192.89 351h-10.36l-3.41 5.91c5.22 2.2 10.75 4.75 16.48 7.44l2.5-4.33ZM417.94 313.79h-10.36l-5.21 9.02 5.21 9.02h10.36l5.21-9.02-5.21-9.02zM257.19 350.42l5.21-9.02-5.21-9.02h-10.36l-5.21 9.02 5.21 9.02h10.36zM241.12 359.71l5.2-9.01-5.2-9.02h-10.37l-5.2 9.02 5.2 9.01h10.37zM208.97 359.71l5.2-9.01-5.2-9.02H198.6l-5.2 9.02 5.2 9.01h10.37zM198.6 118H209l5.2-9-.35-.61a157.27 157.27 0 0 1-15.68 8.83ZM262.9 118.6l-5.2 9.01 5.2 9.02h10.36l5.21-9.02-5.21-9.01H262.9zM246.83 109.3l-5.21 9.02 5.21 9.02h10.36l5.21-9.02-5.21-9.02h-10.36zM230.75 100.01l-5.2 9.02 5.2 9.01h10.37l5.2-9.01-5.2-9.02h-10.37zM407.58 332.38l-5.21 9 1 1.65c7 .1 13.31.3 19-.25l.81-1.4-5.21-9ZM130.76 354.73l-2.17-3.73h-10.36l-3.65 6.33a53.38 53.38 0 0 0 16.18-2.6ZM144.67 341.68H134.3l-5.2 9 2.23 3.86c5.87-1.74 11.56-3.73 18.32-4.25ZM192.89 350.42l5.21-9.02-5.21-9.02h-10.36l-5.21 9.02 5.21 9.02h10.36zM176.82 341.68h-10.37l-5.2 9 .18.31a60.11 60.11 0 0 1 9.58 2.66c2.43.89 5 1.9 7.57 3l3.44-6ZM112.52 341.68h-10.37l-5.2 9 2.27 3.93c1.29.37 2.59.73 4 1.08a47.63 47.63 0 0 0 10.75 1.57l3.8-6.58ZM230.75 118.6l-5.2 9.01 5.2 9.02h10.37l5.2-9.02-5.2-9.01h-10.37zM214.68 109.3l-5.21 9.02 5.21 9.02h10.36l5.21-9.02-5.21-9.02h-10.36zM246.83 127.89l-5.21 9.02 5.21 9.02h10.36l5.21-9.02-5.21-9.02h-10.36zM208.97 341.12l5.2-9.01-5.2-9.02H198.6l-5.2 9.02 5.2 9.01h10.37zM198.6 118.6l-5.2 9.01 5.2 9.02h10.37l5.2-9.02-5.2-9.01H198.6zM343.28 351l-2.28 3.92c2.93-1.36 6.09-2.68 9.54-3.95ZM305.42 341.12l5.2-9.01-5.2-9.02h-10.37l-5.2 9.02 5.2 9.01h10.37zM321.49 350.42l5.21-9.02-5.21-9.02h-10.36l-5.21 9.02 5.21 9.02h10.36zM225.04 350.42l5.21-9.02-5.21-9.02h-10.36l-5.21 9.02 5.21 9.02h10.36zM423.05 342.72a45.65 45.65 0 0 0 6-1h-5.41ZM273.26 359.71l5.21-9.01-5.21-9.02H262.9l-5.2 9.02 5.2 9.01h10.36zM241.12 341.12l5.2-9.01-5.2-9.02h-10.37l-5.2 9.02 5.2 9.01h10.37zM257.19 331.83l5.21-9.02-5.21-9.02h-10.36l-5.21 9.02 5.21 9.02h10.36zM289.34 331.83l5.21-9.02-5.21-9.02h-10.36l-5.21 9.02 5.21 9.02h10.36zM273.26 341.12l5.21-9.01-5.21-9.02H262.9l-5.2 9.02 5.2 9.01h10.36zM96.44 351h-8.09a103.1 103.1 0 0 0 10.08 3.44ZM305.42 378.31l5.2-9.02-5.2-9.02h-10.37l-5.2 9.02 5.2 9.02h10.37zM289.34 369.01l5.21-9.02-5.21-9.02h-10.36l-5.21 9.02 5.21 9.02h10.36zM311.13 369.57l-5.05 8.74c3.71-2.71 7.33-5.68 11.3-8.74ZM273.26 378.31l5.21-9.02-5.21-9.02H262.9l-5.2 9.02 5.2 9.02h10.36zM305.32 378.86h-10.27l-4.78 8.28a62.93 62.93 0 0 0 15.05-8.28ZM450.11 313.79h-10.38l-5.21 9 5.21 9h5.11c.58-.69 1.15-1.41 1.72-2.18a46.3 46.3 0 0 0 6.18-11.31ZM241.12 378.86h-10.37l-.66 1.15c5 2.06 10 3.93 14.87 5.52ZM230.25 378.58l-5.21-9h-10.36l-1.68 2.91c5.48 2.54 11 5 16.56 7.31ZM241.12 360.27h-10.37l-5.2 9.02 5.2 9.02h10.37l5.2-9.02-5.2-9.02zM209 360.27h-10.4l-2.48 4.29c5.32 2.5 10.8 5.12 16.34 7.69l1.71-3ZM257.19 369.01l5.21-9.02-5.21-9.02h-10.36l-5.21 9.02 5.21 9.02h10.36zM450.6 313.52l2.39 4.15a43.14 43.14 0 0 0 2.41-12.48ZM257.19 388.15h-3.09c1.2.3 2.38.57 3.56.82ZM289 387.6l.47-.17 5.11-8.85-5.21-9H279l-5.21 9 5.21 9ZM450.11 295.2h-10.38l-5.21 9.02 5.21 9.02h10.38l5.21-9.02-5.21-9.02zM279 388.15l-1.21 2.11c.8-.1 1.6-.21 2.39-.35a60.58 60.58 0 0 0 7.11-1.76ZM449.9 276.61h-10.17l-5.21 9 5.21 9h10.38l3.52-6.08a101.72 101.72 0 0 0-3.73-11.92ZM289.85 90.43l5.2 9h10.37l5.2-9-3.62-6.26c-4.46-.44-8.84-.69-13.11-.74ZM257.7 90.43l5.2 9h10.37l5.2-9-3.48-6A142.81 142.81 0 0 0 259.67 87ZM257.19 387.6l5.21-9-5.21-9h-10.36l-5.21 9 4.16 7.21c2.08.66 4.14 1.27 6.18 1.81ZM246.83 90.71l-5.21 9.02 5.21 9.02h10.36l5.21-9.02-5.21-9.02h-10.36zM434.01 285.91h-10.36l-5.2 9.02 5.2 9.01h10.36l5.21-9.01-5.21-9.02zM434.01 304.5h-10.36l-5.2 9.02 5.2 9.02h10.36l5.21-9.02-5.21-9.02zM423.65 323.09l-5.2 9 5.2 9H431a29.77 29.77 0 0 0 3.87-1.5l4.33-7.51-5.2-9ZM449.69 276.06a188.85 188.85 0 0 0-8.13-18h-1.83l-5.21 9 5.21 9ZM434.01 267.32h-10.36l-5.2 9.02 5.2 9.01h10.36l5.21-9.01-5.21-9.02zM439.73 332.38l-3.91 6.77a29.35 29.35 0 0 0 8.53-6.77ZM305.42 359.71l5.2-9.01-5.2-9.02h-10.37l-5.2 9.02 5.2 9.01h10.37zM318.1 369a172.9 172.9 0 0 1 5.87-4.3l2.73-4.7-5.21-9h-10.36l-5.21 9 5.21 9ZM434.52 248.45l5.21 9h1.55q-2.67-5.25-5.74-10.79ZM327.2 360.27l-2.13 3.73c1.82-1.24 3.74-2.47 5.79-3.69ZM230.75 99.45h10.37l4.93-8.54A102.28 102.28 0 0 0 229.91 98ZM262.9 100.01l-5.2 9.02 5.2 9.01h10.36l5.21-9.01-5.21-9.02H262.9zM295.05 100.01l-5.2 9.02 5.2 9.01h10.37l5.2-9.01-5.2-9.02h-10.37zM289.34 350.42l5.21-9.02-5.21-9.02h-10.36l-5.21 9.02 5.21 9.02h10.36zM248.27 90.16h8.92l1.71-3c-3.73.91-7.28 1.91-10.63 3ZM322 90.43l5.2 9h10.36l4.44-7.6a157.42 157.42 0 0 0-17.91-5ZM343.28 108.75h10.36l5.21-9-.85-1.48q-5-2.33-10.73-4.52c-1.59-.61-3.17-1.18-4.75-1.73l-4.45 7.71ZM359.35 99.45h1.17l-1.61-.76ZM311.13 90.16h10.36l2-3.44a151.15 151.15 0 0 0-15.76-2.48ZM311.13 108.75h10.36l5.21-9.02-5.21-9.02h-10.36l-5.21 9.02 5.21 9.02zM311.13 127.89l-5.21 9.02 5.21 9.02h10.36l5.21-9.02-5.21-9.02h-10.36zM369.71 341.12l5.21-9.01-5.21-9.02h-10.36l-5.2 9.02 5.2 9.01h10.36zM385.79 258.02h-10.36l-5.21 9.02 5.21 9.02h10.36l5.21-9.02-5.21-9.02zM353.64 331.83l5.21-9.02-5.21-9.02h-10.36l-5.21 9.02 5.21 9.02h10.36zM385.79 276.61h-10.36l-5.21 9.02 5.21 9.02h10.36l5.21-9.02-5.21-9.02zM385.79 295.2h-10.36l-5.21 9.02 5.21 9.02h10.36l5.21-9.02-5.21-9.02zM385.79 331.83l5.21-9.02-5.21-9.02h-10.36l-5.21 9.02 5.21 9.02h10.36zM305.42 303.94l5.2-9.01-5.2-9.02h-10.37l-5.2 9.02 5.2 9.01h10.37zM289.34 294.65l5.21-9.02-5.21-9.02h-10.36l-5.21 9.02 5.21 9.02h10.36zM337.56 322.54l5.21-9.02-5.21-9.02H327.2l-5.2 9.02 5.2 9.02h10.36zM321.49 313.24l5.21-9.02-5.21-9.02h-10.36l-5.21 9.02 5.21 9.02h10.36zM391.5 136.63h10.36l1.82-3.15a87.43 87.43 0 0 0-12.67-14l-4.71 8.16ZM343.28 146.48l-5.21 9.02 5.21 9.02h10.36l5.21-9.02-5.21-9.02h-10.36zM375.43 127.89l-5.21 9.02 5.21 9.02h10.36l5.21-9.02-5.21-9.02h-10.36zM359.35 137.19l-5.2 9.02 5.2 9.01h10.36l5.21-9.01-5.21-9.02h-10.36zM327.2 137.19l-5.2 9.02 5.2 9.01h10.36l5.21-9.01-5.21-9.02H327.2zM273.26 303.94l5.21-9.01-5.21-9.02H262.9l-5.2 9.02 5.2 9.01h10.36zM385.79 239.43h-10.36l-5.21 9.02 5.21 9.02h10.36l5.21-9.02-5.21-9.02zM401.87 248.17l5.2-9.01-5.2-9.02H391.5l-5.2 9.02 5.2 9.01h10.37zM401.87 211.55H391.5l-5.2 9.02 5.2 9.01h10.37l5.2-9.01-5.2-9.02zM417.94 220.29l3.65-6.32c-.5-2.49-.83-4.9-1.08-7.27l-2.57-4.45h-10.36l-5.21 9 5.21 9ZM214.68 146.48l-5.21 9.02 5.21 9.02h10.36l5.21-9.02-5.21-9.02h-10.36zM64.29 276.06l2.2-3.81a39.44 39.44 0 0 0-2.95 3.81ZM144.67 136.63l.31-.54-1.72.54ZM69.5 322.81l-5.21-9h-4.88a61.77 61.77 0 0 0 5.46 17ZM64.29 294.65l5.21-9-5.21-9h-1.1a35.38 35.38 0 0 0-5.43 18ZM166.45 137.19l-5.2 9.02 5.2 9.01h10.37l5.2-9.01-5.2-9.02h-10.37zM182.53 146.48l-5.21 9.02 5.21 9.02h10.36l5.21-9.02-5.21-9.02h-10.36zM96.44 331.83l5.21-9.02-5.21-9.02H86.08l-5.21 9.02 5.21 9.02h10.36zM230.75 155.78l-5.2 9.01 5.2 9.02h10.37l5.2-9.02-5.2-9.01h-10.37zM311.13 146.48l-5.21 9.02 5.21 9.02h10.36l5.21-9.02-5.21-9.02h-10.36zM198.6 155.78l-5.2 9.01 5.2 9.02h10.37l5.2-9.02-5.2-9.01H198.6zM208.97 303.94l5.2-9.01-5.2-9.02H198.6l-5.2 9.02 5.2 9.01h10.37zM112.52 322.54l5.2-9.02-5.2-9.02h-10.37l-5.2 9.02 5.2 9.02h10.37zM192.89 313.24l5.21-9.02-5.21-9.02h-10.36l-5.21 9.02 5.21 9.02h10.36zM262.9 137.19l-5.2 9.02 5.2 9.01h10.36l5.21-9.01-5.21-9.02H262.9zM241.12 303.94l5.2-9.01-5.2-9.02h-10.37l-5.2 9.02 5.2 9.01h10.37zM257.19 294.65l5.21-9.02-5.21-9.02h-10.36l-5.21 9.02 5.21 9.02h10.36zM128.59 331.83l5.21-9.02-5.21-9.02h-10.36l-5.21 9.02 5.21 9.02h10.36zM144.67 322.54l5.2-9.02-5.2-9.02H134.3l-5.2 9.02 5.2 9.02h10.37zM160.74 331.83l5.21-9.02-5.21-9.02h-10.36l-5.21 9.02 5.21 9.02h10.36zM176.82 322.54l5.2-9.02-5.2-9.02h-10.37l-5.2 9.02 5.2 9.02h10.37zM225.04 313.24l5.21-9.02-5.21-9.02h-10.36l-5.21 9.02 5.21 9.02h10.36zM401.87 304.5H391.5l-5.2 9.02 5.2 9.02h10.37l5.2-9.02-5.2-9.02zM401.87 285.91H391.5l-5.2 9.02 5.2 9.01h10.37l5.2-9.01-5.2-9.02zM401.87 267.32H391.5l-5.2 9.02 5.2 9.01h10.37l5.2-9.01-5.2-9.02zM401.87 323.09H391.5l-5.2 9.02 5.2 9.01h10.37l5.2-9.01-5.2-9.02zM401.87 248.73H391.5l-5.2 9.02 5.2 9.01h10.37l5.2-9.01-5.2-9.02zM321.49 331.83l5.21-9.02-5.21-9.02h-10.36l-5.21 9.02 5.21 9.02h10.36zM337.56 341.12l5.21-9.01-5.21-9.02H327.2l-5.2 9.02 5.2 9.01h10.36zM417.94 257.47l5.21-9.02-5.21-9.02h-10.36l-5.21 9.02 5.21 9.02h10.36zM402.65 343l-.79-1.36H391.5l-.84 1.47c4.21-.11 8.21-.11 11.99-.11ZM371.72 345.15l-2-3.47h-10.37l-4.51 7.81c1.14-.38 2.3-.75 3.49-1.11a121.39 121.39 0 0 1 13.39-3.23ZM370.22 118.32l5.21 9h10.36l4.78-8.29a114.72 114.72 0 0 0-12.67-9.75h-2.47ZM295.05 155.78l-5.2 9.01 5.2 9.02h10.37l5.2-9.02-5.2-9.01h-10.37zM246.83 165.07l-5.21 9.02 5.21 9.02h10.36l5.21-9.02-5.21-9.02h-10.36zM278.98 127.89l-5.21 9.02 5.21 9.02h10.36l5.21-9.02-5.21-9.02h-10.36zM327.2 118.6l-5.2 9.01 5.2 9.02h10.36l5.21-9.02-5.21-9.01H327.2zM359.35 118.6l-5.2 9.01 5.2 9.02h10.36l5.21-9.02-5.21-9.01h-10.36zM343.28 127.89l-5.21 9.02 5.21 9.02h10.36l5.21-9.02-5.21-9.02h-10.36zM426.52 229.58a76.31 76.31 0 0 1-4.75-14.77l-3.32 5.76 5.2 9ZM305.42 322.54l5.2-9.02-5.2-9.02h-10.37l-5.2 9.02 5.2 9.02h10.37zM417.94 220.84h-10.36l-5.21 9.02 5.21 9.02h10.36l5.21-9.02-5.21-9.02zM295.05 137.19l-5.2 9.02 5.2 9.01h10.37l5.2-9.01-5.2-9.02h-10.37zM289.34 313.24l5.21-9.02-5.21-9.02h-10.36l-5.21 9.02 5.21 9.02h10.36zM198.6 137.19l-5.2 9.02 5.2 9.01h10.37l5.2-9.01-5.2-9.02H198.6zM163 130.58l3.49 6h10.37l5.2-9-1.67-2.9c-5.12 1.9-10.83 3.82-17.39 5.9ZM214.68 127.89l-5.21 9.02 5.21 9.02h10.36l5.21-9.02-5.21-9.02h-10.36zM80.37 341.68H73a45.8 45.8 0 0 0 11.82 7.77ZM112.52 341.12l5.2-9.01-5.2-9.02h-10.37l-5.2 9.02 5.2 9.01h10.37zM278.98 146.48l-5.21 9.02 5.21 9.02h10.36l5.21-9.02-5.21-9.02h-10.36zM230.75 137.19l-5.2 9.02 5.2 9.01h10.37l5.2-9.01-5.2-9.02h-10.37zM262.9 155.78l-5.2 9.01 5.2 9.02h10.36l5.21-9.02-5.21-9.01H262.9zM246.83 146.48l-5.21 9.02 5.21 9.02h10.36l5.21-9.02-5.21-9.02h-10.36zM182.53 127.89l-5.21 9.02 5.21 9.02h10.36l5.21-9.02-5.21-9.02h-10.36zM241.12 322.54l5.2-9.02-5.2-9.02h-10.37l-5.2 9.02 5.2 9.02h10.37zM257.19 313.24l5.21-9.02-5.21-9.02h-10.36l-5.21 9.02 5.21 9.02h10.36zM273.26 322.54l5.21-9.02-5.21-9.02H262.9l-5.2 9.02 5.2 9.02h10.36zM128.59 350.42l5.21-9.02-5.21-9.02h-10.36l-5.21 9.02 5.21 9.02h10.36zM225.04 331.83l5.21-9.02-5.21-9.02h-10.36l-5.21 9.02 5.21 9.02h10.36zM208.97 322.54l5.2-9.02-5.2-9.02H198.6l-5.2 9.02 5.2 9.02h10.37zM144.67 341.12l5.2-9.01-5.2-9.02H134.3l-5.2 9.02 5.2 9.01h10.37zM176.82 341.12l5.2-9.01-5.2-9.02h-10.37l-5.2 9.02 5.2 9.01h10.37zM192.89 331.83l5.21-9.02-5.21-9.02h-10.36l-5.21 9.02 5.21 9.02h10.36z"/></g><path style="fill:#105f38" d="m381.79 408.68-74.12-19h69.97l75.81 19h-71.66zM117.71 408.68l74.12-19h-69.96l-75.82 19h71.66z"/><path d="M253.17 329.64s-.07-.35-.18-1" style="fill:none;stroke:#2e353a;stroke-miterlimit:10"/><path d="M252.66 326.68c-1.07-6.93-2.88-24.22 3.91-31.94 8.61-9.77 18.93-1.4 47.69 0s43.56-2.79 43.86-27.45S331.55 241 331.55 241h-10.66" style="fill:none;stroke:#fff;stroke-miterlimit:10;stroke-dasharray:2.007730007171631,2.007730007171631"/><path style="fill:none;stroke:#2e353a;stroke-miterlimit:10" d="M319.88 241.04h-1M318.88 165.29h1"/><path d="M321.88 165.29h36s10.85.94 10.4 13.46S349.78 203 350.93 228s43.81 21.27 49.62 46.3-36.87 23.78-40.84 36.7a22.11 22.11 0 0 0-1.8 9.18v18.45" style="fill:none;stroke:#fff;stroke-miterlimit:10;stroke-dasharray:1.9997600317001343,1.9997600317001343"/><path d="M357.91 339.64v1M186.36 94.43h-1" style="fill:none;stroke:#2e353a;stroke-miterlimit:10"/><path d="M183.37 94.43h-17.63s-48-.55-48 40c0 18.77 6.52 32.8 25.84 55.86s19 95.14 12.72 108.07-19.6 11-24.28 18c0 0-3.37 3.53-3.66 7.84-.23 3.39-.1 14.5 0 19.06" style="fill:none;stroke:#fff;stroke-miterlimit:10;stroke-dasharray:1.9882500171661377,1.9882500171661377"/><path d="M128.31 344.31v1" style="fill:none;stroke:#2e353a;stroke-miterlimit:10"/><path d="M197.15 146.64a12.29 12.29 0 0 0-6.15 1.66 16.49 16.49 0 0 0 .26-2.91 17 17 0 0 0-33.71-3.14 15 15 0 1 0-5.3 29.09h44.91a12.35 12.35 0 0 0 0-24.7ZM387 196.82a13.13 13.13 0 0 0-6.56 1.76 18.49 18.49 0 0 0 .27-3.09 18.1 18.1 0 0 0-35.89-3.34 16 16 0 1 0-5.65 31H387a13.15 13.15 0 0 0 0-26.3Z" style="stroke:#2e353a;stroke-miterlimit:10;fill:#b3b3b3"/><path style="fill:none;stroke:#2e353a;stroke-linecap:round;stroke-linejoin:round" d="M378.5 226.5h4M359 226.5h14M345.76 178.19a13 13 0 0 1 7.24-3M341 185.5a11.87 11.87 0 0 1 2-4.38"/><path d="M189.15 257.7a19.72 19.72 0 0 0-9.86 2.65 26.37 26.37 0 0 0 .41-4.65 27.19 27.19 0 0 0-53.92-5 24 24 0 1 0-8.48 46.53h71.85a19.76 19.76 0 0 0 0-39.51Z" style="stroke:#2e353a;stroke-miterlimit:10;fill:#b3b3b3"/><path d="M98.85 295.22A25.24 25.24 0 0 0 102 297M91 286a19 19 0 0 0 4.1 6.09M135.33 227a22.88 22.88 0 0 1 14.17-4M131 231a16.32 16.32 0 0 1 2.36-2.49" style="fill:none;stroke:#2e353a;stroke-linecap:round;stroke-linejoin:round"/><path style="stroke:#2e353a;stroke-miterlimit:10;fill:#455a64" d="M314.13 159.76h4.75v12.56h-4.75zM314.13 233.85h4.75v12.56h-4.75zM186.36 87.09h4.75v12.56h-4.75zM186.36 197.28h4.75v12.56h-4.75z"/><path style="stroke:#2e353a;stroke-miterlimit:10;fill:#b3b3b3" d="M190.66 80.14h125.03v27.08H190.66z"/><path style="stroke:#2e353a;stroke-miterlimit:10;fill:#26a437" d="M196.67 87.05h86.17v13.26h-86.17z"/><circle cx="294.51" cy="93.1" r="3.34" style="stroke:#2e353a;stroke-miterlimit:10;fill:#26a437"/><path d="M310.94 93.1a3.34 3.34 0 1 0-3.34 3.34 3.34 3.34 0 0 0 3.34-3.34Z" style="stroke:#2e353a;stroke-miterlimit:10;fill:#26a437"/><circle cx="275.02" cy="93.1" r="3.34" style="stroke:#2e353a;stroke-miterlimit:10;fill:#26a437"/><path style="stroke:#2e353a;stroke-miterlimit:10;fill:#2e353a" d="M195.41 107.22h115.54v9.27H195.41z"/><path style="stroke:#2e353a;stroke-miterlimit:10;fill:#b3b3b3" d="M190.66 116.49h125.03v27.08H190.66z"/><path style="stroke:#2e353a;stroke-miterlimit:10;fill:#26a437" d="M196.67 123.4h86.17v13.26h-86.17z"/><circle cx="294.51" cy="129.46" r="3.34" style="stroke:#2e353a;stroke-miterlimit:10;fill:#26a437"/><path d="M310.94 129.46a3.34 3.34 0 1 0-3.34 3.34 3.33 3.33 0 0 0 3.34-3.34Z" style="stroke:#2e353a;stroke-miterlimit:10;fill:#26a437"/><circle cx="275.02" cy="129.46" r="3.34" style="stroke:#2e353a;stroke-miterlimit:10;fill:#26a437"/><path style="stroke:#2e353a;stroke-miterlimit:10;fill:#2e353a" d="M195.41 143.58h115.54v9.27H195.41z"/><path style="stroke:#2e353a;stroke-miterlimit:10;fill:#b3b3b3" d="M190.66 152.85h125.03v27.08H190.66z"/><path style="stroke:#2e353a;stroke-miterlimit:10;fill:#26a437" d="M196.67 159.76h86.17v13.26h-86.17z"/><circle cx="294.51" cy="165.81" r="3.34" style="stroke:#2e353a;stroke-miterlimit:10;fill:#26a437"/><path d="M310.94 165.81a3.34 3.34 0 1 0-3.34 3.34 3.34 3.34 0 0 0 3.34-3.34Z" style="stroke:#2e353a;stroke-miterlimit:10;fill:#26a437"/><circle cx="275.02" cy="165.81" r="3.34" style="stroke:#2e353a;stroke-miterlimit:10;fill:#26a437"/><path style="stroke:#2e353a;stroke-miterlimit:10;fill:#2e353a" d="M195.41 179.93h115.54v9.27H195.41z"/><path style="stroke:#2e353a;stroke-miterlimit:10;fill:#b3b3b3" d="M190.66 189.2h125.03v27.08H190.66z"/><path style="stroke:#2e353a;stroke-miterlimit:10;fill:#26a437" d="M196.67 196.11h86.17v13.26h-86.17z"/><circle cx="294.51" cy="202.17" r="3.34" style="stroke:#2e353a;stroke-miterlimit:10;fill:#26a437"/><path d="M310.94 202.17a3.34 3.34 0 1 0-3.34 3.34 3.33 3.33 0 0 0 3.34-3.34Z" style="stroke:#2e353a;stroke-miterlimit:10;fill:#26a437"/><circle cx="275.02" cy="202.17" r="3.34" style="stroke:#2e353a;stroke-miterlimit:10;fill:#26a437"/><path style="stroke:#2e353a;stroke-miterlimit:10;fill:#2e353a" d="M195.41 216.29h115.54v9.27H195.41z"/><path style="stroke:#2e353a;stroke-miterlimit:10;fill:#b3b3b3" d="M190.66 225.56h125.03v27.08H190.66z"/><path style="stroke:#2e353a;stroke-miterlimit:10;fill:#26a437" d="M196.67 232.47h86.17v13.26h-86.17z"/><circle cx="294.51" cy="238.52" r="3.34" style="stroke:#2e353a;stroke-miterlimit:10;fill:#b3b3b3"/><path d="M310.94 238.52a3.34 3.34 0 1 0-3.34 3.34 3.34 3.34 0 0 0 3.34-3.34Z" style="stroke:#2e353a;stroke-miterlimit:10;fill:#26a437"/><circle cx="275.02" cy="238.52" r="3.34" style="stroke:#2e353a;stroke-miterlimit:10;fill:#26a437"/><path style="stroke:#2e353a;stroke-linecap:round;stroke-linejoin:round;fill:#455a64" d="M261.5 76.5h7M213 76.5h40.5M185.5 241v5M185.5 225.5V236"/><path d="m369.91 133.09-7-13.85a.76.76 0 1 0-1.36.67l6.69 14A1.06 1.06 0 0 0 368 135l7.08 13.27c.19.38.79.46 1.36.18s.87-.81.68-1.18l-6.2-13.71a1 1 0 0 0-1.01-.47ZM408.67 133.09l7.05-13.85a.75.75 0 0 1 1-.35.77.77 0 0 1 .35 1l-6.7 14a1 1 0 0 1 .22 1.09l-7.08 13.27c-.19.38-.8.46-1.36.18s-.87-.81-.69-1.18l6.21-13.71a1 1 0 0 1 1-.45Z" style="fill:#2e353a"/><path style="fill:#fff;stroke:#2e353a;stroke-linecap:round;stroke-linejoin:round" d="M411.35 148.87h-43.97l3.3-5.6h37.37l3.3 5.6zM367.38 148.87h43.96v5.6h-43.96z"/><path d="M388.6 152.91h-16.9a1.24 1.24 0 0 1-1.23-1.24 1.23 1.23 0 0 1 1.23-1.23h16.9a1.23 1.23 0 0 1 1.23 1.23 1.24 1.24 0 0 1-1.23 1.24Z" style="fill:#fff;stroke:#2e353a;stroke-miterlimit:10"/><circle cx="398.83" cy="151.52" r="1.08" style="fill:#fff;stroke:#2e353a;stroke-miterlimit:10"/><path d="M404.39 151.52a1.09 1.09 0 1 0-1.09 1.09 1.08 1.08 0 0 0 1.09-1.09Z" style="fill:#fff;stroke:#2e353a;stroke-miterlimit:10"/><circle cx="407.78" cy="151.52" r="1.08" style="fill:#fff;stroke:#2e353a;stroke-miterlimit:10"/><path d="M426.71 117.38a10.22 10.22 0 0 1 .21 2.09v.26M410.83 110.78a10.38 10.38 0 0 1 15.37 4.88M413.73 112.29a7.71 7.71 0 0 0-1.58.84" style="fill:none;stroke:#2e353a;stroke-linecap:round;stroke-linejoin:round;stroke-width:.5px"/><path d="M424.22 119.66a1.15 1.15 0 0 0 0-.19 7.71 7.71 0 0 0-7.71-7.71 6.78 6.78 0 0 0-1.2.1" style="fill:none;stroke:#2e353a;stroke-linecap:round;stroke-linejoin:round;stroke-width:.5px"/><path d="M421.72 119.6v-.13a5.2 5.2 0 0 0-5.2-5.2 5.13 5.13 0 0 0-3.14 1.07M415.43 116.82a2.82 2.82 0 0 0-.89.59" style="fill:none;stroke:#2e353a;stroke-linecap:round;stroke-linejoin:round;stroke-width:.5px"/><path d="M419.39 119.54v-.07a2.87 2.87 0 0 0-2.87-2.87M351.92 118a10.56 10.56 0 0 0-.11 1.49v.26M364.28 109.28a10.09 10.09 0 0 0-2.07-.21 10.4 10.4 0 0 0-9.86 7.08M367.9 110.78a10.46 10.46 0 0 0-2.11-1.07M361.59 111.79h.62a7.71 7.71 0 0 1 4.38 1.37" style="fill:none;stroke:#2e353a;stroke-linecap:round;stroke-linejoin:round;stroke-width:.5px"/><path d="M354.51 119.66v-.19a7.71 7.71 0 0 1 4.71-7.1M357 119.6v-.13a5.2 5.2 0 0 1 5.2-5.2 5.13 5.13 0 0 1 3.14 1.07" style="fill:none;stroke:#2e353a;stroke-linecap:round;stroke-linejoin:round;stroke-width:.5px"/><path d="M359.35 119.54a.15.15 0 0 1 0-.07 2.86 2.86 0 0 1 4.86-2.06" style="fill:none;stroke:#2e353a;stroke-linecap:round;stroke-linejoin:round;stroke-width:.5px"/><path d="m231.63 302.42-7-13.85a.75.75 0 0 0-1-.35.77.77 0 0 0-.35 1l6.7 14a1 1 0 0 0-.22 1.08l7.08 13.28c.19.37.8.45 1.36.18s.87-.81.69-1.19l-6.21-13.71a1.06 1.06 0 0 0-1.05-.44ZM270.4 302.42l7-13.85a.76.76 0 1 1 1.36.67l-6.69 14a1 1 0 0 1 .21 1.08l-7.08 13.28c-.19.37-.79.45-1.36.18s-.87-.81-.69-1.19l6.21-13.71a1.06 1.06 0 0 1 1.04-.46Z" style="fill:#2e353a"/><path style="fill:#fff;stroke:#2e353a;stroke-linecap:round;stroke-linejoin:round" d="M273.07 318.2h-43.96l3.29-5.59h37.37l3.3 5.59zM229.11 318.2h43.96v5.6h-43.96z"/><rect x="232.19" y="319.77" width="19.37" height="2.47" rx="1.23" style="fill:#fff;stroke:#2e353a;stroke-miterlimit:10"/><circle cx="260.55" cy="320.86" r="1.08" style="fill:#fff;stroke:#2e353a;stroke-miterlimit:10"/><path d="M266.11 320.86a1.09 1.09 0 1 0-1.08 1.08 1.08 1.08 0 0 0 1.08-1.08Z" style="fill:#fff;stroke:#2e353a;stroke-miterlimit:10"/><circle cx="269.5" cy="320.86" r="1.08" style="fill:#fff;stroke:#2e353a;stroke-miterlimit:10"/><path d="M283.44 279.79a10.41 10.41 0 0 1 5.21 9v.26M272.55 280.11a10.38 10.38 0 0 1 5.7-1.7 10.18 10.18 0 0 1 3.37.56M276.9 281.21a7.82 7.82 0 0 0-3 1.25M286 289v-.19a7.72 7.72 0 0 0-6.95-7.67M282 285.19a5.15 5.15 0 0 0-3.73-1.58 5.22 5.22 0 0 0-3.15 1.06M283.44 288.93v-.13a5.24 5.24 0 0 0-.41-2M277.55 286a2.88 2.88 0 0 0-1.29.72M281.11 288.87v-.07A2.86 2.86 0 0 0 279 286M213.68 287.06a10 10 0 0 0-.15 1.74v.26M219.83 279.24a10.5 10.5 0 0 0-5.62 5.86M229.62 280.11a10.35 10.35 0 0 0-5.69-1.7 10.22 10.22 0 0 0-2.09.21M218.11 283.75a7.72 7.72 0 0 1 10.2-1.29M216.23 289v-.19a7.75 7.75 0 0 1 .74-3.3M220.21 285.17a5.2 5.2 0 0 1 6.86-.5M218.74 288.93v-.13a5.11 5.11 0 0 1 .51-2.24M222.05 286.63a2.89 2.89 0 0 1 3.87.11M221.07 288.87v-.07a2.85 2.85 0 0 1 .34-1.35" style="fill:none;stroke:#2e353a;stroke-linecap:round;stroke-linejoin:round;stroke-width:.5px"/><path d="m69.32 218.09-7-13.85a.76.76 0 1 0-1.36.67l6.69 14a1.06 1.06 0 0 0-.25 1.09l7.08 13.28c.19.37.79.45 1.36.17s.87-.8.68-1.18l-6.2-13.71a1.06 1.06 0 0 0-1-.47ZM108.08 218.09l7-13.85a.75.75 0 0 1 1-.35.77.77 0 0 1 .35 1l-6.7 14A1 1 0 0 1 110 220l-7.08 13.28c-.19.37-.8.45-1.36.17s-.87-.8-.69-1.18l6.21-13.71a1.05 1.05 0 0 1 1-.47Z" style="fill:#2e353a"/><path style="fill:#fff;stroke:#2e353a;stroke-linecap:round;stroke-linejoin:round" d="M110.76 233.87H66.8l3.29-5.6h37.37l3.3 5.6zM66.79 233.87h43.96v5.6H66.79z"/><path d="M88 237.91H71.11a1.24 1.24 0 0 1-1.23-1.24 1.23 1.23 0 0 1 1.23-1.23H88a1.23 1.23 0 0 1 1.23 1.23 1.24 1.24 0 0 1-1.23 1.24Z" style="fill:#fff;stroke:#2e353a;stroke-miterlimit:10"/><circle cx="98.24" cy="236.52" r="1.08" style="fill:#fff;stroke:#2e353a;stroke-miterlimit:10"/><circle cx="102.71" cy="236.52" r="1.08" style="fill:#fff;stroke:#2e353a;stroke-miterlimit:10"/><path d="M108.27 236.52a1.09 1.09 0 1 0-1.08 1.09 1.08 1.08 0 0 0 1.08-1.09Z" style="fill:#fff;stroke:#2e353a;stroke-miterlimit:10"/><path d="M125.76 201.06a10.43 10.43 0 0 1 .57 3.41v.26M118 194.27a10.45 10.45 0 0 1 7.37 5.76M110.24 195.78a10.31 10.31 0 0 1 4.63-1.65M121.73 199.39a7.69 7.69 0 0 0-10.17-1.26M123.63 204.66a1.15 1.15 0 0 0 0-.19 7.72 7.72 0 0 0-.86-3.55M114.86 199.39a5.16 5.16 0 0 0-2.07 1M121.13 204.6v-.13a5.19 5.19 0 0 0-4.07-5.07M118.19 202.7a2.85 2.85 0 0 0-4.24-.29M118.8 204.54v-.07a2.82 2.82 0 0 0-.12-.83M59.8 194.23a10.4 10.4 0 0 0-8.58 10.24v.26M67.31 195.78a10.41 10.41 0 0 0-5-1.68M63.32 197a7.89 7.89 0 0 1 2.68 1.13" style="fill:none;stroke:#2e353a;stroke-linecap:round;stroke-linejoin:round;stroke-width:.5px"/><path d="M53.92 204.66v-.19a7.71 7.71 0 0 1 7.71-7.71M57.61 201.17a5.17 5.17 0 0 1 7.15-.83M56.42 204.6v-.13a5.07 5.07 0 0 1 .41-2M62.13 201.65a2.88 2.88 0 0 1 1.48.76M58.76 204.54v-.07a2.88 2.88 0 0 1 2.4-2.83" style="fill:none;stroke:#2e353a;stroke-linecap:round;stroke-linejoin:round;stroke-width:.5px"/><path style="fill:#2e353a;stroke:#2e353a;stroke-miterlimit:10" d="M208.95 329.64h89.11v61.05h-89.11z"/><path style="fill:#fff;stroke:#2e353a;stroke-linecap:round;stroke-linejoin:round" d="M311.43 417.68H195.59l13.36-26.99h89.11l13.37 26.99z"/><path style="fill:#b3b3b3;stroke:#2e353a;stroke-miterlimit:10" d="M214.35 334.47h78.31v51.39h-78.31z"/><path style="fill:#26a437" d="m265.24 355.23-11.71-13.85-11.71 13.85h4.9v21.69h13.62v-21.69h4.9z"/><path style="fill:#fff;stroke:#2e353a;stroke-miterlimit:10" d="m249.79 399.24.15-3.29h-4.7l-.32 3.29h4.87zM259.52 399.24l-.16-3.29h-4.71l.01 3.29h4.86zM284.86 402.75h5.04l-1.19-3.51h-4.86l1.01 3.51zM244.92 399.24l.32-3.29h-4.71l-.47 3.29h4.86zM235.19 399.24l.63-3.29h-4.71l-.78 3.29h4.86zM278.98 399.24l-.79-3.29h-4.71l.64 3.29h4.86z"/><path style="fill:#fff;stroke:#2e353a;stroke-miterlimit:10" d="m283.85 399.24-.95-3.29h-4.71l.79 3.29h4.87zM230.33 399.24l.78-3.29h-4.71l-.94 3.29h4.87zM264.39 399.24l-.32-3.29h-4.71l.16 3.29h4.87z"/><path style="fill:#fff;stroke:#2e353a;stroke-miterlimit:10" d="m288.71 399.24-1.1-3.29h-4.71l.95 3.29h4.86zM274.12 399.24l-.64-3.29h-4.7l.47 3.29h4.87zM269.25 399.24l-.47-3.29h-4.71l.32 3.29h4.86zM254.66 399.24l-.01-3.29h-4.71l-.15 3.29h4.87zM220.6 399.24h-4.87l-1.34 3.51h5.03l1.18-3.51zM221.69 395.95h-4.7l-1.26 3.29h4.87l1.09-3.29z"/><path style="fill:#fff;stroke:#2e353a;stroke-miterlimit:10" d="m225.46 399.24.94-3.29h-4.71l-1.09 3.29h4.86zM212.95 406.52l-1.55 4.05h5.41l1.35-4.05h-5.21zM219.42 402.75h-5.03l-1.44 3.77h5.21l1.26-3.77zM218.16 406.52l-1.35 4.05h5.41l1.16-4.05h-5.22zM240.06 399.24l.47-3.29h-4.71l-.63 3.29h4.87zM239.56 402.75l.5-3.51h-4.87l-.67 3.51h5.04z"/><path style="fill:#fff;stroke:#2e353a;stroke-miterlimit:10" d="m234.52 402.75.67-3.51h-4.86l-.84 3.51h5.03zM244.59 402.75l.33-3.51h-4.86l-.5 3.51h5.03zM225.46 399.24h-4.86l-1.18 3.51h5.04l1-3.51zM285.95 406.52h5.21l-1.26-3.77h-5.04l1.09 3.77z"/><path style="fill:#fff;stroke:#2e353a;stroke-miterlimit:10" d="m229.49 402.75.84-3.51h-4.87l-1 3.51h5.03zM219.42 402.75l-1.26 3.77h5.22l1.08-3.77h-5.04zM274.79 402.75l-.67-3.51h-4.87l.51 3.51h5.03z"/><path style="fill:#fff;stroke:#2e353a;stroke-miterlimit:10" d="m269.76 402.75-.51-3.51h-4.86l.34 3.51h5.03zM284.86 402.75l-1.01-3.51h-4.87l.85 3.51h5.03zM254.66 402.75v-3.51h-4.87l-.17 3.51h5.04z"/><path style="fill:#fff;stroke:#2e353a;stroke-miterlimit:10" d="m264.73 402.75-.34-3.51h-4.87l.17 3.51h5.04zM259.69 402.75l-.17-3.51h-4.86v3.51h5.03zM249.62 402.75l.17-3.51h-4.87l-.33 3.51h5.03zM264.73 402.75l.36 3.77h5.22l-.55-3.77h-5.03z"/><path style="fill:#fff;stroke:#2e353a;stroke-miterlimit:10" d="m269.76 402.75.55 3.77h5.21l-.73-3.77h-5.03zM224.46 402.75l-1.08 3.77h5.21l.9-3.77h-5.03zM274.79 402.75l.73 3.77h5.21l-.9-3.77h-5.04zM254.66 402.75v3.77h5.22l-.19-3.77h-5.03z"/><path style="fill:#fff;stroke:#2e353a;stroke-miterlimit:10" d="m279.83 402.75.9 3.77h5.22l-1.09-3.77h-5.03zM259.69 402.75l.19 3.77h5.21l-.36-3.77h-5.04zM234.52 402.75l-.72 3.77h5.22l.54-3.77h-5.04z"/><path style="fill:#fff;stroke:#2e353a;stroke-miterlimit:10" d="m229.49 402.75-.9 3.77h5.21l.72-3.77h-5.03zM249.62 402.75l-.17 3.77h5.21v-3.77h-5.04zM244.59 402.75l-.36 3.77h5.22l.17-3.77h-5.03z"/><path style="fill:#fff;stroke:#2e353a;stroke-miterlimit:10" d="m239.56 402.75-.54 3.77h5.21l.36-3.77h-5.03zM279.83 402.75l-.85-3.51h-4.86l.67 3.51h5.04zM221.69 395.95l1.13-3.37h-4.55l-1.28 3.37h4.7zM216.99 395.95h-4.35l-1.4 3.29h4.49l1.26-3.29z"/><path style="fill:#fff;stroke:#2e353a;stroke-miterlimit:10" d="M218.27 392.58h-4.19l-1.44 3.37h4.35l1.28-3.37zM215.73 399.24h-4.49l-1.5 3.51h4.65l1.34-3.51zM214.39 402.75h-4.65l-1.61 3.77h4.82l1.44-3.77zM212.95 406.52h-4.82l-1.72 4.05h4.99l1.55-4.05zM293.58 399.24l1.35 3.51h4.45l-1.5-3.51h-4.3zM296.38 406.52h4.61l-1.61-3.77h-4.45l1.45 3.77zM297.93 410.57h4.78l-1.72-4.05h-4.61l1.55 4.05zM259.36 395.95l-.16-3.37h-4.55v3.37h4.71zM293.58 399.24h4.3l-1.4-3.29h-4.16l1.26 3.29z"/><path style="fill:#fff;stroke:#2e353a;stroke-miterlimit:10" d="M291.16 406.52h5.22l-1.45-3.77h-5.03l1.26 3.77zM226.4 395.95l.97-3.37h-4.55l-1.13 3.37h4.71zM287.61 395.95l1.1 3.29h4.87l-1.26-3.29h-4.71zM296.48 395.95l-1.43-3.37h-4.03l1.3 3.37h4.16z"/><path style="fill:#fff;stroke:#2e353a;stroke-miterlimit:10" d="m292.32 395.95-1.3-3.37h-4.54l1.13 3.37h4.71zM275.52 406.52l.78 4.05h5.41l-.98-4.05h-5.21zM292.52 410.57h5.41l-1.55-4.05h-5.22l1.36 4.05z"/><path style="fill:#fff;stroke:#2e353a;stroke-miterlimit:10" d="m287.61 395.95-1.13-3.37h-4.55l.97 3.37h4.71zM285.95 406.52l1.16 4.05h5.41l-1.36-4.05h-5.21z"/><path style="fill:#fff;stroke:#2e353a;stroke-miterlimit:10" d="m280.73 406.52.98 4.05h5.4l-1.16-4.05h-5.22zM289.9 402.75h5.03l-1.35-3.51h-4.87l1.19 3.51zM245.24 395.95l.32-3.37h-4.55l-.48 3.37h4.71zM282.9 395.95l-.97-3.37h-4.55l.81 3.37h4.71z"/><path style="fill:#fff;stroke:#2e353a;stroke-miterlimit:10" d="m240.53 395.95.48-3.37h-4.55l-.64 3.37h4.71zM254.65 395.95v-3.37h-4.55l-.16 3.37h4.71z"/><path style="fill:#fff;stroke:#2e353a;stroke-miterlimit:10" d="m235.82 395.95.64-3.37h-4.55l-.8 3.37h4.71z"/><path style="fill:#fff;stroke:#2e353a;stroke-miterlimit:10" d="m231.11 395.95.8-3.37h-4.54l-.97 3.37h4.71zM249.94 395.95l.16-3.37h-4.54l-.32 3.37h4.7zM278.19 395.95l-.81-3.37h-4.54l.64 3.37h4.71z"/><path style="fill:#fff;stroke:#2e353a;stroke-miterlimit:10" d="m273.48 395.95-.64-3.37h-4.55l.49 3.37h4.7zM264.07 395.95l-.33-3.37h-4.54l.16 3.37h4.71zM275.52 406.52h-52.14l-1.16 4.05H276.3l-.78-4.05z"/><path style="fill:#fff;stroke:#2e353a;stroke-miterlimit:10" d="m268.78 395.95-.49-3.37h-4.55l.33 3.37h4.71z"/><path style="stroke:#2e353a;stroke-miterlimit:10;fill:#babcbe" d="M195.59 417.68h115.89v1.64H195.59z"/><path d="M330.85 329.64h68v61.05h0-68a1.62 1.62 0 0 1-1.62-1.62v-57.8a1.62 1.62 0 0 1 1.62-1.63Z" style="fill:#fff;stroke:#2e353a;stroke-linecap:round;stroke-linejoin:round"/><path style="fill:#2e353a;stroke:#2e353a;stroke-miterlimit:10" d="M331.06 329.64h70.13v61.05h-70.13z"/><path style="fill:#b3b3b3;stroke:#2e353a;stroke-linecap:round;stroke-linejoin:round" d="M336.46 334.47h60.9v51.39h-60.9z"/><path style="fill:#26a437" d="m357.26 355.23 9.08-13.85 9.08 13.85h-3.8v21.69h-10.56v-21.69h-3.8z"/><path style="fill:#fff;stroke:#2e353a;stroke-linecap:round;stroke-linejoin:round" d="m331.06 390.69 53.16 15.37h71.67l-54.7-15.37h-70.13z"/><path style="fill:#fff;stroke:#2e353a;stroke-miterlimit:10;stroke-width:.25px" d="m387.83 396.77-6.65-1.89-2.91-.03 6.63 1.9 2.93.02zM393.62 396.82l-6.67-1.88-2.87-.03 6.65 1.89 2.89.02zM414.64 398.81l2.78.02-6.91-1.89-2.77-.02 6.9 1.89z"/><path style="fill:#fff;stroke:#2e353a;stroke-miterlimit:10;stroke-width:.25px" d="m384.9 396.75-6.63-1.9-2.93-.03 6.61 1.91 2.95.02zM378.99 396.71l-6.61-1.91-2.97-.03 6.59 1.92 2.99.02zM404.96 396.9l-6.72-1.86-2.79-.02 6.7 1.86 2.81.02z"/><path style="fill:#fff;stroke:#2e353a;stroke-miterlimit:10;stroke-width:.25px" d="m407.74 396.92-6.73-1.85-2.77-.03 6.72 1.86 2.78.02zM376 396.69l-6.59-1.92-3-.03 6.57 1.93 3.02.02zM396.48 396.84l-6.68-1.88-2.85-.02 6.67 1.88 2.86.02z"/><path style="fill:#fff;stroke:#2e353a;stroke-miterlimit:10;stroke-width:.25px" d="m410.51 396.94-6.74-1.84-2.76-.03 6.73 1.85 2.77.02zM402.15 396.88l-6.7-1.86-2.82-.03 6.7 1.87 2.82.02z"/><path style="fill:#fff;stroke:#2e353a;stroke-miterlimit:10;stroke-width:.25px" d="m399.33 396.86-6.7-1.87-2.83-.03 6.68 1.88 2.85.02zM390.73 396.8l-6.65-1.89-2.9-.03 6.65 1.89 2.9.03zM369.95 396.64l-3.06-.02 6.72 1.99 3.07.02-6.73-1.99z"/><path style="fill:#fff;stroke:#2e353a;stroke-miterlimit:10;stroke-width:.25px" d="m363.39 394.71-3.04-.03 6.54 1.94 3.06.02-6.56-1.93z"/><path style="fill:#fff;stroke:#2e353a;stroke-miterlimit:10;stroke-width:.25px" d="m372.98 396.67-6.57-1.93-3.02-.03 6.56 1.93 3.03.03zM380.5 400.65l7.09 2.1h3.1l-7.1-2.09-3.09-.01z"/><path style="fill:#fff;stroke:#2e353a;stroke-miterlimit:10;stroke-width:.25px" d="m376.68 398.63-3.07-.02 6.89 2.04 3.09.01-6.91-2.03zM383.59 400.66l7.1 2.09h3.08l-7.12-2.08-3.06-.01zM381.95 396.73l-6.61-1.91-2.96-.02 6.61 1.91 2.96.02z"/><path style="fill:#fff;stroke:#2e353a;stroke-miterlimit:10;stroke-width:.25px" d="m388.74 398.69-6.79-1.96-2.96-.02 6.77 1.96 2.98.02zM385.76 398.67l-6.77-1.96-2.99-.02 6.76 1.97 3 .01z"/><path style="fill:#fff;stroke:#2e353a;stroke-miterlimit:10;stroke-width:.25px" d="m391.7 398.7-6.8-1.95-2.95-.02 6.79 1.96 2.96.01zM372.98 396.67l-3.03-.03 6.73 1.99 3.05.01-6.75-1.97zM421.72 400.76l2.78.01-7.08-1.94-2.78-.02 7.08 1.95z"/><path style="fill:#fff;stroke:#2e353a;stroke-miterlimit:10;stroke-width:.25px" d="m382.76 398.66-6.76-1.97-3.02-.02 6.75 1.97 3.03.02z"/><path style="fill:#fff;stroke:#2e353a;stroke-miterlimit:10;stroke-width:.25px" d="m376.68 398.63 6.91 2.03 3.06.01-6.92-2.03-3.05-.01zM409.03 398.79l-6.88-1.91-2.82-.02 6.86 1.91 2.84.02z"/><path style="fill:#fff;stroke:#2e353a;stroke-miterlimit:10;stroke-width:.25px" d="m406.19 398.77-6.86-1.91-2.85-.02 6.86 1.92 2.85.01zM414.64 398.81l-6.9-1.89-2.78-.02 6.89 1.9 2.79.01zM397.56 398.73l-6.83-1.93-2.9-.03 6.81 1.94 2.92.02z"/><path style="fill:#fff;stroke:#2e353a;stroke-miterlimit:10;stroke-width:.25px" d="m403.34 398.76-6.86-1.92-2.86-.02 6.84 1.92 2.88.02z"/><path style="fill:#fff;stroke:#2e353a;stroke-miterlimit:10;stroke-width:.25px" d="m400.46 398.74-6.84-1.92-2.89-.02 6.83 1.93 2.9.01zM394.64 398.71l-6.81-1.94-2.93-.02 6.8 1.95 2.94.01zM403.34 398.76l7.03 1.97 2.87.01-7.05-1.97-2.85-.01zM406.19 398.77l7.05 1.97 2.84.01-7.05-1.96-2.84-.02zM379.73 398.64l6.92 2.03 3.05.01-6.94-2.02-3.03-.02z"/><path style="fill:#fff;stroke:#2e353a;stroke-miterlimit:10;stroke-width:.25px" d="m409.03 398.79 7.05 1.96h2.83l-7.06-1.95-2.82-.01zM397.56 398.73l7.01 1.98 2.91.01-7.02-1.98-2.9-.01zM411.85 398.8l7.06 1.95 2.81.01-7.08-1.95-2.79-.01zM400.46 398.74l7.02 1.98 2.89.01-7.03-1.97-2.88-.02zM385.76 398.67l6.95 2.02h3l-6.97-2-2.98-.02z"/><path style="fill:#fff;stroke:#2e353a;stroke-miterlimit:10;stroke-width:.25px" d="m382.76 398.66 6.94 2.02 3.01.01-6.95-2.02-3-.01zM394.64 398.71l7 2h2.93l-7.01-1.98-2.92-.02z"/><path style="fill:#fff;stroke:#2e353a;stroke-miterlimit:10;stroke-width:.25px" d="m391.7 398.7 6.99 2 2.95.01-7-2-2.94-.01zM388.74 398.69l6.97 2 2.98.01-6.99-2-2.96-.01zM411.85 398.8l-6.89-1.9-2.81-.02 6.88 1.91 2.82.01zM363.39 394.71l-6.99-2.06-3.02-.03 6.97 2.06 3.04.03zM360.35 394.68l-2.83-.03 6.53 1.95 2.84.02-6.54-1.94zM353.38 392.62l-2.81-.04 6.95 2.07 2.83.03-6.97-2.06z"/><path style="fill:#fff;stroke:#2e353a;stroke-miterlimit:10;stroke-width:.25px" d="m366.89 396.62-2.84-.02 6.7 2 2.86.01-6.72-1.99z"/><path style="fill:#fff;stroke:#2e353a;stroke-miterlimit:10;stroke-width:.25px" d="m373.61 398.61-2.86-.01 6.88 2.05h2.87l-6.89-2.04z"/><path style="fill:#fff;stroke:#2e353a;stroke-miterlimit:10;stroke-width:.25px" d="M380.5 400.65h-2.87l7.07 2.1h2.89l-7.09-2.1zM413.26 396.96l6.92 1.88 2.42.02-6.93-1.88-2.41-.02zM427.27 400.77l2.43.01-7.1-1.92-2.42-.02 7.09 1.93z"/><path style="fill:#fff;stroke:#2e353a;stroke-miterlimit:10;stroke-width:.25px" d="M434.55 402.75h2.43l-7.28-1.97-2.43-.01 7.28 1.98zM386.95 394.94l-7.12-2.01-2.86-.03 7.11 2.01 2.87.03zM413.26 396.96l2.41.02-6.76-1.83-2.41-.03 6.76 1.84zM424.5 400.77h2.77l-7.09-1.93-2.76-.01 7.08 1.94zM366.41 394.74l-7.01-2.05-3-.04 6.99 2.06 3.02.03z"/><path style="fill:#fff;stroke:#2e353a;stroke-miterlimit:10;stroke-width:.25px" d="m403.77 395.1 6.74 1.84 2.75.02-6.76-1.84-2.73-.02zM408.91 395.15l-7.22-1.96-2.39-.03 7.2 1.96 2.41.03z"/><path style="fill:#fff;stroke:#2e353a;stroke-miterlimit:10;stroke-width:.25px" d="m406.5 395.12-7.2-1.96-2.73-.03 7.2 1.97 2.73.02zM416.08 400.75l7.24 2h2.84l-7.25-2h-2.83zM431.77 402.75h2.78l-7.28-1.98h-2.77l7.27 1.98z"/><path style="fill:#fff;stroke:#2e353a;stroke-miterlimit:10;stroke-width:.25px" d="m403.77 395.1-7.2-1.97-2.74-.03 7.18 1.97 2.76.03zM421.72 400.76l7.25 1.99h2.8l-7.27-1.98-2.78-.01z"/><path style="fill:#fff;stroke:#2e353a;stroke-miterlimit:10;stroke-width:.25px" d="m418.91 400.75 7.25 2h2.81l-7.25-1.99-2.81-.01zM417.42 398.83l2.76.01-6.92-1.88-2.75-.02 6.91 1.89zM378.27 394.85l-7.07-2.02-2.92-.04 7.06 2.03 2.93.03zM401.01 395.07l-7.18-1.97-2.76-.04 7.17 1.98 2.77.03zM375.34 394.82l-7.06-2.03-2.94-.03 7.04 2.04 2.96.02zM384.08 394.91l-7.11-2.01-2.87-.04 7.08 2.02 2.9.03z"/><path style="fill:#fff;stroke:#2e353a;stroke-miterlimit:10;stroke-width:.25px" d="m372.38 394.8-7.04-2.04-2.96-.04 7.03 2.05 2.97.03z"/><path style="fill:#fff;stroke:#2e353a;stroke-miterlimit:10;stroke-width:.25px" d="m369.41 394.77-7.03-2.05-2.98-.03 7.01 2.05 3 .03zM381.18 394.88l-7.08-2.02-2.9-.03 7.07 2.02 2.91.03zM398.24 395.04l-7.17-1.98-2.78-.03 7.16 1.99 2.79.02z"/><path style="fill:#fff;stroke:#2e353a;stroke-miterlimit:10;stroke-width:.25px" d="m395.45 395.02-7.16-1.99-2.8-.03 7.14 1.99 2.82.03zM389.8 394.96l-7.13-2-2.84-.03 7.12 2.01 2.85.02zM416.08 400.75l-2.84-.01-2.87-.01-2.89-.01-2.91-.01h-2.93l-2.95-.01-2.98-.01h-3l-3.01-.01-3.05-.01 7.12 2.08h29.55l-7.24-2z"/><path style="fill:#fff;stroke:#2e353a;stroke-miterlimit:10;stroke-width:.25px" d="m392.63 394.99-7.14-1.99-2.82-.04 7.13 2 2.83.03z"/><path style="fill:#fff;stroke:#2e353a;stroke-linecap:round;stroke-linejoin:round" d="M331.06 390.69v2.04l53.14 15.95.02-2.62-53.16-15.37z"/><path style="fill:#2e353a;stroke:#2e353a;stroke-linecap:round;stroke-linejoin:round" d="M384.22 406.06h71.67v2.61h-71.67z"/><path d="M107.16 329.64h68v61.05h0-68a1.62 1.62 0 0 1-1.62-1.62v-57.8a1.62 1.62 0 0 1 1.62-1.63Z" transform="rotate(180 140.345 360.165)" style="fill:#fff;stroke:#2e353a;stroke-linecap:round;stroke-linejoin:round"/><path transform="rotate(180 138.255 360.165)" style="fill:#2e353a;stroke:#2e353a;stroke-miterlimit:10" d="M103.19 329.64h70.13v61.05h-70.13z"/><path transform="rotate(180 137.47 360.165)" style="fill:#b3b3b3;stroke:#2e353a;stroke-linecap:round;stroke-linejoin:round" d="M107.02 334.47h60.9v51.39h-60.9z"/><path style="fill:#26a437" d="m143.31 355.23-9.08-13.85-9.08 13.85h3.8v21.69h10.56v-21.69h3.8z"/><path style="fill:#fff;stroke:#2e353a;stroke-linecap:round;stroke-linejoin:round" d="m173.32 390.69-53.16 15.37H48.49l54.7-15.37h70.13z"/><path style="fill:#fff;stroke:#2e353a;stroke-miterlimit:10;stroke-width:.25px" d="m116.55 396.77 6.65-1.89 2.91-.03-6.63 1.9-2.93.02zM110.76 396.82l6.67-1.88 2.87-.03-6.65 1.89-2.89.02zM89.74 398.81l-2.78.02 6.91-1.89 2.77-.02-6.9 1.89zM119.48 396.75l6.63-1.9 2.93-.03-6.61 1.91-2.95.02zM125.39 396.71l6.61-1.91 2.97-.03-6.59 1.92-2.99.02zM99.42 396.9l6.72-1.86 2.79-.02-6.7 1.86-2.81.02z"/><path style="fill:#fff;stroke:#2e353a;stroke-miterlimit:10;stroke-width:.25px" d="m96.64 396.92 6.73-1.85 2.77-.03-6.72 1.86-2.78.02zM128.38 396.69l6.59-1.92 3-.03-6.57 1.93-3.02.02zM107.9 396.84l6.68-1.88 2.85-.02-6.67 1.88-2.86.02z"/><path style="fill:#fff;stroke:#2e353a;stroke-miterlimit:10;stroke-width:.25px" d="m93.87 396.94 6.74-1.84 2.76-.03-6.73 1.85-2.77.02zM102.23 396.88l6.7-1.86 2.82-.03-6.7 1.87-2.82.02z"/><path style="fill:#fff;stroke:#2e353a;stroke-miterlimit:10;stroke-width:.25px" d="m105.05 396.86 6.7-1.87 2.83-.03-6.68 1.88-2.85.02zM113.65 396.8l6.65-1.89 2.9-.03-6.65 1.89-2.9.03zM134.43 396.64l3.06-.02-6.72 1.99-3.07.02 6.73-1.99z"/><path style="fill:#fff;stroke:#2e353a;stroke-miterlimit:10;stroke-width:.25px" d="m140.99 394.71 3.04-.03-6.54 1.94-3.06.02 6.56-1.93z"/><path style="fill:#fff;stroke:#2e353a;stroke-miterlimit:10;stroke-width:.25px" d="m131.4 396.67 6.57-1.93 3.02-.03-6.56 1.93-3.03.03zM123.88 400.65l-7.09 2.1h-3.1l7.1-2.09 3.09-.01z"/><path style="fill:#fff;stroke:#2e353a;stroke-miterlimit:10;stroke-width:.25px" d="m127.7 398.63 3.07-.02-6.89 2.04-3.09.01 6.91-2.03zM120.79 400.66l-7.1 2.09h-3.08l7.11-2.08 3.07-.01zM122.43 396.73l6.61-1.91 2.96-.02-6.61 1.91-2.96.02z"/><path style="fill:#fff;stroke:#2e353a;stroke-miterlimit:10;stroke-width:.25px" d="m115.64 398.69 6.79-1.96 2.96-.02-6.77 1.96-2.98.02zM118.62 398.67l6.77-1.96 2.99-.02-6.76 1.97-3 .01z"/><path style="fill:#fff;stroke:#2e353a;stroke-miterlimit:10;stroke-width:.25px" d="m112.68 398.7 6.8-1.95 2.95-.02-6.79 1.96-2.96.01zM131.4 396.67l3.03-.03-6.73 1.99-3.05.01 6.75-1.97zM82.66 400.76l-2.78.01 7.08-1.94 2.78-.02-7.08 1.95z"/><path style="fill:#fff;stroke:#2e353a;stroke-miterlimit:10;stroke-width:.25px" d="m121.62 398.66 6.76-1.97 3.02-.02-6.75 1.97-3.03.02z"/><path style="fill:#fff;stroke:#2e353a;stroke-miterlimit:10;stroke-width:.25px" d="m127.7 398.63-6.91 2.03-3.07.01 6.93-2.03 3.05-.01zM95.35 398.79l6.88-1.91 2.82-.02-6.86 1.91-2.84.02z"/><path style="fill:#fff;stroke:#2e353a;stroke-miterlimit:10;stroke-width:.25px" d="m98.19 398.77 6.86-1.91 2.85-.02-6.86 1.92-2.85.01zM89.74 398.81l6.9-1.89 2.78-.02-6.89 1.9-2.79.01zM106.82 398.73l6.83-1.93 2.9-.03-6.81 1.94-2.92.02zM101.04 398.76l6.86-1.92 2.86-.02-6.84 1.92-2.88.02z"/><path style="fill:#fff;stroke:#2e353a;stroke-miterlimit:10;stroke-width:.25px" d="m103.92 398.74 6.84-1.92 2.89-.02-6.83 1.93-2.9.01zM109.74 398.71l6.81-1.94 2.93-.02-6.8 1.95-2.94.01zM101.04 398.76l-7.03 1.97-2.87.01 7.05-1.97 2.85-.01z"/><path style="fill:#fff;stroke:#2e353a;stroke-miterlimit:10;stroke-width:.25px" d="m98.19 398.77-7.05 1.97-2.84.01 7.05-1.96 2.84-.02zM124.65 398.64l-6.93 2.03-3.04.01 6.94-2.02 3.03-.02z"/><path style="fill:#fff;stroke:#2e353a;stroke-miterlimit:10;stroke-width:.25px" d="m95.35 398.79-7.05 1.96h-2.83l7.06-1.95 2.82-.01zM106.82 398.73l-7.01 1.98-2.91.01 7.02-1.98 2.9-.01z"/><path style="fill:#fff;stroke:#2e353a;stroke-miterlimit:10;stroke-width:.25px" d="m92.53 398.8-7.06 1.95-2.81.01 7.08-1.95 2.79-.01zM103.92 398.74l-7.02 1.98-2.89.01 7.03-1.97 2.88-.02zM118.62 398.67l-6.95 2.02h-3l6.97-2 2.98-.02z"/><path style="fill:#fff;stroke:#2e353a;stroke-miterlimit:10;stroke-width:.25px" d="m121.62 398.66-6.94 2.02-3.01.01 6.95-2.02 3-.01zM109.74 398.71l-7 2h-2.93l7.01-1.98 2.92-.02zM112.68 398.7l-6.99 2-2.95.01 7-2 2.94-.01z"/><path style="fill:#fff;stroke:#2e353a;stroke-miterlimit:10;stroke-width:.25px" d="m115.64 398.69-6.97 2-2.98.01 6.99-2 2.96-.01zM92.53 398.8l6.89-1.9 2.81-.02-6.88 1.91-2.82.01zM140.99 394.71l6.99-2.06 3.02-.03-6.97 2.06-3.04.03z"/><path style="fill:#fff;stroke:#2e353a;stroke-miterlimit:10;stroke-width:.25px" d="m144.03 394.68 2.83-.03-6.53 1.95-2.84.02 6.54-1.94zM151 392.62l2.81-.04-6.95 2.07-2.83.03 6.97-2.06z"/><path style="fill:#fff;stroke:#2e353a;stroke-miterlimit:10;stroke-width:.25px" d="m137.49 396.62 2.84-.02-6.7 2-2.86.01 6.72-1.99z"/><path style="fill:#fff;stroke:#2e353a;stroke-miterlimit:10;stroke-width:.25px" d="m130.77 398.61 2.86-.01-6.88 2.05h-2.87l6.89-2.04z"/><path style="fill:#fff;stroke:#2e353a;stroke-miterlimit:10;stroke-width:.25px" d="M123.88 400.65h2.87l-7.07 2.1h-2.89l7.09-2.1zM91.12 396.96l-6.92 1.88-2.42.02 6.93-1.88 2.41-.02z"/><path style="fill:#fff;stroke:#2e353a;stroke-miterlimit:10;stroke-width:.25px" d="m77.11 400.77-2.43.01 7.1-1.92 2.42-.02-7.09 1.93zM69.83 402.75H67.4l7.28-1.97 2.43-.01-7.28 1.98zM117.43 394.94l7.12-2.01 2.86-.03-7.11 2.01-2.87.03zM91.12 396.96l-2.41.02 6.76-1.83 2.4-.03-6.75 1.84z"/><path style="fill:#fff;stroke:#2e353a;stroke-miterlimit:10;stroke-width:.25px" d="M79.88 400.77h-2.77l7.09-1.93 2.76-.01-7.08 1.94zM137.97 394.74l7.01-2.05 3-.04-6.99 2.06-3.02.03zM100.61 395.1l-6.74 1.84-2.75.02 6.75-1.84 2.74-.02zM95.47 395.15l7.22-1.96 2.39-.03-7.21 1.96-2.4.03z"/><path style="fill:#fff;stroke:#2e353a;stroke-miterlimit:10;stroke-width:.25px" d="m97.87 395.12 7.21-1.96 2.73-.03-7.2 1.97-2.74.02zM88.3 400.75l-7.24 2h-2.84l7.25-2h2.83zM72.61 402.75h-2.78l7.28-1.98h2.77l-7.27 1.98z"/><path style="fill:#fff;stroke:#2e353a;stroke-miterlimit:10;stroke-width:.25px" d="m100.61 395.1 7.2-1.97 2.74-.03-7.18 1.97-2.76.03zM82.66 400.76l-7.25 1.99h-2.8l7.27-1.98 2.78-.01z"/><path style="fill:#fff;stroke:#2e353a;stroke-miterlimit:10;stroke-width:.25px" d="m85.47 400.75-7.25 2h-2.81l7.25-1.99 2.81-.01zM86.96 398.83l-2.76.01 6.92-1.88 2.75-.02-6.91 1.89zM126.11 394.85l7.07-2.02 2.92-.04-7.06 2.03-2.93.03zM103.37 395.07l7.18-1.97 2.76-.04-7.17 1.98-2.77.03z"/><path style="fill:#fff;stroke:#2e353a;stroke-miterlimit:10;stroke-width:.25px" d="m129.04 394.82 7.06-2.03 2.94-.03-7.04 2.04-2.96.02zM120.3 394.91l7.11-2.01 2.87-.04-7.08 2.02-2.9.03z"/><path style="fill:#fff;stroke:#2e353a;stroke-miterlimit:10;stroke-width:.25px" d="m132 394.8 7.04-2.04 2.96-.04-7.03 2.05-2.97.03z"/><path style="fill:#fff;stroke:#2e353a;stroke-miterlimit:10;stroke-width:.25px" d="m134.97 394.77 7.03-2.05 2.98-.03-7.01 2.05-3 .03zM123.2 394.88l7.08-2.02 2.9-.03-7.07 2.02-2.91.03zM106.14 395.04l7.17-1.98 2.78-.03-7.16 1.99-2.79.02z"/><path style="fill:#fff;stroke:#2e353a;stroke-miterlimit:10;stroke-width:.25px" d="m108.93 395.02 7.16-1.99 2.8-.03-7.14 1.99-2.82.03zM114.58 394.96l7.13-2 2.84-.03-7.12 2.01-2.85.02zM88.3 400.75l2.84-.01 2.87-.01 2.89-.01 2.91-.01h2.93l2.95-.01 2.98-.01h3l3.01-.01 3.04-.01-7.11 2.08H81.06l7.24-2z"/><path style="fill:#fff;stroke:#2e353a;stroke-miterlimit:10;stroke-width:.25px" d="m111.75 394.99 7.14-1.99 2.82-.04-7.13 2-2.83.03z"/><path style="fill:#fff;stroke:#2e353a;stroke-linecap:round;stroke-linejoin:round" d="M173.32 390.69v2.04l-53.15 15.95-.01-2.62 53.16-15.37z"/><path transform="rotate(180 84.325 407.37)" style="fill:#2e353a;stroke:#2e353a;stroke-linecap:round;stroke-linejoin:round" d="M48.49 406.06h71.67v2.61H48.49z"/></svg>