<svg viewBox="0 0 500 500" xmlns="http://www.w3.org/2000/svg"><path style="fill:#ebebeb" d="M0 382.4h500v.25H0zM416.78 398.49h33.12v.25h-33.12zM322.53 401.21h8.69v.25h-8.69zM396.59 389.21h19.19v.25h-19.19zM52.46 390.89h43.19v.25H52.46zM104.56 390.89h6.33v.25h-6.33zM131.47 395.11h93.68v.25h-93.68z"/><path d="M407.79 344.39s11.93-17.08 3.7-36.69-3.39-27.06-3.39-27.06l8 15.87s7.49-11.73 4.55-25.49 3.83-36.92 3.83-36.92-2.44 26.8 1.84 37.44c0 0 6.26-10.32 8.49-20.74s9.07-31 9.07-31l-10.48 63.8 23-28.79s-23.41 39-26.53 46.6l25.44-12.69s-12.47 19.56-22.33 23.3-20.58 34.24-20.58 34.24Z" style="fill:#093326"/><path d="M416.27 352.06s-10.36-21 2.07-41.33 8.33-29.46 8.33-29.46l-11.53 16.27s-6.34-14.27-.75-29.05 2-41.61 2-41.61-1.84 30.12-8.39 41.24c0 0-5.2-12.51-5.92-24.45s-4.85-35.93-4.85-35.93l.88 72.56-20.61-35.82s19.4 47.22 21.58 56.19L373 282.29c1.64-.65 16.42 21.45 20.85 29.62 5.65 10.4 17.06 41.45 17.06 41.45Z" style="fill:#3a5c51"/><path style="fill:#7d8488" d="M381.82 342.94h61.81l-5 39.68h-51.81l-5-39.68z"/><path d="M262.51 87.86a6.76 6.76 0 0 1-2.73-2.54 7.43 7.43 0 0 1 0-7.41 6.85 6.85 0 0 1 2.73-2.55 8.41 8.41 0 0 1 3.91-.91 8.57 8.57 0 0 1 3.56.71 6.56 6.56 0 0 1 2.59 2l-2.92 2.6a3.73 3.73 0 0 0-3-1.6 3.06 3.06 0 0 0-2.33.93 4 4 0 0 0 0 5 3.06 3.06 0 0 0 2.33.93 3.74 3.74 0 0 0 3-1.61l2.92 2.59a6.65 6.65 0 0 1-2.59 2 8.57 8.57 0 0 1-3.56.7 8.29 8.29 0 0 1-3.91-.84ZM275.49 88.39a8.83 8.83 0 0 1-2.65-1l1.49-3.39a9.41 9.41 0 0 0 2.19.91 8.48 8.48 0 0 0 2.33.34 3.74 3.74 0 0 0 1.37-.18.61.61 0 0 0 .41-.56c0-.29-.18-.5-.54-.65a12.14 12.14 0 0 0-1.77-.47 20.19 20.19 0 0 1-2.64-.71 4.41 4.41 0 0 1-1.84-1.25 3.41 3.41 0 0 1-.78-2.36 4.1 4.1 0 0 1 .72-2.35 4.75 4.75 0 0 1 2.16-1.66 8.92 8.92 0 0 1 3.5-.61 12.17 12.17 0 0 1 2.76.31 8.31 8.31 0 0 1 2.4.89L283.21 79a8.44 8.44 0 0 0-3.81-1c-1.19 0-1.78.29-1.78.87 0 .27.17.47.52.61a11.63 11.63 0 0 0 1.75.44 17.87 17.87 0 0 1 2.64.68 4.55 4.55 0 0 1 1.87 1.24 3.37 3.37 0 0 1 .79 2.35 4 4 0 0 1-.73 2.34 4.89 4.89 0 0 1-2.16 1.66 8.86 8.86 0 0 1-3.49.61 14.09 14.09 0 0 1-3.32-.41ZM288.35 88.39a8.73 8.73 0 0 1-2.65-1l1.48-3.39a9.67 9.67 0 0 0 2.2.91 8.41 8.41 0 0 0 2.32.34 3.7 3.7 0 0 0 1.37-.18.6.6 0 0 0 .42-.56c0-.29-.18-.5-.54-.65a12.14 12.14 0 0 0-1.77-.47 20.84 20.84 0 0 1-2.65-.71 4.54 4.54 0 0 1-1.84-1.25 3.41 3.41 0 0 1-.78-2.36 4 4 0 0 1 .73-2.35 4.75 4.75 0 0 1 2.16-1.66 8.86 8.86 0 0 1 3.49-.61 12.25 12.25 0 0 1 2.77.31 8.31 8.31 0 0 1 2.4.89L296.07 79a8.51 8.51 0 0 0-3.82-1c-1.19 0-1.78.29-1.78.87 0 .27.18.47.53.61a11.11 11.11 0 0 0 1.74.44 17.55 17.55 0 0 1 2.64.68 4.49 4.49 0 0 1 1.87 1.24 3.33 3.33 0 0 1 .79 2.35 4 4 0 0 1-.72 2.34 4.89 4.89 0 0 1-2.16 1.66 8.92 8.92 0 0 1-3.5.61 14 14 0 0 1-3.31-.41ZM153.09 261.91a3.5 3.5 0 0 1-1.37-1.27 3.54 3.54 0 0 1-.49-1.86 3.48 3.48 0 0 1 .49-1.85 3.36 3.36 0 0 1 1.37-1.27 4.08 4.08 0 0 1 2-.46 4.42 4.42 0 0 1 1.78.35 3.41 3.41 0 0 1 1.29 1l-1.46 1.3a1.87 1.87 0 0 0-1.5-.8 1.51 1.51 0 0 0-1.16.46 2 2 0 0 0 0 2.5 1.51 1.51 0 0 0 1.16.46 1.85 1.85 0 0 0 1.5-.8l1.46 1.3a3.23 3.23 0 0 1-1.29 1 4.25 4.25 0 0 1-1.78.35 4.19 4.19 0 0 1-2-.41ZM159.58 262.17a4.74 4.74 0 0 1-1.33-.51L159 260a4.88 4.88 0 0 0 1.09.45 4.53 4.53 0 0 0 1.17.17 1.8 1.8 0 0 0 .68-.09.3.3 0 0 0 .21-.28c0-.14-.09-.25-.27-.32a6.75 6.75 0 0 0-.89-.24 11.59 11.59 0 0 1-1.32-.35 2.3 2.3 0 0 1-.92-.63 1.7 1.7 0 0 1-.39-1.18 2 2 0 0 1 .36-1.17 2.45 2.45 0 0 1 1.08-.84 4.57 4.57 0 0 1 1.75-.3 6.5 6.5 0 0 1 1.39.15 4.09 4.09 0 0 1 1.19.45l-.69 1.67a4.24 4.24 0 0 0-1.91-.51c-.59 0-.89.15-.89.43s.09.24.27.31a5.26 5.26 0 0 0 .87.22 8.93 8.93 0 0 1 1.32.34 2.24 2.24 0 0 1 .93.62 1.65 1.65 0 0 1 .4 1.17 2 2 0 0 1-.36 1.17 2.46 2.46 0 0 1-1.09.83 4.3 4.3 0 0 1-1.74.31 7 7 0 0 1-1.66-.21ZM166 262.17a4.74 4.74 0 0 1-1.33-.51l.75-1.68a4.88 4.88 0 0 0 1.09.45 4.47 4.47 0 0 0 1.17.17 1.84 1.84 0 0 0 .68-.09.3.3 0 0 0 .21-.28c0-.14-.09-.25-.27-.32a6.75 6.75 0 0 0-.89-.24 11.05 11.05 0 0 1-1.32-.35 2.3 2.3 0 0 1-.92-.63 1.7 1.7 0 0 1-.39-1.18 2 2 0 0 1 .36-1.17 2.39 2.39 0 0 1 1.08-.84 4.54 4.54 0 0 1 1.75-.3 6.34 6.34 0 0 1 1.38.15 4 4 0 0 1 1.2.45l-.69 1.67A4.24 4.24 0 0 0 168 257c-.59 0-.89.15-.89.43s.09.24.26.31a5.88 5.88 0 0 0 .87.22 8.77 8.77 0 0 1 1.33.34 2.31 2.31 0 0 1 .93.62 1.69 1.69 0 0 1 .4 1.17 2 2 0 0 1-.37 1.17 2.38 2.38 0 0 1-1.08.83 4.33 4.33 0 0 1-1.74.31 7 7 0 0 1-1.71-.23ZM321.05 272.9v12.84h-4.33V281h-4v4.73h-4.32V272.9h4.33v4.55h4v-4.55ZM330.4 285.39a5.26 5.26 0 0 1-2.55.53 4.66 4.66 0 0 1-3.24-1 3.87 3.87 0 0 1-1.14-3v-2.57h-1.38v-3h1.38v-2.81h4.14v2.81h2.05v3h-2.05v2.53a1 1 0 0 0 .24.72.82.82 0 0 0 .62.26 1.65 1.65 0 0 0 .94-.28ZM347.62 276.64a4.66 4.66 0 0 1 1.09 3.38v5.72h-4.14v-5c0-1.15-.37-1.72-1.12-1.72a1.12 1.12 0 0 0-.94.44 2.18 2.18 0 0 0-.36 1.39v4.9H338v-5c0-1.15-.38-1.72-1.12-1.72a1.15 1.15 0 0 0-.95.44 2.25 2.25 0 0 0-.35 1.39v4.9h-4.15v-10h3.94v.93a3.89 3.89 0 0 1 2.85-1.11 4.25 4.25 0 0 1 1.81.37 3.11 3.11 0 0 1 1.32 1.15 4 4 0 0 1 1.47-1.13 4.5 4.5 0 0 1 1.89-.39 3.88 3.88 0 0 1 2.91 1.06ZM350.51 272.13h4.14v13.61h-4.14ZM108.5 130.69v8.25h-2.78v-3h-2.57v3h-2.79v-8.25h2.79v2.92h2.57v-2.92ZM114.52 138.72a3.31 3.31 0 0 1-1.64.34 3.08 3.08 0 0 1-2.09-.65 2.54 2.54 0 0 1-.73-2v-1.65h-.88v-1.95h.88V131h2.67v1.8h1.32v1.95h-1.32v1.63a.65.65 0 0 0 .15.46.52.52 0 0 0 .4.16 1 1 0 0 0 .6-.17ZM125.61 133.09a3 3 0 0 1 .7 2.17v3.68h-2.67v-3.22q0-1.11-.72-1.11a.76.76 0 0 0-.61.29 1.42 1.42 0 0 0-.23.89v3.15h-2.66v-3.22q0-1.11-.72-1.11a.75.75 0 0 0-.61.29 1.42 1.42 0 0 0-.23.89v3.15h-2.67v-6.45h2.54v.6a2.48 2.48 0 0 1 1.83-.72 2.78 2.78 0 0 1 1.17.24 2.16 2.16 0 0 1 .85.74 2.66 2.66 0 0 1 .94-.72 2.9 2.9 0 0 1 1.22-.26 2.51 2.51 0 0 1 1.87.72ZM127.46 130.19h2.67v8.75h-2.67Z" style="fill:#e0e0e0"/><text style="fill:#e0e0e0;font-family:Arial,sans-serif;font-size:16.8px;font-weight:700;white-space:pre" x="382.494" y="149.281">Python</text><text style="fill:#e0e0e0;font-family:Arial,sans-serif;font-size:16.8px;font-weight:700;white-space:pre" x="104.631" y="224.52">Git</text><path style="fill:#263238" d="M138.42 111.71h220.92v137.1H138.42z"/><path style="fill:#fff;opacity:.5" d="M138.42 111.71h220.92v137.1H138.42z"/><path style="fill:#f5f5f5" d="M140.77 114.29h216.21v131.94H140.77z"/><path style="fill:#263238" d="M133.26 248.82H363.7v3.86H133.26z"/><path style="fill:#fff;opacity:.30000000000000004" d="M133.26 248.82H363.7v3.86H133.26z"/><path d="M212.37 145.94a5.83 5.83 0 0 1-2.28-2.15 6.31 6.31 0 0 1 0-6.22 5.83 5.83 0 0 1 2.28-2.15 7.39 7.39 0 0 1 6.13-.2 5.4 5.4 0 0 1 2.12 1.62l-2.08 1.89a3.42 3.42 0 0 0-2.73-1.36 3.49 3.49 0 0 0-1.69.41A2.92 2.92 0 0 0 213 139a3.94 3.94 0 0 0 0 3.46 2.92 2.92 0 0 0 1.14 1.17 3.49 3.49 0 0 0 1.69.41 3.42 3.42 0 0 0 2.73-1.36l2.08 1.89a5.4 5.4 0 0 1-2.12 1.62 7.49 7.49 0 0 1-6.13-.2ZM224.37 145.93a5.91 5.91 0 0 1-2.3-2.16 5.77 5.77 0 0 1-.83-3.09 5.83 5.83 0 0 1 .83-3.1 6 6 0 0 1 2.3-2.15 7.39 7.39 0 0 1 6.61 0 6 6 0 0 1 2.3 2.15 5.83 5.83 0 0 1 .83 3.1 5.77 5.77 0 0 1-.83 3.09 5.91 5.91 0 0 1-2.3 2.16 7.48 7.48 0 0 1-6.61 0Zm4.89-2.35a3 3 0 0 0 1.13-1.17 3.85 3.85 0 0 0 0-3.46 3 3 0 0 0-1.13-1.17 3.27 3.27 0 0 0-3.17 0A3 3 0 0 0 225 139a3.85 3.85 0 0 0 0 3.46 3 3 0 0 0 1.13 1.17 3.27 3.27 0 0 0 3.17 0ZM235.84 134.89h5.48a7.58 7.58 0 0 1 3.37.71 5.37 5.37 0 0 1 2.29 2 6.18 6.18 0 0 1 0 6.12 5.37 5.37 0 0 1-2.29 2 7.58 7.58 0 0 1-3.37.71h-5.48Zm5.34 9a3.31 3.31 0 0 0 2.39-.85 3.44 3.44 0 0 0 0-4.66 3.31 3.31 0 0 0-2.39-.85h-2.07v6.36ZM249.51 134.89h3.28v11.58h-3.28ZM266.15 134.89v11.58h-2.7l-5.12-6.17v6.17h-3.21v-11.58h2.7l5.11 6.17v-6.17ZM276.23 140.43h2.89v4.8a7.3 7.3 0 0 1-2.28 1.09 8.86 8.86 0 0 1-2.58.38 6.93 6.93 0 0 1-3.28-.76 6.08 6.08 0 0 1-2.28-8.37 5.69 5.69 0 0 1 2.3-2.15 7.1 7.1 0 0 1 3.32-.77 7.49 7.49 0 0 1 2.92.55 5.58 5.58 0 0 1 2.15 1.57l-2.09 1.89a3.67 3.67 0 0 0-2.81-1.29 3.28 3.28 0 0 0-2.4.9 3.23 3.23 0 0 0-.91 2.41 3.54 3.54 0 0 0 .41 1.71 2.93 2.93 0 0 0 1.16 1.18 3.44 3.44 0 0 0 1.71.42 4.23 4.23 0 0 0 1.77-.38Z" style="fill:#093326"/><g style="opacity:.2"><path d="M212.37 145.94a5.83 5.83 0 0 1-2.28-2.15 6.31 6.31 0 0 1 0-6.22 5.83 5.83 0 0 1 2.28-2.15 7.39 7.39 0 0 1 6.13-.2 5.4 5.4 0 0 1 2.12 1.62l-2.08 1.89a3.42 3.42 0 0 0-2.73-1.36 3.49 3.49 0 0 0-1.69.41A2.92 2.92 0 0 0 213 139a3.94 3.94 0 0 0 0 3.46 2.92 2.92 0 0 0 1.14 1.17 3.49 3.49 0 0 0 1.69.41 3.42 3.42 0 0 0 2.73-1.36l2.08 1.89a5.4 5.4 0 0 1-2.12 1.62 7.49 7.49 0 0 1-6.13-.2ZM224.37 145.93a5.91 5.91 0 0 1-2.3-2.16 5.77 5.77 0 0 1-.83-3.09 5.83 5.83 0 0 1 .83-3.1 6 6 0 0 1 2.3-2.15 7.39 7.39 0 0 1 6.61 0 6 6 0 0 1 2.3 2.15 5.83 5.83 0 0 1 .83 3.1 5.77 5.77 0 0 1-.83 3.09 5.91 5.91 0 0 1-2.3 2.16 7.48 7.48 0 0 1-6.61 0Zm4.89-2.35a3 3 0 0 0 1.13-1.17 3.85 3.85 0 0 0 0-3.46 3 3 0 0 0-1.13-1.17 3.27 3.27 0 0 0-3.17 0A3 3 0 0 0 225 139a3.85 3.85 0 0 0 0 3.46 3 3 0 0 0 1.13 1.17 3.27 3.27 0 0 0 3.17 0ZM235.84 134.89h5.48a7.58 7.58 0 0 1 3.37.71 5.37 5.37 0 0 1 2.29 2 6.18 6.18 0 0 1 0 6.12 5.37 5.37 0 0 1-2.29 2 7.58 7.58 0 0 1-3.37.71h-5.48Zm5.34 9a3.31 3.31 0 0 0 2.39-.85 3.44 3.44 0 0 0 0-4.66 3.31 3.31 0 0 0-2.39-.85h-2.07v6.36ZM249.51 134.89h3.28v11.58h-3.28ZM266.15 134.89v11.58h-2.7l-5.12-6.17v6.17h-3.21v-11.58h2.7l5.11 6.17v-6.17ZM276.23 140.43h2.89v4.8a7.3 7.3 0 0 1-2.28 1.09 8.86 8.86 0 0 1-2.58.38 6.93 6.93 0 0 1-3.28-.76 6.08 6.08 0 0 1-2.28-8.37 5.69 5.69 0 0 1 2.3-2.15 7.1 7.1 0 0 1 3.32-.77 7.49 7.49 0 0 1 2.92.55 5.58 5.58 0 0 1 2.15 1.57l-2.09 1.89a3.67 3.67 0 0 0-2.81-1.29 3.28 3.28 0 0 0-2.4.9 3.23 3.23 0 0 0-.91 2.41 3.54 3.54 0 0 0 .41 1.71 2.93 2.93 0 0 0 1.16 1.18 3.44 3.44 0 0 0 1.71.42 4.23 4.23 0 0 0 1.77-.38Z" style="fill:#fff"/></g><rect x="269.19" y="157.5" width="28.01" height="3.6" rx="1.76" style="fill:#093326"/><rect x="269.19" y="165.9" width="68.96" height="3.6" rx="1.76" style="fill:#093326"/><rect x="269.19" y="173.1" width="66.94" height="3.6" rx="1.76" style="fill:#093326"/><rect x="269.19" y="180.3" width="73.69" height="3.6" rx="1.76" style="fill:#093326"/><rect x="269.19" y="187.5" width="67.39" height="3.6" rx="1.76" style="fill:#093326"/><rect x="269.19" y="194.7" width="67.39" height="3.6" rx="1.76" style="fill:#093326"/><rect x="269.19" y="201.9" width="71.46" height="3.6" rx="1.76" style="fill:#093326"/><path d="M326.14 212.7H271a1.76 1.76 0 0 1-1.76-1.76 1.76 1.76 0 0 1 1.76-1.76h55.19a1.76 1.76 0 0 1 1.76 1.76 1.76 1.76 0 0 1-1.81 1.76Z" style="fill:#093326"/><g style="opacity:.30000000000000004"><rect x="269.19" y="157.5" width="28.01" height="3.6" rx="1.76" style="fill:#fff"/><rect x="269.19" y="165.9" width="68.96" height="3.6" rx="1.76" style="fill:#fff"/><rect x="269.19" y="173.1" width="66.94" height="3.6" rx="1.76" style="fill:#fff"/><rect x="269.19" y="180.3" width="73.69" height="3.6" rx="1.76" style="fill:#fff"/><rect x="269.19" y="187.5" width="67.39" height="3.6" rx="1.76" style="fill:#fff"/><rect x="269.19" y="194.7" width="67.39" height="3.6" rx="1.76" style="fill:#fff"/><rect x="269.19" y="201.9" width="71.46" height="3.6" rx="1.76" style="fill:#fff"/><path d="M326.14 212.7H271a1.76 1.76 0 0 1-1.76-1.76 1.76 1.76 0 0 1 1.76-1.76h55.19a1.76 1.76 0 0 1 1.76 1.76 1.76 1.76 0 0 1-1.81 1.76Z" style="fill:#fff"/></g><path d="M169.58 203.76c18.22-2.19 36.64-4.23 55.13-4.78 3.63-.11 7.27-.14 10.9 0v-1.78c-16-.4-32.05 1.15-47.8 2.78q-9.13.94-18.23 2c-.16 0 .11 1.76 0 1.78Z" style="fill:#093326"/><path d="M178.33 207.21c11.53-2.27 23.19-4.37 34.89-4.94 2.3-.11 4.6-.15 6.9-.06v-1.84c-10.09-.41-20.28 1.19-30.25 2.88q-5.77 1-11.54 2.12c-.1 0 .07 1.83 0 1.84ZM221.7 122.43 219 130h-2.6l-1.4-4.1-1.52 4.1h-2.58l-2.71-7.61h2.52l1.56 4.6 1.62-4.6h2.28l1.57 4.65 1.61-4.65ZM223.92 129.66a3.73 3.73 0 0 1-2.09-3.44 3.74 3.74 0 0 1 2.08-3.42 5.16 5.16 0 0 1 4.43 0 3.71 3.71 0 0 1 1.54 1.39 3.83 3.83 0 0 1 .54 2 3.89 3.89 0 0 1-.54 2 3.8 3.8 0 0 1-1.54 1.4 5 5 0 0 1-4.42 0Zm3.36-2.1a1.89 1.89 0 0 0 .45-1.34 1.85 1.85 0 0 0-.45-1.32 1.63 1.63 0 0 0-2.31 0 1.85 1.85 0 0 0-.45 1.32 1.89 1.89 0 0 0 .45 1.34 1.63 1.63 0 0 0 2.31 0ZM235.26 122.56a4.14 4.14 0 0 1 1.5-.26v2.4a5 5 0 0 0-.61 0 1.86 1.86 0 0 0-1.34.46 1.89 1.89 0 0 0-.48 1.42V130h-2.67v-7.61h2.54v.91a2.45 2.45 0 0 1 1.06-.74ZM241.31 127.37l-.79.8V130h-2.67v-10.38h2.67v5.46l2.73-2.65h3.16l-3.16 3.25 3.43 4.36h-3.23Z" style="fill:#093326"/><path d="M248.11 130a5.15 5.15 0 0 1-1.49-.57l.8-1.83a4.54 4.54 0 0 0 1.24.52 5.77 5.77 0 0 0 1.42.19 2.26 2.26 0 0 0 .92-.14.42.42 0 0 0 .27-.38q0-.26-.33-.36a7.27 7.27 0 0 0-1.05-.21 10 10 0 0 1-1.55-.29 2.4 2.4 0 0 1-1.1-.68 1.89 1.89 0 0 1-.46-1.37 2.07 2.07 0 0 1 .43-1.3 2.86 2.86 0 0 1 1.27-.9 5.48 5.48 0 0 1 2-.33 8.32 8.32 0 0 1 1.65.17 4.6 4.6 0 0 1 1.36.48l-.8 1.81a4.38 4.38 0 0 0-2.19-.56 2.21 2.21 0 0 0-.93.14.43.43 0 0 0-.29.39c0 .18.1.3.32.37a7.88 7.88 0 0 0 1.07.22 12.07 12.07 0 0 1 1.56.32 2.37 2.37 0 0 1 1.07.67 1.91 1.91 0 0 1 .46 1.36 2.07 2.07 0 0 1-.44 1.28 2.8 2.8 0 0 1-1.28.89 5.68 5.68 0 0 1-2 .33 8.47 8.47 0 0 1-1.93-.22ZM262.15 123.14a3.38 3.38 0 0 1 .86 2.54V130h-2.66v-3.92c0-1-.42-1.56-1.25-1.56a1.45 1.45 0 0 0-1.1.48 2 2 0 0 0-.41 1.35V130h-2.67v-10.38h2.67v3.51a2.94 2.94 0 0 1 1-.62 3.8 3.8 0 0 1 1.27-.21 3.14 3.14 0 0 1 2.29.84ZM266.41 129.66a3.78 3.78 0 0 1-2.09-3.44 3.78 3.78 0 0 1 2.09-3.42 4.83 4.83 0 0 1 2.21-.5 4.9 4.9 0 0 1 2.22.5 3.68 3.68 0 0 1 1.53 1.39 3.74 3.74 0 0 1 .55 2 3.75 3.75 0 0 1-2.08 3.44 5.07 5.07 0 0 1-4.43 0Zm3.36-2.1a1.89 1.89 0 0 0 .45-1.34 1.85 1.85 0 0 0-.45-1.32 1.62 1.62 0 0 0-2.3 0 1.85 1.85 0 0 0-.45 1.32 1.89 1.89 0 0 0 .45 1.34 1.62 1.62 0 0 0 2.3 0ZM280.83 122.78a3.58 3.58 0 0 1 1.35 1.38 4.12 4.12 0 0 1 .5 2.07 4.07 4.07 0 0 1-.5 2.07 3.45 3.45 0 0 1-1.35 1.38 3.74 3.74 0 0 1-1.88.49 2.85 2.85 0 0 1-2.13-.81v3.41h-2.67v-10.34h2.55v.75a2.76 2.76 0 0 1 2.25-.88 3.73 3.73 0 0 1 1.88.48Zm-1.29 4.78a2.23 2.23 0 0 0 0-2.66 1.52 1.52 0 0 0-1.16-.48 1.5 1.5 0 0 0-1.15.48 2.19 2.19 0 0 0 0 2.66 1.5 1.5 0 0 0 1.15.48 1.52 1.52 0 0 0 1.16-.48Z" style="fill:#093326"/><g style="opacity:.2"><path d="M221.7 122.43 219 130h-2.6l-1.4-4.1-1.52 4.1h-2.58l-2.71-7.61h2.52l1.56 4.6 1.62-4.6h2.28l1.57 4.65 1.61-4.65ZM223.92 129.66a3.73 3.73 0 0 1-2.09-3.44 3.74 3.74 0 0 1 2.08-3.42 5.16 5.16 0 0 1 4.43 0 3.71 3.71 0 0 1 1.54 1.39 3.83 3.83 0 0 1 .54 2 3.89 3.89 0 0 1-.54 2 3.8 3.8 0 0 1-1.54 1.4 5 5 0 0 1-4.42 0Zm3.36-2.1a1.89 1.89 0 0 0 .45-1.34 1.85 1.85 0 0 0-.45-1.32 1.63 1.63 0 0 0-2.31 0 1.85 1.85 0 0 0-.45 1.32 1.89 1.89 0 0 0 .45 1.34 1.63 1.63 0 0 0 2.31 0ZM235.26 122.56a4.14 4.14 0 0 1 1.5-.26v2.4a5 5 0 0 0-.61 0 1.86 1.86 0 0 0-1.34.46 1.89 1.89 0 0 0-.48 1.42V130h-2.67v-7.61h2.54v.91a2.45 2.45 0 0 1 1.06-.74ZM241.31 127.37l-.79.8V130h-2.67v-10.38h2.67v5.46l2.73-2.65h3.16l-3.16 3.25 3.43 4.36h-3.23Z" style="fill:#fff"/><path d="M248.11 130a5.15 5.15 0 0 1-1.49-.57l.8-1.83a4.54 4.54 0 0 0 1.24.52 5.77 5.77 0 0 0 1.42.19 2.26 2.26 0 0 0 .92-.14.42.42 0 0 0 .27-.38q0-.26-.33-.36a7.27 7.27 0 0 0-1.05-.21 10 10 0 0 1-1.55-.29 2.4 2.4 0 0 1-1.1-.68 1.89 1.89 0 0 1-.46-1.37 2.07 2.07 0 0 1 .43-1.3 2.86 2.86 0 0 1 1.27-.9 5.48 5.48 0 0 1 2-.33 8.32 8.32 0 0 1 1.65.17 4.6 4.6 0 0 1 1.36.48l-.8 1.81a4.38 4.38 0 0 0-2.19-.56 2.21 2.21 0 0 0-.93.14.43.43 0 0 0-.29.39c0 .18.1.3.32.37a7.88 7.88 0 0 0 1.07.22 12.07 12.07 0 0 1 1.56.32 2.37 2.37 0 0 1 1.07.67 1.91 1.91 0 0 1 .46 1.36 2.07 2.07 0 0 1-.44 1.28 2.8 2.8 0 0 1-1.28.89 5.68 5.68 0 0 1-2 .33 8.47 8.47 0 0 1-1.93-.22ZM262.15 123.14a3.38 3.38 0 0 1 .86 2.54V130h-2.66v-3.92c0-1-.42-1.56-1.25-1.56a1.45 1.45 0 0 0-1.1.48 2 2 0 0 0-.41 1.35V130h-2.67v-10.38h2.67v3.51a2.94 2.94 0 0 1 1-.62 3.8 3.8 0 0 1 1.27-.21 3.14 3.14 0 0 1 2.29.84ZM266.41 129.66a3.78 3.78 0 0 1-2.09-3.44 3.78 3.78 0 0 1 2.09-3.42 4.83 4.83 0 0 1 2.21-.5 4.9 4.9 0 0 1 2.22.5 3.68 3.68 0 0 1 1.53 1.39 3.74 3.74 0 0 1 .55 2 3.75 3.75 0 0 1-2.08 3.44 5.07 5.07 0 0 1-4.43 0Zm3.36-2.1a1.89 1.89 0 0 0 .45-1.34 1.85 1.85 0 0 0-.45-1.32 1.62 1.62 0 0 0-2.3 0 1.85 1.85 0 0 0-.45 1.32 1.89 1.89 0 0 0 .45 1.34 1.62 1.62 0 0 0 2.3 0ZM280.83 122.78a3.58 3.58 0 0 1 1.35 1.38 4.12 4.12 0 0 1 .5 2.07 4.07 4.07 0 0 1-.5 2.07 3.45 3.45 0 0 1-1.35 1.38 3.74 3.74 0 0 1-1.88.49 2.85 2.85 0 0 1-2.13-.81v3.41h-2.67v-10.34h2.55v.75a2.76 2.76 0 0 1 2.25-.88 3.73 3.73 0 0 1 1.88.48Zm-1.29 4.78a2.23 2.23 0 0 0 0-2.66 1.52 1.52 0 0 0-1.16-.48 1.5 1.5 0 0 0-1.15.48 2.19 2.19 0 0 0 0 2.66 1.5 1.5 0 0 0 1.15.48 1.52 1.52 0 0 0 1.16-.48Z" style="fill:#fff"/></g><path d="m156 155.88-1.75.64 1.75.64v.66l-2.5-.95v-.69l2.5-1ZM157.91 153.94h.73l-1.73 4.95h-.73ZM161.24 156.18v.69l-2.5.95v-.66l1.75-.64-1.75-.64v-.65Z" style="fill:#093326"/><g style="opacity:.2"><path d="M160.87 163.39h-7.15a.66.66 0 0 1 0-1.31h7.15a.66.66 0 1 1 0 1.31ZM160.87 167.68h-7.15a.66.66 0 0 1 0-1.31h7.15a.66.66 0 1 1 0 1.31ZM160.87 172h-7.15a.66.66 0 0 1 0-1.31h7.15a.66.66 0 1 1 0 1.31ZM160.87 176.26h-7.15a.66.66 0 0 1 0-1.31h7.15a.66.66 0 1 1 0 1.31ZM160.87 180.55h-7.15a.66.66 0 0 1 0-1.32h7.15a.66.66 0 0 1 0 1.32ZM160.87 184.84h-7.15a.66.66 0 0 1 0-1.32h7.15a.66.66 0 0 1 0 1.32ZM160.87 189.13h-7.15a.66.66 0 0 1 0-1.32h7.15a.66.66 0 0 1 0 1.32ZM160.87 193.42h-7.15a.66.66 0 0 1 0-1.32h7.15a.66.66 0 0 1 0 1.32ZM160.87 197.7h-7.15a.66.66 0 0 1 0-1.31h7.15a.66.66 0 1 1 0 1.31Z"/></g><path d="M181.54 184.76h-14.67a.66.66 0 0 1 0-1.31h14.67a.66.66 0 0 1 0 1.31ZM181.54 163.39h-14.67a.66.66 0 0 1 0-1.31h14.67a.66.66 0 0 1 0 1.31Z" style="fill:#093326"/><path d="M223.65 184.76h-38.21a.66.66 0 1 1 0-1.31h38.21a.66.66 0 1 1 0 1.31Z" style="fill:#263238"/><g style="opacity:.2"><path d="M228.4 167.68h-11.07a.66.66 0 1 1 0-1.31h11.07a.66.66 0 1 1 0 1.31Z" style="fill:#263238"/></g><path d="M191.55 188.47h-22.7a.66.66 0 1 1 0-1.32h22.7a.66.66 0 0 1 0 1.32Z" style="fill:#263238"/><path d="M218.58 188.47h-22.36a.66.66 0 0 1 0-1.32h22.36a.66.66 0 1 1 0 1.32Z" style="fill:#093326"/><path d="M246.35 188.47h-24.13a.66.66 0 1 1 0-1.32h24.13a.66.66 0 0 1 0 1.32Z" style="fill:#263238"/><g style="opacity:.2"><path d="M193.65 192.76H180a.66.66 0 0 1 0-1.32h13.63a.66.66 0 0 1 0 1.32Z" style="fill:#263238"/></g><path d="M212.94 192.76h-14.87a.66.66 0 0 1 0-1.32h14.87a.66.66 0 0 1 0 1.32Z" style="fill:#263238"/><g style="opacity:.2"><path d="M240.43 192.76h-24.11a.66.66 0 0 1 0-1.32h24.11a.66.66 0 0 1 0 1.32Z" style="fill:#263238"/></g><g style="opacity:.2"><path d="M187.17 167.68h-18.32a.66.66 0 1 1 0-1.31h18.32a.66.66 0 1 1 0 1.31Z" style="fill:#263238"/></g><path d="M189.47 172h-20.62a.66.66 0 1 1 0-1.31h20.62a.66.66 0 0 1 0 1.31Z" style="fill:#093326"/><g style="opacity:.2"><path d="M223.91 172h-31.07a.66.66 0 0 1 0-1.31h31.07a.66.66 0 1 1 0 1.31Z" style="fill:#263238"/></g><path d="M242.66 163.39H211.6a.66.66 0 1 1 0-1.31h31.06a.66.66 0 1 1 0 1.31ZM246.35 172h-18.67a.66.66 0 1 1 0-1.31h18.67a.66.66 0 0 1 0 1.31Z" style="fill:#263238"/><g style="opacity:.2"><path d="M187.23 176.26h-11.81a.66.66 0 0 1 0-1.32h11.81a.66.66 0 0 1 0 1.32Z" style="fill:#263238"/></g><g style="opacity:.2"><path d="M213.9 176.26h-22.65a.66.66 0 0 1 0-1.32h22.65a.66.66 0 0 1 0 1.32Z" style="fill:#263238"/></g><g style="opacity:.2"><path d="M207.89 163.39h-22.65a.66.66 0 0 1 0-1.31h22.65a.66.66 0 1 1 0 1.31Z" style="fill:#263238"/></g><path d="M240.43 176.26h-22.11a.66.66 0 0 1 0-1.32h22.11a.66.66 0 0 1 0 1.32ZM213.63 167.68h-22.11a.66.66 0 0 1 0-1.31h22.11a.66.66 0 1 1 0 1.31ZM195.91 180.55H182a.66.66 0 0 1 0-1.32h13.91a.66.66 0 0 1 0 1.32Z" style="fill:#263238"/><g style="opacity:.2"><path d="M212 180.55h-13.23a.66.66 0 0 1 0-1.32H212a.66.66 0 0 1 0 1.32Z" style="fill:#263238"/></g><path d="M240.43 180.55h-24.24a.66.66 0 0 1 0-1.32h24.24a.66.66 0 0 1 0 1.32Z" style="fill:#093326"/><g style="opacity:.2"><path d="M199 197.05h-17a.66.66 0 0 1 0-1.32h17a.66.66 0 0 1 0 1.32Z" style="fill:#263238"/></g><path style="fill:#093326" d="M135.64 145.26h13.13v9.48h-13.13z"/><path style="fill:#093326" d="M75.35 149.1h73.42v53.15H75.35z"/><path style="fill:#fff;isolation:isolate;opacity:.7000000000000001" d="M75.35 149.1h73.42v53.15H75.35z"/><path style="opacity:.1" d="M75.35 149.1h10.23v53.15H75.35z"/><path style="fill:#093326" d="M75.35 148.98h73.42v4.97H75.35z"/><circle cx="145.61" cy="147.68" r="1.03" style="fill:#fff"/><circle cx="142.01" cy="147.68" r="1.03" style="fill:#fff"/><circle cx="138.41" cy="147.68" r="1.03" style="fill:#fff"/><path d="M97.34 173.36a3.38 3.38 0 0 1-1.36-1l1.43-1.69a2.06 2.06 0 0 0 1.6 1 1.09 1.09 0 0 0 .87-.34 1.5 1.5 0 0 0 .3-1v-4H97v-2h5.8v5.85a3.67 3.67 0 0 1-.9 2.7 3.62 3.62 0 0 1-2.67.91 4.67 4.67 0 0 1-1.89-.43ZM110.56 171.73h-3.92l-.73 1.8h-2.67l4.09-9.27h2.58l4.11 9.27h-2.73Zm-.77-1.93-1.19-3-1.19 3ZM123.64 164.26l-4 9.27h-2.58l-4-9.27H116l2.52 6 2.57-6ZM130.08 171.73h-3.92l-.73 1.8h-2.67l4.09-9.27h2.58l4.11 9.27h-2.73Zm-.77-1.93-1.19-3-1.19 3ZM96 189.33a5.39 5.39 0 0 1-1.72-.74l.86-1.94a5.32 5.32 0 0 0 1.44.67 5.8 5.8 0 0 0 1.62.25c1 0 1.5-.25 1.5-.76a.63.63 0 0 0-.43-.59 8.22 8.22 0 0 0-1.38-.4 13.6 13.6 0 0 1-1.75-.48 3 3 0 0 1-1.2-.83 2.22 2.22 0 0 1-.54-1.51 2.68 2.68 0 0 1 .47-1.53 3.19 3.19 0 0 1 1.38-1.08 5.83 5.83 0 0 1 2.26-.39 7.76 7.76 0 0 1 1.8.2 5.76 5.76 0 0 1 1.56.6l-.8 1.95a5.37 5.37 0 0 0-2.57-.75 2.11 2.11 0 0 0-1.14.23.68.68 0 0 0-.36.6.6.6 0 0 0 .42.56 8.06 8.06 0 0 0 1.37.38 13.16 13.16 0 0 1 1.75.48 3.14 3.14 0 0 1 1.21.82 2.21 2.21 0 0 1 .51 1.53 2.6 2.6 0 0 1-.47 1.51 3.1 3.1 0 0 1-1.39 1.08 5.58 5.58 0 0 1-2.25.41 8.74 8.74 0 0 1-2.15-.27ZM104.88 189.06a3.47 3.47 0 0 1-1.46-1.32 3.6 3.6 0 0 1-.53-1.92 3.54 3.54 0 0 1 2-3.23 4.76 4.76 0 0 1 2.13-.47 4.11 4.11 0 0 1 2.11.53 2.85 2.85 0 0 1 1.25 1.45l-1.94 1a1.56 1.56 0 0 0-1.43-1 1.5 1.5 0 0 0-1.12.45 2 2 0 0 0 0 2.51 1.47 1.47 0 0 0 1.12.46 1.55 1.55 0 0 0 1.43-1l1.94 1a2.85 2.85 0 0 1-1.25 1.45 4.1 4.1 0 0 1-2.11.52 4.64 4.64 0 0 1-2.14-.43ZM114.73 182.37a3.85 3.85 0 0 1 1.41-.25v2.27a4.43 4.43 0 0 0-.57 0 1.74 1.74 0 0 0-1.27.44 1.77 1.77 0 0 0-.46 1.33v3.3h-2.51v-7.18h2.39v.86a2.36 2.36 0 0 1 1.01-.77ZM117.31 181.07a1.26 1.26 0 0 1-.42-1 1.22 1.22 0 0 1 .42-1 1.61 1.61 0 0 1 1.12-.39 1.65 1.65 0 0 1 1.11.37 1.17 1.17 0 0 1 .42.93 1.29 1.29 0 0 1-.42 1 1.57 1.57 0 0 1-1.11.39 1.65 1.65 0 0 1-1.12-.3Zm-.14 1.17h2.51v7.18h-2.51ZM127.61 182.58a3.38 3.38 0 0 1 1.27 1.3 4.3 4.3 0 0 1 0 3.91 3.28 3.28 0 0 1-1.27 1.29 3.47 3.47 0 0 1-1.78.46 2.68 2.68 0 0 1-2-.75V192h-2.52v-9.75h2.4v.75a2.6 2.6 0 0 1 2.12-.84 3.57 3.57 0 0 1 1.78.42Zm-1.22 4.5a2.07 2.07 0 0 0 0-2.5 1.52 1.52 0 0 0-2.18 0 2.07 2.07 0 0 0 0 2.5 1.52 1.52 0 0 0 2.18 0ZM135.47 189.13a2.54 2.54 0 0 1-.78.3 3.74 3.74 0 0 1-1 .11 3.11 3.11 0 0 1-2.16-.69 2.64 2.64 0 0 1-.75-2v-2.41h-1.05v-1.88h1.05v-1.87h2.51v1.87H135v1.88h-1.65v2.38a.85.85 0 0 0 .21.61.74.74 0 0 0 .55.21 1.34 1.34 0 0 0 .77-.22Z" style="fill:#263238"/><path style="fill:#093326" d="M177.09 81.3h11.65v8.41h-11.65z"/><path style="fill:#093326" d="M123.62 84.7h65.12v47.14h-65.12z"/><path style="fill:#fff;isolation:isolate;opacity:.7000000000000001" d="M123.62 84.7h65.12v47.14h-65.12z"/><path style="opacity:.1" d="M123.62 84.7h9.07v47.14h-9.07z"/><path style="fill:#093326" d="M123.62 84.6h65.12v4.41h-65.12z"/><path d="M185 83.45a.91.91 0 0 0 1.82 0 .91.91 0 1 0-1.82 0ZM181.83 83.45a.92.92 0 1 0 .92-.91.91.91 0 0 0-.92.91ZM178.64 83.45a.92.92 0 1 0 .91-.91.91.91 0 0 0-.91.91Z" style="fill:#fff"/><path d="m144.81 105.5-3.71 1.32 3.71 1.31v1.7l-5.73-2.12v-1.79l5.73-2.12ZM152.19 105.18a2.78 2.78 0 0 1 .72 2.1v3.61h-2.21v-3.25c0-.86-.35-1.29-1-1.29a1.2 1.2 0 0 0-.91.37 1.61 1.61 0 0 0-.34 1.12v3h-2.25v-8.63h2.21v2.91a2.38 2.38 0 0 1 .85-.52 3.19 3.19 0 0 1 1-.17 2.55 2.55 0 0 1 1.93.75ZM160.8 108.3h-4.59a1.38 1.38 0 0 0 .54.75 1.87 1.87 0 0 0 1 .26 2.38 2.38 0 0 0 .79-.13 2.43 2.43 0 0 0 .66-.42l1.17 1.21a3.43 3.43 0 0 1-2.69 1 4.26 4.26 0 0 1-1.94-.42 3.06 3.06 0 0 1-1.3-1.16 3.19 3.19 0 0 1 1.23-4.51 4 4 0 0 1 3.49 0 2.93 2.93 0 0 1 1.21 1.13 3.28 3.28 0 0 1 .45 1.75s0 .24-.02.54Zm-4.19-2a1.37 1.37 0 0 0-.43.79h2.58a1.33 1.33 0 0 0-.44-.79 1.27 1.27 0 0 0-.85-.29 1.31 1.31 0 0 0-.86.33ZM166.76 105.2a2.73 2.73 0 0 1 .83 2.19v3.5h-2.06v-.81a1.9 1.9 0 0 1-1.86.91 2.94 2.94 0 0 1-1.27-.25 2 2 0 0 1-.81-.69 1.87 1.87 0 0 1-.27-1 1.61 1.61 0 0 1 .69-1.39 3.61 3.61 0 0 1 2.11-.49h1.26c0-.67-.48-1-1.34-1a3.32 3.32 0 0 0-.92.14 2.55 2.55 0 0 0-.79.4l-.74-1.5a4.23 4.23 0 0 1 1.27-.54 6 6 0 0 1 1.51-.19 3.54 3.54 0 0 1 2.39.72Zm-1.8 4.21a1 1 0 0 0 .42-.54v-.55h-.95c-.65 0-1 .21-1 .64a.54.54 0 0 0 .22.46.94.94 0 0 0 .61.18 1.17 1.17 0 0 0 .74-.19ZM175.78 102.26v8.63h-2.11v-.63a2.26 2.26 0 0 1-1.85.73 3.14 3.14 0 0 1-1.57-.4 2.92 2.92 0 0 1-1.12-1.14 3.56 3.56 0 0 1-.41-1.72 3.5 3.5 0 0 1 .41-1.72 2.9 2.9 0 0 1 1.12-1.13 3.14 3.14 0 0 1 1.57-.4 2.3 2.3 0 0 1 1.75.65v-2.87Zm-2.55 6.58a1.57 1.57 0 0 0 .37-1.11 1.58 1.58 0 0 0-.36-1.1 1.25 1.25 0 0 0-1-.39 1.24 1.24 0 0 0-.95.39 1.55 1.55 0 0 0-.38 1.1 1.57 1.57 0 0 0 .38 1.11 1.32 1.32 0 0 0 1.89 0ZM182.9 105.92v1.79l-5.74 2.12v-1.7l3.71-1.31-3.71-1.32v-1.7Z" style="fill:#263238"/><path style="fill:#093326" d="M295.45 224.75h7.42v5.36h-7.42z"/><path style="fill:#093326" d="M261.36 226.92h41.51v30.05h-41.51z"/><path style="fill:#fff;isolation:isolate;opacity:.7000000000000001" d="M261.36 226.92h41.51v30.05h-41.51z"/><path style="opacity:.1" d="M261.36 226.92h5.78v30.05h-5.78z"/><path style="fill:#093326" d="M261.36 226.86h41.51v2.81h-41.51z"/><circle cx="301.08" cy="226.12" r=".58" style="fill:#fff"/><circle cx="299.05" cy="226.12" r=".58" style="fill:#fff"/><circle cx="297.02" cy="226.12" r=".58" style="fill:#fff"/><path d="m277.42 240.36-2 .7 2 .69v.9l-3-1.12v-.95l3-1.12ZM278.21 238.9h2a2.78 2.78 0 0 1 1.26.27 1.89 1.89 0 0 1 .85.75 2.11 2.11 0 0 1 .3 1.14 2.16 2.16 0 0 1-.3 1.14 2 2 0 0 1-.85.75 2.92 2.92 0 0 1-1.26.26h-2Zm2 3.34a1.28 1.28 0 0 0 .89-.32 1.11 1.11 0 0 0 .33-.86 1.15 1.15 0 0 0-.33-.87 1.28 1.28 0 0 0-.89-.32h-.77v2.37ZM283.29 238.9h1.22v4.31h-1.22ZM289.74 238.9l-1.85 4.31h-1.2l-1.84-4.31h1.32l1.17 2.81 1.19-2.81ZM293.05 240.58v.95l-3 1.12v-.9l2-.69-2-.7v-.9Z" style="fill:#263238"/><path style="fill:#093326" d="M372.36 75.95h14.91v10.76h-14.91z"/><path style="fill:#093326" d="M303.91 80.3h83.36v60.34h-83.36z"/><path style="fill:#fff;isolation:isolate;opacity:.7000000000000001" d="M303.91 80.3h83.36v60.34h-83.36z"/><path style="opacity:.1" d="M303.91 80.3h11.61v60.34h-11.61z"/><path style="fill:#093326" d="M303.91 80.17h83.36v5.64h-83.36z"/><circle cx="383.67" cy="78.7" r="1.17" style="fill:#fff"/><circle cx="379.59" cy="78.7" r="1.17" style="fill:#fff"/><circle cx="375.5" cy="78.7" r="1.17" style="fill:#fff"/><path style="fill:#263238" d="M229.64 417.31h-2.47L224 311.47h3.26l2.38 105.84z"/><path style="fill:#fff;opacity:.6000000000000001" d="M229.64 417.31h-2.47L224 311.47h3.26l2.38 105.84z"/><path style="fill:#263238" d="M189.87 311.47v105.84h2.61l3.07-101h31.5l2.3 101h2.59V311.47h-42.07z"/><path style="fill:#fff;opacity:.4" d="M189.87 311.47v105.84h2.61l3.07-101h31.5l2.3 101h2.59V311.47h-42.07z"/><path style="fill:#263238" d="M189.87 417.31h-2.47l-.79-105.84h3.26v105.84z"/><path style="fill:#fff;opacity:.6000000000000001" d="M189.87 417.31h-2.47l-.79-105.84h3.26v105.84z"/><path style="fill:#263238" d="M142.15 417.31h-2.47l-3.18-105.84h3.26l2.39 105.84z"/><path style="fill:#fff;opacity:.6000000000000001" d="M142.15 417.31h-2.47l-3.18-105.84h3.26l2.39 105.84z"/><path style="fill:#263238" d="M102.37 311.47v105.84h2.61l3.08-101h31.5l2.3 101h2.58V311.47h-42.07z"/><path style="fill:#fff;opacity:.30000000000000004" d="M102.37 311.47v105.84h2.61l3.08-101h31.5l2.3 101h2.58V311.47h-42.07z"/><path style="fill:#263238" d="M102.37 417.31h-2.46l-.8-105.84h3.26v105.84z"/><path style="fill:#fff;opacity:.6000000000000001" d="M102.37 417.31h-2.46l-.8-105.84h3.26v105.84z"/><path style="fill:#263238" d="M94.8 305.39h93.04v6.09H94.8z"/><path style="fill:#fff;opacity:.4" d="M94.8 305.39h93.04v6.09H94.8z"/><path style="fill:#263238" d="M184.04 305.39h52.21v6.09h-52.21z"/><path style="fill:#fff;opacity:.30000000000000004" d="M184.04 305.39h52.21v6.09h-52.21z"/><path style="fill:#263238" d="M357.43 416.8h-2.47l-3.17-105.83h3.26l2.38 105.83z"/><path style="fill:#fff;opacity:.6000000000000001" d="M357.43 416.8h-2.47l-3.17-105.83h3.26l2.38 105.83z"/><path style="fill:#263238" d="M317.66 310.97V416.8h2.61l3.07-101h31.5l2.3 101h2.59V310.97h-42.07z"/><path style="fill:#fff;opacity:.4" d="M317.66 310.97V416.8h2.61l3.07-101h31.5l2.3 101h2.59V310.97h-42.07z"/><path style="fill:#263238" d="M317.66 416.8h-2.47l-.79-105.83h3.26V416.8z"/><path style="fill:#fff;opacity:.6000000000000001" d="M317.66 416.8h-2.47l-.79-105.83h3.26V416.8z"/><path style="fill:#263238" d="M269.93 416.8h-2.46l-3.18-105.83h3.26l2.38 105.83z"/><path style="fill:#fff;opacity:.6000000000000001" d="M269.93 416.8h-2.46l-3.18-105.83h3.26l2.38 105.83z"/><path style="fill:#263238" d="M230.16 310.97V416.8h2.61l3.07-101h31.5l2.31 101h2.58V310.97h-42.07z"/><path style="fill:#fff;opacity:.30000000000000004" d="M230.16 310.97V416.8h2.61l3.07-101h31.5l2.31 101h2.58V310.97h-42.07z"/><path style="fill:#263238" d="M230.16 416.8h-2.46l-.8-105.83h3.26V416.8z"/><path style="fill:#fff;opacity:.6000000000000001" d="M230.16 416.8h-2.46l-.8-105.83h3.26V416.8z"/><path style="fill:#263238" d="M222.59 304.88h93.04v6.09h-93.04z"/><path style="fill:#fff;opacity:.4" d="M222.59 304.88h93.04v6.09h-93.04z"/><path style="fill:#263238" d="M311.83 304.88h52.21v6.09h-52.21z"/><path style="fill:#fff;opacity:.30000000000000004" d="M311.83 304.88h52.21v6.09h-52.21z"/><path d="M135.3 304.93h32.5a1.84 1.84 0 0 0 1.77-1.55l3.28-23.38a1.32 1.32 0 0 0-1.33-1.56H139a1.86 1.86 0 0 0-1.78 1.56L134 303.38a1.32 1.32 0 0 0 1.3 1.55Z" style="fill:#093326"/><path d="M135.3 304.93h32.5a1.84 1.84 0 0 0 1.77-1.55l3.28-23.38a1.32 1.32 0 0 0-1.33-1.56H139a1.86 1.86 0 0 0-1.78 1.56L134 303.38a1.32 1.32 0 0 0 1.3 1.55Z" style="fill:#fff;opacity:.2"/><path d="m137.48 301.45 28.88-.14a1.71 1.71 0 0 0 1.64-1.43l2.56-17.62a1.21 1.21 0 0 0-1.23-1.43l-28.88.13a1.7 1.7 0 0 0-1.63 1.43L136.25 300a1.22 1.22 0 0 0 1.23 1.45Z" style="fill:#263238"/><path d="m137.48 301.45 28.88-.14a1.71 1.71 0 0 0 1.64-1.43l2.56-17.62a1.21 1.21 0 0 0-1.23-1.43l-28.88.13a1.7 1.7 0 0 0-1.63 1.43L136.25 300a1.22 1.22 0 0 0 1.23 1.45Z" style="fill:#fff;opacity:.7000000000000001"/><path d="m141.23 283.31-.52.19.52.18v.2l-.74-.28v-.21l.74-.28ZM141.79 282.73h.21l-.51 1.47h-.22ZM142.77 283.39v.21l-.74.28v-.2l.52-.18-.52-.19v-.2Z" style="fill:#fff"/><g style="opacity:.2"><path d="M142.42 285.53h-2.13a.19.19 0 0 1-.19-.19.2.2 0 0 1 .19-.2h2.13a.2.2 0 0 1 .19.2.19.19 0 0 1-.19.19ZM142.21 286.81h-2.12a.2.2 0 0 1-.19-.2.19.19 0 0 1 .19-.19h2.12a.19.19 0 0 1 .2.19.2.2 0 0 1-.2.2ZM142.09 288.08H140a.2.2 0 0 1-.19-.2.2.2 0 0 1 .19-.19h2.12a.2.2 0 1 1 0 .39ZM141.84 289.35h-2.12a.19.19 0 0 1-.19-.19.19.19 0 0 1 .19-.2h2.12a.2.2 0 1 1 0 .39ZM141.68 290.62h-2.12a.19.19 0 0 1-.2-.19.2.2 0 0 1 .2-.2h2.12a.19.19 0 0 1 .19.2.18.18 0 0 1-.19.19ZM141.45 291.9h-2.12a.2.2 0 0 1-.19-.2.19.19 0 0 1 .19-.19h2.12a.19.19 0 0 1 .2.19.2.2 0 0 1-.2.2ZM141.26 293.17h-2.12a.2.2 0 0 1-.2-.2.19.19 0 0 1 .2-.19h2.12a.18.18 0 0 1 .19.19.19.19 0 0 1-.19.2ZM141 294.44h-2.1a.2.2 0 1 1 0-.39h2.1a.19.19 0 0 1 .19.2.19.19 0 0 1-.19.19ZM140.78 295.71h-2.12a.18.18 0 0 1-.19-.19.19.19 0 0 1 .19-.2h2.12a.2.2 0 0 1 .2.2.19.19 0 0 1-.2.19Z"/></g><path d="M148.55 285.53h-4.35a.19.19 0 0 1-.2-.19.2.2 0 0 1 .2-.2h4.35a.2.2 0 0 1 .19.2.19.19 0 0 1-.19.19Z" style="fill:#093326"/><path d="M161 285.53h-11.3a.19.19 0 0 1-.19-.19.2.2 0 0 1 .19-.2H161a.19.19 0 0 1 .19.2.18.18 0 0 1-.19.19Z" style="fill:#263238"/><g style="opacity:.2"><path d="M166.21 285.53h-3.28a.19.19 0 0 1-.2-.19.2.2 0 0 1 .2-.2h3.28a.2.2 0 0 1 .2.2.19.19 0 0 1-.2.19Z" style="fill:#263238"/></g><g style="opacity:.2"><path d="M155.94 286.81h-11.36a.2.2 0 0 1-.2-.2.19.19 0 0 1 .2-.19h11.36a.19.19 0 0 1 .2.19.2.2 0 0 1-.2.2Z" style="fill:#263238"/></g><path d="M167.57 286.81H157a.19.19 0 0 1-.19-.2.18.18 0 0 1 .19-.19h10.59a.19.19 0 0 1 .2.19.2.2 0 0 1-.22.2Z" style="fill:#093326"/><path d="M151.19 288.08h-6.73a.2.2 0 1 1 0-.39h6.73a.2.2 0 1 1 0 .39Z" style="fill:#263238"/><path d="M159.21 288.08h-6.63a.19.19 0 0 1-.19-.2.19.19 0 0 1 .19-.19h6.63a.2.2 0 1 1 0 .39Z" style="fill:#093326"/><path d="M167.45 288.08h-7.16a.2.2 0 0 1-.19-.2.2.2 0 0 1 .19-.19h7.16a.2.2 0 1 1 0 .39ZM151.57 289.35h-4a.2.2 0 0 1-.19-.19.2.2 0 0 1 .19-.2h4a.2.2 0 0 1 .19.2.2.2 0 0 1-.19.19ZM157.29 289.35h-4.41a.2.2 0 1 1 0-.39h4.41a.19.19 0 0 1 .19.2.19.19 0 0 1-.19.19Z" style="fill:#263238"/><g style="opacity:.2"><path d="M165.44 289.35h-7.15a.19.19 0 0 1-.19-.19.19.19 0 0 1 .19-.2h7.15a.2.2 0 1 1 0 .39Z" style="fill:#263238"/></g><g style="opacity:.2"><path d="M149.48 290.62h-5.43a.19.19 0 0 1-.2-.19.2.2 0 0 1 .2-.2h5.43a.2.2 0 0 1 .2.2.19.19 0 0 1-.2.19Z" style="fill:#263238"/></g><path d="M149.94 291.9h-6.12a.19.19 0 0 1-.19-.2.18.18 0 0 1 .19-.19h6.12a.18.18 0 0 1 .19.19.19.19 0 0 1-.19.2Z" style="fill:#093326"/><path d="M160.16 291.9h-9.22c1.1 0 1-.09 1-.2a.19.19 0 0 1 .2-.19h9.22a.19.19 0 0 1 .19.19c.01.11-.08.2-1.39.2Z" style="fill:#263238"/><path d="M166.81 291.9h-5.54a.2.2 0 0 1-.19-.2.19.19 0 0 1 .19-.19h5.54a.19.19 0 0 1 .2.19.2.2 0 0 1-.2.2Z" style="fill:#263238"/><g style="opacity:.2"><path d="M149.08 293.17h-3.51a.2.2 0 0 1-.19-.2.19.19 0 0 1 .19-.19h3.51a.19.19 0 0 1 .19.19.2.2 0 0 1-.19.2Z" style="fill:#263238"/></g><g style="opacity:.2"><path d="M157 293.17h-6.72a.19.19 0 0 1-.19-.2.18.18 0 0 1 .19-.19H157a.18.18 0 0 1 .19.19.19.19 0 0 1-.19.2Z" style="fill:#263238"/></g><path d="M164.86 293.17h-6.56c1.3 0 1.21-.09 1.21-.2a.19.19 0 0 1 .2-.19h6.56a.19.19 0 0 1 .19.19c0 .11-.09.2-1.6.2ZM151.41 294.44h-4.12a.2.2 0 1 1 0-.39h4.12a.2.2 0 1 1 0 .39Z" style="fill:#263238"/><g style="opacity:.2"><path d="M156.2 294.44h-3.94a.2.2 0 0 1-.19-.19.2.2 0 0 1 .19-.2h3.94a.2.2 0 0 1 .19.2.2.2 0 0 1-.19.19Z" style="fill:#263238"/></g><path d="M164.62 294.44h-7.19a.19.19 0 0 1-.19-.19.19.19 0 0 1 .19-.2h7.19a.2.2 0 1 1 0 .39Z" style="fill:#093326"/><g style="opacity:.2"><path d="M152.1 295.71h-5a.19.19 0 0 1-.2-.19.2.2 0 0 1 .2-.2h5a.2.2 0 0 1 .19.2.19.19 0 0 1-.19.19Z" style="fill:#263238"/></g><path style="fill:#fff;opacity:.30000000000000004" d="m143.74 280.96-3.08 20.49h-3.43l3.48-20.49h3.03z"/><path d="M115.64 304.83H155a1.09 1.09 0 0 0 1.09-1.09 1.09 1.09 0 0 0-1.09-1.1h-39.36a1.09 1.09 0 0 0-1.09 1.1 1.09 1.09 0 0 0 1.09 1.09Z" style="fill:#093326"/><path d="M115.64 304.83H155a1.09 1.09 0 0 0 1.09-1.09 1.09 1.09 0 0 0-1.09-1.1h-39.36a1.09 1.09 0 0 0-1.09 1.1 1.09 1.09 0 0 0 1.09 1.09Z" style="fill:#fff;opacity:.7000000000000001"/><path d="M146.68 304.83h21a1.09 1.09 0 0 0 1.09-1.09 1.09 1.09 0 0 0-1.09-1.1h-21a1.1 1.1 0 0 0-1.1 1.1 1.09 1.09 0 0 0 1.1 1.09Z" style="fill:#093326"/><path d="M146.68 304.83h21a1.09 1.09 0 0 0 1.09-1.09 1.09 1.09 0 0 0-1.09-1.1h-21a1.1 1.1 0 0 0-1.1 1.1 1.09 1.09 0 0 0 1.1 1.09Z" style="fill:#fff;opacity:.5"/><path d="M266.67 304.74h32.5a1.85 1.85 0 0 0 1.77-1.56l3.28-23.34a1.32 1.32 0 0 0-1.34-1.55h-32.49a1.85 1.85 0 0 0-1.78 1.55l-3.28 23.34a1.33 1.33 0 0 0 1.34 1.56Z" style="fill:#093326"/><path d="M266.67 304.74h32.5a1.85 1.85 0 0 0 1.77-1.56l3.28-23.34a1.32 1.32 0 0 0-1.34-1.55h-32.49a1.85 1.85 0 0 0-1.78 1.55l-3.28 23.34a1.33 1.33 0 0 0 1.34 1.56Z" style="fill:#fff;opacity:.2"/><path d="m268.85 301.25 28.88-.13a1.73 1.73 0 0 0 1.64-1.44l2.56-17.62a1.21 1.21 0 0 0-1.23-1.43l-28.88.13a1.7 1.7 0 0 0-1.63 1.43l-2.57 17.63a1.21 1.21 0 0 0 1.23 1.43Z" style="fill:#263238"/><path d="m268.85 301.25 28.88-.13a1.73 1.73 0 0 0 1.64-1.44l2.56-17.62a1.21 1.21 0 0 0-1.23-1.43l-28.88.13a1.7 1.7 0 0 0-1.63 1.43l-2.57 17.63a1.21 1.21 0 0 0 1.23 1.43Z" style="fill:#fff;opacity:.7000000000000001"/><path style="fill:#fff;opacity:.30000000000000004" d="m275.11 280.76-3.08 20.49h-3.43l3.48-20.49h3.03z"/><path d="m272.7 283.07-.5.18.5.18v.19l-.71-.27v-.2l.71-.27ZM273.24 282.51h.21l-.5 1.42h-.21ZM274.19 283.15v.2l-.71.27v-.19l.5-.18-.5-.18v-.19Z" style="fill:#fff"/><g style="opacity:.2"><path d="M273.86 285.22h-2a.19.19 0 0 1-.19-.19.18.18 0 0 1 .19-.19h2a.18.18 0 0 1 .19.19.19.19 0 0 1-.19.19ZM273.66 286.44h-2a.19.19 0 1 1 0-.37h2a.18.18 0 0 1 .19.18.18.18 0 0 1-.19.19ZM273.54 287.67h-2.05a.19.19 0 0 1 0-.38h2.05a.19.19 0 0 1 0 .38ZM273.29 288.89h-2a.19.19 0 1 1 0-.37h2a.18.18 0 0 1 .19.19.18.18 0 0 1-.19.18ZM273.19 290.12h-2.05a.19.19 0 1 1 0-.37h2.05a.18.18 0 0 1 .18.18.18.18 0 0 1-.18.19ZM273 291.35h-2.05a.19.19 0 0 1 0-.38H273a.19.19 0 1 1 0 .38ZM272.83 292.57h-2a.19.19 0 1 1 0-.37h2a.18.18 0 0 1 .19.19.18.18 0 0 1-.19.18ZM272.62 293.8h-2a.19.19 0 0 1-.19-.19.2.2 0 0 1 .19-.19h2a.19.19 0 0 1 .19.19.18.18 0 0 1-.19.19ZM272.35 295h-2a.19.19 0 0 1-.19-.19.18.18 0 0 1 .19-.19h2a.18.18 0 0 1 .19.19.19.19 0 0 1-.19.19Z"/></g><path d="M278.88 291.33h-4.2a.19.19 0 0 1-.18-.19.18.18 0 0 1 .18-.19h4.2a.19.19 0 0 1 .19.19.2.2 0 0 1-.19.19ZM279.77 285.22h-4.19a.19.19 0 0 1-.19-.19.18.18 0 0 1 .19-.19h4.19a.19.19 0 0 1 .19.19.2.2 0 0 1-.19.19Z" style="fill:#093326"/><path d="M290.92 291.33H280a.2.2 0 0 1-.19-.19.19.19 0 0 1 .19-.14h10.93a.18.18 0 0 1 .18.19.19.19 0 0 1-.19.14Z" style="fill:#263238"/><g style="opacity:.2"><path d="M293 286.44h-3.16a.18.18 0 0 1-.19-.19.18.18 0 0 1 .19-.18H293a.19.19 0 1 1 0 .37Z" style="fill:#263238"/></g><path d="M281.65 292.57h-6.49a.19.19 0 1 1 0-.37h6.49a.19.19 0 1 1 0 .37Z" style="fill:#263238"/><path d="M289.38 292.57H283a.18.18 0 0 1-.19-.18.18.18 0 0 1 .19-.19h6.39a.19.19 0 1 1 0 .37Z" style="fill:#093326"/><path d="M297.32 292.57h-6.9a.19.19 0 1 1 0-.37h6.9a.19.19 0 1 1 0 .37Z" style="fill:#263238"/><g style="opacity:.2"><path d="M282 293.8h-3.89a.19.19 0 0 1-.19-.19.2.2 0 0 1 .19-.19H282a.19.19 0 0 1 .19.19.18.18 0 0 1-.19.19Z" style="fill:#263238"/></g><path d="M287.49 293.8h-4.25a.18.18 0 0 1-.19-.19.19.19 0 0 1 .19-.19h4.25a.2.2 0 0 1 .19.19.19.19 0 0 1-.19.19Z" style="fill:#263238"/><g style="opacity:.2"><path d="M295.35 293.8h-6.89a.18.18 0 0 1-.19-.19.19.19 0 0 1 .19-.19h6.89a.2.2 0 0 1 .19.19.19.19 0 0 1-.19.19Z" style="fill:#263238"/></g><g style="opacity:.2"><path d="M281.18 286.44h-5.24a.18.18 0 0 1-.18-.19.18.18 0 0 1 .18-.18h5.24a.18.18 0 0 1 .19.18.18.18 0 0 1-.19.19Z" style="fill:#263238"/></g><path d="M281.71 287.67h-5.89a.19.19 0 0 1 0-.38h5.89a.19.19 0 0 1 0 .38Z" style="fill:#093326"/><g style="opacity:.2"><path d="M291.56 287.67h-8.88a.19.19 0 0 1 0-.38h8.88a.19.19 0 0 1 0 .38Z" style="fill:#263238"/></g><path d="M297.25 285.22h-8.89a.19.19 0 0 1-.18-.19.18.18 0 0 1 .18-.19h8.89a.18.18 0 0 1 .18.19.19.19 0 0 1-.18.19ZM298 287.67h-5.33a.19.19 0 0 1 0-.38H298a.19.19 0 0 1 0 .38Z" style="fill:#263238"/><g style="opacity:.2"><path d="M280.83 288.89h-3.38a.18.18 0 0 1-.18-.18.18.18 0 0 1 .18-.19h3.38a.19.19 0 1 1 0 .37Z" style="fill:#263238"/></g><g style="opacity:.2"><path d="M288.45 288.89H282a.19.19 0 1 1 0-.37h6.47a.18.18 0 0 1 .19.19.18.18 0 0 1-.21.18Z" style="fill:#263238"/></g><g style="opacity:.2"><path d="M287.3 285.22h-6.47a.2.2 0 0 1-.19-.19.19.19 0 0 1 .19-.19h6.47a.18.18 0 0 1 .19.19.19.19 0 0 1-.19.19Z" style="fill:#263238"/></g><path d="M296 288.89h-6.32a.18.18 0 0 1-.19-.18.18.18 0 0 1 .19-.19H296a.19.19 0 1 1 0 .37ZM288.75 286.44h-6.32a.18.18 0 0 1-.19-.19.18.18 0 0 1 .19-.18h6.32a.19.19 0 1 1 0 .37ZM283.2 290.12h-4a.18.18 0 0 1-.19-.19.18.18 0 0 1 .19-.18h4a.18.18 0 0 1 .19.18.18.18 0 0 1-.19.19Z" style="fill:#263238"/><g style="opacity:.2"><path d="M287.81 290.12H284a.19.19 0 1 1 0-.37h3.79a.18.18 0 0 1 .19.18.18.18 0 0 1-.17.19Z" style="fill:#263238"/></g><path d="M295.93 290.12H289a.19.19 0 1 1 0-.37h6.93a.18.18 0 0 1 .19.18.18.18 0 0 1-.19.19Z" style="fill:#093326"/><g style="opacity:.2"><path d="M283.25 295h-4.86a.2.2 0 0 1-.19-.19.19.19 0 0 1 .19-.19h4.86a.18.18 0 0 1 .19.19.19.19 0 0 1-.19.19Z" style="fill:#263238"/></g><path d="M246.71 304.83h39.34a1.09 1.09 0 0 0 1.09-1.09 1.09 1.09 0 0 0-1.09-1.1h-39.34a1.09 1.09 0 0 0-1.09 1.1 1.09 1.09 0 0 0 1.09 1.09Z" style="fill:#093326"/><path d="M246.71 304.83h39.34a1.09 1.09 0 0 0 1.09-1.09 1.09 1.09 0 0 0-1.09-1.1h-39.34a1.09 1.09 0 0 0-1.09 1.1 1.09 1.09 0 0 0 1.09 1.09Z" style="fill:#fff;opacity:.7000000000000001"/><path d="M277.74 304.83h21a1.09 1.09 0 0 0 1.09-1.09 1.09 1.09 0 0 0-1.09-1.1h-21a1.09 1.09 0 0 0-1.09 1.1 1.09 1.09 0 0 0 1.09 1.09Z" style="fill:#093326"/><path d="M277.74 304.83h21a1.09 1.09 0 0 0 1.09-1.09 1.09 1.09 0 0 0-1.09-1.1h-21a1.09 1.09 0 0 0-1.09 1.1 1.09 1.09 0 0 0 1.09 1.09Z" style="fill:#fff;opacity:.5"/><path style="fill:#ffc3bd" d="m192.85 290.38-1.05 6.61-5.29 2.18-.26-7.52 6.6-1.27z"/><path d="M212.12 226.86c.1.52.46.88.8.81s.52-.54.42-1.06-.46-.87-.8-.8-.54.54-.42 1.05Z" style="fill:#263238"/><path d="M212.53 227.75a18.89 18.89 0 0 0 3.36 3.9 3 3 0 0 1-2.37 1Z" style="fill:#ed847e"/><path d="M209.65 224.39a.3.3 0 0 1-.21-.09.3.3 0 0 1 0-.43 3 3 0 0 1 2.62-1 .3.3 0 0 1 .25.35.31.31 0 0 1-.35.26 2.43 2.43 0 0 0-2.07.83.33.33 0 0 1-.24.08Z" style="fill:#263238"/><path d="M197.45 234.1c.94 4.77 1.87 13.5-1.46 16.68 0 0 1.3 4.83 10.15 4.83 9.74 0 4.66-4.83 4.66-4.83-5.32-1.27-5.18-5.21-4.26-8.91Z" style="fill:#ffc3bd"/><path d="M194.06 251.66c-.71-1.32-1.49-2.84.13-3.31 1.78-.52 13.24-1.49 16.61-.51-1 1.84.72 4.1.72 4.1Z" style="fill:#263238"/><path d="m190.21 262.31-2.56 4.45-2.51 4.56c-1.65 3-3.22 6.1-4.66 9.18-.72 1.55-1.4 3.08-2 4.63l-.12.28v.06a.56.56 0 0 0-.07.13 1.17 1.17 0 0 0-.12.25 1.7 1.7 0 0 0 .11 1 9.73 9.73 0 0 0 2.13 3.24 37.1 37.1 0 0 0 3.46 3.28l-2.08 4.43a21.36 21.36 0 0 1-2.86-1 22.39 22.39 0 0 1-2.71-1.39 15.44 15.44 0 0 1-5-4.63 10.43 10.43 0 0 1-1.56-4.05 9.25 9.25 0 0 1 0-2.41 9.09 9.09 0 0 1 .21-1.18l.14-.58.11-.35c.57-1.81 1.16-3.6 1.85-5.33 1.35-3.48 2.87-6.85 4.53-10.12q1.23-2.46 2.59-4.85c.91-1.61 1.79-3.16 2.83-4.78Z" style="fill:#ffc3bd"/><path d="m181.59 292.86 4.66-1.21.26 7.52s-3.64.55-5.87-1.68Z" style="fill:#ffc3bd"/><path d="M184.32 252.25c-6.1 1.4-11.14 17-11.14 17l12.26 9.34a26.78 26.78 0 0 0 6.51-12c2.05-8.22-1.38-15.77-7.63-14.34Z" style="fill:#093326"/><path d="M184.32 252.25c-6.1 1.4-11.14 17-11.14 17l12.26 9.34a26.78 26.78 0 0 0 6.51-12c2.05-8.22-1.38-15.77-7.63-14.34Z" style="fill:#fafafa;opacity:.6000000000000001"/><path d="M189.56 263.71c-3.32 3.28-4.4 9.26-4.66 14.46l.54.41a26.67 26.67 0 0 0 6.51-12c.12-.49.23-1 .32-1.45Z" style="opacity:.2"/><path d="M220.81 252.59s6.94 7.83.39 56.3h-34.84c-.24-5.35 3.12-31.44-2-56.64a90.21 90.21 0 0 1 11.64-1.47 126.07 126.07 0 0 1 14.81 0 64.85 64.85 0 0 1 10 1.81Z" style="fill:#093326"/><path d="M220.81 252.59s6.94 7.83.39 56.3h-34.84c-.24-5.35 3.12-31.44-2-56.64a90.21 90.21 0 0 1 11.64-1.47 126.07 126.07 0 0 1 14.81 0 64.85 64.85 0 0 1 10 1.81Z" style="fill:#093326;opacity:.6000000000000001"/><path d="M194.73 229.26c1.67 6.24 2.33 10 6.18 12.58 5.8 3.91 13-.58 13.24-7.19.21-6-2.57-15.17-9.27-16.43a8.81 8.81 0 0 0-10.15 11.04Z" style="fill:#ffc3bd"/><path d="M197.59 239.44c2.66 1.52 12.34-3.56 10.35-11.25a16.54 16.54 0 0 0 2-3.29c.33-.71.64 3.7.88 2.85a62.09 62.09 0 0 0 .38-8.89c-.42-4.89-3.78-6.76-7.35-5.71-3.15.93-3.06 2.65-3.06 2.65s-14.88 1.75-11.71 7.81c-6.08 6.6 5.2 13.94 8.51 15.83Z" style="fill:#263238"/><path d="M189.51 224.11s-1.77-3.07-4.36-1.35c1.22.02 3.22.24 4.36 1.35ZM212.86 224.81s.78-11.25-7.05-11.94a17.62 17.62 0 0 1 7.05 11.94Z" style="fill:#263238"/><path d="M205.35 229.52a7.27 7.27 0 0 0 2.63 3.89c1.69 1.26 3 0 2.84-1.9-.11-1.73-1.12-4.46-3-5s-2.96 1.14-2.47 3.01Z" style="fill:#ffc3bd"/><path d="M220.7 252.59s6.93 7.83.39 56.3h-34.84c-.24-5.35 3.12-31.44-2-56.64a90.21 90.21 0 0 1 11.66-1.47 126.07 126.07 0 0 1 14.81 0 65.13 65.13 0 0 1 9.98 1.81Z" style="fill:#fff;opacity:.6000000000000001"/><path d="m223.46 269.52-.13-.11-7.92 1.9c-.45 5.35 5.05 11.75 7.89 14.68a152.59 152.59 0 0 0 .16-16.47Z" style="opacity:.2"/><path d="M224 258.53c1 1.56 2.14 3.31 3.28 4.93s2.32 3.26 3.55 4.83a65.65 65.65 0 0 0 7.76 8.66c.68.64 1.38 1.22 2.09 1.77l.53.4a1.21 1.21 0 0 0-.31-.11h-.28a2.91 2.91 0 0 0 1.46-.34 17.22 17.22 0 0 0 2.24-1.16 79.1 79.1 0 0 0 9.37-7.26l3.8 3.07a45 45 0 0 1-8.49 10.44 21.1 21.1 0 0 1-3 2.24 11.91 11.91 0 0 1-4.47 1.66 7.82 7.82 0 0 1-3.39-.29 7.57 7.57 0 0 1-1.73-.79l-.77-.49c-1-.66-2-1.35-2.89-2.07a64.09 64.09 0 0 1-9.55-9.59c-1.39-1.72-2.74-3.46-4-5.26s-2.45-3.57-3.62-5.6Z" style="fill:#ffc3bd"/><path d="M211.23 262.44c-2.08 8.73 13.72 17.29 13.72 17.29l10.26-12A85.28 85.28 0 0 0 224.73 255c-7.18-6.85-11.91.79-13.5 7.44Z" style="fill:#093326"/><path d="M211.23 262.44c-2.08 8.73 13.72 17.29 13.72 17.29l10.26-12A85.28 85.28 0 0 0 224.73 255c-7.18-6.85-11.91.79-13.5 7.44Z" style="fill:#fafafa;opacity:.6000000000000001"/><path d="m252.68 272.1 2.43-7.78 6.37 3.18s-.93 5.67-5.57 6.65ZM257.66 262.16l5.75 1.59-1.93 3.75-6.37-3.18 2.55-2.16z" style="fill:#ffc3bd"/><path d="M200.8 215.8s-1.23-1.94-4.81-.74a4.06 4.06 0 0 0-2.75 2.57l3.93 2.88Z" style="fill:#263238"/><path style="fill:#fab27b" d="m256.41 392.93 1.68 7.91 8.59-1.13-1.25-8.78-9.02 2z"/><path d="M268.27 399.72a.21.21 0 0 1-.19-.16.2.2 0 0 1 .08-.23c.13-.09 3.1-2.2 4.64-1.93a1.09 1.09 0 0 1 .72.43.8.8 0 0 1 .11.93c-.32.52-1.46.84-2.58.95a16.13 16.13 0 0 1-2.78.01Zm.66-.35c1.7 0 4-.2 4.33-.82.05-.08.1-.22-.09-.47a.56.56 0 0 0-.45-.25 1.4 1.4 0 0 0-.41 0 9.92 9.92 0 0 0-3.38 1.54Z" style="fill:#093326"/><path d="M268.15 399.72a.2.2 0 0 1-.11-.18c0-.12 0-2.57 1.06-3.63a1.6 1.6 0 0 1 1.15-.48c.59 0 .81.28.85.52.29 1-1.68 3.17-2.71 3.75a.15.15 0 0 1-.09 0 .2.2 0 0 1-.15.02Zm2-3.87a1.11 1.11 0 0 0-.72.34 5 5 0 0 0-.92 2.88c1.05-.77 2.32-2.44 2.21-3 0-.06-.07-.21-.45-.2h-.12Z" style="fill:#093326"/><path d="m267.22 398.55-9.84 1a.79.79 0 0 0-.71.69l-1 8.18a1.34 1.34 0 0 0 1.42 1.49c3.54-.41 6.68-.91 11.09-1.34 5.22-.51 3.95.24 10.09-.27 3.7-.32 4-4.58 2.37-4.63-7.25-.2-8.2-2.29-11.22-4.58a3.14 3.14 0 0 0-2.2-.54Z" style="fill:#263238"/><path style="opacity:.2" d="m266.09 395.54-8.98.71-.7-3.32 9.02-2 .66 4.61z"/><path style="fill:#093326" d="m258.81 327.45 8.48 62.31-13.18 1.03-15.34-61.77 20.04-1.57z"/><path style="opacity:.30000000000000004" d="m258.81 327.45 8.48 62.31-13.18 1.03-15.34-61.77 20.04-1.57z"/><path d="m252.9 389.88 15.88-1.26a3.45 3.45 0 0 1-.13 3.93l-15.33 1.38s-1.52-.88-.42-4.05ZM186.26 309.06s-.91 9-.79 12.23c.68 16.87 16.66 22.82 29.4 20.48l45.26-4.9c1.84 6.13 23.16 39.89 23.16 39.89l11.21-6.44s-11.62-27.87-19.12-47.26c-4.29-11.07-38.29-11.41-51.13-9.13-3.91 1.05-3.15-5-3.15-5Z" style="fill:#093326"/><path style="fill:#fab27b" d="m286.15 377.38 4.28 7.14 7.99-3.98-4.16-8.12-8.11 4.96z"/><path d="M300 380a.21.21 0 0 1-.23-.09.2.2 0 0 1 0-.25c.09-.13 2.28-3.17 3.87-3.43a1.11 1.11 0 0 1 .85.18.82.82 0 0 1 .41.86c-.14.62-1.14 1.31-2.19 1.79a16.09 16.09 0 0 1-2.71.94Zm.53-.56c1.67-.53 3.8-1.52 3.94-2.25 0-.1 0-.24-.24-.42a.6.6 0 0 0-.52-.1 1.48 1.48 0 0 0-.41.12 10.27 10.27 0 0 0-2.81 2.67Z" style="fill:#093326"/><path d="M299.85 380.06a.2.2 0 0 1-.17-.14c0-.11-.86-2.5-.18-3.88a1.62 1.62 0 0 1 1-.85c.58-.2.88 0 1 .22.62.87-.58 3.64-1.38 4.55a.13.13 0 0 1-.09.05.2.2 0 0 1-.18.05Zm.65-4.43a1.11 1.11 0 0 0-.58.57 5.16 5.16 0 0 0 .06 3.11c.77-1.1 1.45-3.15 1.13-3.7 0-.05-.13-.18-.5-.05l-.11.07Z" style="fill:#093326"/><path d="m298.56 379.23-9.26 4.24a.83.83 0 0 0-.46.91l1.77 8.29a1.37 1.37 0 0 0 1.61 1.06 1.31 1.31 0 0 0 .28-.09c3.31-1.58 6.19-3.12 10.34-5 4.9-2.24 3.93-1.09 9.73-3.64 3.49-1.54 2.32-5.78.76-5.3-7.12 2.23-8.75.52-12.46-.7a3.24 3.24 0 0 0-2.31.23Z" style="fill:#263238"/><path style="opacity:.2" d="m288.33 381.01-2.18-3.63 8.11-4.96 2.01 3.92-7.94 4.67z"/><path d="m281.51 377.34 13.9-8.67a3.53 3.53 0 0 1 1.75 3.64l-13.35 8.53s-1.81-.08-2.3-3.5Z" style="fill:#093326"/><path style="fill:#263238" d="m206.99 345.34.27 11.68 1.23 59.93h4.05l1.23-59.93.27-11.68h-7.05z"/><path style="fill:#fff;isolation:isolate;opacity:.4" d="m206.99 345.34.27 11.68 1.23 59.93h4.05l1.23-59.93.27-11.68h-7.05z"/><path style="isolation:isolate;opacity:.2" d="m206.99 345.34.27 12h6.51l.27-12h-7.05z"/><path style="fill:#263238" d="m184.95 416.76 3.75-70.59h6.12l-5.24 70.59h-4.63z"/><path style="fill:#fff;isolation:isolate;opacity:.4" d="M189.59 416.76h-4.64l3.41-64.89.33-5.78h6.13l-.47 5.78-4.76 64.89z"/><path style="isolation:isolate;opacity:.2" d="m194.82 346.09-.47 6h-5.99l.33-6h6.13z"/><path style="fill:#263238" d="m231.45 416.76-5.25-70.59h6.13l3.75 70.59h-4.63z"/><path style="fill:#fff;isolation:isolate;opacity:.4" d="m231.44 416.76-4.76-64.89-.47-5.78h6.12l.34 5.78 3.4 64.89h-4.63z"/><path style="isolation:isolate;opacity:.2" d="m226.21 346.09.47 6h5.99l-.34-6h-6.12z"/><path d="M185.41 339.59h50.2v4.54a4.23 4.23 0 0 1-4.23 4.23h-41.74a4.23 4.23 0 0 1-4.23-4.23v-4.54Z" transform="rotate(180 210.515 343.975)" style="fill:#263238"/><rect x="183.01" y="343.97" width="55.01" height="4.38" rx="1.7" transform="rotate(180 210.515 346.165)" style="fill:#263238"/><rect x="183.01" y="343.97" width="55.01" height="4.38" rx="1.7" transform="rotate(180 210.515 346.165)" style="fill:#fff;isolation:isolate;opacity:.6000000000000001"/><path style="fill:#263238" d="M179.35 291.14h3.24l9 52.83h-3.23l-9.01-52.83zM203.36 291.14h3.23l9 52.83h-3.23l-9-52.83z"/><path style="fill:#fff;isolation:isolate;opacity:.4" d="M179.35 291.14h3.24l9 52.83h-3.23l-9.01-52.83zM203.36 291.14h3.23l9 52.83h-3.23l-9-52.83z"/><path d="M209.56 301.18h-29.81a4.46 4.46 0 0 1-4.22-4.15l-3-12.95c-.33-2.84 1.65-5.36 4.22-5.36h29.8a4.45 4.45 0 0 1 4.22 4.15l3.05 12.95c.28 2.85-1.7 5.36-4.26 5.36Z" style="fill:#263238"/><rect x="211.14" y="343.9" width="26.76" height="4.38" rx="1.7" transform="rotate(180 224.52 346.09)" style="fill:#fff;isolation:isolate;opacity:.6000000000000001"/><path style="fill:#fab27b" d="m130.71 395.68 1.63 7.66 8.32-1.09-1.21-8.5-8.74 1.93z"/><path d="M142.19 402.26a.22.22 0 0 1-.18-.15.23.23 0 0 1 .08-.23c.13-.09 3-2.12 4.5-1.87a1.14 1.14 0 0 1 .69.42.77.77 0 0 1 .11.9 3.79 3.79 0 0 1-2.5.92 15.22 15.22 0 0 1-2.7.01Zm.65-.34c1.64 0 3.84-.19 4.19-.8.05-.07.09-.2-.09-.44a.56.56 0 0 0-.43-.25 1.35 1.35 0 0 0-.4 0 9.57 9.57 0 0 0-3.27 1.49Z" style="fill:#093326"/><path d="M142.08 402.26a.21.21 0 0 1-.11-.18c0-.11 0-2.48 1-3.51a1.49 1.49 0 0 1 1.11-.46c.58 0 .78.27.83.5.28 1-1.63 3.07-2.63 3.63a.12.12 0 0 1-.08 0 .2.2 0 0 1-.12.02Zm1.93-3.75a1.15 1.15 0 0 0-.69.33 4.89 4.89 0 0 0-.89 2.79c1-.74 2.25-2.36 2.13-2.95 0-.05-.05-.19-.43-.19h-.12Z" style="fill:#093326"/><path d="m141.18 401.13-9.52.93a.78.78 0 0 0-.69.68l-1 7.92a1.28 1.28 0 0 0 1.11 1.43h.27c3.43-.4 6.47-.89 10.74-1.3 5-.5 3.83.23 9.77-.26 3.58-.31 3.83-4.43 2.3-4.49-7-.19-7.95-2.21-10.87-4.43a3.06 3.06 0 0 0-2.11-.48Z" style="fill:#263238"/><path style="opacity:.2" d="m140.09 398.22-8.69.68-.69-3.22 8.74-1.93.64 4.47z"/><path style="fill:#263238" d="m133.03 332.29 7.43 64.7-9.75 1.12-17.08-64.29 19.4-1.53z"/><path style="opacity:.30000000000000004" d="m133.03 332.29 7.43 64.7-9.75 1.12-17.08-64.29 19.4-1.53z"/><path style="fill:#fab27b" d="m159.51 380.63 4.14 6.91 7.74-3.85-4.03-7.86-7.85 4.8z"/><path d="M172.88 383.19a.21.21 0 0 1-.23-.09.21.21 0 0 1 0-.24c.1-.13 2.21-3.08 3.75-3.33a1.13 1.13 0 0 1 .82.18.82.82 0 0 1 .41.84c-.14.59-1.11 1.26-2.13 1.73a15.92 15.92 0 0 1-2.62.91Zm.51-.55c1.62-.51 3.68-1.47 3.82-2.17 0-.09 0-.23-.24-.41a.6.6 0 0 0-.5-.1 1.42 1.42 0 0 0-.4.12 10.2 10.2 0 0 0-2.68 2.56Z" style="fill:#093326"/><path d="M172.77 383.23a.21.21 0 0 1-.16-.14c0-.11-.83-2.42-.18-3.76a1.54 1.54 0 0 1 .93-.82c.56-.19.85 0 1 .21.6.85-.56 3.53-1.34 4.41a.14.14 0 0 1-.08.05.22.22 0 0 1-.17.05Zm.63-4.3a1.09 1.09 0 0 0-.56.56 5 5 0 0 0 .06 3c.74-1.07 1.4-3.05 1.09-3.58 0-.05-.12-.18-.48-.05l-.11.06Z" style="fill:#093326"/><path d="m171.52 382.43-9 4.09a.79.79 0 0 0-.44.89l1.71 8a1.32 1.32 0 0 0 1.56 1 1.12 1.12 0 0 0 .26-.08c3.21-1.54 6-3 10-4.86 4.74-2.17 3.8-1 9.41-3.52 3.38-1.49 2.25-5.59.74-5.13-6.9 2.16-8.47.5-12.06-.68a3.11 3.11 0 0 0-2.18.29Z" style="fill:#263238"/><path style="opacity:.2" d="m161.62 384.14-2.11-3.51 7.85-4.8 1.95 3.8-7.69 4.51z"/><path d="M68.89 308.6s-6.13 7.92-6.85 17.72c-1.21 16.31 12.63 20.54 28.46 19.84l43.82-4.75c1.77 5.94 25.94 42.1 25.94 42.1l9.05-5.19s-13-31.51-20.23-50.28c-4.15-10.72-37.07-11-49.51-8.84-3.77 1-3-4.88-3-4.88ZM106.15 250.91c-.14.54 0 1.06.38 1.17s.75-.25.9-.79 0-1-.38-1.16-.76.25-.9.78Z" style="fill:#263238"/><path d="M106.88 250.11h1.4s-.94.83-1.4 0Z" style="fill:#263238"/><path d="M106.46 251.57a15.4 15.4 0 0 0 1 4 2.41 2.41 0 0 1-2-.21Z" style="fill:#ed847e"/><path d="M107.83 247.55a.39.39 0 0 1-.15-.06 2.78 2.78 0 0 0-2.39-.38.33.33 0 0 1-.43-.18.34.34 0 0 1 .19-.43 3.37 3.37 0 0 1 3 .45.33.33 0 0 1-.21.6Z" style="fill:#263238"/><path d="M88.63 254.22c.13 4.19-1.66 10.94-4.95 13.08 0 0 2.12 4.52 9.66 6 8.29 1.58 4.66-3.3 4.66-3.3-4.34-2-3.67-5.27-2.37-8.25Z" style="fill:#ffc3bd"/><path d="M88.52 244.11c-1.35 6.72-2.06 9.52.38 13.9 3.67 6.58 12.22 7 15.55.9 3-5.51 4.7-15.57-1.08-20.1a9.15 9.15 0 0 0-14.85 5.3Z" style="fill:#ffc3bd"/><path d="M101.36 248.92a6.17 6.17 0 0 0 .89 3.62c.91 1.54 2.18 1.28 2.62 0s.38-3.35-.86-4.48-2.5-.56-2.65.86ZM77.59 276.08l-.09 1.05-.07 1.15c-.05.77-.08 1.54-.1 2.32v4.68a63.06 63.06 0 0 0 1 9.24l.42 2a1.2 1.2 0 0 0 .34.68 10 10 0 0 0 3 2.08 50.85 50.85 0 0 0 8.77 3.06l-.32 4.13a33.27 33.27 0 0 1-10.74-1.13 15.33 15.33 0 0 1-5.63-2.84 8.71 8.71 0 0 1-2.49-3.39l-.2-.55-.1-.33-.2-.64-.39-1.3A56 56 0 0 1 69 285.74c-.12-1.77-.18-3.55-.14-5.32q0-1.34.12-2.67c0-.45 0-.9.1-1.35s.1-.88.18-1.44Z" style="fill:#ffc3bd"/><path d="m89.19 302.48 7.55-.21-3 4.61s-3.77.84-4.9-1.86Z" style="fill:#ffc3bd"/><path style="fill:#ffc3bd" d="m98.66 304.32-.24 3.88-4.73-1.32 3.05-4.61 1.92 2.05z"/><path d="M70.06 267.6c-3.41 3.4-2.24 15.4-2.24 15.4l11.87 1.56s3.69-10.48-.23-16.33c-1.95-2.9-6.06-3.97-9.4-.63Z" style="fill:#093326"/><path d="m69.62 308.25 27.77 5.38c13.11-38.62 10-39.87 10-39.87a56.58 56.58 0 0 0-6.3-2.92c-.13-.06-.26-.1-.37-.14-1.78-.65-2.15-.75-4.53-1.44-4.09-1-7.9-1.76-12.61-2.44l-.9-.12c-.85-.11-1.69-.2-2.51-.28-.55-.06-1.1-.09-1.63-.13l-1.79-.1c-3-.15-5.21-.1-5.21-.1 1.56 24.1.4 31.02-1.92 42.16Z" style="fill:#093326"/><path d="m69.62 308.25 27.77 5.38c13.11-38.62 10-39.87 10-39.87a56.58 56.58 0 0 0-6.3-2.92c-.13-.06-.26-.1-.37-.14-1.78-.65-2.15-.75-4.53-1.44-4.09-1-7.9-1.76-12.61-2.44l-.9-.12c-.85-.11-1.69-.2-2.51-.28-.55-.06-1.1-.09-1.63-.13l-1.79-.1c-3-.15-5.21-.1-5.21-.1 1.56 24.1.4 31.02-1.92 42.16Z" style="fill:#fff;opacity:.2"/><path style="fill:#ffc3bd" d="m152.88 297.88 2.39 3.56-3.28 1.44-1.53-4.88 2.42-.12zM108.53 278.63c1.11 1.74 2.3 3.62 3.53 5.4s2.47 3.58 3.74 5.34 2.58 3.48 3.92 5.17c.67.84 1.36 1.66 2 2.49.34.42.7.81 1 1.21l.53.61.26.29.05.07a4.43 4.43 0 0 0 1.57.86 16.31 16.31 0 0 0 2.65.65 45.12 45.12 0 0 0 6.18.49c4.26.06 8.71-.16 13-.53l.83 4.06a75 75 0 0 1-13.6 2.73 43.21 43.21 0 0 1-7.23.18 23.08 23.08 0 0 1-3.93-.61 11.34 11.34 0 0 1-4.4-2.12c-.19-.15-.38-.33-.56-.5l-.32-.31-.63-.62c-.41-.42-.84-.82-1.23-1.25-.82-.83-1.61-1.69-2.38-2.56-1.55-1.73-3-3.5-4.45-5.33s-2.79-3.67-4.09-5.57-2.55-3.78-3.76-5.87Z"/><path d="m145.94 301.61 4.52-3.61 2.33 4.59s-3.79 4.22-6.73 1.45Z" style="fill:#ffc3bd"/><path d="M101.75 285.51a23.31 23.31 0 0 0 .82 12.12c2.3-7.55 3.61-12.72 4.32-16.25-2.13-.28-4.4.41-5.14 4.13Z" style="opacity:.2"/><path d="M107.13 273.63c4.63 3 7.58 9.75 8.37 13.61L104.75 296s-5.85-13.07-3.93-16.41 4.56-7.1 6.31-5.96ZM69.48 306.55l-1.66 2.23c-.13.18.06.42.38.48l29.12 5.64c.25.05.48 0 .52-.19l.66-2.42c0-.17-.15-.36-.42-.41L70 306.43a.49.49 0 0 0-.52.12Z" style="fill:#093326"/><path d="m72.74 310.41-.76-.14c-.15 0-.25-.13-.22-.22l.88-3.15c0-.09.17-.14.32-.11l.75.15c.15 0 .26.12.23.22l-.88 3.14c-.06.09-.17.14-.32.11ZM91.75 314.14 91 314c-.15 0-.25-.12-.23-.22l.89-3.14c0-.09.17-.14.32-.11l.75.14c.15 0 .25.13.22.22l-.88 3.11c-.07.12-.17.17-.32.14Z" style="opacity:.2"/><path d="M87.4 233.26a8.56 8.56 0 0 0-8 6.51c-1.48 5.08-2.61 11.62-6.15 10.93.79.83 3 1.57 3.55 1-1.84 2.65-2 4.54-1.63 9.18.41 5.79-3 5.09-3 5.09s4.72 5.3 17.12 5.27c11 0 15.55-3.3 16.63-5.56-1.56-.22-4.81-5.05-3.32-8.45s3.53-12.28 2.36-15.5c1.66 1.83 2.31 5.08 2.81 1.61s.38-7-4.37-10.38c-4.19-2.96-14.97-2.96-16 .3Z" style="fill:#263238"/><path d="M89 243c0 3-1.73 5.35-3.86 5.35S81.26 246 81.26 243s1.73-5.34 3.87-5.34S89 240.06 89 243Z" style="fill:#093326"/><path d="M82.89 234.14c-3.39-2.23-9.68 1.12-12.65 4.15S63 250.83 63 250.83a15.93 15.93 0 0 1-11.17 5s10.89 5 14.36 4.45 6.17-3.82 6.17-3.82c-1.8 3.87-3.88 7.13-6.89 8.35a18.24 18.24 0 0 0 10-5.76c2.38-2.79 2.54-9.46 2.54-9.46s4.09.55 6.45-2.32 1.81-10.89-1.57-13.13ZM81.64 345.56l.27 11.68 1.23 59.93h4.05l1.23-59.93.27-11.68h-7.05z" style="fill:#263238"/><path style="fill:#fff;isolation:isolate;opacity:.4" d="m81.64 345.56.27 11.68 1.23 59.93h4.05l1.23-59.93.27-11.68h-7.05z"/><path style="isolation:isolate;opacity:.2" d="m81.64 345.56.27 12h6.51l.27-12h-7.05z"/><path style="fill:#263238" d="m59.6 416.99 3.75-70.6h6.12l-5.24 70.6H59.6z"/><path style="fill:#fff;isolation:isolate;opacity:.4" d="M64.24 416.99H59.6l3.41-64.9.33-5.78h6.13l-.47 5.78-4.76 64.9z"/><path style="isolation:isolate;opacity:.2" d="m69.47 346.31-.47 6h-5.99l.33-6h6.13z"/><path style="fill:#263238" d="m106.1 416.99-5.25-70.6h6.13l3.75 70.6h-4.63z"/><path style="fill:#fff;isolation:isolate;opacity:.4" d="m106.09 416.99-4.76-64.9-.47-5.78h6.12l.34 5.78 3.4 64.9h-4.63z"/><path style="isolation:isolate;opacity:.2" d="m100.86 346.31.47 6h5.99l-.34-6h-6.12z"/><path d="M60.06 339.81h50.2v4.54a4.23 4.23 0 0 1-4.23 4.23H64.29a4.23 4.23 0 0 1-4.23-4.23v-4.54Z" transform="rotate(180 85.165 344.195)" style="fill:#263238"/><rect x="57.66" y="344.19" width="55.01" height="4.38" rx="1.7" transform="rotate(180 85.165 346.385)" style="fill:#263238"/><rect x="57.66" y="344.19" width="55.01" height="4.38" rx="1.7" transform="rotate(180 85.165 346.385)" style="fill:#fff;isolation:isolate;opacity:.6000000000000001"/><path style="fill:#263238" d="M54 291.36h3.24l9 52.83h-3.23L54 291.36zM78.01 291.36h3.23l9.01 52.83h-3.24l-9-52.83z"/><path style="fill:#fff;isolation:isolate;opacity:.4" d="M54 291.36h3.24l9 52.83h-3.23L54 291.36zM78.01 291.36h3.23l9.01 52.83h-3.24l-9-52.83z"/><path d="M84.21 301.41H54.4a4.46 4.46 0 0 1-4.22-4.16l-3-12.95c-.33-2.84 1.65-5.36 4.22-5.36h29.8a4.45 4.45 0 0 1 4.22 4.15l3.05 13c.28 2.8-1.7 5.32-4.26 5.32Z" style="fill:#263238"/><rect x="85.79" y="344.12" width="26.76" height="4.38" rx="1.7" transform="rotate(180 99.17 346.31)" style="fill:#fff;isolation:isolate;opacity:.6000000000000001"/><text style="fill:#263238;font-family:Arial,sans-serif;font-size:16.8px;font-weight:700;white-space:pre;transform-box:fill-box;transform-origin:34.0802px 9.50125px" transform="matrix(.95078 -.00427 .02022 1.06148 6.124 .565)" x="312.95" y="116.307">REACT</text><text style="fill:#e0e0e0;font-family:Arial,sans-serif;font-size:16.8px;font-weight:700;white-space:pre;transform-origin:347.03px 110.516px" transform="matrix(.51242 -.0023 .00972 .51004 -136.784 -21.419)" x="312.95" y="116.307">REACT</text></svg>