<svg xmlns="http://www.w3.org/2000/svg" viewBox="0 0 500 500"><ellipse cx="250" cy="347.75" rx="243.61" ry="145.8" style="fill:#0c4536"/><path d="M484.56 111.08c0-31.33-20.64-68.65-46.1-83.34-13.47-7.78-25.6-7.66-34-1.18C394 30.91 387.25 43 387.25 60.82v143.77l92.18 53.22 5.13-3Z" style="fill:#e6e6e6"/><path d="M479.43 257.81V114c0-31.33-20.63-68.65-46.09-83.35s-46.09-1.21-46.09 30.13v143.81Z" style="fill:#f5f5f5"/><path d="M474.39 114v135l-82.1-47.41V60.82c0-15.66 5.51-26.46 14.78-29.86a19 19 0 0 1 6.72-1.16c5.24 0 11 1.76 17 5.27 24.06 13.86 43.6 49.29 43.6 78.93Z" style="fill:#e0e0e0"/><path style="fill:#ebebeb" d="m392.29 201.67 5.21-3 76.89 44.4v6l-82.1-47.4z"/><path d="M474.39 114v129l-76.89-44.4V57.81C397.49 45.37 401 36 407.07 31a19 19 0 0 1 6.72-1.16c5.24 0 11 1.76 17 5.27 24.06 13.82 43.6 49.25 43.6 78.89Z" style="fill:#0c4536"/><path style="fill:#f5f5f5" d="m435.86 226.83-5.04-2.91V33.25h5.04v193.58z"/><path d="M440.91 42.35v181.57l-5.05 2.9V38.33c1.72 1.24 3.4 2.57 5.05 4.02Z" style="fill:#e0e0e0"/><path style="fill:#f5f5f5" d="m392.29 166.1 38.53 22.25v5.91l-38.53-22.24v-5.92z"/><path style="fill:#ebebeb" d="m397.5 163.1-5.21 3 38.53 22.25v-5.91L397.5 163.1z"/><path style="fill:#f5f5f5" d="m435.86 191.25 38.53 22.25v5.91l-38.53-22.23v-5.93z"/><path style="fill:#ebebeb" d="m441.07 188.25-5.21 3 38.53 22.25v-5.91l-33.32-19.34z"/><path style="fill:#f5f5f5" d="m392.29 72.05 38.53 22.25v5.91l-38.53-22.24v-5.92z"/><path style="fill:#ebebeb" d="m397.5 69.05-5.21 3 38.53 22.25v-5.92L397.5 69.05z"/><path style="fill:#f5f5f5" d="m435.86 97.2 38.53 22.25v5.91l-38.53-22.24V97.2z"/><path style="fill:#ebebeb" d="m441.07 94.2-5.21 3 38.53 22.25v-5.92L441.07 94.2z"/><path d="m311.47 308.7-5.05-2.91a13.66 13.66 0 0 0-12.39 0l-266.66 154c-3.41 2-3.41 5.18 0 7.15l5 2.92a13.81 13.81 0 0 0 12.4 0l81-46.77 36 20.81c9.29 5.36 24.49 5.36 33.78 0l55.89-32.27c7.93-4.58 7.93-12.08 0-16.66L213 372.7l98.45-56.84c3.43-1.97 3.43-5.19.02-7.16ZM387.89 431.05c26.72-15.43 26.72-40.45 0-55.87s-70.05-15.43-96.77 0-26.72 40.44 0 55.87 70.04 15.42 96.77 0Z" style="fill:#e0e0e0"/><path d="m196.29 435.57 46.23-26.73c4.76-2.75 7.14-6.36 7.15-10s0-6.43 0-6.43l-43.51-24.69a10.15 10.15 0 0 1-4.6-8v-57l-80.75 46.66v57a10.15 10.15 0 0 0 4.6 8l36.34 21.16c9.55 5.53 25 5.53 34.54.03Z" style="fill:#f5f5f5"/><path d="M140.22 416.53v6.41l-14.8-8.53a10.16 10.16 0 0 1-4.6-8v-57l15.39-8.88c.32 3.91.66 7.95 1 11.88l-10.79 6.24v44.53a10.11 10.11 0 0 0 4.6 8Z" style="opacity:.15"/><path d="M126.4 403.23a10.15 10.15 0 0 0 4.6 8l30.76 17.94c9.54 5.5 25 5.5 34.52 0l46.26-26.73c9.53-5.5 9.53-14.42 0-19.92l-30.79-17.95a10.17 10.17 0 0 1-4.6-8V312l-80.75 46.69Z" style="fill:#e6e6e6"/><path d="m221.13 370-9.38-5.41a10.17 10.17 0 0 1-4.6-8V312l-80.75 46.69v44.54a10.15 10.15 0 0 0 4.6 8l9.21 5.32Z" style="opacity:.15"/><path d="M30.21 438.38c3 1.72 8 1.63 11.15-.21L303.3 286.92a12.69 12.69 0 0 0 5.75-10v-242c0-3.67-2.42-8-5.4-9.76s-8-1.63-11.15.2L30.57 176.61a12.72 12.72 0 0 0-5.75 10v242c-.01 3.68 2.41 8.05 5.39 9.77Z" style="fill:#455a64"/><path d="M41.36 438.17 303.3 286.92a12.72 12.72 0 0 0 5.75-10v-242c0-3.67-2.57-5.16-5.75-3.32L41.36 182.84a12.72 12.72 0 0 0-5.75 10v242.01c0 3.66 2.57 5.15 5.75 3.32Z" style="fill:#37474f"/><path d="M35.61 415.28v19.57c0 3.66 2.57 5.15 5.75 3.32L303.3 286.92a12.72 12.72 0 0 0 5.75-10v-19.54Z" style="fill:#ebebeb"/><path d="M43.21 397.07v-201.7a7.81 7.81 0 0 1 3.54-6.13l251.15-145c2-1.13 3.54-.21 3.54 2V248a7.81 7.81 0 0 1-3.54 6.13l-251.16 145c-1.95 1.11-3.53.2-3.53-2.06ZM26.51 180.89l10.79 6.22a12.1 12.1 0 0 0-1.7 5.69v242.05c0 3.34 2.26 5.21 5.75 3.32a12.2 12.2 0 0 1-11.15.21 11.07 11.07 0 0 1-5.4-9.06V186.58a11.9 11.9 0 0 1 1.71-5.69Z" style="fill:#263238"/><path d="m169.16 349.1 13-7.47c1.16-.68 2.11-.2 2.11 1.06a4.55 4.55 0 0 1-2.11 3.51l-13 7.46c-1.17.68-2.11.2-2.11-1.06a4.5 4.5 0 0 1 2.11-3.5Z" style="fill:#105f38"/><path d="M50.68 388.89a1.91 1.91 0 0 1-1-.26 1.86 1.86 0 0 1-.94-1.63V195.7a2.06 2.06 0 0 1 .35-.61l.13-.1 244.3-141.22a1.89 1.89 0 0 1 2.83 1.64v191.3a2 2 0 0 1-.34.6l-.13.11L51.62 388.63a1.91 1.91 0 0 1-.94.26ZM49.83 196v191a.85.85 0 0 0 1.27.74l244.15-141.17.08-.13v-191a.86.86 0 0 0-1.28-.74L49.9 195.84Z" style="fill:#455a64"/><path d="M295.84 73.2V55.4a1.37 1.37 0 0 0-2.06-1.18L49.56 195.44a1.43 1.43 0 0 0-.25.43v19.88Z" style="fill:#37474f"/><path d="m55.06 195.42 1.52-.87c.74-.43 1.34-.09 1.34.77v1.75a3 3 0 0 1-1.34 2.34l-1.52.87c-.74.43-1.35.08-1.35-.78v-1.75a3 3 0 0 1 1.35-2.33Z" style="fill:#105f38"/><path d="m55.06 204.27 1.52-.88c.74-.43 1.34-.08 1.34.78v1.75a3 3 0 0 1-1.34 2.33l-1.52.88c-.74.43-1.35.08-1.35-.78v-1.75a3 3 0 0 1 1.35-2.33ZM84.52 187.26l1.52-.88c.74-.43 1.34-.08 1.34.78v1.75a3 3 0 0 1-1.38 2.33l-1.52.88c-.74.42-1.34.08-1.34-.78v-1.75a3 3 0 0 1 1.38-2.33Z" style="fill:#455a64"/><path d="m92.94 182.39 1.52-.87c.74-.43 1.34-.08 1.34.78v1.75a3 3 0 0 1-1.34 2.33l-1.52.87c-.74.43-1.34.09-1.34-.77v-1.75a3 3 0 0 1 1.34-2.34Z" style="fill:#263238"/><path d="m101.36 177.53 1.52-.87c.74-.43 1.34-.08 1.34.78v1.75a3 3 0 0 1-1.34 2.33l-1.52.87c-.74.43-1.35.09-1.35-.77v-1.75a3 3 0 0 1 1.35-2.34ZM62.13 194.29a.54.54 0 0 1-.45-.26.52.52 0 0 1 .19-.71L74.5 186a.52.52 0 0 1 .71.19.53.53 0 0 1-.19.71l-12.63 7.29a.48.48 0 0 1-.26.1ZM100 172.42a.52.52 0 0 1-.26-1l12.63-7.29a.52.52 0 1 1 .52.89l-12.63 7.3a.59.59 0 0 1-.26.1ZM154.73 140.82a.53.53 0 0 1-.45-.26.52.52 0 0 1 .19-.7l12.63-7.29a.52.52 0 1 1 .52.89L155 140.75a.48.48 0 0 1-.27.07ZM83.18 182.14a.52.52 0 0 1-.26-1l8.42-4.86a.5.5 0 0 1 .7.19.51.51 0 0 1-.19.71l-8.41 4.86a.63.63 0 0 1-.26.1ZM121.06 160.26a.51.51 0 0 1-.26-1l8.42-4.86a.52.52 0 1 1 .52.89l-8.42 4.86a.48.48 0 0 1-.26.11ZM137.9 150.54a.51.51 0 0 1-.26-1l8.42-4.86a.51.51 0 1 1 .51.89l-8.41 4.86a.54.54 0 0 1-.26.11ZM175.78 128.67a.51.51 0 0 1-.26-1l8.42-4.86a.51.51 0 0 1 .7.18.52.52 0 0 1-.18.71l-8.46 4.9a.48.48 0 0 1-.22.07ZM192.61 119a.51.51 0 0 1-.25-1l4.21-2.44a.52.52 0 0 1 .51.9l-4.21 2.43a.48.48 0 0 1-.26.11ZM205.24 111.66a.52.52 0 0 1-.45-.26.53.53 0 0 1 .19-.71l12.63-7.29a.53.53 0 0 1 .71.19.52.52 0 0 1-.19.71l-12.63 7.29a.48.48 0 0 1-.26.07Z" style="fill:#455a64"/><path d="m63 199.19 10.83-6.25c.5-.29.9-.06.9.52v2.78a2 2 0 0 1-.9 1.56L63 204.05c-.5.29-.9.06-.9-.52v-2.78a2 2 0 0 1 .9-1.56ZM109.33 172.41l10.83-6.25c.5-.29.9 0 .9.52v2.79a2 2 0 0 1-.9 1.55l-10.83 6.26c-.5.28-.9.05-.9-.52V174a2 2 0 0 1 .9-1.59ZM151.42 148.11l10.83-6.25c.5-.29.9-.06.9.52v2.79a2 2 0 0 1-.9 1.55L151.42 153c-.49.29-.9.06-.9-.51v-2.79a2 2 0 0 1 .9-1.59ZM189.3 126.24l10.84-6.24c.49-.29.89-.06.89.52v2.78a2 2 0 0 1-.89 1.56l-10.84 6.24c-.49.29-.89.06-.89-.52v-2.78a2 2 0 0 1 .89-1.56Z" style="fill:#263238"/><path d="M129.48 163.47a.52.52 0 0 1-.26-1l16.83-9.72a.51.51 0 0 1 .71.19.5.5 0 0 1-.19.7l-16.83 9.73a.59.59 0 0 1-.26.1ZM171.58 139.28a.5.5 0 0 1-.44-.26.51.51 0 0 1 .19-.71l11.28-6.51a.52.52 0 0 1 .71.19.52.52 0 0 1-.19.71l-11.29 6.51a.48.48 0 0 1-.26.07Z" style="fill:#455a64"/><path d="M291.81 59c1-.59 1.86-.11 1.86 1.07a4.09 4.09 0 0 1-1.86 3.22c-1 .59-1.86.11-1.86-1.07a4.12 4.12 0 0 1 1.86-3.22Z" style="fill:#e0e0e0"/><path d="M285.12 62.8c1-.59 1.86-.11 1.86 1.08a4.09 4.09 0 0 1-1.86 3.21c-1 .6-1.85.12-1.85-1.07a4.14 4.14 0 0 1 1.85-3.22ZM278.44 66.66c1-.59 1.85-.11 1.85 1.07a4.11 4.11 0 0 1-1.85 3.27c-1 .59-1.86.11-1.86-1.07a4.09 4.09 0 0 1 1.86-3.27Z" style="fill:#263238"/><path d="M81.87 211.92a.88.88 0 0 0-.87.08l-21.59 12.44a2.84 2.84 0 0 0-1.28 2.23v139.55a.92.92 0 0 0 .36.82c.23.15 4 2.3 4.22 2.44a.9.9 0 0 0 .91-.09L85.17 357a2.82 2.82 0 0 0 1.28-2.22v-139.6a.91.91 0 0 0-.38-.84Z" style="fill:#455a64"/><path d="m62.34 233.92.37-6.08-4.21-2.43a2.61 2.61 0 0 0-.37 1.26v139.55a.92.92 0 0 0 .36.82c.24.15 4 2.3 4.22 2.44a.9.9 0 0 0 .91-.09l-1.28-.74Z" style="fill:#37474f"/><path d="M62.34 229.1v139.55c0 .82.57 1.15 1.28.74L85.17 357a2.82 2.82 0 0 0 1.28-2.22v-139.6c0-.82-.57-1.15-1.28-.74l-21.55 12.43a2.84 2.84 0 0 0-1.28 2.23Z" style="fill:#455a64"/><path d="m85.17 214.44-21.55 12.43a2.84 2.84 0 0 0-1.28 2.23v4.82L86.45 220v-4.82c0-.82-.57-1.18-1.28-.74Z" style="fill:#37474f"/><g style="opacity:.2"><path d="m65.87 237.84 6-3.49c.45-.26.82 0 .82.47v7a1.78 1.78 0 0 1-.82 1.42l-6 3.49c-.46.27-.82 0-.82-.47v-7a1.8 1.8 0 0 1 .82-1.42ZM76.87 231.49l6-3.49c.46-.26.82-.05.82.47v7a1.8 1.8 0 0 1-.81 1.42l-6 3.49c-.45.27-.82 0-.82-.47v-7a1.82 1.82 0 0 1 .81-1.42ZM65.87 250.3l6-3.49c.45-.26.82-.05.82.47v7a1.78 1.78 0 0 1-.82 1.42l-6 3.5c-.46.26-.82.05-.82-.48v-7a1.8 1.8 0 0 1 .82-1.42ZM76.87 244l6-3.49c.46-.26.82-.05.82.47v7a1.79 1.79 0 0 1-.81 1.41l-6 3.5c-.45.26-.82 0-.82-.48v-7a1.82 1.82 0 0 1 .81-1.41ZM65.87 262.76l6-3.49c.45-.26.82 0 .82.47v7a1.81 1.81 0 0 1-.82 1.42l-6 3.49c-.46.26-.82.05-.82-.48v-7a1.8 1.8 0 0 1 .82-1.41ZM76.87 256.41l6-3.49c.46-.26.82 0 .82.48v7a1.83 1.83 0 0 1-.81 1.42l-6 3.49c-.45.26-.82 0-.82-.47v-7a1.82 1.82 0 0 1 .81-1.43ZM65.87 275.22l6-3.49c.45-.26.82-.05.82.48v7a1.8 1.8 0 0 1-.82 1.42l-6 3.49c-.46.26-.82 0-.82-.47v-7a1.81 1.81 0 0 1 .82-1.43ZM76.87 268.87l6-3.49c.46-.26.82-.05.82.48v7a1.81 1.81 0 0 1-.81 1.42l-6 3.49c-.45.26-.82.05-.82-.47v-7a1.84 1.84 0 0 1 .81-1.43ZM65.87 287.69l6-3.49c.45-.27.82-.05.82.47v7a1.8 1.8 0 0 1-.82 1.42l-6 3.49c-.46.26-.82.05-.82-.47v-7a1.78 1.78 0 0 1 .82-1.42ZM76.87 281.34l6-3.49c.46-.27.82-.05.82.47v7a1.81 1.81 0 0 1-.81 1.42l-6 3.49c-.45.26-.82.05-.82-.47v-7a1.81 1.81 0 0 1 .81-1.42ZM65.87 300.15l6-3.49c.45-.26.82-.05.82.47v7a1.8 1.8 0 0 1-.82 1.42l-6 3.49c-.46.26-.82.05-.82-.47v-7a1.78 1.78 0 0 1 .82-1.42ZM76.87 293.8l6-3.49c.46-.26.82-.05.82.47v7a1.81 1.81 0 0 1-.81 1.42l-6 3.49c-.45.26-.82.05-.82-.47v-7a1.81 1.81 0 0 1 .81-1.42ZM65.87 312.61l6-3.49c.45-.26.82-.05.82.47v7a1.78 1.78 0 0 1-.82 1.42l-6 3.49c-.46.27-.82 0-.82-.47v-7a1.8 1.8 0 0 1 .82-1.42ZM76.87 306.26l6-3.49c.46-.26.82 0 .82.47v7a1.8 1.8 0 0 1-.81 1.42l-6 3.49c-.45.27-.82.05-.82-.47v-7a1.82 1.82 0 0 1 .81-1.42ZM65.87 325.07l6-3.49c.45-.26.82-.05.82.47v7a1.78 1.78 0 0 1-.82 1.41l-6 3.5c-.46.26-.82.05-.82-.48v-7a1.8 1.8 0 0 1 .82-1.41ZM76.87 318.72l6-3.49c.46-.26.82-.05.82.47v7a1.79 1.79 0 0 1-.81 1.41l-6 3.5c-.45.26-.82 0-.82-.48v-7a1.82 1.82 0 0 1 .81-1.41Z" style="fill:#fff"/></g><path d="m65.74 340.54 10.15-5.86c.76-.43 1.37-.08 1.37.8v11.71a3 3 0 0 1-1.37 2.38l-10.15 5.86c-.75.44-1.37.09-1.37-.79v-11.72a3 3 0 0 1 1.37-2.38Z" style="fill:#fafafa"/><path d="M82.28 342.84v9.6a1 1 0 0 1-.28.56l-8.32 4.81v-9.6a1.09 1.09 0 0 1 .32-.55l8.32-4.81m1.37-3.08a1.2 1.2 0 0 0-.69.23l-10.11 5.8a3 3 0 0 0-1.37 2.38v11.72c0 .62.31 1 .76 1a1.31 1.31 0 0 0 .61-.18L83 354.84a3 3 0 0 0 1.37-2.38v-11.72c0-.62-.31-1-.76-1Z" style="fill:#263238"/><path d="M102.47 414.17a1.91 1.91 0 0 0 1-.3l181.71-105a8.13 8.13 0 0 0 3.63-6.27V109.17c0-1.35-.57-2.16-1.53-2.16a3 3 0 0 0-1.43.45L104.11 212.38a8.15 8.15 0 0 0-3.63 6.28v192.48a4 4 0 0 0 .63 2.22 1.69 1.69 0 0 0 1.36.81Z" style="fill:#acc7ba"/><path d="M96.42 411.71c.43.23 3.51 2 4.85 2.76a4 4 0 0 1-1.45-3.33V224l-5.07-2.92v187.2a3.83 3.83 0 0 0 1.67 3.43Z" style="fill:#37474f"/><path d="M287.25 107.68c.75 0 .86.93.86 1.49v193.45a7.39 7.39 0 0 1-3.29 5.69l-181.71 105a1.38 1.38 0 0 1-.64.2c-.7 0-1.32-1.1-1.32-2.36V218.66a7.41 7.41 0 0 1 3.29-5.7L286.15 108a2.26 2.26 0 0 1 1.1-.36m0-1.34a3.69 3.69 0 0 0-1.77.54L103.77 211.8a8.79 8.79 0 0 0-4 6.86v192.48c0 2 1.11 3.7 2.66 3.7a2.58 2.58 0 0 0 1.31-.39l181.7-105a8.73 8.73 0 0 0 4-6.85V109.17c0-1.79-.89-2.83-2.19-2.83Z" style="fill:#455a64"/><path d="M289.44 109.09v5.41L99.82 224l-5.07-2.92v-5.27a8.29 8.29 0 0 1 1.2-4 8 8 0 0 1 2.76-2.89L280.43 104a2.83 2.83 0 0 1 2.88-.24c.73.45 4.19 2.42 4.9 2.78a1.08 1.08 0 0 1 .3.21 1.86 1.86 0 0 1 .32.31 2.26 2.26 0 0 1 .25.4 2.09 2.09 0 0 1 .19.48 2.36 2.36 0 0 1 .12.54 3.33 3.33 0 0 1 .05.61Z" style="fill:#263238"/><path d="M289.44 109.09v5.41L99.82 224v-5.31a7.07 7.07 0 0 1 .48-2.46c0-.13.09-.27.15-.41a9.85 9.85 0 0 1 .55-1.07 7.84 7.84 0 0 1 2.78-2.92l181.7-104.91a2.62 2.62 0 0 1 3-.12 1.86 1.86 0 0 1 .32.31 2.26 2.26 0 0 1 .25.4 2.09 2.09 0 0 1 .19.48 2.36 2.36 0 0 1 .12.54 3.33 3.33 0 0 1 .08.56Z" style="fill:#37474f"/><path d="M275.89 115.56a3.4 3.4 0 0 0-1.29 2.72c0 1.09.58 1.65 1.29 1.24a3.4 3.4 0 0 0 1.29-2.73c0-1.09-.58-1.65-1.29-1.23ZM280.52 112.88a3.39 3.39 0 0 0-1.28 2.72c0 1.09.57 1.65 1.28 1.24a3.4 3.4 0 0 0 1.29-2.73c0-1.11-.58-1.65-1.29-1.23ZM285.16 110.19a3.4 3.4 0 0 0-1.29 2.73c0 1.09.58 1.65 1.29 1.24a3.4 3.4 0 0 0 1.28-2.73c0-1.09-.57-1.65-1.28-1.24Z" style="fill:#fafafa"/><path d="M285.48 106.88 103.78 211.8a8.15 8.15 0 0 0-2.79 2.94l-5-2.91a8 8 0 0 1 2.75-2.9L280.43 104a2.79 2.79 0 0 1 2.87-.24c.71.44 4 2.31 4.84 2.75a2.92 2.92 0 0 0-2.66.37ZM99.82 223.97v9.72l188.29-108.7v-9.72L99.82 223.97z" style="fill:#455a64"/><path d="M108.24 219.11v192.76l-4.46 2.58a2.56 2.56 0 0 1-1.31.38c-1.55 0-2.66-1.68-2.66-3.68V224l1.33-.76Z" style="fill:#455a64"/><g style="opacity:.2"><path d="M159.27 199.08v-9.44l-1 .6v8.84a.52.52 0 0 0 .52.52.4.4 0 0 0 .15 0l.22-.13a.5.5 0 0 0 .11-.39ZM176.11 189.36v-9.45l-1 .6v8.85a.52.52 0 0 0 .52.52.32.32 0 0 0 .14 0l.24-.13a.55.55 0 0 0 .1-.39ZM167.69 194.22v-4.86a.52.52 0 0 0-.52-.52.53.53 0 0 0-.52.52v4.86a.52.52 0 0 0 .52.52h.15l.22-.12a.56.56 0 0 0 .15-.4ZM108.75 228.25v-9.44l-1 .6v8.84a.5.5 0 0 0 .7.48l.12-.07a.5.5 0 0 0 .18-.41ZM201.37 174.78v-4.86a.52.52 0 0 0-.52-.52.52.52 0 0 0-.52.52v4.86a.52.52 0 0 0 .52.52h.13l.24-.14a.49.49 0 0 0 .15-.38ZM184.53 184.5v-4.86a.52.52 0 0 0-.52-.52.53.53 0 0 0-.52.52v4.86a.52.52 0 0 0 .52.52.35.35 0 0 0 .14 0l.23-.13a.51.51 0 0 0 .15-.39ZM193 179.64v-9.45l-1 .6v8.85a.52.52 0 0 0 .52.52.28.28 0 0 0 .13 0l.25-.14a.53.53 0 0 0 .1-.38ZM125.59 218.53v-9.44l-1 .6v8.84a.53.53 0 0 0 .52.52.47.47 0 0 0 .17 0l.17-.1a.49.49 0 0 0 .14-.42ZM117.17 223.39v-4.86a.51.51 0 0 0-.51-.52.51.51 0 0 0-.51.52v4.86a.52.52 0 0 0 .52.52.58.58 0 0 0 .18 0l.11-.07a.49.49 0 0 0 .21-.45ZM150.85 204v-4.86a.52.52 0 0 0-.52-.52.51.51 0 0 0-.51.51v4.86a.52.52 0 0 0 .52.52.41.41 0 0 0 .16 0l.2-.12a.48.48 0 0 0 .15-.39ZM209.79 169.92v-9.45l-1 .59v8.86a.52.52 0 0 0 .52.52h.12l.26-.15a.52.52 0 0 0 .1-.37ZM142.43 208.81v-9.45l-1 .6v8.85a.52.52 0 0 0 .52.51.41.41 0 0 0 .16 0l.21-.12a.51.51 0 0 0 .11-.39ZM134 213.67v-4.86a.52.52 0 0 0-.52-.52.51.51 0 0 0-.51.51v4.86a.52.52 0 0 0 .52.52.47.47 0 0 0 .17 0l.15-.09a.49.49 0 0 0 .19-.42ZM218.2 165.06v-4.86a.52.52 0 0 0-.52-.52.52.52 0 0 0-.52.52v4.86a.52.52 0 0 0 .52.52h.12l.26-.15a.51.51 0 0 0 .14-.37ZM235 155.34v-4.86a.52.52 0 0 0-.52-.52.52.52 0 0 0-.52.52v4.86a.52.52 0 0 0 .52.52.45.45 0 0 0 .11 0l.27-.15a.51.51 0 0 0 .14-.37ZM226.63 160.2v-9.46l-1 .6v8.86a.52.52 0 0 0 .52.52h.11l.28-.16a.51.51 0 0 0 .09-.36ZM243.47 150.48V141l-1 .6v8.85a.52.52 0 0 0 .52.52.58.58 0 0 0 .14 0l.23-.14a.49.49 0 0 0 .11-.35ZM268.72 135.9V131a.52.52 0 0 0-.52-.52.51.51 0 0 0-.52.51v4.87a.51.51 0 0 0 .51.51h.13l.24-.14a.52.52 0 0 0 .16-.33ZM251.88 145.62v-4.86a.52.52 0 0 0-.52-.52.52.52 0 0 0-.52.52v4.86a.52.52 0 0 0 .52.52.7.7 0 0 0 .14 0l.23-.14a.48.48 0 0 0 .15-.38ZM260.31 140.76v-9.45l-1 .59v8.86a.52.52 0 0 0 .52.52.5.5 0 0 0 .13 0l.25-.14a.57.57 0 0 0 .1-.38ZM277.15 131v-9.46l-1 .6V131a.51.51 0 0 0 .52.51h.12l.26-.15a.52.52 0 0 0 .1-.36ZM285.56 126.18v-4.86a.52.52 0 0 0-.52-.52.51.51 0 0 0-.52.51v4.86a.51.51 0 0 0 .51.52h.12l.26-.15a.51.51 0 0 0 .15-.36Z" style="fill:#fff"/></g><g style="opacity:.2"><path d="m100.08 273.16 8.16-4.78v-1.11a.63.63 0 0 0-.27.06l-8.16 4.78v1.12a.59.59 0 0 0 .27-.07ZM103.77 279.55a.52.52 0 0 0-.19.71.54.54 0 0 0 .45.26.48.48 0 0 0 .26-.07l3.95-2.29v-1.1a.53.53 0 0 0-.27.06ZM103.77 299.06a.52.52 0 0 0-.19.71.54.54 0 0 0 .45.26.59.59 0 0 0 .26-.07l3.95-2.29v-1.1a.45.45 0 0 0-.27.06ZM100.08 292.66l8.16-4.77v-1.11a.63.63 0 0 0-.27.06l-8.16 4.78v1.11a.5.5 0 0 0 .27-.07ZM103.77 260a.52.52 0 0 0-.19.71.52.52 0 0 0 .45.26.48.48 0 0 0 .26-.07l3.95-2.28v-1.11a.53.53 0 0 0-.27.06ZM99.81 234.21a.48.48 0 0 0 .26-.07l8.16-4.78v-1.1a.51.51 0 0 0-.27.06l-8.16 4.78ZM108.24 403.83a.51.51 0 0 0-.27.06l-8.16 4.78v1.11a.48.48 0 0 0 .26-.07l8.16-4.77ZM100.08 253.65l8.16-4.78v-1.1a.43.43 0 0 0-.27.06l-8.16 4.77v1.12a.48.48 0 0 0 .27-.07ZM104.29 241.43l3.95-2.28V238a.53.53 0 0 0-.27.06l-4.2 2.44a.51.51 0 0 0 .26 1 .48.48 0 0 0 .26-.07ZM100.08 312.17l8.16-4.77v-1.11a.51.51 0 0 0-.27.06l-8.16 4.78v1.11a.48.48 0 0 0 .27-.07ZM100.08 390.2l8.16-4.77v-1.11a.63.63 0 0 0-.27.06l-8.16 4.78v1.11a.48.48 0 0 0 .27-.07ZM103.77 377.09a.52.52 0 0 0-.19.71.54.54 0 0 0 .45.26.48.48 0 0 0 .26-.07l3.95-2.29v-1.1a.53.53 0 0 0-.27.06ZM100.08 370.7l8.16-4.78v-1.11a.52.52 0 0 0-.27.07l-8.16 4.77v1.12a.59.59 0 0 0 .27-.07ZM104 397.57a.59.59 0 0 0 .26-.07l3.95-2.29v-1.1a.53.53 0 0 0-.27.06l-4.2 2.43a.52.52 0 0 0-.19.71.54.54 0 0 0 .45.26ZM100.08 331.68l8.16-4.77v-1.11a.51.51 0 0 0-.27.06l-8.16 4.78v1.11a.48.48 0 0 0 .27-.07ZM103.77 318.57a.51.51 0 0 0 .26 1 .48.48 0 0 0 .26-.07l3.95-2.28v-1.11a.54.54 0 0 0-.27.07ZM103.77 338.08a.51.51 0 0 0-.19.7.52.52 0 0 0 .45.26.48.48 0 0 0 .26-.07l3.95-2.28v-1.11a.53.53 0 0 0-.27.06ZM103.77 357.58a.52.52 0 0 0-.19.71.52.52 0 0 0 .45.26.48.48 0 0 0 .26-.07l3.95-2.28v-1.11a.53.53 0 0 0-.27.06ZM100.08 351.19l8.16-4.78v-1.1a.51.51 0 0 0-.27.06l-8.16 4.77v1.12a.48.48 0 0 0 .27-.07Z" style="fill:#fff"/></g><path d="M162.06 327.61a44.7 44.7 0 0 1-9.92 8c-16.17 9.33-29.28-.58-29.28-22.14s13.11-46.61 29.28-55.94c15.59-9 28.33-.12 29.23 19.85l-24.18 41.21v7.17l4.87-8.28Z" style="fill:#105f38"/><path d="M162.06 327.61a44.7 44.7 0 0 1-9.92 8c-16.17 9.33-29.28-.58-29.28-22.14s13.11-46.61 29.28-55.94c15.59-9 28.33-.12 29.23 19.85l-24.18 41.21v7.17l4.87-8.28Z" style="fill:#fff;opacity:.35000000000000003"/><path d="M224.74 234.33a.64.64 0 0 1-.63-.63v-38.52a.63.63 0 0 1 .31-.54l21.37-12.34a.62.62 0 0 1 .62 0 .63.63 0 0 1 .32.54v38.53a.62.62 0 0 1-.32.54l-21.36 12.33a.61.61 0 0 1-.31.09Zm.62-38.79v37.08L245.48 221v-37.07Z" style="fill:#455a64"/><path d="M224.74 203.47a.65.65 0 0 1-.55-.32.62.62 0 0 1 .23-.85l21.37-12.3a.62.62 0 0 1 .85.22.63.63 0 0 1-.23.86l-21.36 12.33a.61.61 0 0 1-.31.06ZM190.05 254.35a.71.71 0 0 1-.31-.08.63.63 0 0 1-.31-.54V215.2a.63.63 0 0 1 .31-.54l21.37-12.33a.62.62 0 0 1 .93.54v38.52a.63.63 0 0 1-.31.54l-21.36 12.34a.72.72 0 0 1-.32.08Zm.63-38.79v37.08L210.79 241v-37Z" style="fill:#455a64"/><path d="M190.05 223.49a.63.63 0 0 1-.54-.31.62.62 0 0 1 .23-.85L211.11 210a.62.62 0 1 1 .62 1.08l-21.36 12.34a.72.72 0 0 1-.32.07ZM173.71 345.65a.55.55 0 0 1-.31-.08.61.61 0 0 1-.31-.54v-33.38a.61.61 0 0 1 .31-.54l32.79-18.93a.6.6 0 0 1 .63 0 .62.62 0 0 1 .31.54v33.37a.62.62 0 0 1-.31.54L174 345.57a.55.55 0 0 1-.29.08Zm.63-33.64V344l31.54-18.22V293.8Z" style="fill:#455a64"/><path d="M173.63 319a.61.61 0 0 1-.54-.31.62.62 0 0 1 .22-.85l32.88-19a.63.63 0 1 1 .63 1.09l-32.88 19a.6.6 0 0 1-.31.07Z" style="fill:#455a64"/><path d="M190.15 336.16a.63.63 0 0 1-.63-.62v-33.38a.63.63 0 0 1 1.25 0v33.38a.62.62 0 0 1-.62.62ZM233.8 312.41a.68.68 0 0 1-.31-.08.63.63 0 0 1-.31-.54v-35.41a.63.63 0 0 1 .31-.54l7.81-4.51a.63.63 0 0 1 .94.54v35.41a.62.62 0 0 1-.32.54l-7.81 4.51a.65.65 0 0 1-.31.08Zm.63-35.67v34l6.56-3.79V273ZM227.08 323.78a.64.64 0 0 1-.63-.63v-3.1a.62.62 0 0 1 .31-.54L248 307.23a.64.64 0 0 1 .63 0 .63.63 0 0 1 .31.54v3.11a.63.63 0 0 1-.31.54l-21.26 12.27a.61.61 0 0 1-.29.09Zm.62-3.37v1.66l20-11.55v-1.66Z" style="fill:#455a64"/><path d="M228.63 319.77a.71.71 0 0 1-.31-.08.63.63 0 0 1-.31-.54V275a.65.65 0 0 1 .31-.55L246.47 264a.62.62 0 0 1 .93.54v44.16a.62.62 0 0 1-.31.54L229 319.69a.72.72 0 0 1-.37.08Zm.63-44.42v42.72l16.89-9.76v-42.72Zm17.52 33.32Z" style="fill:#455a64"/><path d="M181.42 350.14a.64.64 0 0 1-.54-.32.62.62 0 0 1 .23-.85l73-42.14v-66a.63.63 0 1 1 1.25 0v66.36a.62.62 0 0 1-.32.54l-73.3 42.32a.62.62 0 0 1-.32.09ZM181.42 278a.62.62 0 0 1-.62-.62v-64.9a.65.65 0 0 1 .31-.55l73.31-42.32a.63.63 0 0 1 .94.54v63.76a.63.63 0 1 1-1.25 0v-62.68l-72.06 41.61v64.53a.63.63 0 0 1-.63.63Z" style="fill:#455a64"/><path d="M176.79 215.77a.58.58 0 0 1-.31-.08.63.63 0 0 1-.31-.54v-6.92a.63.63 0 0 1 .31-.54L259.05 160a.63.63 0 0 1 .94.54v6.92a.62.62 0 0 1-.32.54l-82.57 47.69a.55.55 0 0 1-.31.08Zm.63-7.18v5.48l81.32-46.95v-5.48Zm81.94-41.11ZM203.86 270.82a.58.58 0 0 1-.31-.08l-6.08-3.4a.64.64 0 0 1-.32-.54.62.62 0 0 1 .32-.55l61.58-35.55a.62.62 0 0 1 .62 0 .61.61 0 0 1 .32.54v6.91a.63.63 0 0 1-.32.55l-55.5 32a.58.58 0 0 1-.31.12Zm-4.82-4 4.81 2.69 54.89-31.69v-5.47Zm60.32-28.64ZM162.06 361.32a.64.64 0 0 1-.63-.63V317.5a.62.62 0 0 1 .09-.32l28-47.67a.63.63 0 0 1 .84-.23l28 15.33a.62.62 0 0 1 .32.54v43.2a.63.63 0 0 1-.31.54l-56 32.34a.61.61 0 0 1-.31.09Zm.62-43.65v41.94L217.45 328v-42.48l-27.15-14.85Z" style="fill:#455a64"/><path d="M157.19 326.41h-.17a.64.64 0 0 1-.46-.61v-7.17a.62.62 0 0 1 .09-.32l32.88-56a.62.62 0 0 1 1.16.32v7.17a.65.65 0 0 1-.08.31l-32.88 56a.66.66 0 0 1-.54.3Zm.62-7.63v4.7l31.63-53.82V265Z" style="fill:#455a64"/><path d="M223 288.44a.61.61 0 0 1-.3-.08l-32.88-18a.63.63 0 0 1-.33-.55v-7.17a.63.63 0 0 1 .93-.55l32.88 18a.62.62 0 0 1 .32.55v7.17a.62.62 0 0 1-.62.63Zm-32.26-19 31.63 17.3V281l-31.63-17.3ZM152.14 367a.62.62 0 0 1-.62-.62v-45.67a.63.63 0 1 1 1.25 0v45.71a.63.63 0 0 1-.63.58Z" style="fill:#455a64"/><path d="M152.14 341.42a.64.64 0 0 1-.54-.32.62.62 0 0 1 .23-.85c4.09-2.36 7.87-7.75 9.63-13.73a.63.63 0 0 1 .78-.42.61.61 0 0 1 .42.77c-1.88 6.37-5.79 11.91-10.2 14.46a.62.62 0 0 1-.32.09ZM147.29 350.25a6.8 6.8 0 0 1-3.44-.9c-2.88-1.66-4.53-5.46-4.53-10.41v-2a.63.63 0 0 1 1.25 0v2c0 4.5 1.42 7.9 3.9 9.33 2 1.16 4.63.93 7.36-.64a.62.62 0 0 1 .85.22.63.63 0 0 1-.22.86 10.41 10.41 0 0 1-5.17 1.54Z" style="fill:#455a64"/><path d="M142.62 348.19a.62.62 0 0 1-.4-.15.63.63 0 0 1-.07-.88c0-.05 4.45-5.37 4.45-18.4a.63.63 0 0 1 1.25 0c0 13.55-4.56 19-4.75 19.21a.62.62 0 0 1-.48.22Z" style="fill:#455a64"/><path d="M140.5 339.76a15.44 15.44 0 0 1-7.83-2.05c-6.63-3.83-10.43-12.65-10.43-24.22 0-21.72 13.27-47.06 29.59-56.48 7.1-4.1 14-4.71 19.49-1.72 6.31 3.46 10.2 11.51 10.68 22.08a.63.63 0 0 1-.6.65.61.61 0 0 1-.65-.59c-.46-10.13-4.11-17.8-10-21-5.07-2.78-11.55-2.17-18.25 1.7-16 9.22-29 34.07-29 55.4 0 11.11 3.57 19.54 9.81 23.14 5.11 2.95 11.69 2.4 18.53-1.54a43.93 43.93 0 0 0 9.77-7.91.64.64 0 0 1 .89 0 .63.63 0 0 1 0 .89 45.1 45.1 0 0 1-10 8.13 24.26 24.26 0 0 1-12 3.52ZM133.61 382.85a.56.56 0 0 1-.31-.09.62.62 0 0 1-.32-.54v-5.1a.61.61 0 0 1 .32-.54l128.44-74.16a.63.63 0 0 1 .94.54v5.1a.61.61 0 0 1-.32.54l-128.44 74.16a.59.59 0 0 1-.31.09Zm.62-5.37v3.66l127.2-73.44V304ZM137.76 251.34a2.58 2.58 0 0 1-1.3-.34 4 4 0 0 1-1.64-3.65c0-3.08 1.83-6.54 4.16-7.89l.11-.06v-1.7c0-4.24 2.6-9.19 5.81-11a3.83 3.83 0 0 1 6 2.14 9.93 9.93 0 0 1 2.94-2.71 4.23 4.23 0 0 1 4.31-.3c1.43.83 2.26 2.69 2.26 5.1v.44l.77-.45a2 2 0 0 1 2.1-.12 2.59 2.59 0 0 1 1.08 2.36 6 6 0 0 1-2.55 4.83L139.6 250.8a3.72 3.72 0 0 1-1.84.54Zm9.62-24.17a3.82 3.82 0 0 0-1.86.57c-2.86 1.65-5.18 6.12-5.18 10v2.06a.62.62 0 0 1-.32.54l-.42.25c-1.91 1.1-3.53 4.22-3.53 6.8a2.86 2.86 0 0 0 1 2.57 2 2 0 0 0 1.89-.2l22.25-12.85a4.77 4.77 0 0 0 1.93-3.75 1.48 1.48 0 0 0-.46-1.28.91.91 0 0 0-.84.12l-1.72 1a.62.62 0 0 1-.93-.54v-1.52c0-1.95-.6-3.42-1.64-4a3.06 3.06 0 0 0-3.06.3 10 10 0 0 0-3.33 3.52.63.63 0 0 1-1.16-.25 3.64 3.64 0 0 0-1.64-3 2.23 2.23 0 0 0-.98-.34Z" style="fill:#455a64"/><path d="M375.12 50.71c.55.34 3.12 1.8 3.76 2.13a1.77 1.77 0 0 0-.69-.14 2.7 2.7 0 0 0-1.38.42l-53.38 30.77a6.79 6.79 0 0 0-3.08 5.33v91.87a2.49 2.49 0 0 0 0 .47c0 .12 0 .26.07.37a2.11 2.11 0 0 0 .09.38 2.56 2.56 0 0 0 .31.67 2.17 2.17 0 0 0 .15.22 1.78 1.78 0 0 0 .22.26 1.92 1.92 0 0 0 .22.18l-.09-.06c-1.09-.61-3.37-1.91-3.69-2.08a3 3 0 0 1-1.29-2.67V87a6.38 6.38 0 0 1 .93-3.08 6.28 6.28 0 0 1 2.14-2.25l53.38-30.77a2.21 2.21 0 0 1 2.33-.19Z" style="fill:#263238"/><path d="M378.18 52.7a2.79 2.79 0 0 0-1.38.42l-53.36 30.76a6.8 6.8 0 0 0-3.08 5.34v91.87c0 1.55.86 2.87 2.06 2.87a2 2 0 0 0 1-.3l53.36-30.81a6.82 6.82 0 0 0 3.09-5.33V54.9c0-1.4-.7-2.2-1.71-2.2Z" style="fill:#455a64"/><path d="m321.27 183.49.13.12.09.06a1.92 1.92 0 0 1-.22-.18Z" style="fill:#455a64"/><path d="M366.39 62.11a3.49 3.49 0 0 0-1.32 2.8c0 1.12.59 1.69 1.32 1.27a3.48 3.48 0 0 0 1.32-2.8c0-1.12-.59-1.69-1.32-1.27ZM371.15 59.36a3.51 3.51 0 0 0-1.32 2.8c0 1.12.59 1.69 1.32 1.27a3.5 3.5 0 0 0 1.32-2.79c0-1.13-.6-1.7-1.32-1.28ZM375.9 56.62a3.47 3.47 0 0 0-1.32 2.79c0 1.12.59 1.69 1.32 1.27a3.47 3.47 0 0 0 1.32-2.79c0-1.13-.59-1.7-1.32-1.27ZM376.8 53.12l-53.36 30.76a6.39 6.39 0 0 0-2.17 2.29l-3.92-2.27a6.22 6.22 0 0 1 2.15-2.25l53.37-30.76a2.17 2.17 0 0 1 2.24-.18c.55.34 3.11 1.79 3.76 2.14a2.23 2.23 0 0 0-2.07.27Z" style="fill:#37474f"/><path d="M319.85 99.49a.27.27 0 0 1-.23-.12.27.27 0 0 1 .09-.36l4.6-2.74v-4.62a.28.28 0 0 1 .13-.23l12.62-7.29a.3.3 0 0 1 .26 0 .28.28 0 0 1 .13.23v4.41l41.7-24.08a.26.26 0 0 1 .36.1.25.25 0 0 1-.1.35l-42.09 24.3a.24.24 0 0 1-.26 0 .25.25 0 0 1-.13-.22v-4.41l-12.11 7v4.62a.25.25 0 0 1-.12.22l-4.7 2.81a.31.31 0 0 1-.15.03Z" style="fill:#263238"/><path style="fill:#37474f" d="m338.11 83.83 12.63-7.29v3.79l-12.63 7.29v-3.79zM351.5 76.06l12.63-7.29v3.8l-12.63 7.29v-3.8z"/><path d="m324.56 101.37 1.52-.88c.74-.43 1.35-.08 1.35.78V103a3 3 0 0 1-1.35 2.33l-1.52.88c-.74.43-1.34.08-1.34-.78v-1.73a3 3 0 0 1 1.34-2.33Z" style="fill:#e0e0e0"/><path d="m324.56 113.44 1.52-.88c.74-.43 1.35-.08 1.35.78v1.75a3 3 0 0 1-1.35 2.33l-1.52.88c-.74.43-1.34.08-1.34-.78v-1.75a3 3 0 0 1 1.34-2.33ZM324.56 123.26l1.52-.88c.74-.43 1.35-.08 1.35.78v1.75a3 3 0 0 1-1.35 2.33l-1.52.88c-.74.43-1.34.08-1.34-.78v-1.75a3 3 0 0 1 1.34-2.33ZM324.56 133.08l1.52-.88c.74-.43 1.35-.08 1.35.78v1.75a3 3 0 0 1-1.35 2.33l-1.52.88c-.74.43-1.34.08-1.34-.78v-1.75a3 3 0 0 1 1.34-2.33ZM324.56 142.9l1.52-.88c.74-.43 1.35-.08 1.35.78v1.75a3 3 0 0 1-1.35 2.33l-1.52.88c-.74.43-1.34.08-1.34-.78v-1.75a3 3 0 0 1 1.34-2.33ZM324.56 152.72l1.52-.88c.74-.43 1.35-.08 1.35.78v1.75a3 3 0 0 1-1.35 2.33l-1.52.88c-.74.43-1.34.08-1.34-.78v-1.75a3 3 0 0 1 1.34-2.33ZM324.56 162.54l1.52-.88c.74-.43 1.35-.08 1.35.78v1.75a3 3 0 0 1-1.35 2.33l-1.52.88c-.74.43-1.34.08-1.34-.78v-1.75a3 3 0 0 1 1.34-2.33ZM329.77 98.36l10.83-6.25c.5-.29.9 0 .9.52v2.79a2 2 0 0 1-.9 1.55l-10.83 6.25c-.5.29-.9.06-.9-.51v-2.79a2 2 0 0 1 .9-1.56Z" style="fill:#37474f"/><path d="m345.53 89.27 1.51-.88c.75-.43 1.35-.08 1.35.78v1.75a3 3 0 0 1-1.39 2.33l-1.51.88c-.75.43-1.35.08-1.35-.78V91.6a3 3 0 0 1 1.39-2.33Z" style="fill:#e0e0e0"/><path d="M350.73 86.26 361.57 80c.49-.29.89-.06.89.51v2.79a2 2 0 0 1-.89 1.56l-10.84 6.25c-.49.29-.89.06-.89-.52v-2.77a2 2 0 0 1 .89-1.56Z" style="fill:#37474f"/><path d="M322.17 112.74a.26.26 0 0 1-.22-.13.27.27 0 0 1 .09-.36l46.61-26.91a.25.25 0 0 1 .35.1.26.26 0 0 1-.09.35L322.3 112.7a.2.2 0 0 1-.13.04ZM322.17 122.46a.26.26 0 0 1-.22-.13.27.27 0 0 1 .05-.33l46.61-26.91a.25.25 0 0 1 .35.1.26.26 0 0 1-.09.35l-46.57 26.88a.2.2 0 0 1-.13.04ZM322.17 132.18a.26.26 0 0 1-.22-.13.27.27 0 0 1 .09-.36l46.61-26.91a.25.25 0 0 1 .35.1.26.26 0 0 1-.09.35l-46.61 26.91a.2.2 0 0 1-.13.04ZM322.17 141.9a.26.26 0 0 1-.13-.48l46.61-26.92a.25.25 0 0 1 .35.1.26.26 0 0 1-.09.35l-46.61 26.91a.2.2 0 0 1-.13.04ZM322.17 151.62a.26.26 0 0 1-.13-.48l46.61-26.92a.25.25 0 0 1 .35.1.26.26 0 0 1-.09.35l-46.61 26.92a.28.28 0 0 1-.13.03ZM322.17 161.34a.26.26 0 0 1-.13-.48l46.61-26.92a.25.25 0 0 1 .35.1.26.26 0 0 1-.09.35l-46.61 26.92a.28.28 0 0 1-.13.03ZM322.17 171.06a.26.26 0 0 1-.13-.48l46.61-26.92a.25.25 0 0 1 .35.1.26.26 0 0 1-.09.35L322.3 171a.28.28 0 0 1-.13.06Z" style="fill:#263238"/><path d="m332.9 107.7 3.84-2.22c.25-.14.45 0 .45.26v5.86a1 1 0 0 1-.45.78l-3.84 2.21c-.25.15-.45 0-.45-.26v-5.85a1 1 0 0 1 .45-.78ZM332.9 117.49l3.84-2.22c.25-.14.45 0 .45.26v5.86a1 1 0 0 1-.45.78l-3.84 2.22c-.25.14-.45 0-.45-.26v-5.86a1 1 0 0 1 .45-.78ZM332.9 127.29l3.84-2.22c.25-.15.45 0 .45.26v5.85a1 1 0 0 1-.45.78l-3.84 2.22c-.25.14-.45 0-.45-.26v-5.86a1 1 0 0 1 .45-.77ZM332.9 137.08l3.84-2.22c.25-.14.45 0 .45.26V141a1 1 0 0 1-.45.77L332.9 144c-.25.14-.45 0-.45-.26v-5.85a1 1 0 0 1 .45-.81ZM332.9 146.87l3.84-2.22c.25-.14.45 0 .45.26v5.86a1 1 0 0 1-.45.78l-3.84 2.21c-.25.15-.45 0-.45-.26v-5.85a1 1 0 0 1 .45-.78ZM332.9 156.66l3.84-2.22c.25-.14.45 0 .45.26v5.86a1 1 0 0 1-.45.78l-3.84 2.22c-.25.14-.45 0-.45-.26v-5.86a1 1 0 0 1 .45-.78Z" style="fill:#e0e0e0"/><g style="opacity:.2"><path d="M341.4 107a.78.78 0 0 1-.39-1.45l17-9.82a.78.78 0 0 1 1.06.29.77.77 0 0 1-.28 1.06l-17 9.81a.79.79 0 0 1-.39.11Z" style="fill:#fff"/></g><g style="opacity:.2"><path d="M341.4 116.73a.78.78 0 0 1-.39-1.45l12.63-7.28a.78.78 0 1 1 .78 1.34l-12.63 7.29a.7.7 0 0 1-.39.1Z" style="fill:#fff"/></g><g style="opacity:.2"><path d="M341.4 126.45a.78.78 0 0 1-.4-1.45l21.05-12.15a.77.77 0 0 1 1.06.28.78.78 0 0 1-.28 1.06l-21 12.15a.7.7 0 0 1-.43.11Z" style="fill:#fff"/></g><g style="opacity:.2"><path d="M341.4 136.17a.78.78 0 0 1-.39-1.45l8.42-4.86a.77.77 0 0 1 1.06.28.78.78 0 0 1-.28 1.07l-8.42 4.86a.78.78 0 0 1-.39.1Z" style="fill:#fff"/></g><g style="opacity:.2"><path d="M341.4 145.89a.76.76 0 0 1-.67-.39.77.77 0 0 1 .28-1.06l12.63-7.29a.77.77 0 0 1 1.06.28.78.78 0 0 1-.28 1.07l-12.63 7.29a.78.78 0 0 1-.39.1Z" style="fill:#fff"/></g><g style="opacity:.2"><path d="M341.4 155.61a.76.76 0 0 1-.67-.39.77.77 0 0 1 .28-1.06l17-9.81a.78.78 0 1 1 .78 1.34l-17 9.82a.78.78 0 0 1-.39.1Z" style="fill:#fff"/></g><path style="fill:#37474f" d="m376.28 74.18-4.21 2.43v72.91l4.21-2.43V74.18z"/><path d="M374.18 76.81a2.75 2.75 0 0 0-1.13 2.19v36.1c0 .86.5 1.26 1.13.9a2.77 2.77 0 0 0 1.13-2.2V77.71c0-.86-.51-1.26-1.13-.9Z" style="fill:#455a64"/><path d="M445.33 85.86c.55.34 3.12 1.8 3.76 2.13a1.78 1.78 0 0 0-.7-.14 2.7 2.7 0 0 0-1.37.42l-74.66 43.1a6.79 6.79 0 0 0-3.08 5.33v134.94a3.71 3.71 0 0 0 0 .47c0 .12 0 .26.07.37a3.49 3.49 0 0 0 .1.38 2.28 2.28 0 0 0 .31.67l.14.22a2.85 2.85 0 0 0 .23.26l.23.18-.09-.06c-1.09-.61-3.37-1.91-3.69-2.08a3 3 0 0 1-1.3-2.67v-135a6.4 6.4 0 0 1 .94-3.08 6.2 6.2 0 0 1 2.14-2.25L443.08 86a2.26 2.26 0 0 1 2.25-.14Z" style="fill:#263238"/><path d="M448.39 87.85a2.86 2.86 0 0 0-1.38.42l-74.65 43.09a6.82 6.82 0 0 0-3.08 5.34v134.94c0 1.55.86 2.87 2.07 2.87a2 2 0 0 0 1-.3L447 231.07a6.81 6.81 0 0 0 3.08-5.33V90.05c0-1.39-.69-2.2-1.7-2.2Z" style="fill:#455a64"/><path d="m370.19 274 .14.12.09.06Z" style="fill:#455a64"/><path d="M436.6 97.27a3.47 3.47 0 0 0-1.32 2.79c0 1.12.59 1.69 1.32 1.27a3.47 3.47 0 0 0 1.32-2.79c0-1.13-.59-1.69-1.32-1.27ZM441.35 94.52a3.5 3.5 0 0 0-1.35 2.79c0 1.12.6 1.69 1.32 1.27a3.47 3.47 0 0 0 1.32-2.79c.03-1.12-.56-1.69-1.29-1.27ZM446.11 91.77a3.47 3.47 0 0 0-1.32 2.79c0 1.13.59 1.69 1.32 1.27a3.47 3.47 0 0 0 1.32-2.83c0-1.08-.59-1.65-1.32-1.23ZM447 88.27l-74.64 43.09a6.31 6.31 0 0 0-2.17 2.29l-3.92-2.27a6.11 6.11 0 0 1 2.14-2.25L443.08 86a2.17 2.17 0 0 1 2.24-.18c.55.34 3.11 1.79 3.76 2.14a2.26 2.26 0 0 0-2.08.31Z" style="fill:#37474f"/><path d="M368.77 147a.26.26 0 0 1-.22-.12.27.27 0 0 1 .09-.36l4.59-2.74v-4.62a.28.28 0 0 1 .13-.23l12.64-7.32a.3.3 0 0 1 .26 0 .28.28 0 0 1 .13.23v4.41l63-36.4a.26.26 0 0 1 .36.09.25.25 0 0 1-.1.35l-63.37 36.63a.24.24 0 0 1-.26 0 .25.25 0 0 1-.13-.22v-4.41l-12.11 7v4.62a.26.26 0 0 1-.13.22l-4.71 2.82a.35.35 0 0 1-.17.05Z" style="fill:#263238"/><path style="fill:#37474f" d="m387.04 131.31 12.63-7.29v3.79l-12.63 7.29v-3.79zM400.43 123.54l12.63-7.29v3.8l-12.63 7.29v-3.8zM446.49 109.33l-4.21 2.44v72.9l4.21-2.43v-72.91z"/><path d="M444.39 112a2.75 2.75 0 0 0-1.13 2.21v36.11c0 .85.5 1.26 1.13.9a2.79 2.79 0 0 0 1.13-2.21v-36.15c0-.86-.52-1.26-1.13-.86Z" style="fill:#455a64"/><path style="fill:#fafafa" d="m382.62 166.07 8.63-4.98v9.97l-8.63 4.98v-9.97z"/><path d="M382.48 176.27V166h.07l8.84-5.1v10.27h-.07Zm.27-10.12v9.66l8.37-4.83v-9.66Z" style="fill:#263238"/><path d="m391.15 166-1.94 1.12a1.36 1.36 0 0 0-2.11-1.22v-2.26l-.32.14v2.31a5 5 0 0 0-2.1 3.66l-1.93 1.11v.37l1.95-1.12a1.51 1.51 0 0 0 .67 1.26 1.24 1.24 0 0 0 .63.17 2 2 0 0 0 .81-.22v2.27l.32-.14v-2.29a5 5 0 0 0 2.12-3.68l1.93-1.11Zm-3.25 0a1 1 0 0 1 .5.13 1.32 1.32 0 0 1 .55 1.18l-1.85 1.07v-2.14a1.74 1.74 0 0 1 .8-.33Zm-1.15.45v2.14l-1.79 1a4.77 4.77 0 0 1 1.79-3.23Zm-1.27 4.73a1.31 1.31 0 0 1-.56-1.18l1.86-1.07V171a1.34 1.34 0 0 1-1.3.09Zm1.62-.3v-2.13l1.84-1.07a4.75 4.75 0 0 1-1.84 3.11Z" style="fill:#37474f"/><path style="fill:#fafafa" d="m373.98 171.06 8.64-4.99v9.97l-8.64 4.99v-9.97z"/><path d="M373.85 181.26V171l8.9-5.14v10.28Zm.26-10.12v9.66l8.38-4.83v-9.67Z" style="fill:#263238"/><path style="fill:#105f38" d="m381.56 166.83-7.45 12.91v1.06l.92-.53 7.46-12.91-.01-1.06-.92.53z"/><path d="m375.14 187 1.28-.74a.72.72 0 0 1 .81.08.7.7 0 0 0 .8.08l3.4-2c.26-.15.46 0 .46.27v3.93a1 1 0 0 1-.46.8l-6.29 3.63c-.25.15-.46 0-.46-.27v-5a1 1 0 0 1 .46-.78Z" style="fill:#e0e0e0"/><path style="fill:#fafafa" d="m382.62 181.03 8.63-4.99v9.98l-8.63 4.98v-9.97z"/><path d="M382.48 191.23V181l8.91-5.14v10.28Zm.27-10.12v9.66l8.37-4.83v-9.66Z" style="fill:#263238"/><path style="fill:#fafafa" d="m391.25 184.13-1.63 2.83 1.63-.94v-1.89z"/><path d="m389.49 187.1 1.81-3.1v2.1Zm1.71-2.78-1.44 2.5 1.44-.83Z" style="fill:#263238"/><path d="m391.25 176.04 8.64-4.98v9.97l-8.64 4.99v-9.98z"/><path d="M391.12 186.25V176l8.9-5.14v10.28Zm.27-10.13v9.67l8.37-4.84v-9.66Z" style="fill:#263238"/><path style="fill:#fafafa" d="m399.89 179.15-1.63 2.82 1.63-.94v-1.88z"/><path d="m398.12 182.11 1.82-3.15v2.1Zm1.72-2.77-1.44 2.5 1.44-.84Z" style="fill:#263238"/><path style="fill:#f28f8f" d="m399.89 171.06 8.64-4.99v9.97l-8.64 4.99v-9.97z"/><path d="M399.76 181.26V171l8.9-5.14v10.28Zm.26-10.13v9.67l8.37-4.83v-9.67Z" style="fill:#263238"/><path style="fill:#fafafa" d="m408.53 174.16-1.64 2.83 1.64-.94v-1.89z"/><path d="m406.76 177.12 1.82-3.14v2.1Zm1.72-2.77-1.45 2.5 1.45-.83Z" style="fill:#263238"/><path style="fill:#ffa8a7" d="m408.53 166.07 8.63-4.98v9.97l-8.63 4.98v-9.97z"/><path d="M408.39 176.27V166l8.91-5.14v10.28Zm.27-10.12v9.66L417 171v-9.66Z" style="fill:#263238"/><path style="fill:#fafafa" d="m417.16 169.18-1.63 2.82 1.63-.94v-1.88z"/><path d="m415.39 172.14 1.82-3.15v2.1Zm1.72-2.78-1.44 2.5 1.44-.83Z" style="fill:#263238"/><path style="fill:#c8856a" d="m417.16 161.09 8.64-4.99v9.97l-8.64 4.99v-9.97z"/><path d="M417 171.29V161l8.9-5.14v10.28Zm.27-10.13v9.67l8.37-4.84v-9.66Z" style="fill:#263238"/><path style="fill:#fafafa" d="m425.8 164.19-1.63 2.82 1.63-.94v-1.88z"/><path d="m424 167.15 1.82-3.15v2.1Zm1.72-2.77-1.45 2.5 1.45-.84Z" style="fill:#263238"/><path style="fill:#af6152" d="m425.8 156.1 8.64-4.99v9.98l-8.64 4.98v-9.97z"/><path d="M425.67 166.3V156l8.9-5.14v10.28Zm.26-10.12v9.66l8.37-4.84v-9.67Z" style="fill:#263238"/><path style="fill:#fafafa" d="m434.44 159.2-1.64 2.83 1.64-.94v-1.89z"/><path d="m432.67 162.17 1.82-3.15v2.1Zm1.72-2.78-1.45 2.5 1.45-.83Z" style="fill:#263238"/><path style="fill:#37474f" d="m382.62 191 8.63-4.98v9.97l-8.63 4.99V191z"/><path d="M382.48 201.21v-10.28l8.91-5.14v10.28Zm.27-10.13v9.67l8.37-4.84v-9.66Z" style="fill:#263238"/><path style="fill:#fafafa" d="m391.25 194.11-1.63 2.82 1.63-.94v-1.88z"/><path d="m389.49 197.07 1.81-3.15V196Zm1.71-2.78-1.44 2.51 1.44-.84Z" style="fill:#263238"/><path style="fill:#105f38" d="m373.98 195.99 8.64-4.99v9.97l-8.64 4.99v-9.97z"/><path d="M373.85 206.19v-10.28l8.9-5.14v10.28Zm.26-10.12v9.66l8.38-4.83v-9.67Z" style="fill:#263238"/><path style="fill:#fafafa" d="m382.62 199.09-1.63 2.83 1.63-.94v-1.89z"/><path d="m380.85 202.06 1.82-3.15V201Zm1.72-2.78-1.45 2.5 1.45-.83ZM391.25 186.02l8.64-4.99V191l-8.64 4.99v-9.97z" style="fill:#263238"/><path d="M391.12 196.22v-10.28l8.9-5.14v10.28Zm.27-10.13v9.67l8.37-4.83v-9.67Z" style="fill:#263238"/><path style="fill:#fafafa" d="m399.89 189.12-1.63 2.83 1.63-.95v-1.88z"/><path d="m398.12 192.08 1.82-3.15V191Zm1.72-2.77-1.44 2.5 1.44-.83Z" style="fill:#263238"/><path style="fill:#f5f5f5" d="m382.62 200.97 8.63-4.98v9.97l-8.63 4.99v-9.98z"/><path d="M382.48 211.18V200.9l8.91-5.14V206Zm.27-10.13v9.67l8.37-4.83v-9.67Z" style="fill:#263238"/><path style="fill:#fafafa" d="m391.25 204.08-1.63 2.83 1.63-.95v-1.88z"/><path d="m389.49 207 1.81-3.15V206Zm1.71-2.77-1.44 2.5 1.44-.83Z" style="fill:#263238"/><path style="fill:#f0f0f0" d="m373.98 205.96 8.64-4.99v9.98l-8.64 4.98v-9.97z"/><path d="M373.85 216.16v-10.28l8.9-5.14V211Zm.26-10.12v9.66l8.38-4.83v-9.66Z" style="fill:#263238"/><path style="fill:#fafafa" d="m382.62 209.06-1.63 2.83 1.63-.94v-1.89z"/><path d="m380.85 212 1.82-3.15V211Zm1.72-2.78-1.45 2.5 1.45-.83Z" style="fill:#263238"/><path style="fill:#fafafa" d="m391.25 195.99 8.64-4.99v9.97l-8.64 4.99v-9.97z"/><path d="M391.12 206.19v-10.28l8.9-5.14v10.28Zm.27-10.12v9.66l8.37-4.83v-9.67Z" style="fill:#263238"/><path style="fill:#fafafa" d="m399.89 199.09-1.63 2.83 1.63-.94v-1.89z"/><path d="m398.12 202.06 1.82-3.15V201Zm1.72-2.78-1.44 2.5 1.44-.83Z" style="fill:#263238"/><path style="fill:#455a64" d="m399.89 181.03 8.64-4.99v9.98l-8.64 4.98v-9.97z"/><path d="M399.76 191.23V181l8.9-5.14v10.28Zm.26-10.12v9.66l8.37-4.83v-9.66Z" style="fill:#263238"/><path style="fill:#fafafa" d="m408.53 184.13-1.64 2.83 1.64-.94v-1.89z"/><path d="m406.76 187.1 1.82-3.15v2.1Zm1.72-2.78-1.45 2.5 1.45-.83Z" style="fill:#263238"/><path style="fill:#e0e0e0" d="m408.53 176.04 8.63-4.98v9.97l-8.63 4.99v-9.98z"/><path d="M408.39 186.25V176l8.91-5.14v10.28Zm.27-10.13v9.67L417 181v-9.66Z" style="fill:#263238"/><path style="fill:#fafafa" d="m417.16 179.15-1.63 2.82 1.63-.94v-1.88z"/><path d="m415.39 182.11 1.82-3.15v2.1Zm1.72-2.77-1.44 2.5 1.44-.84Z" style="fill:#263238"/><path style="fill:#e6e6e6" d="m417.16 171.06 8.64-4.99v9.97l-8.64 4.99v-9.97z"/><path d="M417 181.26V171l8.9-5.14v10.28Zm.27-10.13v9.67l8.37-4.83v-9.67Z" style="fill:#263238"/><path style="fill:#fafafa" d="m425.8 174.16-1.63 2.83 1.63-.94v-1.89z"/><path d="m424 177.12 1.82-3.14v2.1Zm1.72-2.77-1.45 2.5 1.45-.83Z" style="fill:#263238"/><path style="fill:#ebebeb" d="m425.8 166.07 8.64-4.98v9.97l-8.64 4.98v-9.97z"/><path d="M425.67 176.27V166l8.9-5.13v10.27Zm.26-10.12v9.66l8.37-4.81v-9.66Z" style="fill:#263238"/><path style="fill:#fafafa" d="M434.44 169.18 432.8 172l1.64-.94v-1.88z"/><path d="m432.67 172.14 1.82-3.15v2.1Zm1.72-2.78-1.45 2.5 1.45-.83Z" style="fill:#263238"/><path d="m375.14 221.88 1.28-.74a.7.7 0 0 1 .81.08.7.7 0 0 0 .8.07l3.4-2c.26-.14.46 0 .46.27v3.93a1 1 0 0 1-.46.8l-6.29 3.71c-.25.15-.46 0-.46-.26v-5a1 1 0 0 1 .46-.86Z" style="fill:#e0e0e0"/><path style="fill:#105f38" d="m382.62 215.94 8.63-4.99v9.97l-8.63 4.99v-9.97z"/><path style="fill:#fff;opacity:.2" d="m382.62 215.94 8.63-4.99v9.97l-8.63 4.99v-9.97z"/><path d="M382.48 226.14v-10.28l8.91-5.14V221Zm.27-10.13v9.67l8.37-4.83v-9.67Z" style="fill:#263238"/><path style="fill:#fafafa" d="m391.25 219.04-1.63 2.83 1.63-.95v-1.88z"/><path d="m389.49 222 1.81-3.15V221Zm1.71-2.77-1.44 2.5 1.44-.83Z" style="fill:#263238"/><path style="fill:#105f38" d="m391.25 210.95 8.64-4.99v9.98l-8.64 4.98v-9.97z"/><path style="fill:#fff;opacity:.35000000000000003" d="m391.25 210.95 8.64-4.99v9.98l-8.64 4.98v-9.97z"/><path d="M391.12 221.15v-10.28l8.9-5.14V216Zm.27-10.12v9.66l8.37-4.83v-9.67Z" style="fill:#263238"/><path style="fill:#fafafa" d="m399.89 214.05-1.63 2.83 1.63-.94v-1.89z"/><path d="m398.12 217 1.82-3.15V216Zm1.72-2.78-1.44 2.5 1.44-.83Z" style="fill:#263238"/><path style="fill:#105f38" d="m399.89 205.96 8.64-4.98v9.97l-8.64 4.99v-9.98z"/><path style="fill:#fff;opacity:.5" d="m399.89 205.96 8.64-4.98v9.97l-8.64 4.99v-9.98z"/><path d="M399.76 216.17v-10.28l8.9-5.14V211ZM400 206v9.66l8.37-4.83v-9.66Z" style="fill:#263238"/><path style="fill:#fafafa" d="m408.53 209.07-1.64 2.82 1.64-.94v-1.88z"/><path d="m406.76 212 1.82-3.15V211Zm1.72-2.78-1.48 2.54 1.45-.84Z" style="fill:#263238"/><path style="fill:#105f38" d="m408.53 200.98 8.63-4.99v9.97l-8.63 4.99v-9.97z"/><path style="fill:#fff;opacity:.65" d="m408.53 200.98 8.63-4.99v9.97l-8.63 4.99v-9.97z"/><path d="M408.39 211.18V200.9l8.91-5.14V206Zm.27-10.13v9.67l8.37-4.83v-9.67Z" style="fill:#263238"/><path style="fill:#fafafa" d="m417.16 204.08-1.63 2.83 1.63-.94v-1.89z"/><path d="m415.39 207 1.82-3.15V206Zm1.72-2.77-1.44 2.5 1.44-.83Z" style="fill:#263238"/><path style="fill:#105f38" d="m417.16 195.99 8.64-4.99v9.98l-8.64 4.98v-9.97z"/><path style="fill:#fff;opacity:.8" d="m417.16 195.99 8.64-4.99v9.98l-8.64 4.98v-9.97z"/><path d="M417 206.19v-10.28l8.9-5.14v10.28Zm.27-10.12v9.66l8.37-4.83v-9.67Z" style="fill:#263238"/><path style="fill:#fafafa" d="m425.8 199.09-1.63 2.83 1.63-.94v-1.89z"/><path d="m424 202.06 1.82-3.15V201Zm1.72-2.78-1.45 2.5 1.45-.83Z" style="fill:#263238"/><path style="fill:#105f38" d="m425.8 191 8.64-4.98v9.97l-8.64 4.99V191z"/><path style="fill:#fff;opacity:.9500000000000001" d="m425.8 191 8.64-4.98v9.97l-8.64 4.99V191z"/><path d="M425.67 201.21v-10.28l8.9-5.14v10.28Zm.26-10.13v9.67l8.37-4.84v-9.66Z" style="fill:#263238"/><path style="fill:#fafafa" d="m434.44 194.11-1.64 2.82 1.64-.94v-1.88z"/><path d="m432.67 197.07 1.82-3.15V196Zm1.72-2.78-1.45 2.51 1.45-.84Z" style="fill:#263238"/><path d="m375.14 236.84 1.29-.74a.69.69 0 0 1 .8.07.69.69 0 0 0 .8.08l3.41-2c.25-.15.46 0 .46.27v3.93a1 1 0 0 1-.46.8l-6.3 3.63c-.25.15-.46 0-.46-.27v-5a1 1 0 0 1 .46-.77Z" style="fill:#e0e0e0"/><path style="fill:#105f38" d="m382.62 230.89 8.63-4.98.01 9.97-8.64 4.99v-9.98z"/><path style="opacity:.1" d="m382.62 230.89 8.63-4.98.01 9.97-8.64 4.99v-9.98z"/><path d="M382.49 241.1v-10.28l8.9-5.14V236Zm.26-10.13v9.66l8.37-4.83v-9.66Z" style="fill:#263238"/><path style="fill:#fafafa" d="m391.26 234-1.64 2.82 1.64-.94V234z"/><path d="m389.49 237 1.82-3.15v2.1Zm1.72-2.78-1.45 2.51 1.45-.84Z" style="fill:#263238"/><path style="fill:#105f38" d="m391.25 225.91 8.64-4.99v9.97l-8.64 4.99v-9.97z"/><path style="opacity:.2" d="m391.25 225.91 8.64-4.99v9.97l-8.64 4.99v-9.97z"/><path d="M391.12 236.11v-10.28l8.9-5.14V231Zm.27-10.13v9.67l8.37-4.83v-9.67Z" style="fill:#263238"/><path style="fill:#fafafa" d="m399.89 229.01-1.63 2.83 1.63-.95v-1.88z"/><path d="m398.12 232 1.82-3.15v2.1Zm1.72-2.77-1.44 2.5 1.44-.83Z" style="fill:#263238"/><path style="fill:#105f38" d="m399.89 220.92 8.64-4.99v9.98l-8.64 4.98v-9.97z"/><path style="opacity:.30000000000000004" d="m399.89 220.92 8.64-4.99v9.98l-8.64 4.98v-9.97z"/><path d="M399.76 231.12v-10.28l8.9-5.14V226ZM400 221v9.66l8.38-4.83v-9.67Z" style="fill:#263238"/><path style="fill:#fafafa" d="m408.53 224.02-1.63 2.83 1.63-.94v-1.89z"/><path d="m406.76 227 1.82-3.15v2.1Zm1.72-2.78-1.45 2.5 1.45-.83Z" style="fill:#263238"/><path style="fill:#105f38" d="m408.53 215.93 8.63-4.98.01 9.97-8.64 4.99v-9.98z"/><path style="opacity:.4" d="m408.53 215.93 8.63-4.98.01 9.97-8.64 4.99v-9.98z"/><path d="M408.39 226.14v-10.28l8.91-5.14V221Zm.27-10.13v9.67l8.37-4.84v-9.66Z" style="fill:#263238"/><path style="fill:#fafafa" d="m417.17 219.04-1.64 2.82 1.64-.94v-1.88z"/><path d="m415.4 222 1.81-3.15V221Zm1.72-2.78-1.45 2.51 1.45-.84Z" style="fill:#263238"/><path style="fill:#105f38" d="m417.16 210.95 8.64-4.99v9.97l-8.64 4.99v-9.97z"/><path style="opacity:.5" d="m417.16 210.95 8.64-4.99v9.97l-8.64 4.99v-9.97z"/><path d="M417 221.15v-10.28l8.9-5.14V216Zm.3-10.15v9.67l8.37-4.83v-9.67Z" style="fill:#263238"/><path style="fill:#fafafa" d="m425.8 214.05-1.63 2.83 1.63-.94v-1.89z"/><path d="m424 217 1.82-3.15V216Zm1.72-2.77-1.44 2.5 1.44-.83Z" style="fill:#263238"/><path style="fill:#105f38" d="m425.8 205.96 8.64-4.99v9.98l-8.64 4.98v-9.97z"/><path style="opacity:.6000000000000001" d="m425.8 205.96 8.64-4.99v9.98l-8.64 4.98v-9.97z"/><path d="M425.67 216.16v-10.28l8.9-5.14V211Zm.26-10.12v9.66l8.37-4.83v-9.67Z" style="fill:#263238"/><path style="fill:#fafafa" d="m434.44 209.06-1.63 2.83 1.63-.94v-1.89z"/><path d="m432.67 212 1.82-3.15V211Zm1.72-2.78-1.45 2.5 1.45-.83Z" style="fill:#263238"/><path d="m387.06 147.59-8.63 5v10l8.64-5Zm-2 8.84-3.79 2.18-.91.53v-5.43l3.77-2.17.93-.54Z" style="fill:#fafafa"/><path d="M378.3 162.78V152.5l8.9-5.14v10.28Zm.27-10.13v9.66l8.37-4.83v-9.66Z" style="fill:#263238"/><path style="fill:#105f38" d="m380.4 159.13.91-.53-1.83 3.18-.92.53v-1.06l1.84-3.19v1.07zM386.93 147.81v1.07l-1.83 3.16V151l-.93.53 1.84-3.19.92-.53z"/><path d="M380.28 159.35v-5.72l5-2.85v5.72Zm.25-5.57v5.14l4.45-2.57v-5.14Z" style="fill:#263238"/><path style="fill:#105f38" d="m373.98 149.6 8.64-4.99v9.98l-8.64 4.98v-9.97z"/><path d="M373.85 159.8v-10.28l8.9-5.14v10.28Zm.26-10.12v9.66l8.38-4.83v-9.67Z" style="fill:#263238"/><path d="m410.45 238.84 1.28-.74a.71.71 0 0 1 .8.08.69.69 0 0 0 .8.07l3.41-2c.26-.15.46 0 .46.26v3.94a1 1 0 0 1-.46.79l-6.29 3.64a.28.28 0 0 1-.46-.27v-5a1 1 0 0 1 .46-.77ZM430.12 225.86l-8.64 5v10l8.64-5Zm-7.94 13.74v-8.35l7.24-4.18v8.35Zm5.6-7.81-1.63.94v-1.89a.35.35 0 0 0-.7 0v2.29l-2 1.15a.35.35 0 0 0-.13.48.34.34 0 0 0 .3.17.26.26 0 0 0 .17-.05l1.64-.94v1.89a.35.35 0 0 0 .7 0v-2.29l2-1.15a.35.35 0 1 0-.35-.6ZM440.06 230.09l-3.44 2c-.63.37-1.14 0-1.14-.85v-5.74l.56-.32v5.73c0 .42.26.62.58.44l3.44-2a1.38 1.38 0 0 0 .58-1.1v-5.73l.56-.33v5.74a2.74 2.74 0 0 1-1.14 2.16ZM441.92 220.9l-2.52 1.45v-1.09l-2.12 1.22v1.09l-2.52 1.46v-.75l1.96-1.13v-1.1l3.24-1.86v1.09l1.96-1.13v.75z" style="fill:#e0e0e0"/><path style="fill:#e0e0e0" d="m438.62 228.98-.56.33V224l.56-.33v5.31zM439.92 228.23l-.56.33v-5.32l.56-.32v5.31zM437.32 229.74l-.56.32v-5.31l.56-.33v5.32zM436.18 119.27v2l1.73-1v-2l-1.73 1zM433.91 120.58v2l1.73-1v-2l-1.73 1zM431.65 121.88v2l1.73-1v-2l-1.73 1zM436.18 121.88v2l1.73-1v-2l-1.73 1zM433.91 123.19v2l1.73-1v-2l-1.73 1zM431.65 124.5v2l1.73-1v-2l-1.73 1zM436.18 124.5v2l1.73-1v-2l-1.73 1zM433.91 125.8v2l1.73-1v-2l-1.73 1zM431.65 127.11v2l1.73-1v-2l-1.73 1zM420.87 128.2l6.38-3.68v.95l-6.38 3.68v-.95zM420.87 130.27l6.38-3.69v.95l-6.38 3.69v-.95zM420.87 132.33l6.38-3.68v.95l-6.38 3.68v-.95zM420.87 134.4l6.38-3.69v.95l-6.38 3.69v-.95z"/><path d="M167.6 351.35c.52.32 2.94 1.7 3.54 2a1.55 1.55 0 0 0-.65-.14 2.62 2.62 0 0 0-1.3.4L80.24 405a6.42 6.42 0 0 0-2.9 5v71.2a3.11 3.11 0 0 0 0 .43c0 .12 0 .25.07.36a2 2 0 0 0 .09.35 2.26 2.26 0 0 0 .29.63 1.43 1.43 0 0 0 .14.2 1.27 1.27 0 0 0 .21.25 1.84 1.84 0 0 0 .22.17l-.09-.06-3.47-1.95a2.82 2.82 0 0 1-1.22-2.52v-71.14a6 6 0 0 1 .88-2.91 5.93 5.93 0 0 1 2-2.11l89-51.39a2.11 2.11 0 0 1 2.14-.16Z" style="fill:#263238"/><path d="M170.48 353.22a2.65 2.65 0 0 0-1.29.4L80.24 405a6.42 6.42 0 0 0-2.9 5v71.17c0 1.46.82 2.7 2 2.7a1.81 1.81 0 0 0 .95-.28l89-51.43a6.38 6.38 0 0 0 2.9-5v-71.87c0-1.31-.65-2.07-1.61-2.07Z" style="fill:#455a64"/><path d="m78.2 483.45.13.11.09.06a1.84 1.84 0 0 1-.22-.17Z" style="fill:#455a64"/><path d="M160.47 361a2.92 2.92 0 0 0-1.11 2.34c0 .93.5 1.41 1.11 1.06a2.91 2.91 0 0 0 1.1-2.34c0-.96-.49-1.43-1.1-1.06ZM164.44 358.68a2.91 2.91 0 0 0-1.1 2.34c0 .94.49 1.41 1.1 1.06a2.91 2.91 0 0 0 1.1-2.34c0-.94-.49-1.41-1.1-1.06ZM168.41 356.38a2.91 2.91 0 0 0-1.1 2.34c0 .94.49 1.41 1.1 1.06a2.92 2.92 0 0 0 1.11-2.34c0-.93-.52-1.44-1.11-1.06Z" style="fill:#e0e0e0"/><path d="M169.19 353.62 80.25 405a6 6 0 0 0-2 2.15L74.52 405a5.71 5.71 0 0 1 2-2.11l89-51.39a2 2 0 0 1 2.11-.17c.51.32 2.92 1.69 3.53 2a2.11 2.11 0 0 0-1.97.29Z" style="fill:#37474f"/><path d="M76.87 419.69a.25.25 0 0 1-.13-.46l4.32-2.58v-4.34a.24.24 0 0 1 .12-.21l11.88-6.86a.28.28 0 0 1 .25 0 .24.24 0 0 1 .12.21v4.15l78-45.09a.24.24 0 0 1 .24.42l-78.33 45.3a.23.23 0 0 1-.25 0 .24.24 0 0 1-.12-.21v-4.15l-11.39 6.58v4.34a.24.24 0 0 1-.12.21L77 419.65a.28.28 0 0 1-.13.04ZM166.58 363.25a.17.17 0 0 1-.16-.09.17.17 0 0 1 .07-.24l2.87-1.66a.19.19 0 0 1 .25.06.18.18 0 0 1-.07.25l-2.87 1.66a.15.15 0 0 1-.09.02ZM166.58 364.4a.19.19 0 0 1-.16-.09.18.18 0 0 1 .07-.25l2.87-1.66a.18.18 0 0 1 .25.07.17.17 0 0 1-.07.24l-2.87 1.66ZM166.58 365.54a.17.17 0 0 1-.16-.09.18.18 0 0 1 .07-.25l2.87-1.66a.18.18 0 0 1 .25.07.19.19 0 0 1-.07.25l-2.87 1.65Z" style="fill:#263238"/><path d="m95.26 419.54-8.63 5v10l8.64-5Zm-2 8.84-3.79 2.18-.91.53v-5.43l3.77-2.17.93-.54Z" style="fill:#fafafa"/><path d="M86.5 434.73v-10.28l8.9-5.14v10.28Zm.26-10.13v9.67l8.38-4.84v-9.66Z" style="fill:#263238"/><path style="fill:#105f38" d="m88.6 431.09.91-.53-1.83 3.18-.92.53v-1.06l1.84-3.19v1.07zM95.13 419.77v1.06L93.3 424v-1.05l-.93.54 1.84-3.19.92-.53z"/><path d="M88.48 431.3v-5.71l5-2.86v5.72Zm.25-5.57v5.14l4.45-2.56v-5.15Z" style="fill:#263238"/><path style="fill:#105f38" d="m82.18 421.55 8.63-4.99.01 9.98-8.64 4.98v-9.97z"/><path d="M82.05 431.75v-10.28l8.9-5.14v10.28Zm.26-10.12v9.66l8.37-4.83v-9.66Z" style="fill:#263238"/><path d="m105.16 417.93-1.14-1c-.11-.09-.27 0-.38.22l-1.14 2.33a.76.76 0 0 0-.09.35v1.26c0 .23.12.35.28.26L105 420a.73.73 0 0 0 .27-.58v-1.26a.3.3 0 0 0-.11-.23ZM149.78 392.17l-1.15-1c-.1-.09-.27 0-.37.22l-1.15 2.32a1 1 0 0 0-.08.36v1.25c0 .24.12.36.27.27l2.29-1.32a.74.74 0 0 0 .28-.59v-1.25a.39.39 0 0 0-.09-.26ZM148.52 389.21l-44.69 25.8v-3.7l44.69-25.81v3.71z" style="fill:#e0e0e0"/><path d="M103.58 415.44v-4.28l.13-.07 45.06-26v4.28l-.13.07Zm.5-4v3.13l44.19-25.52v-3.12Z" style="fill:#263238"/><path d="m155 380.06 11.38-6.57c.72-.41 1.3-.08 1.3.75v5.07a2.86 2.86 0 0 1-1.3 2.25L155 388.13c-.71.42-1.29.08-1.29-.75v-5.07a2.89 2.89 0 0 1 1.29-2.25Z" style="fill:#37474f"/><path d="m105.16 432-1.16-1c-.11-.09-.27 0-.38.22l-1.14 2.32a.83.83 0 0 0-.09.36v1.25c0 .24.12.36.28.27l2.29-1.32a.74.74 0 0 0 .27-.59v-1.21a.34.34 0 0 0-.07-.3ZM149.78 406.29l-1.15-1c-.1-.09-.27 0-.37.22l-1.15 2.32a.9.9 0 0 0-.08.36v1.25c0 .24.12.36.27.27l2.29-1.32a.74.74 0 0 0 .28-.59v-1.25a.37.37 0 0 0-.09-.26Z" style="fill:#e0e0e0"/><path style="fill:#105f38" d="m148.52 403.33-44.69 25.8v-3.71l44.69-25.8v3.71z"/><path d="M103.58 429.56v-4.28l.13-.07 45.06-26v4.28l-.13.07Zm.5-4v3.13l44.19-25.52v-3.13Z" style="fill:#263238"/><path d="m155 394.18 11.38-6.57c.72-.41 1.3-.08 1.3.75v5.07a2.86 2.86 0 0 1-1.3 2.25L155 402.25c-.71.41-1.29.08-1.29-.75v-5.07a2.87 2.87 0 0 1 1.29-2.25Z" style="fill:#37474f"/><path d="m105.16 446.16-1.14-1c-.11-.09-.27 0-.38.22l-1.14 2.32a.77.77 0 0 0-.09.36v1.25c0 .24.12.36.28.27l2.29-1.32a.74.74 0 0 0 .27-.59v-1.25a.33.33 0 0 0-.09-.26ZM149.78 420.41l-1.15-1c-.1-.1-.27 0-.37.22l-1.15 2.37a.9.9 0 0 0-.08.36v1.25c0 .23.12.35.27.27l2.29-1.33a.72.72 0 0 0 .28-.58v-1.25a.37.37 0 0 0-.09-.31Z" style="fill:#e0e0e0"/><path style="fill:#263238" d="m148.52 417.44-44.69 25.81v-3.71l44.69-25.8v3.7z"/><path d="M103.58 443.68v-4.28l.13-.08 45.06-26v4.28l-.13.07Zm.5-4v3.12l44.19-25.51v-3.13Z" style="fill:#263238"/><path d="m155 408.3 11.38-6.57c.72-.42 1.3-.08 1.3.75v5.07a2.87 2.87 0 0 1-1.3 2.25L155 416.37c-.71.41-1.29.08-1.29-.75v-5.07a2.87 2.87 0 0 1 1.29-2.25ZM148.52 429.05l17.87-10.34c.72-.42 1.3-.08 1.3.75v5.07a2.87 2.87 0 0 1-1.3 2.25l-17.87 10.34c-.72.41-1.3.07-1.3-.75v-5.07a2.86 2.86 0 0 1 1.3-2.25Z" style="fill:#37474f"/><path d="m35.8 100.62 43.47-25.13c1.71-1 3.1-.19 3.1 1.79v50.51a6.82 6.82 0 0 1-3.1 5.36L35.8 158.29c-1.71 1-3.1.19-3.1-1.79V106a6.85 6.85 0 0 1 3.1-5.38Z" style="fill:#105f38"/><path d="m35.8 100.62 43.47-25.13c1.71-1 3.1-.19 3.1 1.79v50.51a6.82 6.82 0 0 1-3.1 5.36L35.8 158.29c-1.71 1-3.1.19-3.1-1.79V106a6.85 6.85 0 0 1 3.1-5.38Z" style="fill:#fff;opacity:.30000000000000004"/><path d="m33.61 102.93-7.89-4.57a6.36 6.36 0 0 0-.91 3.06v50.52a2.16 2.16 0 0 0 .89 2c.57.35 7.32 4.21 7.85 4.55a2.22 2.22 0 0 1-.84-2V106a6.31 6.31 0 0 1 .9-3.07ZM81.34 75.2c-1.1-.67-7.24-4.19-7.75-4.49a2.18 2.18 0 0 0-2.21.2L27.91 96.06a6.31 6.31 0 0 0-2.19 2.3l7.89 4.57a6.26 6.26 0 0 1 2.19-2.31l43.48-25.13a2.28 2.28 0 0 1 2.06-.29Z" style="fill:#105f38"/><path d="M81.34 75.2c-1.1-.67-7.24-4.19-7.75-4.49a2.18 2.18 0 0 0-2.21.2L27.91 96.06a6.31 6.31 0 0 0-2.19 2.3l7.89 4.57a6.26 6.26 0 0 1 2.19-2.31l43.48-25.13a2.28 2.28 0 0 1 2.06-.29Z" style="fill:#fff;opacity:.45"/><path d="M55.51 100.74c-.66 1.25-.66 2.67 0 3.17l2.91 2.2-11.88 22.71a9.87 9.87 0 0 0-1.12 6.68l-2.7 5.15c-.82 1.58-.82 3.37 0 4s2.17-.15 3-1.73l2.69-5.15c1.55-.26 3.3-1.77 4.53-4.11L64.82 111l2.92 2.21c.65.49 1.72-.12 2.37-1.38s.66-2.67 0-3.16l-2.91-2.21 4.44-8.5c1.77-3.37 1.77-7.19 0-8.53s-4.63.32-6.4 3.7l-4.44 8.5-2.92-2.21c-.66-.55-1.72.07-2.37 1.32Zm1 12.29 4 3-8.75 16.7c-1.08 2.08-2.85 3.11-3.94 2.28s-1.09-3.18 0-5.26Z" style="fill:#fafafa"/><path d="m103.22 61.69 43.47-25.13c1.71-1 3.1-.19 3.1 1.79v50.51a6.85 6.85 0 0 1-3.1 5.36l-43.47 25.14c-1.71 1-3.1.19-3.1-1.79V67.05a6.85 6.85 0 0 1 3.1-5.36Z" style="fill:#105f38"/><path d="m103.22 61.69 43.47-25.13c1.71-1 3.1-.19 3.1 1.79v50.51a6.85 6.85 0 0 1-3.1 5.36l-43.47 25.14c-1.71 1-3.1.19-3.1-1.79V67.05a6.85 6.85 0 0 1 3.1-5.36Z" style="fill:#fff;opacity:.30000000000000004"/><path d="m101 64-7.89-4.57a6.36 6.36 0 0 0-.91 3.06V113a2.17 2.17 0 0 0 .89 2c.57.35 7.32 4.21 7.85 4.55a2.22 2.22 0 0 1-.84-2v-50.5A6.42 6.42 0 0 1 101 64ZM148.76 36.27c-1.1-.67-7.24-4.19-7.74-4.49a2.19 2.19 0 0 0-2.22.2L95.33 57.12a6.42 6.42 0 0 0-2.19 2.31L101 64a6.34 6.34 0 0 1 2.19-2.31l43.51-25.13a2.28 2.28 0 0 1 2.06-.29Z" style="fill:#105f38"/><path d="M148.76 36.27c-1.1-.67-7.24-4.19-7.74-4.49a2.19 2.19 0 0 0-2.22.2L95.33 57.12a6.42 6.42 0 0 0-2.19 2.31L101 64a6.34 6.34 0 0 1 2.19-2.31l43.51-25.13a2.28 2.28 0 0 1 2.06-.29Z" style="fill:#fff;opacity:.45"/><path d="m122.14 58-2.21 4.23-.5-1a2.46 2.46 0 0 0-2.69-1.49 6 6 0 0 0-3.52 2.43c-2.26 2.85-3.15 7.08-2 9.42l1.84 3.74-5.49 10.5c-1.54 2.93-1.54 6.26 0 7.42l10.76 8.14c1.53 1.16 4-.28 5.56-3.22l14.57-27.82Zm-8.9 11c-.6-1.2-.14-3.36 1-4.82a3.05 3.05 0 0 1 1.8-1.24 1.26 1.26 0 0 1 1.38.76l.83 1.66-3.52 6.71Zm8.39 27.37c-.66 1.26-1.73 1.88-2.39 1.38l-9-6.8c-.65-.5-.65-1.92 0-3.18L120.06 69l2.17 4.37c-1.13 2.34-1.09 4.91.13 5.83s3.31-.22 4.57-2.64 1.26-5.14 0-6.09a2.22 2.22 0 0 0-2.71.34l-2.49-5 1.46-2.8 11.41 8.61ZM141.85 84.89c-1.43 2.73-3.76 4.07-5.19 3-1.27-1-1.43-3.53-.39-6.08l3-7.27 3 3.83c1.01 1.33.85 4.09-.42 6.52Z" style="fill:#fafafa"/><path d="M184 18.15c-10.67 6.16-19.36 22.75-19.36 37s8.69 20.8 19.36 14.63 19.36-22.75 19.36-37S194.68 12 184 18.15Zm0 47.62c-9 5.21-16.36-.34-16.36-12.37S175 27.35 184 22.14s16.36.34 16.36 12.37S193 60.56 184 65.77Zm2-25.71V27.15l-4 2.35v12.91L172.29 48v5.43l9.71-5.58v12.91l4.08-2.35V45.5l9.68-5.59v-5.44Z" style="fill:#e0e0e0"/><path d="m155.26 317.74.09-39.21c0-.81.38-1 .86-.44l16.19 19.4c.48.57.12 1.36-.79 1.78l-4.55 2.05a2 2 0 0 0-1.28 2.07l3.06 10.93A3.37 3.37 0 0 1 168 317l-2.25 2.58c-.65.75-1.35.77-1.56 0l-3.06-10.93c-.21-.74-.69-.65-1.09.19l-4.1 8.78c-.36.9-.68.93-.68.12Z" style="opacity:.1"/><path d="m179.78 301.74-16.19-19.4a1.19 1.19 0 0 0-.3-.27l-3.88-2.24c-.33-.19-.57.07-.57.7l-.09 39.21c0 .33.05.52.14.58l3.89 2.24c.13.08.34-.14.57-.63l2.78-5.95 1.58 5.66a.77.77 0 0 0 .31.46c.32.2 3.76 2.17 3.9 2.25.32.19.79 0 1.24-.5l2.25-2.58a3.38 3.38 0 0 0 .81-2.7l-3.06-10.93a2 2 0 0 1 1.28-2.07l4.54-2.06c.92-.41 1.27-1.2.8-1.77Z" style="fill:#37474f"/><path d="m162.64 322 .08-39.2c0-.81.39-1 .87-.44l16.19 19.4c.47.57.12 1.36-.8 1.78l-4.54 2.05a2 2 0 0 0-1.28 2.07l3.06 10.93a3.38 3.38 0 0 1-.81 2.7l-2.25 2.58c-.65.75-1.35.77-1.56 0L168.54 313c-.21-.74-.69-.65-1.09.19l-4.1 8.78c-.35.8-.71.83-.71.03Z" style="fill:#fafafa"/><path d="M163.74 284.06 179 302.32a.91.91 0 0 1-.39.28l-4.61 2.06a2.93 2.93 0 0 0-1.83 3.25l3.06 10.93a2.46 2.46 0 0 1-.61 1.77l-2.21 2.55-2.94-10.47a1.45 1.45 0 0 0-1.38-1.23c-.45 0-1.08.22-1.57 1.27l-2.9 6.2.07-34.87m-.63-2.05c-.22 0-.36.27-.37.77l-.08 39.2c0 .4.07.6.2.6s.31-.22.51-.65l4.1-8.78c.22-.46.46-.69.67-.69s.32.16.42.5l3.06 10.93a.62.62 0 0 0 .6.53 1.4 1.4 0 0 0 1-.57l2.25-2.58a3.38 3.38 0 0 0 .81-2.7l-3.06-10.93a2 2 0 0 1 1.28-2.07l4.54-2.05c.92-.42 1.27-1.21.8-1.78l-16.19-19.4a.77.77 0 0 0-.5-.33Z" style="fill:#455a64"/><path d="M171.86 324.31 168 322.1a.82.82 0 0 1-.31-.46l-1.56-5.64 1.33-2.84c.39-.84.88-.93 1.08-.2l3.06 10.93a.79.79 0 0 0 .26.42Z" style="fill:#263238"/><path style="fill:#37474f" d="m178.48 320.96 6.77-3.91v7.82l-6.77 3.91v-7.82z"/><path d="M475.09 323.56c-8 4.63-21 4.63-29.08 0s-8-12.15 0-16.79 21.05-4.63 29.08 0 8.03 12.15 0 16.79Z" style="fill:#e0e0e0"/><path d="m443 285.68 34.35-.47.29 28.05c0 2.54-1.62 5.09-4.95 7.07-6.67 3.94-17.54 4.06-24.29.26-3.41-1.92-5.11-4.47-5.1-7Z" style="fill:#37474f"/><path d="M472.23 278.26c6.75 3.8 6.82 10.08.16 14s-17.54 4.06-24.29.26-6.82-10.07-.16-14 17.55-4.06 24.29-.26Z" style="fill:#455a64"/><path d="M444.47 285.56a4.29 4.29 0 0 0 .25 1.35 8.25 8.25 0 0 0 4.11 4.33 25.42 25.42 0 0 0 22.8-.24 8.35 8.35 0 0 0 4-4.33 4.23 4.23 0 0 0 .24-1.44c0-2.1-1.57-4.11-4.35-5.67a25.46 25.46 0 0 0-22.8.25c-2.72 1.62-4.26 3.66-4.25 5.75Z" style="fill:#263238"/><path d="M444.72 286.91a8.25 8.25 0 0 0 4.11 4.33 25.42 25.42 0 0 0 22.8-.24 8.35 8.35 0 0 0 4-4.33 8.25 8.25 0 0 0-4.11-4.32 23.14 23.14 0 0 0-11.42-2.6 23.45 23.45 0 0 0-11.38 2.84 8.38 8.38 0 0 0-4 4.32Z" style="fill:#f5f5f5"/><path d="M448.83 291.24a11.71 11.71 0 0 1-1.56-1c6.27 3.37 17.05 2 20.41-.69s3.81-7.16-1.65-9.18a19.37 19.37 0 0 1 5.47 2 8.25 8.25 0 0 1 4.11 4.32 8.35 8.35 0 0 1-4 4.33 25.42 25.42 0 0 1-22.8.24Z" style="opacity:.15"/><path d="M452.85 296.18c-.75-.42-1.36-.06-1.35.8a3 3 0 0 0 1.38 2.33c.76.43 1.36.07 1.35-.79a3 3 0 0 0-1.38-2.34Z" style="fill:#263238"/><path d="M477.4 290.14c1.89 3.72 5.65 12.58.77 16.19-.21.14-.39.28-.6.41v1.79c.48-.3 1-.63 1.47-1 7.29-5.4-.93-19.27-1.28-19.85a.72.72 0 0 0-.42-.31Z" style="fill:#e0e0e0"/><path d="M452.21 298.1c.21.43 5.51 10.58 14.24 12.62a12.88 12.88 0 0 0 3 .35 15.18 15.18 0 0 0 8.13-2.54v-1.79c-3.61 2.5-7.23 3.36-10.78 2.54-8.06-1.89-13.21-11.78-13.25-11.87a.76.76 0 0 0-1-.32.73.73 0 0 0-.34 1.01Z" style="fill:#e0e0e0"/><ellipse cx="432.92" cy="337.13" rx="20.56" ry="11.87" style="fill:#e0e0e0"/><path d="m415.37 307.64 34.34-.46.3 28.05c0 2.54-1.62 5.09-4.95 7.07-6.67 3.94-17.54 4.06-24.29.26-3.41-1.92-5.11-4.47-5.1-7Z" style="fill:#37474f"/><path d="M444.6 300.23c6.75 3.8 6.82 10.08.15 14s-17.53 4.06-24.29.26-6.81-10.08-.15-14 17.55-4.07 24.29-.26Z" style="fill:#455a64"/><path d="M416.84 307.53a4.29 4.29 0 0 0 .25 1.35 8.29 8.29 0 0 0 4.11 4.33A25.42 25.42 0 0 0 444 313a8.37 8.37 0 0 0 4-4.34 4.13 4.13 0 0 0 .24-1.43c0-2.1-1.57-4.12-4.35-5.67a25.38 25.38 0 0 0-22.8.25c-2.77 1.59-4.27 3.63-4.25 5.72Z" style="fill:#263238"/><path d="M417.09 308.88a8.29 8.29 0 0 0 4.11 4.33A25.42 25.42 0 0 0 444 313a8.37 8.37 0 0 0 4-4.34 8.27 8.27 0 0 0-4.11-4.31 23.17 23.17 0 0 0-11.42-2.6 23.45 23.45 0 0 0-11.38 2.84 8.38 8.38 0 0 0-4 4.29Z" style="fill:#105f38"/><path d="M421.2 313.21a11.71 11.71 0 0 1-1.56-1c6.27 3.37 17.05 1.95 20.41-.69s3.81-7.16-1.65-9.18a19.37 19.37 0 0 1 5.47 2 8.27 8.27 0 0 1 4.11 4.31 8.37 8.37 0 0 1-4 4.34 25.42 25.42 0 0 1-22.8.24Z" style="opacity:.15"/><path d="M425.22 318.15c-.75-.42-1.36-.06-1.35.8a3 3 0 0 0 1.38 2.33c.76.43 1.36.07 1.35-.79a3 3 0 0 0-1.38-2.34Z" style="fill:#263238"/><path d="M449.77 312.11c1.89 3.72 5.64 12.58.77 16.18l-.6.41v1.8c.48-.3 1-.64 1.47-1 7.29-5.4-.93-19.27-1.29-19.85a.69.69 0 0 0-.41-.32Z" style="fill:#e0e0e0"/><path d="M424.58 320.07c.21.43 5.51 10.58 14.24 12.62a12.88 12.88 0 0 0 3 .35 15.18 15.18 0 0 0 8.18-2.54v-1.8c-3.61 2.51-7.23 3.37-10.78 2.55-8.06-1.89-13.22-11.78-13.25-11.87a.76.76 0 0 0-1-.32.72.72 0 0 0-.39 1.01ZM426 372.21a1 1 0 0 1 .39-.57 1 1 0 0 1-.46-.82 1 1 0 0 1 .52-.86l39.11-22.58a1.41 1.41 0 0 1 .71-.18 1.38 1.38 0 0 1 .7.18l8.1 4.68a1 1 0 0 1 0 1.72l-6.38 3.69 5.94-2a1.5 1.5 0 0 1 .47-.08 1.32 1.32 0 0 1 .94.36l5.73 5.73a1 1 0 0 1 .26.9 1.06 1.06 0 0 1-.73.75l-9.92 3.31 9.14-1.42h.24a1.22 1.22 0 0 1 1.14.65l3 6.39a.92.92 0 0 1 0 .84 1.17 1.17 0 0 1-.88.58l-53.43 8.26a.86.86 0 0 1-.23 0 1.22 1.22 0 0 1-1.14-.64l-3-6.39a1 1 0 0 1 0-.85 1.08 1.08 0 0 1 .41-.41l-.37-.36a1 1 0 0 1-.26-.88Z" style="fill:#e0e0e0"/><path d="M483 369.72a.14.14 0 0 0 0-.06l-3-6.24a.54.54 0 0 0-.53-.18l-52.19 8.08c-.2 0-.32.13-.32.24v1.09a.13.13 0 0 0 0 .06l2.9 6.24a.5.5 0 0 0 .52.17l52.2-8.07c.2 0 .32-.14.32-.25Z" style="fill:#37474f"/><path d="m427.32 371.32 52.19-8.08a.54.54 0 0 1 .53.18l2.89 6.24c.06.13-.07.27-.3.3l-52.2 8.04c-.22 0-.46 0-.52-.18l-2.9-6.24c-.01-.09.08-.23.31-.26Z" style="fill:#455a64"/><path style="fill:#105f38" d="m430.18 372.48 1.73 3.73 6.47-1-1.73-3.73-6.47 1z"/><path style="opacity:.6000000000000001" d="m430.18 372.48 1.73 3.73 6.47-1-1.73-3.73-6.47 1z"/><path style="fill:#105f38" d="m446.74 369.92 1.73 3.73 6.46-1-1.73-3.73-6.46 1z"/><path style="opacity:.35000000000000003" d="m446.74 369.92 1.73 3.73 6.46-1-1.73-3.73-6.46 1z"/><path style="fill:#105f38" d="m455.01 368.63 1.74 3.74 6.46-1-1.73-3.74-6.47 1z"/><path style="opacity:.25" d="m455.01 368.63 1.74 3.74 6.46-1-1.73-3.74-6.47 1z"/><path style="fill:#105f38" d="m463.29 367.35 1.73 3.74 6.47-1-1.74-3.74-6.46 1z"/><path style="opacity:.15" d="m463.29 367.35 1.73 3.74 6.47-1-1.74-3.74-6.46 1z"/><path style="fill:#105f38" d="m471.57 366.07 1.73 3.74 6.46-1-1.73-3.74-6.46 1zM438.46 371.2l1.73 3.73 6.47-1-1.74-3.74-6.46 1.01z"/><path style="opacity:.45" d="m438.46 371.2 1.73 3.73 6.47-1-1.74-3.74-6.46 1.01z"/><path d="M430 378v1.09a.26.26 0 0 1-.13-.12l-2.9-6.24a.13.13 0 0 1 0-.06v-1.1a.13.13 0 0 0 0 .06l2.9 6.24a.32.32 0 0 0 .13.13Z" style="fill:#263238"/><path d="M480.12 359.69a.16.16 0 0 0-.06-.12l-5.59-5.6a.62.62 0 0 0-.59-.09l-46.8 15.6c-.13 0-.21.12-.21.21v1.09a.19.19 0 0 0 .06.13l5.59 5.59a.62.62 0 0 0 .59.09l46.8-15.6c.13 0 .21-.12.21-.21Z" style="fill:#37474f"/><path d="m427.08 369.48 46.8-15.6a.62.62 0 0 1 .59.09l5.59 5.6c.12.11.05.26-.15.33l-46.8 15.6a.62.62 0 0 1-.59-.09l-5.59-5.59c-.12-.12-.05-.27.15-.34Z" style="fill:#455a64"/><path style="fill:#ffa8a7" d="m430.37 370.17 3.35 3.34 5.79-1.93-3.34-3.34-5.8 1.93zM445.21 365.22l3.35 3.35 5.8-1.94-3.35-3.34-5.8 1.93z"/><path style="fill:#fff;opacity:.4" d="m445.21 365.22 3.35 3.35 5.8-1.94-3.35-3.34-5.8 1.93z"/><path style="fill:#ffa8a7" d="m452.63 362.75 3.35 3.34 5.8-1.93-3.35-3.35-5.8 1.94z"/><path style="fill:#fff;opacity:.6000000000000001" d="m452.63 362.75 3.35 3.34 5.8-1.93-3.35-3.35-5.8 1.94z"/><path style="fill:#ffa8a7" d="m460.05 360.27 3.35 3.35 5.8-1.93-3.35-3.35-5.8 1.93z"/><path style="fill:#fff;opacity:.8" d="m460.05 360.27 3.35 3.35 5.8-1.93-3.35-3.35-5.8 1.93z"/><path style="fill:#ffa8a7" d="m467.47 357.8 3.35 3.35 5.8-1.94-3.35-3.34-5.8 1.93z"/><path style="fill:#fff" d="m467.47 357.8 3.35 3.35 5.8-1.94-3.35-3.34-5.8 1.93z"/><path style="fill:#ffa8a7" d="m437.79 367.69 3.35 3.35 5.8-1.93-3.35-3.35-5.8 1.93z"/><path style="fill:#fff;opacity:.2" d="m437.79 367.69 3.35 3.35 5.8-1.93-3.35-3.35-5.8 1.93z"/><path d="M432.76 375.52v1.09a.41.41 0 0 1-.24-.11l-5.59-5.59a.19.19 0 0 1-.06-.13v-1.07a.15.15 0 0 0 .06.11l5.59 5.59a.48.48 0 0 0 .24.11Z" style="fill:#263238"/><path d="M426.65 368.48v.4a.66.66 0 0 0 .3.52l7.91 4.57a.66.66 0 0 0 .61 0l38.21-22.06a.66.66 0 0 0 .3-.53V351a.65.65 0 0 0-.3-.52l-7.91-4.57a.66.66 0 0 0-.61 0L427 368a.65.65 0 0 0-.35.48Z" style="fill:#37474f"/><path d="m427 368 38.21-22.06a.66.66 0 0 1 .61 0l7.91 4.57a.18.18 0 0 1 0 .34l-38.21 22.07a.72.72 0 0 1-.61 0l-7.91-4.61c-.22-.1-.22-.26 0-.31Z" style="fill:#455a64"/><path d="M435.17 373v1a.64.64 0 0 1-.31-.07L427 369.4a.66.66 0 0 1-.3-.52v-.4a.66.66 0 0 1 .24-.48c-.1.1-.08.22.06.31l7.91 4.56a.65.65 0 0 0 .26.13Z" style="fill:#263238"/><path d="m427 368 38.21-22.06a.66.66 0 0 1 .61 0l7.91 4.56c.17.1.17.26 0 .35l-38.21 22.07a.72.72 0 0 1-.61 0l-7.91-4.61c-.22-.1-.22-.26 0-.31Z" style="fill:#455a64"/><path style="fill:#105f38" d="m430.43 368.13 4.74 2.73 4.73-2.73-4.73-2.73-4.74 2.73zM442.55 361.13l4.74 2.74 4.73-2.74-4.73-2.73-4.74 2.73z"/><path style="fill:#fff;opacity:.4" d="m442.55 361.13 4.74 2.74 4.73-2.74-4.73-2.73-4.74 2.73z"/><path style="fill:#105f38" d="m448.61 357.64 4.74 2.73 4.73-2.73-4.73-2.74-4.74 2.74z"/><path style="fill:#fff;opacity:.6000000000000001" d="m448.61 357.64 4.74 2.73 4.73-2.73-4.73-2.74-4.74 2.74z"/><path style="fill:#105f38" d="m454.67 354.14 4.73 2.73 4.74-2.73-4.74-2.73-4.73 2.73z"/><path style="fill:#fff;opacity:.8" d="m454.67 354.14 4.73 2.73 4.74-2.73-4.74-2.73-4.73 2.73z"/><path style="fill:#105f38" d="m460.73 350.64 4.73 2.73 4.74-2.73-4.74-2.73-4.73 2.73z"/><path style="fill:#fff" d="m460.73 350.64 4.73 2.73 4.74-2.73-4.74-2.73-4.73 2.73z"/><path style="fill:#105f38" d="m436.49 364.63 4.74 2.74 4.73-2.74-4.73-2.73-4.74 2.73z"/><path style="fill:#fff;opacity:.2" d="m436.49 364.63 4.74 2.74 4.73-2.74-4.73-2.73-4.74 2.73z"/><path d="M429.32 367.85a.3.3 0 0 1 0 .56 1.08 1.08 0 0 1-1 0c-.27-.15-.27-.4 0-.56a1.08 1.08 0 0 1 1 0Z" style="fill:#263238"/><path d="M429 367.75a4.45 4.45 0 1 0-1.7 5.5l-.25-.53a.13.13 0 0 1 0-.06v-.08a3.75 3.75 0 1 1 1.27-4.66 3.16 3.16 0 0 1 .2.54 1.08 1.08 0 0 0 .73 0 4.56 4.56 0 0 0-.25-.71Z" style="fill:#e0e0e0"/><path d="M421.13 425.87a.88.88 0 0 0 .52.75l2 1 1.15-.19a2.06 2.06 0 0 0 1.5-1.45 10.29 10.29 0 0 1 .45-1.24 1.29 1.29 0 0 0-.55-1.71l-4.6-2.38a.87.87 0 0 1-.52-.72Zm16.86-2c-2.67 2.25-3 5.06-1.37 7.47a8.42 8.42 0 0 1 1.44-1.53c4.24-3.56 12.71-4.35 18.92-1.77a10.85 10.85 0 0 1 4.9 3.63c2.3-3.35.38-7.36-5-9.58-6.18-2.56-14.65-1.76-18.88 1.8Zm-20.23 11.57a1.12 1.12 0 0 0 .05.36l1 3.21a1.8 1.8 0 0 0 1.66 1.19l6.53-.2a2.56 2.56 0 0 1 1 .22 2.7 2.7 0 0 1 .56.29l2.23-2.4a1.13 1.13 0 0 0-.18-1.69 15.63 15.63 0 0 1-1.57-1.43 3.44 3.44 0 0 0-1.1-.72 2.65 2.65 0 0 0-1-.22l-6.51.2a1.82 1.82 0 0 1-1.66-1.19l-1-3.22a1 1 0 0 1-.06-.34Zm52.7-19.74a1 1 0 0 1-.26.52l-2.56 2.78a1.13 1.13 0 0 0 .18 1.69 15.63 15.63 0 0 1 1.57 1.43 2.69 2.69 0 0 0 .55.43l.33-.36a.94.94 0 0 0 .26-.65Zm-42.41 31.76a.88.88 0 0 0 .1.36.91.91 0 0 0 .5.41l5.73 2.39a1 1 0 0 0 .25.08h.18a3.17 3.17 0 0 0 .87 0h.19a2.1 2.1 0 0 0 .73-.28l3.81-2.53a3.52 3.52 0 0 1 2.29-.44c1.22.23 2.46.39 3.7.5a2.44 2.44 0 0 1 1.24.54 2 2 0 0 1 .33.31.65.65 0 0 1 .13.16 1 1 0 0 1 .16.24l1.45 2.81v.07a.8.8 0 0 0 .15.21 1.29 1.29 0 0 0 .16.18 1.2 1.2 0 0 0 .21.17 3.1 3.1 0 0 0 .47.26 1.86 1.86 0 0 0 .8.12l7.11-.67a1.21 1.21 0 0 0 1.1-1.21v-4a1.44 1.44 0 0 1 .73-.51c1-.32 2-.67 3-1.07a3.78 3.78 0 0 1 2.35-.14h.07l5.5 1.82a1.33 1.33 0 0 0 .3.06h.05a.86.86 0 0 0 .32 0 2.34 2.34 0 0 0 1.51-.49l3.6-3a.89.89 0 0 0 .35-.64l-.07-5.92a.91.91 0 0 1-.35.62l-3.6 3a2.08 2.08 0 0 1-.8.4 2.53 2.53 0 0 1-1.39 0l-5.49-1.81h-.07a3.85 3.85 0 0 0-2.35.13 28.67 28.67 0 0 1-3 1.07 1.53 1.53 0 0 0-1.05 1.62l.36 2.74a1.22 1.22 0 0 1-1.09 1.4l-7.11.67a1.88 1.88 0 0 1-.8-.12 2 2 0 0 1-1.05-.91l-1.46-2.82a2 2 0 0 0-.61-.7 2.44 2.44 0 0 0-1.24-.54c-1.24-.11-2.48-.28-3.7-.5a3.51 3.51 0 0 0-2.29.43l-3.8 2.54a2.24 2.24 0 0 1-.74.29 2.57 2.57 0 0 1-1.49-.09l-5.73-2.38a.87.87 0 0 1-.6-.78Zm45.62-17.8a2.09 2.09 0 0 0-1.5 1.46 7.39 7.39 0 0 1-.45 1.24 1.29 1.29 0 0 0 .54 1.71l2.62 1.36 5-.82a1 1 0 0 0 .9-1l-.07-6a1 1 0 0 1-.91 1Z" style="fill:#e6e6e6"/><path d="M421.13 425.87a.88.88 0 0 0 .52.75l2 1 1.15-.19a2.06 2.06 0 0 0 1.5-1.45 10.29 10.29 0 0 1 .45-1.24 1.29 1.29 0 0 0-.55-1.71l-4.6-2.38a.87.87 0 0 1-.52-.72Zm16.86-2c-2.67 2.25-3 5.06-1.37 7.47a8.42 8.42 0 0 1 1.44-1.53c4.24-3.56 12.71-4.35 18.92-1.77a10.85 10.85 0 0 1 4.9 3.63c2.3-3.35.38-7.36-5-9.58-6.18-2.56-14.65-1.76-18.88 1.8Zm-20.23 11.57a1.12 1.12 0 0 0 .05.36l1 3.21a1.8 1.8 0 0 0 1.66 1.19l6.53-.2a2.56 2.56 0 0 1 1 .22 2.7 2.7 0 0 1 .56.29l2.23-2.4a1.13 1.13 0 0 0-.18-1.69 15.63 15.63 0 0 1-1.57-1.43 3.44 3.44 0 0 0-1.1-.72 2.65 2.65 0 0 0-1-.22l-6.51.2a1.82 1.82 0 0 1-1.66-1.19l-1-3.22a1 1 0 0 1-.06-.34Zm52.7-19.74a1 1 0 0 1-.26.52l-2.56 2.78a1.13 1.13 0 0 0 .18 1.69 15.63 15.63 0 0 1 1.57 1.43 2.69 2.69 0 0 0 .55.43l.33-.36a.94.94 0 0 0 .26-.65Zm-42.41 31.76a.88.88 0 0 0 .1.36.91.91 0 0 0 .5.41l5.73 2.39a1 1 0 0 0 .25.08h.18a3.17 3.17 0 0 0 .87 0h.19a2.1 2.1 0 0 0 .73-.28l3.81-2.53a3.52 3.52 0 0 1 2.29-.44c1.22.23 2.46.39 3.7.5a2.44 2.44 0 0 1 1.24.54 2 2 0 0 1 .33.31.65.65 0 0 1 .13.16 1 1 0 0 1 .16.24l1.45 2.81v.07a.8.8 0 0 0 .15.21 1.29 1.29 0 0 0 .16.18 1.2 1.2 0 0 0 .21.17 3.1 3.1 0 0 0 .47.26 1.86 1.86 0 0 0 .8.12l7.11-.67a1.21 1.21 0 0 0 1.1-1.21v-4a1.44 1.44 0 0 1 .73-.51c1-.32 2-.67 3-1.07a3.78 3.78 0 0 1 2.35-.14h.07l5.5 1.82a1.33 1.33 0 0 0 .3.06h.05a.86.86 0 0 0 .32 0 2.34 2.34 0 0 0 1.51-.49l3.6-3a.89.89 0 0 0 .35-.64l-.07-5.92a.91.91 0 0 1-.35.62l-3.6 3a2.08 2.08 0 0 1-.8.4 2.53 2.53 0 0 1-1.39 0l-5.49-1.81h-.07a3.85 3.85 0 0 0-2.35.13 28.67 28.67 0 0 1-3 1.07 1.53 1.53 0 0 0-1.05 1.62l.36 2.74a1.22 1.22 0 0 1-1.09 1.4l-7.11.67a1.88 1.88 0 0 1-.8-.12 2 2 0 0 1-1.05-.91l-1.46-2.82a2 2 0 0 0-.61-.7 2.44 2.44 0 0 0-1.24-.54c-1.24-.11-2.48-.28-3.7-.5a3.51 3.51 0 0 0-2.29.43l-3.8 2.54a2.24 2.24 0 0 1-.74.29 2.57 2.57 0 0 1-1.49-.09l-5.73-2.38a.87.87 0 0 1-.6-.78Zm45.62-17.8a2.09 2.09 0 0 0-1.5 1.46 7.39 7.39 0 0 1-.45 1.24 1.29 1.29 0 0 0 .54 1.71l2.62 1.36 5-.82a1 1 0 0 0 .9-1l-.07-6a1 1 0 0 1-.91 1Z" style="opacity:.1"/><path d="m465.76 439.5 5.49 1.81a2.53 2.53 0 0 0 1.39 0l.07 5.93a2.45 2.45 0 0 1-.71.11.86.86 0 0 1-.32 0h-.05a1.33 1.33 0 0 1-.3-.06l-5.5-1.82ZM447.57 442.56a2 2 0 0 1 .61.7l1.46 2.82a2 2 0 0 0 1.05.91l.07 5.94a3.1 3.1 0 0 1-.47-.26 1.2 1.2 0 0 1-.21-.17 1.29 1.29 0 0 1-.16-.18.8.8 0 0 1-.15-.21v-.07l-1.45-2.81a2.62 2.62 0 0 0-.29-.4 2.28 2.28 0 0 0-.33-.29ZM421.06 419.94a.84.84 0 0 0 .53.72l4.6 2.38a1.29 1.29 0 0 1 .54 1.71 7.39 7.39 0 0 0-.45 1.24 2.07 2.07 0 0 1-1.5 1.46l-1.14.18-2-1a.84.84 0 0 1-.52-.74ZM417.69 429.53a1 1 0 0 0 .06.34l1 3.22a1.82 1.82 0 0 0 1.66 1.19l6.51-.2a2.65 2.65 0 0 1 1 .22l.06 5.95a2.56 2.56 0 0 0-1-.22l-6.51.19a1.8 1.8 0 0 1-1.66-1.19l-1-3.21a1.12 1.12 0 0 1-.05-.36ZM428 441.53a.87.87 0 0 0 .6.78l5.73 2.38a2.57 2.57 0 0 0 1.49.09l.07 5.93h-.19a3.17 3.17 0 0 1-.87 0h-.18a1 1 0 0 1-.25-.08l-5.73-2.39a.91.91 0 0 1-.5-.41.88.88 0 0 1-.1-.36Z" style="fill:#e0e0e0"/><path d="m425 416.23-3.6 3a.79.79 0 0 0 .18 1.4l4.6 2.38a1.29 1.29 0 0 1 .54 1.71 7.39 7.39 0 0 0-.45 1.24 2.06 2.06 0 0 1-1.5 1.45l-6.18 1a1.07 1.07 0 0 0-.85 1.44l1 3.2a1.8 1.8 0 0 0 1.66 1.19l6.51-.19a3.18 3.18 0 0 1 2.11.94 17 17 0 0 0 1.58 1.43 1.13 1.13 0 0 1 .18 1.69l-2.55 2.75a.83.83 0 0 0 .32 1.42l5.73 2.38a2.68 2.68 0 0 0 2.23-.2l3.8-2.54a3.57 3.57 0 0 1 2.29-.44c1.22.23 2.46.4 3.7.51a2.58 2.58 0 0 1 1.86 1.24l1.45 2.82a2 2 0 0 0 1.85 1l7.11-.67a1.21 1.21 0 0 0 1.09-1.39l-.36-2.75a1.53 1.53 0 0 1 1.05-1.62 28.67 28.67 0 0 0 3-1.07 3.78 3.78 0 0 1 2.35-.13l5.57 1.83a2.51 2.51 0 0 0 2.17-.42l3.61-3a.79.79 0 0 0-.18-1.4l-4.6-2.38a1.29 1.29 0 0 1-.54-1.71 7.73 7.73 0 0 0 .45-1.24 2.09 2.09 0 0 1 1.5-1.46l6.18-1a1.06 1.06 0 0 0 .85-1.43l-1-3.2a1.81 1.81 0 0 0-1.66-1.2l-6.51.19a3.26 3.26 0 0 1-2.12-.93 15.63 15.63 0 0 0-1.57-1.43 1.13 1.13 0 0 1-.18-1.69l2.55-2.76a.82.82 0 0 0-.32-1.41l-5.73-2.38a2.64 2.64 0 0 0-2.23.2l-3.8 2.54a3.57 3.57 0 0 1-2.29.44c-1.22-.23-2.46-.4-3.7-.51a2.58 2.58 0 0 1-1.86-1.24l-1.45-2.82a2 2 0 0 0-1.85-1l-7.11.67a1.21 1.21 0 0 0-1.09 1.39l.36 2.75a1.55 1.55 0 0 1-1.05 1.62 28.67 28.67 0 0 0-3 1.07 3.78 3.78 0 0 1-2.35.13l-5.57-1.83a2.56 2.56 0 0 0-2.18.42Zm31.9 5.88c6.2 2.58 7.79 7.56 3.55 11.13s-12.71 4.36-18.92 1.78-7.8-7.56-3.55-11.13 12.72-4.36 18.93-1.78Z" style="fill:#f5f5f5"/><path d="M447.09 410.51a1.58 1.58 0 0 1 1.28.77l1.45 2.82a3 3 0 0 0 2.26 1.51 35.82 35.82 0 0 1 3.64.5 3.48 3.48 0 0 0 .58.05 4 4 0 0 0 2.09-.57l3.8-2.53a2.08 2.08 0 0 1 1.08-.28 1.72 1.72 0 0 1 .68.12l5.73 2.38a.44.44 0 0 1 .29.27.41.41 0 0 1-.14.34l-2.56 2.76a1.62 1.62 0 0 0-.43 1.21 1.7 1.7 0 0 0 .67 1.21 15.68 15.68 0 0 1 1.52 1.39 3.73 3.73 0 0 0 2.43 1.08h.07l6.53-.19a1.31 1.31 0 0 1 1.14.85l1 3.2a.61.61 0 0 1 0 .53.56.56 0 0 1-.41.26l-6.18 1a2.56 2.56 0 0 0-1.9 1.81 7.15 7.15 0 0 1-.43 1.17 1.8 1.8 0 0 0 .77 2.36l4.6 2.38c.15.08.25.18.26.28a.4.4 0 0 1-.18.29l-3.6 3a2 2 0 0 1-1.22.39 1.73 1.73 0 0 1-.48-.07l-5.58-1.8a3.64 3.64 0 0 0-1.09-.15 4.25 4.25 0 0 0-1.62.3 28.35 28.35 0 0 1-2.91 1.05 2 2 0 0 0-1.39 2.16l.36 2.75a.77.77 0 0 1-.16.57.7.7 0 0 1-.49.26l-7.11.67h-.09a1.58 1.58 0 0 1-1.27-.77l-1.45-2.84a3 3 0 0 0-2.26-1.51c-1.23-.11-2.46-.28-3.64-.5a3.58 3.58 0 0 0-.58 0 4 4 0 0 0-2.09.57l-3.8 2.53a2.08 2.08 0 0 1-1.08.28 1.72 1.72 0 0 1-.68-.12l-5.73-2.38a.49.49 0 0 1-.29-.27.43.43 0 0 1 .14-.35l2.56-2.75a1.62 1.62 0 0 0 .43-1.21 1.74 1.74 0 0 0-.67-1.22 15.6 15.6 0 0 1-1.52-1.38 3.75 3.75 0 0 0-2.44-1.09h-.06l-6.53.19a1.29 1.29 0 0 1-1.14-.84l-1-3.21a.62.62 0 0 1 0-.52.56.56 0 0 1 .41-.26l6.18-1a2.56 2.56 0 0 0 1.9-1.82 9.13 9.13 0 0 1 .42-1.17 1.77 1.77 0 0 0-.76-2.35l-4.6-2.38c-.15-.08-.25-.18-.26-.28a.38.38 0 0 1 .17-.3l3.61-3a2 2 0 0 1 1.22-.39 1.43 1.43 0 0 1 .48.07l5.56 1.82a3.29 3.29 0 0 0 1.09.16 4.25 4.25 0 0 0 1.62-.3 26.74 26.74 0 0 1 2.9-1.05 2 2 0 0 0 1.4-2.17l-.36-2.74a.73.73 0 0 1 .64-.84l7.12-.66h.08m2.51 26.44c4.47 0 8.66-1.27 11.2-3.41a6.13 6.13 0 0 0 2.5-5.63c-.4-2.56-2.65-4.87-6.18-6.34a21.58 21.58 0 0 0-8.23-1.55c-4.47 0-8.66 1.27-11.2 3.41a6.12 6.12 0 0 0-2.5 5.62c.4 2.57 2.65 4.88 6.18 6.35a21.73 21.73 0 0 0 8.23 1.55m-2.49-27H447l-7.11.67a1.21 1.21 0 0 0-1.09 1.39l.36 2.75a1.55 1.55 0 0 1-1.05 1.62 28.67 28.67 0 0 0-3 1.07 3.67 3.67 0 0 1-1.42.26 2.94 2.94 0 0 1-.93-.13l-5.57-1.83a2.13 2.13 0 0 0-.63-.09 2.52 2.52 0 0 0-1.55.5l-3.6 3a.79.79 0 0 0 .18 1.4l4.6 2.38a1.29 1.29 0 0 1 .54 1.71 7.39 7.39 0 0 0-.45 1.24 2.06 2.06 0 0 1-1.5 1.45l-6.18 1a1.07 1.07 0 0 0-.85 1.44l1 3.2a1.79 1.79 0 0 0 1.62 1.19l6.51-.19a3.26 3.26 0 0 1 2.07.94 17 17 0 0 0 1.58 1.43 1.13 1.13 0 0 1 .18 1.69l-2.55 2.75a.83.83 0 0 0 .32 1.42l5.73 2.38a2.21 2.21 0 0 0 .87.16 2.63 2.63 0 0 0 1.36-.36l3.8-2.54a3.54 3.54 0 0 1 1.81-.48 2.45 2.45 0 0 1 .48 0c1.22.23 2.46.4 3.7.51a2.58 2.58 0 0 1 1.86 1.24l1.45 2.82a2.06 2.06 0 0 0 1.71 1h.14l7.11-.67a1.22 1.22 0 0 0 1.09-1.4l-.36-2.74a1.53 1.53 0 0 1 1.05-1.62 28.67 28.67 0 0 0 3-1.07 3.67 3.67 0 0 1 1.42-.26 3 3 0 0 1 .93.13l5.57 1.83a2.13 2.13 0 0 0 .63.09 2.5 2.5 0 0 0 1.54-.51l3.61-3a.79.79 0 0 0-.18-1.4l-4.6-2.38a1.29 1.29 0 0 1-.54-1.71 7.73 7.73 0 0 0 .45-1.24 2.09 2.09 0 0 1 1.5-1.46l6.18-1a1.06 1.06 0 0 0 .85-1.43l-1-3.2a1.82 1.82 0 0 0-1.62-1.2l-6.51.19h-.05a3.29 3.29 0 0 1-2.07-.93 15.63 15.63 0 0 0-1.57-1.43 1.13 1.13 0 0 1-.18-1.69l2.55-2.76a.82.82 0 0 0-.32-1.41l-5.73-2.38a2.21 2.21 0 0 0-.87-.16 2.63 2.63 0 0 0-1.36.36l-3.8 2.54a3.54 3.54 0 0 1-1.81.48 3.45 3.45 0 0 1-.48 0c-1.22-.23-2.46-.4-3.7-.51a2.58 2.58 0 0 1-1.86-1.24l-1.45-2.82a2 2 0 0 0-1.72-1Zm2.49 26.52a21.28 21.28 0 0 1-8-1.51c-6.2-2.58-7.8-7.56-3.55-11.13 2.56-2.15 6.66-3.29 10.88-3.29a21.28 21.28 0 0 1 8 1.51c6.2 2.58 7.79 7.56 3.55 11.13-2.56 2.15-6.66 3.29-10.88 3.29Z" style="fill:#e0e0e0"/><path d="M383.52 454.34a.7.7 0 0 0 .41.59l1.58.82.92-.15a1.64 1.64 0 0 0 1.19-1.16 6.57 6.57 0 0 1 .36-1 1 1 0 0 0-.44-1.36l-3.66-1.9a.7.7 0 0 1-.42-.58Zm13.48-1.58c-2.13 1.8-2.42 4-1.09 6a7.13 7.13 0 0 1 1.09-1.26c3.38-2.84 10.14-3.47 15.08-1.41A8.65 8.65 0 0 1 416 459c1.83-2.67.3-5.86-4-7.64-4.91-2.07-11.67-1.44-15 1.4ZM380.83 462a.77.77 0 0 0 .05.29l.81 2.55a1.42 1.42 0 0 0 1.32.95l5.19-.15a2.09 2.09 0 0 1 .81.18 1.91 1.91 0 0 1 .45.23l1.77-1.92a.89.89 0 0 0-.14-1.34 12.66 12.66 0 0 1-1.25-1.14 2.87 2.87 0 0 0-.88-.58 2.07 2.07 0 0 0-.81-.17l-5.2.16a1.46 1.46 0 0 1-1.32-.95l-.81-2.57a.86.86 0 0 1-.05-.27Zm42-15.74a.71.71 0 0 1-.21.41l-2 2.2a.89.89 0 0 0 .14 1.35 10.59 10.59 0 0 1 1.25 1.14 2.2 2.2 0 0 0 .44.33l.26-.28a.71.71 0 0 0 .21-.51ZM389 471.58a.69.69 0 0 0 .08.28.74.74 0 0 0 .4.33l4.57 1.9a.6.6 0 0 0 .19.06.4.4 0 0 0 .15 0 2.35 2.35 0 0 0 .7 0h.15a1.72 1.72 0 0 0 .59-.21l3-2a2.93 2.93 0 0 1 1.83-.35 29.06 29.06 0 0 0 3 .41 2 2 0 0 1 1 .42 2.06 2.06 0 0 1 .26.25.69.69 0 0 1 .11.13 1.22 1.22 0 0 1 .12.19l1.16 2.24v.06a.88.88 0 0 0 .12.17l.13.14.17.14a2 2 0 0 0 .38.2 1.6 1.6 0 0 0 .64.11l5.66-.54a1 1 0 0 0 .88-1v-3.21a1.19 1.19 0 0 1 .58-.41 23.43 23.43 0 0 0 2.36-.85 3 3 0 0 1 1.88-.11l4.38 1.44a1.05 1.05 0 0 0 .24.06 1.15 1.15 0 0 0 .26 0 1.92 1.92 0 0 0 1.2-.4l2.87-2.41a.76.76 0 0 0 .28-.52l-.06-4.72a.68.68 0 0 1-.27.5l-2.87 2.41a1.83 1.83 0 0 1-.64.32 2 2 0 0 1-1.11 0l-4.38-1.44a3.18 3.18 0 0 0-1.88.1 21.82 21.82 0 0 1-2.35.86 1.22 1.22 0 0 0-.84 1.29l.29 2.19a1 1 0 0 1-.87 1.11l-5.67.54a1.59 1.59 0 0 1-.64-.1 1.62 1.62 0 0 1-.84-.72l-1.16-2.25a1.6 1.6 0 0 0-.48-.56 2 2 0 0 0-1-.43c-1-.09-2-.22-2.94-.4a2.78 2.78 0 0 0-1.83.35l-3 2a1.74 1.74 0 0 1-.59.24 2.06 2.06 0 0 1-1.19-.07l-4.57-1.9a.69.69 0 0 1-.48-.62Zm36.37-14.2a1.64 1.64 0 0 0-1.19 1.16 5.9 5.9 0 0 1-.37 1 1 1 0 0 0 .44 1.36l2.09 1.09 4-.65a.83.83 0 0 0 .72-.82l-.05-4.75a.84.84 0 0 1-.73.82Z" style="fill:#e6e6e6"/><path d="M383.52 454.34a.7.7 0 0 0 .41.59l1.58.82.92-.15a1.64 1.64 0 0 0 1.19-1.16 6.57 6.57 0 0 1 .36-1 1 1 0 0 0-.44-1.36l-3.66-1.9a.7.7 0 0 1-.42-.58Zm13.48-1.58c-2.13 1.8-2.42 4-1.09 6a7.13 7.13 0 0 1 1.09-1.26c3.38-2.84 10.14-3.47 15.08-1.41A8.65 8.65 0 0 1 416 459c1.83-2.67.3-5.86-4-7.64-4.91-2.07-11.67-1.44-15 1.4ZM380.83 462a.77.77 0 0 0 .05.29l.81 2.55a1.42 1.42 0 0 0 1.32.95l5.19-.15a2.09 2.09 0 0 1 .81.18 1.91 1.91 0 0 1 .45.23l1.77-1.92a.89.89 0 0 0-.14-1.34 12.66 12.66 0 0 1-1.25-1.14 2.87 2.87 0 0 0-.88-.58 2.07 2.07 0 0 0-.81-.17l-5.2.16a1.46 1.46 0 0 1-1.32-.95l-.81-2.57a.86.86 0 0 1-.05-.27Zm42-15.74a.71.71 0 0 1-.21.41l-2 2.2a.89.89 0 0 0 .14 1.35 10.59 10.59 0 0 1 1.25 1.14 2.2 2.2 0 0 0 .44.33l.26-.28a.71.71 0 0 0 .21-.51ZM389 471.58a.69.69 0 0 0 .08.28.74.74 0 0 0 .4.33l4.57 1.9a.6.6 0 0 0 .19.06.4.4 0 0 0 .15 0 2.35 2.35 0 0 0 .7 0h.15a1.72 1.72 0 0 0 .59-.21l3-2a2.93 2.93 0 0 1 1.83-.35 29.06 29.06 0 0 0 3 .41 2 2 0 0 1 1 .42 2.06 2.06 0 0 1 .26.25.69.69 0 0 1 .11.13 1.22 1.22 0 0 1 .12.19l1.16 2.24v.06a.88.88 0 0 0 .12.17l.13.14.17.14a2 2 0 0 0 .38.2 1.6 1.6 0 0 0 .64.11l5.66-.54a1 1 0 0 0 .88-1v-3.21a1.19 1.19 0 0 1 .58-.41 23.43 23.43 0 0 0 2.36-.85 3 3 0 0 1 1.88-.11l4.38 1.44a1.05 1.05 0 0 0 .24.06 1.15 1.15 0 0 0 .26 0 1.92 1.92 0 0 0 1.2-.4l2.87-2.41a.76.76 0 0 0 .28-.52l-.06-4.72a.68.68 0 0 1-.27.5l-2.87 2.41a1.83 1.83 0 0 1-.64.32 2 2 0 0 1-1.11 0l-4.38-1.44a3.18 3.18 0 0 0-1.88.1 21.82 21.82 0 0 1-2.35.86 1.22 1.22 0 0 0-.84 1.29l.29 2.19a1 1 0 0 1-.87 1.11l-5.67.54a1.59 1.59 0 0 1-.64-.1 1.62 1.62 0 0 1-.84-.72l-1.16-2.25a1.6 1.6 0 0 0-.48-.56 2 2 0 0 0-1-.43c-1-.09-2-.22-2.94-.4a2.78 2.78 0 0 0-1.83.35l-3 2a1.74 1.74 0 0 1-.59.24 2.06 2.06 0 0 1-1.19-.07l-4.57-1.9a.69.69 0 0 1-.48-.62Zm36.37-14.2a1.64 1.64 0 0 0-1.19 1.16 5.9 5.9 0 0 1-.37 1 1 1 0 0 0 .44 1.36l2.09 1.09 4-.65a.83.83 0 0 0 .72-.82l-.05-4.75a.84.84 0 0 1-.73.82Z" style="opacity:.1"/><path d="m419.09 465.21 4.38 1.44a2 2 0 0 0 1.11 0l.06 4.73a2.82 2.82 0 0 1-.57.09 1.15 1.15 0 0 1-.26 0 1.05 1.05 0 0 1-.24-.06l-4.42-1.41ZM404.6 467.65a1.6 1.6 0 0 1 .48.56l1.16 2.25a1.62 1.62 0 0 0 .84.72l.06 4.73a2 2 0 0 1-.38-.2l-.17-.14-.13-.14a.88.88 0 0 1-.12-.17v-.06l-1.2-2.2a1.22 1.22 0 0 0-.12-.19l-.11-.13-.26-.23ZM383.45 449.62a.69.69 0 0 0 .43.57l3.67 1.9a1 1 0 0 1 .43 1.36 6.2 6.2 0 0 0-.36 1 1.67 1.67 0 0 1-1.2 1.16l-.91.15-1.57-.82a.69.69 0 0 1-.42-.59ZM380.77 457.26a.86.86 0 0 0 .05.27l.81 2.57a1.46 1.46 0 0 0 1.32.95l5.2-.16a2.07 2.07 0 0 1 .81.17l.05 4.75a2.09 2.09 0 0 0-.81-.18l-5.19.15a1.42 1.42 0 0 1-1.32-.95l-.81-2.55a.77.77 0 0 1-.05-.29ZM389 466.83a.69.69 0 0 0 .48.62l4.57 1.9a2.06 2.06 0 0 0 1.19.07l.06 4.73h-.15a2.35 2.35 0 0 1-.7 0 .4.4 0 0 1-.15 0 .6.6 0 0 1-.19-.06l-4.57-1.9a.74.74 0 0 1-.4-.33.69.69 0 0 1-.08-.28Z" style="fill:#e0e0e0"/><path d="m386.61 446.66-2.87 2.41a.63.63 0 0 0 .14 1.12l3.66 1.9a1 1 0 0 1 .44 1.36 6.57 6.57 0 0 0-.36 1 1.66 1.66 0 0 1-1.19 1.16l-4.93.8a.84.84 0 0 0-.68 1.14l.81 2.55a1.44 1.44 0 0 0 1.33 1l5.18-.15a2.6 2.6 0 0 1 1.69.75 12.62 12.62 0 0 0 1.26 1.13.9.9 0 0 1 .14 1.35l-2 2.2a.66.66 0 0 0 .26 1.13l4.57 1.9a2.1 2.1 0 0 0 1.78-.17l3-2a2.9 2.9 0 0 1 1.83-.35 28.87 28.87 0 0 0 2.94.41 2 2 0 0 1 1.48 1l1.16 2.24a1.63 1.63 0 0 0 1.48.83l5.67-.54a1 1 0 0 0 .87-1.11l-.29-2.19a1.22 1.22 0 0 1 .84-1.29 21.82 21.82 0 0 0 2.35-.86 3.18 3.18 0 0 1 1.88-.1l4.44 1.46a2 2 0 0 0 1.73-.33l2.87-2.41a.63.63 0 0 0-.13-1.12l-3.67-1.9a1 1 0 0 1-.43-1.36 9 9 0 0 0 .36-1 1.64 1.64 0 0 1 1.19-1.16l4.93-.79a.86.86 0 0 0 .68-1.15l-.82-2.55a1.42 1.42 0 0 0-1.32-.95l-5.19.15a2.57 2.57 0 0 1-1.69-.75 12.48 12.48 0 0 0-1.25-1.13.9.9 0 0 1-.15-1.35l2-2.2a.66.66 0 0 0-.26-1.13l-4.57-1.9a2.11 2.11 0 0 0-1.77.17l-3 2a2.91 2.91 0 0 1-1.83.35 29.06 29.06 0 0 0-2.95-.41 2 2 0 0 1-1.48-1l-1.16-2.24a1.63 1.63 0 0 0-1.47-.83l-5.67.54a1 1 0 0 0-.87 1.11l.28 2.19a1.21 1.21 0 0 1-.83 1.29 21.23 21.23 0 0 0-2.36.86 3.09 3.09 0 0 1-1.88.1l-4.43-1.46a2 2 0 0 0-1.74.28Zm25.39 4.69c4.94 2 6.21 6 2.83 8.87s-10.13 3.47-15.08 1.42-6.22-6-2.84-8.87 10.18-3.48 15.09-1.42Z" style="fill:#f5f5f5"/><path d="M404.21 442.2a1.15 1.15 0 0 1 .93.56l1.16 2.24a2.51 2.51 0 0 0 1.88 1.26c1 .09 1.95.22 2.89.4a2.45 2.45 0 0 0 .48 0 3.24 3.24 0 0 0 1.72-.47l3-2a1.61 1.61 0 0 1 .81-.2 1.46 1.46 0 0 1 .5.08l4.57 1.9c.11.05.16.11.17.15a.23.23 0 0 1-.09.18l-2 2.2a1.4 1.4 0 0 0-.38 1 1.54 1.54 0 0 0 .57 1 11.67 11.67 0 0 1 1.21 1.09 3.09 3.09 0 0 0 2 .9h.05l5.21-.15a.93.93 0 0 1 .81.6l.82 2.56a.41.41 0 0 1 0 .33.38.38 0 0 1-.26.16l-4.93.8a2.13 2.13 0 0 0-1.59 1.52 6.38 6.38 0 0 1-.34.92 1.52 1.52 0 0 0 .66 2l3.67 1.9a.28.28 0 0 1 .15.14s0 .07-.11.15l-2.87 2.41a1.52 1.52 0 0 1-.91.28 1 1 0 0 1-.35-.05l-4.43-1.45a2.79 2.79 0 0 0-.9-.13 3.39 3.39 0 0 0-1.33.25 22.44 22.44 0 0 1-2.31.83 1.72 1.72 0 0 0-1.18 1.84l.28 2.19a.49.49 0 0 1-.1.37.44.44 0 0 1-.32.17l-5.67.54h-.06a1.13 1.13 0 0 1-.92-.55l-1.17-2.12a2.57 2.57 0 0 0-1.88-1.26c-1-.09-2-.22-2.9-.4a2.45 2.45 0 0 0-.48 0 3.27 3.27 0 0 0-1.72.47l-3 2a1.61 1.61 0 0 1-.81.2 1.46 1.46 0 0 1-.5-.08l-4.56-1.9c-.12-.05-.17-.11-.17-.15a.25.25 0 0 1 .08-.18l2-2.2a1.36 1.36 0 0 0 .37-1 1.46 1.46 0 0 0-.57-1 12.8 12.8 0 0 1-1.21-1.09 3.07 3.07 0 0 0-2-.9h-.05l-5.21.15a.93.93 0 0 1-.81-.6l-.82-2.56a.38.38 0 0 1 0-.33.34.34 0 0 1 .26-.16l4.92-.8a2.14 2.14 0 0 0 1.6-1.52 7.77 7.77 0 0 1 .33-.92 1.51 1.51 0 0 0-.66-2l-3.66-1.9c-.11-.05-.15-.11-.15-.13s0-.08.1-.15l2.87-2.42a1.52 1.52 0 0 1 .91-.28 1.23 1.23 0 0 1 .35.05l4.44 1.45a2.71 2.71 0 0 0 .9.13 3.63 3.63 0 0 0 1.33-.24 19.5 19.5 0 0 1 2.3-.84 1.73 1.73 0 0 0 1.19-1.83l-.29-2.19a.5.5 0 0 1 .1-.38.44.44 0 0 1 .32-.17l5.67-.54h.06m2 21.14c3.64 0 6.92-1 9-2.74a5 5 0 0 0 2-4.58c-.32-2.08-2.14-3.95-5-5.14a17.43 17.43 0 0 0-6.6-1.24 14.24 14.24 0 0 0-9 2.74 5 5 0 0 0-2 4.58c.32 2.08 2.14 4 5 5.14a17.43 17.43 0 0 0 6.6 1.24m-2-21.64h-.1l-5.67.54a1 1 0 0 0-.87 1.11l.28 2.19a1.21 1.21 0 0 1-.83 1.29 21.23 21.23 0 0 0-2.36.86 3 3 0 0 1-1.13.2 2.52 2.52 0 0 1-.75-.1l-4.43-1.46a1.7 1.7 0 0 0-.51-.07 2 2 0 0 0-1.23.4l-2.87 2.41a.63.63 0 0 0 .14 1.12l3.66 1.9a1 1 0 0 1 .44 1.36 6.57 6.57 0 0 0-.36 1 1.66 1.66 0 0 1-1.19 1.16l-4.93.8a.84.84 0 0 0-.68 1.14l.81 2.55a1.45 1.45 0 0 0 1.29 1l5.18-.15a2.6 2.6 0 0 1 1.65.75 12.62 12.62 0 0 0 1.26 1.13.9.9 0 0 1 .14 1.35l-2 2.2a.66.66 0 0 0 .26 1.13l4.57 1.9a1.88 1.88 0 0 0 .69.12 2 2 0 0 0 1.09-.29l3-2a2.81 2.81 0 0 1 1.44-.38 2.38 2.38 0 0 1 .39 0 28.87 28.87 0 0 0 2.94.41 2 2 0 0 1 1.48 1l1.16 2.24a1.63 1.63 0 0 0 1.37.83h.11l5.67-.54a1 1 0 0 0 .87-1.11l-.29-2.19a1.22 1.22 0 0 1 .84-1.29 21.82 21.82 0 0 0 2.35-.86 3.09 3.09 0 0 1 1.14-.2 2.41 2.41 0 0 1 .74.1l4.44 1.46a1.59 1.59 0 0 0 .5.07 2 2 0 0 0 1.23-.4l2.87-2.41a.63.63 0 0 0-.13-1.12l-3.67-1.9a1 1 0 0 1-.43-1.36 9 9 0 0 0 .36-1 1.64 1.64 0 0 1 1.19-1.16l4.93-.79a.86.86 0 0 0 .68-1.15l-.82-2.55a1.43 1.43 0 0 0-1.29-.95l-5.19.15a2.57 2.57 0 0 1-1.65-.75 12.48 12.48 0 0 0-1.25-1.13.9.9 0 0 1-.15-1.35l2-2.2a.66.66 0 0 0-.26-1.13l-4.57-1.9a1.88 1.88 0 0 0-.69-.12 2 2 0 0 0-1.08.29l-3 2a2.87 2.87 0 0 1-1.45.38 2.34 2.34 0 0 1-.38 0 29.06 29.06 0 0 0-2.95-.41 2 2 0 0 1-1.48-1l-1.16-2.24a1.63 1.63 0 0 0-1.37-.83Zm2 21.14a17 17 0 0 1-6.41-1.2c-5-2.06-6.22-6-2.84-8.87 2.05-1.72 5.32-2.63 8.68-2.63a16.84 16.84 0 0 1 6.41 1.21c4.94 2 6.21 6 2.83 8.87-2 1.71-5.31 2.62-8.67 2.62Z" style="fill:#e0e0e0"/><path d="m321.05 415.71-6.39-15.31-18.14 7.17c8.31 9.53 17.18 21 19 25.06 0 0 9.6-1.38 11.44-6.08s-3.49-9.06-5.91-10.84Z" style="fill:#c8856a"/><path d="M331.24 422.29a7.84 7.84 0 0 1 1.92 2.44c.54.94 0 5.3.46 7.37s.84 2.64 1.62 5.25c.86 2.9 2.66 5.62-.12 12.69s-6.63 10.25-9.8 11.79a8 8 0 0 1-3.72.62s-3.86-1.8-3.08-4.1 12.72-36.06 12.72-36.06Z" style="fill:#263238"/><path d="M313.22 428.94a8.61 8.61 0 0 0 1.39 2.62 20 20 0 0 1 2 7.42c1.49 11.63-3.49 17.11 2.35 21.86 1.7 1.26 5.43 1.23 11.6-5.57 3.15-3.48 5.35-10.94 4.48-14.45s-2.23-5.87-2.76-8.57.21-7.58-1.08-10a10.58 10.58 0 0 0-3.35-3.34c-1-.75-3.36-1.8-4.43-2.52s-1.63-1.48-2.41-.72l1.17 1.68c1.8 2.93 1.21 3.3 1.06 4.78a22.7 22.7 0 0 0 .39 4.77c-1.29-1.91-1.76-3.53-3.34-3.37s-1.76.07-4.15 2-2.97 2.74-2.92 3.41Z" style="fill:#105f38"/><path d="M313.22 428.94a8.61 8.61 0 0 0 1.39 2.62 20 20 0 0 1 2 7.42c1.49 11.63-3.49 17.11 2.35 21.86 1.7 1.26 5.43 1.23 11.6-5.57 3.15-3.48 5.35-10.94 4.48-14.45s-2.23-5.87-2.76-8.57.21-7.58-1.08-10a10.58 10.58 0 0 0-3.35-3.34c-1-.75-3.36-1.8-4.43-2.52s-1.63-1.48-2.41-.72l1.17 1.68c1.8 2.93 1.21 3.3 1.06 4.78a22.7 22.7 0 0 0 .39 4.77c-1.29-1.91-1.76-3.53-3.34-3.37s-1.76.07-4.15 2-2.97 2.74-2.92 3.41Z" style="opacity:.4"/><path d="M330.6 455.27c3.15-3.48 5.35-10.94 4.48-14.45a31.08 31.08 0 0 0-1.07-3.43c0 .24.08.48.1.68 0 .45.06.9.07 1.35a10.23 10.23 0 0 1-1 5.15c-.75 1.38-2.51 4.85-4.44 4.79-1.1 0-1.94-1.17-2.27-2.42-.14-.53-.33-1.94-.33-1.94a17 17 0 0 0-5.16 1.67c-2.93 1.64-2.86 2.06-2.86 2.06a7.36 7.36 0 0 1-.09 2.46 6.27 6.27 0 0 1-1.22 2.37 4 4 0 0 1-.76.51 7.48 7.48 0 0 0 2.91 6.77c1.74 1.26 5.47 1.23 11.64-5.57Z" style="opacity:.30000000000000004"/><path d="M316.65 439a38.78 38.78 0 0 1 0 9.21c.84 3 1.77 3 2 1.48s-1.31-8-2.43-13.29c.19.86.32 1.74.43 2.6ZM325 421.14a6.49 6.49 0 0 0-.81-4.28 7 7 0 0 1-.71-.43c-1.16-.77-1.63-1.48-2.41-.72l1.17 1.68c1.8 2.93 1.21 3.3 1.06 4.78a22.7 22.7 0 0 0 .39 4.77c.8 5.06 1.74 6.8 1.94 11.53s-1 7.83-.32 8.14 2-.11 2.54-3.86-.67-10.2-1.62-13.28-1.64-6.34-1.23-8.33Z" style="fill:#37474f"/><path d="M326.49 445.35a.44.44 0 0 1-.25.11 11.31 11.31 0 0 0-7.83 3.84.47.47 0 1 1-.67-.66 12.16 12.16 0 0 1 8.38-4.11.47.47 0 0 1 .37.82ZM326.19 441.39a.44.44 0 0 1-.25.11 12.64 12.64 0 0 0-8.26 4.22.47.47 0 0 1-.68 0 .49.49 0 0 1 0-.68 13.6 13.6 0 0 1 8.81-4.49.49.49 0 0 1 .55.4.51.51 0 0 1-.17.44ZM326.59 437.08a.53.53 0 0 1-.27.13 14.28 14.28 0 0 0-9.24 4.74.53.53 0 0 1-.75 0 .53.53 0 0 1 0-.75 15.29 15.29 0 0 1 9.83-5 .53.53 0 0 1 .43.92ZM326.24 433.35a.48.48 0 0 1-.27.12 13.93 13.93 0 0 0-9 4.63.52.52 0 0 1-.74-.73 15 15 0 0 1 9.61-4.93.53.53 0 0 1 .6.44.51.51 0 0 1-.2.47ZM325.15 429.66a.42.42 0 0 1-.26.12 14 14 0 0 0-9 4.63.52.52 0 1 1-.74-.73 15.05 15.05 0 0 1 9.62-4.93.53.53 0 0 1 .59.44.51.51 0 0 1-.21.47Z" style="fill:#ebebeb"/><path d="M341.81 363.28s-38.93-4.61-54.18-4.51c-15.55.1-17 11.78-13.1 18.93 7.45 13.7 31.52 41.68 31.52 41.68s9.69-2.92 12.36-10.46l-5.05-13.55 30.15 4.16 5.49-3.95Z" style="fill:#455a64"/><path d="M303 406c3.34-4.27 5.56-5.26 11.58-7.34l3.84 10.29c-2.67 7.54-12.35 10.46-12.35 10.46s-2.78-3.23-6.74-8A58.74 58.74 0 0 1 303 406ZM311.27 382.57c2 2.9 3.65 5.52 5.09 8s5.93 3.7 10.48 2.77a87.56 87.56 0 0 0 15.65-5.13 20.72 20.72 0 0 1-2.06-10.36 20.61 20.61 0 0 0 6.93 11.15l-1.14 7.89-2.22 2.64-25.89-3.53-4.22-.58c-5.35-12.76-7.41-18.37-14-21-.03-.04 5.61-.42 11.38 8.15Z" style="fill:#37474f"/><path d="m290.89 458.52 14.24-15.21-14-12.13c-6.55 10.14-12.93 19.84-17.08 23.57 0 0 2.76 9.29 8 9.83s7.72-3.13 8.84-6.06Z" style="fill:#c8856a"/><path d="M287.52 467.67a8.26 8.26 0 0 1-1.92 2.61c-.8.81-5.33 1.5-7.29 2.51s-2.43 1.58-4.84 3.1c-2.67 1.68-4.91 4.24-12.8 3.42s-12.17-3.82-14.6-6.57a8.38 8.38 0 0 1-1.66-3.58s.73-4.38 3.27-4.24 39.84 2.75 39.84 2.75Z" style="fill:#263238"/><path d="M275.8 451.38c-.74.26-1.71 1.57-2.25 2.13-1.81 1.88-4.52 3.12-6.9 4.12-11.29 4.75-18.2 1.26-21.35 8.47-.79 2.06.28 5.8 8.85 10.11 4.37 2.2 12.5 2.34 15.79.49s5.28-3.89 7.85-5.17 7.7-1.9 9.73-3.86a11.16 11.16 0 0 0 2.43-4.31c.46-1.25 1.76-5.58 1.76-5.58-2.44 2.63-4.76 1.58-6.29 1.83a24.76 24.76 0 0 0-4.69 1.73c1.56-1.83 3.06-2.75 2.46-4.3s-.57-1.75-3.18-3.62-3.55-2.28-4.21-2.04Z" style="fill:#105f38"/><path d="M275.8 451.38c-.74.26-1.71 1.57-2.25 2.13-1.81 1.88-4.52 3.12-6.9 4.12-11.29 4.75-18.2 1.26-21.35 8.47-.79 2.06.28 5.8 8.85 10.11 4.37 2.2 12.5 2.34 15.79.49s5.28-3.89 7.85-5.17 7.7-1.9 9.73-3.86a11.16 11.16 0 0 0 2.43-4.31c.46-1.25 1.76-5.58 1.76-5.58-2.44 2.63-4.76 1.58-6.29 1.83a24.76 24.76 0 0 0-4.69 1.73c1.56-1.83 3.06-2.75 2.46-4.3s-.57-1.75-3.18-3.62-3.55-2.28-4.21-2.04Z" style="opacity:.4"/><path d="M254.15 476.21c4.37 2.2 12.5 2.34 15.79.49a31.33 31.33 0 0 0 3.15-2c-.23.1-.46.22-.65.29-.44.16-.89.31-1.34.45a10.81 10.81 0 0 1-5.46.48c-1.6-.38-5.58-1.18-6.05-3.15-.27-1.11.64-2.27 1.8-3 .5-.29 1.86-.88 1.86-.88a17.78 17.78 0 0 0-3.12-4.72c-2.47-2.5-2.87-2.31-2.87-2.31a7.77 7.77 0 0 1-2.5.6 6.54 6.54 0 0 1-2.72-.57 3.73 3.73 0 0 1-.73-.62 7.83 7.83 0 0 0-6 4.82c-.8 2.07.27 5.81 8.84 10.12Z" style="opacity:.30000000000000004"/><path d="M266.65 457.63a41 41 0 0 1-9.26 2.61c-2.8 1.67-2.52 2.6-.93 2.42s7.65-3.54 12.69-6.16c-.84.42-1.69.79-2.5 1.13ZM286.93 461c1.51-.12 2.67 0 4-.73.82-.4 1.28-2.28 1.24-3.12l-1.33 1.41c-2.26 1-3.85.76-5.38 1a24.76 24.76 0 0 0-4.69 1.73c-4.87 2.22-6.36 3.65-11.07 5.18s-8.15 1.2-8.28 1.93.68 2 4.6 1.49 10.07-3.52 12.91-5.33 5.89-3.36 8-3.56Z" style="fill:#37474f"/><path d="M263 469.31a.53.53 0 0 1-.18-.21 11.77 11.77 0 0 0-6.05-6.82.49.49 0 1 1 .48-.86 12.76 12.76 0 0 1 6.48 7.29.51.51 0 0 1-.27.65.5.5 0 0 1-.46-.05ZM266.89 467.9a.48.48 0 0 1-.19-.21 13.13 13.13 0 0 0-6.54-7.14.5.5 0 0 1-.2-.69.51.51 0 0 1 .69-.19 14.17 14.17 0 0 1 7 7.61.49.49 0 0 1-.25.66.46.46 0 0 1-.51-.04ZM271.33 467.11a.68.68 0 0 1-.2-.24 15 15 0 0 0-7.34-8 .57.57 0 0 1-.22-.76.56.56 0 0 1 .76-.21 16 16 0 0 1 7.81 8.49.54.54 0 0 1-.27.73.57.57 0 0 1-.54-.01ZM275 465.71a.57.57 0 0 1-.2-.23 14.57 14.57 0 0 0-7.17-7.8.54.54 0 0 1 .53-.95 15.66 15.66 0 0 1 7.64 8.31.55.55 0 0 1-.8.67ZM278.4 463.59a.57.57 0 0 1-.2-.23 14.55 14.55 0 0 0-7.18-7.8.55.55 0 0 1-.2-.74.53.53 0 0 1 .74-.21 15.67 15.67 0 0 1 7.64 8.3.54.54 0 0 1-.28.72.53.53 0 0 1-.52-.04Z" style="fill:#ebebeb"/><path d="M282.78 443c3.41 6.13 12.63 11.22 12.63 11.22s3.92-3.55 13.35-11.22c6.65-5.41 12.12-10.76 16-17.3 11.27-2.25 31.73-2.85 52.49-9.21 10.65-3.26 17.88-10.26 20-20.37 1.13-5.27.87-14.89-1-21.76-4.88-17.86-57.28-9.8-57.28-9.8l8.33 24.4s-25 9.54-33.57 13c-3.92 1.61-5 1.56-9.66 8-10.53 14.78-21.29 33.04-21.29 33.04Z" style="fill:#455a64"/><path d="m292.71 452.57-.73-.5c5-4.71 17.66-17 21.51-22.17 1.32-1.79 2.36-3.39 3.28-4.8 2.16-3.32 3.58-5.51 6.17-6.14.56-.14 1.89-.41 3.92-.83 10.3-2.1 37.67-7.71 47.17-12.85.28-.15.54-.32.82-.48-3.26-3.23-2.9-9.41-.41-13.2 2.67-4.07 4.7-12.14 3.22-16.08l.81-.3c1.72 4.59-.81 13-3.3 16.85-2.34 3.56-2.59 9.46.45 12.27 9.11-5.7 13.7-15.65 13.28-28.94h.87c.45 14.39-4.85 25-15.33 30.66-9.61 5.2-37.07 10.83-47.41 12.94-1.94.4-3.34.69-3.89.82-2.25.55-3.6 2.63-5.64 5.77-.93 1.42-2 3-3.32 4.85-4.04 5.44-16.81 17.74-21.47 22.13Z" style="fill:#37474f"/><path d="M344.24 312.5c-4.52 5.23-15.72 21.49-15.72 21.49s-19.7-5.05-22.61-5.91-3.62-1.52-5-3.44-2.34-2.67-6.74-4.51a43.46 43.46 0 0 1-6.71-3.34c-1.52-.87-2.7.85-1.29 3.21 1.56 2.63 4.08 3.28 3.86 4s-3.21-.07-5.08-1.06a20 20 0 0 1-4.91-4.12c-2.07-2.17-3.15-2.7-4.94-2.66s-1.72 1.31-1.34 2c.3.54 1 1.66 1 1.66a3.76 3.76 0 0 0-.95 3.25c.43 1.85.74 4 4.14 8.14 3.21 3.9 4.6 4.56 7.46 5.75s7.09 1.28 9.37 1.66a26.74 26.74 0 0 1 7.91 2.38c3.26 1.54 17.68 8.51 26.36 11.27 6 1.9 8.72-.81 12.14-4.53 4.41-4.79 16.83-19 16.83-19l2.55-24.46c-5.36-.44-10.12 1.03-16.33 8.22Z" style="fill:#c8856a"/><path d="M372 254.64c4.14-6.59 15-4.13 19.3.92 2.18 2.54 2 6.11 4.46 8.31 2.21 1.94 5.26 2.78 7.13 5.13 3.35 4.18-.1 8-.63 12.26-.38 3 2.23 4.46 3.49 6.8a8.65 8.65 0 0 1-.83 9.33c-1.78 2.45-5.66 3.23-6.48 6.27-.39 1.47-.2 2.91-1.11 4.23a12.63 12.63 0 0 1-3.66 3.4c-2.91 1.84-6.69 1.74-10 1.6a14.24 14.24 0 0 1-5.68-1.29 5.64 5.64 0 0 1-2.17-1.76 8.73 8.73 0 0 0-2.2-2.12c-1.94-1.51-2.44-3.29-2.71-5.63-.43-3.83-.31-7.15-2.7-10.43s-5.8-5.63-5.46-10.14c.28-3.85 2.65-6.73 5.35-9.26A19.8 19.8 0 0 0 372 268a15 15 0 0 0 1.43-5.73 42.92 42.92 0 0 0 .27-5.2c-.03-.46-1.96-2.07-1.7-2.43Z" style="fill:#263238"/><path d="M343.85 344.37c-7.55-7.83-5-17.26-3-21 3.94-7.54 19.73-19 19.73-19s9.18.2 14.76.9a118.58 118.58 0 0 1 14.55 3.38 71.24 71.24 0 0 0-1.13 17.53 21.9 21.9 0 0 0 8.59 16.72s-3.11 11-3.84 13.84c-.5 1.93.43 5.91 1.46 9.56a91 91 0 0 1 3 15.46c-11.27 10.11-58.47-5-58.05-18.62 0-2.4 2.26-4.33 3.05-7.28a32.46 32.46 0 0 0 .88-11.49Z" style="fill:#37474f"/><path d="M357.74 345.7s4.4 5.5 13.88 3.92S383 340.9 383 340.9s.56 9.2-10.77 11c-11.23 1.85-14.49-6.2-14.49-6.2Z" style="fill:#263238"/><path d="M384.58 261.19c2.56-2.88-3.61-7.61-7.64-7.58s-3.36 3.26-3.36 3.26Z" style="fill:#105f38"/><path d="M350.35 263.06c1.88-2.69 4-3.16 5.51-3.08 2.06-2.7 9.19-5.24 12.48-5.38 12.72-.55 16.6 6 17.21 8.45 6.09 1 12.59 11.65 5.88 23.32-2.9 5.05-9 10.9-9.57 13.85l-7.19-1.42a14.82 14.82 0 0 0-8.67-12.57c-8.42-3.85-13.13-6.21-14.34-8.05a12.16 12.16 0 0 1-1.31-15.12Z" style="fill:#263238"/><path d="M352 272a74.42 74.42 0 0 0-.93 12.52c.21 11.72 3.49 13.73 6 15.14 1.59.88 3 1.24 6.69 1.22v6.08s-7.43 6.52.45 9.42a13.83 13.83 0 0 0 12-1.59 16.57 16.57 0 0 0 5.22-6l.34-14.93s3.1 2.67 6.8-.7c2.86-2.62 3.5-8.11.92-10.4s-5.8-1.67-7.58 2c-1.27 2.63-3.2.45-2.59-2.44s-1.58-3.24-2.29-4.88c-2-4.59.21-6.45-3.45-10-2-2-7.5-2.46-11.12 1.11-1.46-4.9-9.07-5.04-10.46 3.45Z" style="fill:#c8856a"/><path d="m368 289.53-6.18 1.82a3.11 3.11 0 0 0 3.88 2.36 3.48 3.48 0 0 0 2.3-4.18Z" style="fill:#af6152"/><path d="M367.84 291.7a3.36 3.36 0 0 1-2.15 2 3 3 0 0 1-1.93-.08 2.65 2.65 0 0 1 4.08-1.93Z" style="fill:#ffa8a7"/><path d="M367.71 279.62a1.72 1.72 0 0 0 1.78 1.64 1.75 1.75 0 1 0-1.78-1.64ZM355.09 279.05a1.66 1.66 0 1 0 1.56-1.83 1.7 1.7 0 0 0-1.56 1.83ZM369.09 274.55l4 2a2.46 2.46 0 0 0-1.06-3.18 2.17 2.17 0 0 0-2.94 1.18ZM354.37 275.76l4-1.92a2.08 2.08 0 0 0-2.86-1.2 2.48 2.48 0 0 0-1.14 3.12Z" style="fill:#263238"/><path style="fill:#af6152" d="m363.89 277.05-.95 10.83-5.7-2.09 6.65-8.74zM363.77 300.85a24.27 24.27 0 0 0 10.81-3.05c2.15-1.28 3.78-4.11 4.61-5.92-.17.42 0 5.07-3.94 7.89-4.35 3.12-11.48 3.38-11.48 3.38Z"/><path d="m397 417 2 5.71a5.13 5.13 0 0 1-7.22 6.27l-5.37-2.82a49.66 49.66 0 0 1-14.41-11.4l-71.47-82.35 15.71-13.63 71.47 82.35A49.8 49.8 0 0 1 397 417Z" style="fill:#105f38"/><path d="m397 417 2 5.71a5.13 5.13 0 0 1-7.22 6.27l-5.37-2.82a49.66 49.66 0 0 1-14.41-11.4l-71.47-82.35 15.71-13.63 71.47 82.35A49.8 49.8 0 0 1 397 417Z" style="fill:#fff;opacity:.8"/><path d="M395.21 425.61a1.45 1.45 0 0 1-1.7.19l-5.37-2.8a45.73 45.73 0 0 1-13.38-10.59l-30.41-35 10.26-8.91 30.4 35a45.93 45.93 0 0 1 8.61 14.74l2 5.72a1.45 1.45 0 0 1-.41 1.65Z" style="fill:#105f38"/><path d="M347.67 378.16c-3 .58-4.63-1.3-3.63-4.19a10.62 10.62 0 0 1 7.25-6.3c3-.58 4.63 1.3 3.63 4.19a10.6 10.6 0 0 1-7.25 6.3Z" style="fill:#105f38"/><path d="M347.67 378.16c-3 .58-4.63-1.3-3.63-4.19a10.62 10.62 0 0 1 7.25-6.3c3-.58 4.63 1.3 3.63 4.19a10.6 10.6 0 0 1-7.25 6.3Z" style="fill:#fff;opacity:.35000000000000003"/><path d="m314.26 320.52-2.84 2.48L394 418.1a36.8 36.8 0 0 0-7.78-14.71Z" style="fill:#fff;opacity:.6000000000000001"/><path d="m325.56 310.78 3.68 4.24c2.2 2.51 2.73 6.51 1.06 11.36-3.33 9.65-14.16 19.05-24.2 21a15.37 15.37 0 0 1-6.6 0 8.48 8.48 0 0 1-4.46-2.63l-3.73-4.3a5.84 5.84 0 0 1-.86-1.26c-1.45-2.5-1.62-6-.21-10.07a2.34 2.34 0 0 1 .13-.35c3.48-9.55 14.18-18.74 24.07-20.66 4.24-.83 7.69-.18 9.95 1.59a6.67 6.67 0 0 1 1.17 1.08Z" style="fill:#105f38"/><path d="m325.56 310.78 3.68 4.24c2.2 2.51 2.73 6.51 1.06 11.36-3.33 9.65-14.16 19.05-24.2 21a15.37 15.37 0 0 1-6.6 0 8.48 8.48 0 0 1-4.46-2.63l-3.73-4.3a5.84 5.84 0 0 1-.86-1.26c-1.45-2.5-1.62-6-.21-10.07a2.34 2.34 0 0 1 .13-.35c3.48-9.55 14.18-18.74 24.07-20.66 4.24-.83 7.69-.18 9.95 1.59a6.67 6.67 0 0 1 1.17 1.08Z" style="fill:#fff;opacity:.6000000000000001"/><path d="m318.38 334.26-5.47-6.3c-2.16-2.49-4.81-6.83-9.18-3a16.1 16.1 0 0 1-13.36 3.85 2.34 2.34 0 0 0-.13.35c-1.41 4.08-1.24 7.57.21 10.07a5.84 5.84 0 0 0 .86 1.26l3.73 4.3a8.48 8.48 0 0 0 4.46 2.63 15.37 15.37 0 0 0 6.6 0c10-2 20.87-11.36 24.2-21-3.1 5.92-9.86 10.21-11.92 7.84Z" style="fill:#105f38;opacity:.30000000000000004"/><path d="M302.38 343.09c-10 1.94-15.46-4.32-12.13-14s14.17-19.06 24.2-21 15.46 4.31 12.13 14-14.17 19.05-24.2 21Z" style="fill:#455a64"/><path d="m314.2 297.69 9.28 10.7a6.38 6.38 0 0 1 .91 1.31c1.43 2.49 1.59 6 .17 10.07a31.43 31.43 0 0 1-8.23 12.13c-4.63 4.42-10.42 7.79-16 8.86a15.34 15.34 0 0 1-6.59 0 8.55 8.55 0 0 1-3.31-1.57 6.41 6.41 0 0 1-1.15-1.05L280 327.36c-2.21-2.54-2.74-6.51-1.07-11.34.15-.42.31-.85.49-1.27 3.8-9.21 14.13-17.89 23.71-19.73 4.99-.97 8.87.11 11.07 2.67Z" style="fill:#105f38"/><path d="m314.2 297.69 9.28 10.7a6.38 6.38 0 0 1 .91 1.31c1.43 2.49 1.59 6 .17 10.07a31.43 31.43 0 0 1-8.23 12.13c-4.63 4.42-10.42 7.79-16 8.86a15.34 15.34 0 0 1-6.59 0 8.55 8.55 0 0 1-3.31-1.57 6.41 6.41 0 0 1-1.15-1.05L280 327.36c-2.21-2.54-2.74-6.51-1.07-11.34.15-.42.31-.85.49-1.27 3.8-9.21 14.13-17.89 23.71-19.73 4.99-.97 8.87.11 11.07 2.67Z" style="fill:#fff;opacity:.6000000000000001"/><path d="M293.76 340.76a15.34 15.34 0 0 0 6.59 0c5.56-1.07 11.35-4.44 16-8.86l-3.44-3.9c-2.16-2.49-4-6.06-9.18-3-4.34 2.52-11.19 5.74-17.29 3.9-5.6-1.69-8.53-7.8-7.07-14.07-.18.42-.34.85-.49 1.27-1.67 4.83-1.14 8.8 1.07 11.34l9.35 10.78a6.41 6.41 0 0 0 1.15 1.05 8.55 8.55 0 0 0 3.31 1.49Z" style="fill:#105f38;opacity:.30000000000000004"/><path d="M291 330c-10 1.94-15.46-4.31-12.13-14s14.17-19.06 24.2-21 15.46 4.32 12.13 14-14.2 19.05-24.2 21Z" style="fill:#105f38"/><path d="M291 330c-10 1.94-15.46-4.31-12.13-14s14.17-19.06 24.2-21 15.46 4.32 12.13 14-14.2 19.05-24.2 21Z" style="fill:#105f38"/><path d="M291 330c-10 1.94-15.46-4.31-12.13-14s14.17-19.06 24.2-21 15.46 4.32 12.13 14-14.2 19.05-24.2 21Z" style="fill:#fff;opacity:.75"/><path d="M268.18 279.25a12.35 12.35 0 0 0-1.18 17.42l20.77 23.93c1.2 1.38 3.3 2 6 1.44 5.47-1.06 11.37-6.19 13.19-11.45.91-2.64.62-4.8-.57-6.18l-20.77-23.93a12.36 12.36 0 0 0-17.44-1.23Z" style="fill:#455a64"/><path d="M275 276.3a12.21 12.21 0 0 0-6.85 2.95 12.35 12.35 0 0 0-1.15 17.42l20.77 23.93c1.2 1.38 3.3 2 6 1.44 5.47-1.06 11.37-6.19 13.19-11.45a7.82 7.82 0 0 0 .39-4 11.27 11.27 0 0 1-7 7.74c-5 1.84-9.29-.85-13.65-5.88l-13.53-15.58c-5.41-6.25-4.88-15.79 1.83-16.57Z" style="fill:#37474f"/><path d="M291.1 299.48a3.2 3.2 0 0 1-4.53-.32L275 285.88a3.23 3.23 0 0 1 .32-4.54 3.21 3.21 0 0 1 4.53.32L291.42 295a3.2 3.2 0 0 1-.32 4.48ZM298.15 302.7a3.21 3.21 0 1 1-4.53-.32 3.22 3.22 0 0 1 4.53.32Z" style="fill:#fff;opacity:.30000000000000004"/><path d="M355.73 357.22c-2.16-2.7-2.8-3.07-5.51-3.69s-4-.93-5-1.08a22.8 22.8 0 0 0-5.68.29c-1.41.54.19 2.82 2.25 3.15s4.8.57 4.8.57Z" style="fill:#af6152"/><path d="M389.88 308.58c9.06 1.85 12.56 4.64 13.64 12.91s3.84 33.17 3.73 39.56-1 7.9-6.6 9.75c-4.68 1.53-23.27 3.47-31.8 4.08a7.35 7.35 0 0 1-6.08-2.53l-6.34-7.29L390 356.4l-3-22.21s-4.44-16.89 2.88-25.61Z" style="fill:#c8856a"/><path d="M390 356.4c3.32-.8 8.23.41 8.76 1.15-2.1-2.84-5.94-3-8.95-2.58Z" style="fill:#af6152"/><path d="M365.66 369.31c-.87-.34-.47-4.17-1.89-5s-1.67-.66-2.15-2.26a3.08 3.08 0 0 0-2.42-2.48c-.94-.1-.26-1.76-1.91-2.53a31.2 31.2 0 0 0-6.69-1.39c-1.6-.15-5.6 1.45-7.35 2.25s-.87 2 0 2.73a5.55 5.55 0 0 0 2.87.61s-1.84 1.09-1.6 1.81c.32.94 1.8 2 4.24 1.45-1.67.75-1.69 1.77-.56 2.5a5.89 5.89 0 0 0 4 .35c2.14-.36 5-.74 6.45.21l1.33 1.53Z" style="fill:#c8856a"/><path d="M365.66 369.31c-.39-.12-.53-.57-.68-.89a8.83 8.83 0 0 1-.32-1.08 12.36 12.36 0 0 0-.58-2 1.53 1.53 0 0 0-.49-.69l-.92-.58a2 2 0 0 1-.82-.89 3.73 3.73 0 0 1-.23-1.12 6.84 6.84 0 0 0 .57.92 1.74 1.74 0 0 0 .78.54c.33.14.67.3 1 .48a2.15 2.15 0 0 1 .83 1 7.24 7.24 0 0 1 .47 2.23l.08 1.09a1.47 1.47 0 0 0 .31.99ZM346.12 361.25c.92-.5 1.85-1 2.8-1.4a17.84 17.84 0 0 1 3-1.12 13.59 13.59 0 0 1 3.22.16 23.62 23.62 0 0 1 3.08.61h-4.68a11.59 11.59 0 0 0-1.47 0c-.92.21-1.92.62-2.9.92a24.19 24.19 0 0 1-3.05.83ZM360.22 363.4c-1 0-2-.21-2.93-.33a7.94 7.94 0 0 0-2.77.27c-1.89.42-3.79.91-5.76 1.17a27.56 27.56 0 0 1 5.58-1.95 6.68 6.68 0 0 1 3.05-.1 24.06 24.06 0 0 1 2.83.94Z" style="fill:#af6152"/></svg>