<svg xmlns="http://www.w3.org/2000/svg" viewBox="0 0 500 500"><ellipse cx="250" cy="346.45" rx="225.01" ry="129.91" style="fill:#455a6420"/><path d="M157.05 35.82c-9.08-5.25-21.62-4.51-35.48 3.49-27.69 16-50.15 54.89-50.14 86.88 0 16.05 5.66 27.3 14.79 32.51 2.38 1.36 11.83 6.82 14.23 8.21 9.07 5.24 21.61 4.49 35.46-3.5 27.69-16 50.15-54.89 50.15-86.88 0-16-5.62-27.2-14.68-32.44" style="fill:#105f38"/><path d="M71.43 126.19c0 16.05 5.66 27.3 14.79 32.51 2.38 1.36 11.83 6.82 14.23 8.21 9.07 5.24 21.6 4.49 35.45-3.5Z" style="opacity:.2"/><path d="M78.74 91.83c-4.64 11.46-7.31 23.32-7.31 34.36l64.47 37.22c9.56-5.52 18.49-13.77 26.09-23.52Z" style="opacity:.1"/><path d="M162 139.89c14.42-18.5 24.06-42.41 24.06-63.36 0-16-5.62-27.2-14.68-32.44l-14.33-8.27c-9.08-5.25-21.62-4.51-35.48 3.49-18.13 10.48-34 30.77-42.83 52.52Z" style="fill:#fff;opacity:.4"/><path d="M135.9 47.58c-27.69 16-50.15 54.89-50.15 86.87s22.46 45 50.16 29 50.17-54.89 50.15-86.88-22.49-44.98-50.16-28.99Z" style="fill:#105f38"/><path d="M135.9 55.81c-23.76 13.72-43 47.09-43 74.52s19.27 38.56 43 24.85 43-47.09 43-74.53-19.24-38.56-43-24.84Z" style="fill:#fafafa"/><path d="M135.9 64c-19.82 11.49-35.9 39.33-35.9 62.22s16.07 32.17 35.9 20.72 35.89-39.28 35.89-62.17S155.73 52.59 135.9 64Z" style="fill:#105f38"/><path d="M135.9 72.27c-15.89 9.18-28.76 31.49-28.76 49.83s12.88 25.79 28.77 16.61 28.76-31.48 28.76-49.83-12.88-25.78-28.77-16.61Z" style="fill:#fafafa"/><path d="M135.9 80.5c-12 6.9-21.64 23.69-21.63 37.49s9.69 19.39 21.64 12.49S157.54 106.8 157.54 93s-9.69-19.4-21.64-12.5Z" style="fill:#105f38"/><path d="M135.9 88.74c-8 4.62-14.51 15.88-14.51 25.13s6.5 13 14.52 8.38 14.51-15.88 14.51-25.14-6.5-13-14.52-8.37Z" style="fill:#fafafa"/><path d="M135.9 97a16.33 16.33 0 0 0-7.38 12.79c0 4.7 3.31 6.61 7.39 4.26a16.35 16.35 0 0 0 7.38-12.79c0-4.74-3.29-6.65-7.39-4.26ZM248 162.15l-16.37-6.79-10.13-.48v1.84l15.5 8.96 11-1.7v-1.83z" style="fill:#105f38"/><path style="fill:#105f38" d="m221.5 154.88 10.13.48 16.37 6.79-11 1.7-15.5-8.97z"/><path style="opacity:.2" d="M237 165.68v-1.83l11-1.7v1.83l-11 1.7z"/><path style="opacity:.1" d="m237 163.85-15.5-8.97v1.84l15.5 8.96v-1.83z"/><path style="fill:#37474f" d="m151.76 105.84-18.09-3.48v3.48l4.02 11.61 6.06-5.8 8.01-2.32v-3.49z"/><path style="fill:#455a64" d="m133.67 102.36 4.02 11.61 6.06-5.81 8.01-2.32-18.09-3.48z"/><path style="fill:#263238" d="M137.69 113.97v3.48l6.06-5.8v-3.49l-6.06 5.81zM143.75 108.16l8.01-2.32v3.49l-8.01 2.32v-3.49z"/><path d="M144.83 108.16a1.14 1.14 0 0 0-1.21.08 3.75 3.75 0 0 0-1.67 2.93 1.2 1.2 0 0 0 .5 1.11l102.36 59.17 2.33-4.16Z" style="fill:#455a64"/><path d="M142.32 109.73a3.38 3.38 0 0 0-.37 1.44 1.2 1.2 0 0 0 .5 1.11l102.36 59.17 1.05-1.86Z" style="fill:#37474f"/><path d="M246 167.41a3.7 3.7 0 0 0-1.68 2.92c0 1.09.75 1.53 1.68 1a3.72 3.72 0 0 0 1.67-2.93c-.03-1.08-.78-1.53-1.67-.99Z" style="fill:#263238"/><path style="fill:#105f38" d="M235.91 166.32v-1.85l-15.5-8.96v1.84l.83 5.85 11.72 9.47 2.95-6.35z"/><path style="opacity:.2" d="m220.41 155.51.83 5.84v1.84l-.83-5.84v-1.84zM235.91 164.47l-2.95 6.35v1.84l2.95-6.35v-1.84z"/><path style="opacity:.1" d="m221.24 161.35 11.72 9.47v1.84l-11.72-9.47v-1.84z"/><path d="m72.4 225.93 26.46-15.28a9.07 9.07 0 0 1 8.21 0l3.34 1.93a9.09 9.09 0 0 1 4.11 7.12v30.54a9.05 9.05 0 0 1-4.11 7.11L84 272.63a9.07 9.07 0 0 1-8.21 0l-3.39-1.93a9.07 9.07 0 0 1-4.1-7.11V233a9.06 9.06 0 0 1 4.1-7.07Z" style="fill:#105f38"/><path d="M114.52 219.7c0-2.62-1.84-3.68-4.11-2.38L84 232.6a9.07 9.07 0 0 0-4.11 7.11v30.55c0 2.62 1.84 3.68 4.11 2.37l26.45-15.28a9.05 9.05 0 0 0 4.11-7.11Z" style="fill:#105f38"/><path d="M68.3 263.59a9 9 0 0 0 4.1 7.11l3.35 1.93a9.17 9.17 0 0 0 7.51.34c-1.94.73-3.41-.36-3.41-2.71v-30.54a8.44 8.44 0 0 1 1.2-4.05L69.5 229a8.4 8.4 0 0 0-1.2 4Z" style="opacity:.1"/><path d="M114.47 219c-.31-2.09-2-2.85-4.06-1.66L84 232.6a8.29 8.29 0 0 0-2.91 3.07L69.5 229a8.32 8.32 0 0 1 2.9-3.06l26.46-15.28a9.07 9.07 0 0 1 8.21 0l3.34 1.94a9.18 9.18 0 0 1 4.06 6.4Z" style="fill:#fff;opacity:.4"/><path d="M103 247.71a30.3 30.3 0 0 0 2.65-12.56 23.28 23.28 0 0 0 2.17-4.25 15.61 15.61 0 0 1-2.49 2.35 11.74 11.74 0 0 0 1.91-4.31 17 17 0 0 1-2.76 3 2.66 2.66 0 0 0-3.18 0c-2.8 1.62-4.87 6.31-4.23 9.57-3.62 1.84-6.82 1.39-9-.89-1.14 3.27-.59 6.36 1.35 7a3.11 3.11 0 0 1-2 .41c0 2.72 1.4 4.39 3.49 3.75A5.52 5.52 0 0 1 89 253c.56 2 2.16 2.73 4.07 1.68a15.06 15.06 0 0 1-6.44 6.12 8.68 8.68 0 0 0 6.66-1.25c4.3-2.48 7.61-7 9.71-11.82" style="fill:#fff"/><path d="m209.43 225.93 26.46-15.28a9.07 9.07 0 0 1 8.21 0l3.34 1.93a9.09 9.09 0 0 1 4.11 7.12v30.54a9.05 9.05 0 0 1-4.11 7.11L221 272.63a9.07 9.07 0 0 1-8.21 0l-3.35-1.93a9.07 9.07 0 0 1-4.1-7.11V233a9.06 9.06 0 0 1 4.09-7.07Z" style="fill:#105f38"/><path d="M251.55 219.7c0-2.62-1.84-3.68-4.11-2.37L221 232.6a9.07 9.07 0 0 0-4.11 7.11v30.55c0 2.62 1.84 3.68 4.11 2.37l26.45-15.27a9.09 9.09 0 0 0 4.11-7.12Z" style="fill:#105f38"/><path d="M251.5 219c-.31-2.09-2-2.85-4.06-1.66L221 232.6a8.29 8.29 0 0 0-2.91 3.07L206.53 229a8.32 8.32 0 0 1 2.9-3.06l26.46-15.28a9.07 9.07 0 0 1 8.21 0l3.34 1.94a9.18 9.18 0 0 1 4.06 6.4Z" style="fill:#fff;opacity:.4"/><path d="M205.33 263.59a9.07 9.07 0 0 0 4.1 7.11l3.35 1.93a9.21 9.21 0 0 0 7.51.33c-1.94.73-3.41-.36-3.41-2.7v-30.55a8.44 8.44 0 0 1 1.2-4.05L206.53 229a8.44 8.44 0 0 0-1.2 4Z" style="opacity:.1"/><path d="M243.25 246.58a1.28 1.28 0 0 0-.59 0 2.73 2.73 0 0 1-2.46-1.34 5.81 5.81 0 0 1-.84-1.77 1.85 1.85 0 0 1 0-1 4.13 4.13 0 0 1 .84-1.31 7.24 7.24 0 0 0 1.14-1.57 1.73 1.73 0 0 0 .17-.42v-.14a1.06 1.06 0 0 0 0-.44.57.57 0 0 0-.4-.36c-.21-.08-.46.06-.68.3a7.26 7.26 0 0 1-.61.62 1.38 1.38 0 0 1-.69.37 1.35 1.35 0 0 1 0-.23v-2a27.47 27.47 0 0 0-.06-3.15 4.06 4.06 0 0 0-1.94-3.3 2.71 2.71 0 0 0-2.37.07 7.62 7.62 0 0 0-.85.44 9.14 9.14 0 0 0-3.24 3.45 16.3 16.3 0 0 0-1.58 4.09 15.32 15.32 0 0 0-.26 4c0 .87.09 1.68 0 2.53a.11.11 0 0 1 0 .06 2.06 2.06 0 0 1-.81.43 4 4 0 0 1-.63.1 1.11 1.11 0 0 0-.61.56 1.88 1.88 0 0 0-.34 1v.07a.56.56 0 0 0 .2.4c.09.06.17.09.22.12a3.12 3.12 0 0 0 1.28.11.6.6 0 0 1 .57.51 4.32 4.32 0 0 1-.23 1.64 17.7 17.7 0 0 1-1.88 4.58 9.34 9.34 0 0 1-1.42 1.83 1.81 1.81 0 0 0-.51.75.3.3 0 0 0 0 .1.67.67 0 0 0 .08.56.35.35 0 0 0 .21.14 2.77 2.77 0 0 0 1.31-.06 2.74 2.74 0 0 1 .82-.16s0 .12.09.29.11.72.2 1.11c0 .11.09.17.17.15a.66.66 0 0 0 .32-.22 5.53 5.53 0 0 1 2.08-1.31 4 4 0 0 1 1.95.5 1.75 1.75 0 0 0 1.56 0 12.33 12.33 0 0 0 1.32-.81 4.5 4.5 0 0 0 1-1.15c.7-1 1.33-2.13 2-3a4 4 0 0 1 .81-.62 9.3 9.3 0 0 1 1.7-.85h.06a.77.77 0 0 0 .19-.28.66.66 0 0 0 .06-.22v-.06a.29.29 0 0 0 0-.09 7 7 0 0 1 .33-1.48.89.89 0 0 1 .35-.37 10.84 10.84 0 0 0 1.35-1.36 2.91 2.91 0 0 0 .55-.88c.14-.37.07-.72-.12-.79Z" style="fill:#fff;fill-rule:evenodd"/><path d="m209.43 317.13 26.46-15.27a9.07 9.07 0 0 1 8.21 0l3.34 1.93a9.07 9.07 0 0 1 4.11 7.11v30.55a9.08 9.08 0 0 1-4.11 7.11L221 363.83a9.07 9.07 0 0 1-8.21 0l-3.35-1.93a9.06 9.06 0 0 1-4.1-7.11v-30.55a9.06 9.06 0 0 1 4.09-7.11Z" style="fill:#105f38"/><path d="M251.55 310.9c0-2.62-1.84-3.68-4.11-2.37L221 323.8a9.08 9.08 0 0 0-4.11 7.11v30.55c0 2.62 1.84 3.68 4.11 2.37l26.45-15.27a9.07 9.07 0 0 0 4.11-7.11Z" style="fill:#105f38"/><path d="M231.41 347.4a7.53 7.53 0 0 0 1.49-1.87 12 12 0 0 0 1.51-5.7 5.59 5.59 0 0 0-.51-2.67 1.59 1.59 0 0 0-1.52-.91 8.62 8.62 0 0 0 1-1.74 8.75 8.75 0 0 0 .61-3.33 5.13 5.13 0 0 0-.61-2.74c-.67-1-1.8-1.08-3.41-.19l-6.35 3.67v20.25l5.92-3.42a11.33 11.33 0 0 0 1.87-1.35Zm-5.16-13.48 2.86-1.65a3.8 3.8 0 0 1 1.55-.58c.48 0 .71.52.71 1.46a3.79 3.79 0 0 1-.53 2.09 4.12 4.12 0 0 1-1.39 1.3l-3.2 1.85Zm0 13.22v-5.4l3.24-1.87a2.34 2.34 0 0 1 1.31-.42c.56.08.84.64.84 1.69a4.91 4.91 0 0 1-.87 3 4.16 4.16 0 0 1-1.33 1.12ZM236.64 343.32a3.08 3.08 0 0 0 3.43-.13 9 9 0 0 0 3.66-4.3 10 10 0 0 0 .94-3.25l-2.6 1.5a6.47 6.47 0 0 1-.52 1.33 3.66 3.66 0 0 1-1.41 1.5 1.61 1.61 0 0 1-1.4.25q-1-.36-1-2.58l7.08-4.09a28.31 28.31 0 0 0-.08-2.92 6.49 6.49 0 0 0-.78-2.65 2.23 2.23 0 0 0-1.68-1.24 3.73 3.73 0 0 0-2.28.62 8.8 8.8 0 0 0-3.48 4.08 15.62 15.62 0 0 0-1.34 6.74q-.02 4.16 1.46 5.14Zm1.82-11a3.65 3.65 0 0 1 1.52-1.73 1.3 1.3 0 0 1 1.51-.07 2.56 2.56 0 0 1 .67 2l-4.38 2.48a8.11 8.11 0 0 1 .68-2.68ZM242.67 322.09l-5.72 3.3v2.04l5.72-3.3v-2.04z" style="fill:#fff"/><path d="M251.5 310.19c-.31-2.09-2-2.84-4.06-1.66L221 323.8a8.29 8.29 0 0 0-2.91 3.07l-11.55-6.68a8.39 8.39 0 0 1 2.9-3.06l26.46-15.28a9.13 9.13 0 0 1 8.21 0l3.34 1.94a9.18 9.18 0 0 1 4.05 6.4Z" style="fill:#fff;opacity:.4"/><path d="M205.33 354.79a9.06 9.06 0 0 0 4.1 7.11l3.35 1.93a9.17 9.17 0 0 0 7.51.33c-1.94.73-3.41-.36-3.41-2.7v-30.55a8.37 8.37 0 0 1 1.2-4l-11.55-6.68a8.44 8.44 0 0 0-1.2 4.05Z" style="opacity:.1"/><path d="M182.14 338.51a9.09 9.09 0 0 0-4.1-7.11l-3.35-1.93a9.07 9.07 0 0 0-8.21 0L140 344.74a9.09 9.09 0 0 0-4.11 7.12v30.54a9.09 9.09 0 0 0 4.11 7.12l3.34 1.93a9.13 9.13 0 0 0 8.21 0L178 376.17a9.09 9.09 0 0 0 4.1-7.11Z" style="fill:#105f38"/><path d="M135.92 382.41a9.07 9.07 0 0 0 4.11 7.11l3.34 1.93a9.13 9.13 0 0 0 7.51.33c-1.93.73-3.4-.36-3.4-2.7v-30.55a8.28 8.28 0 0 1 1.21-4l-11.56-6.68a8.44 8.44 0 0 0-1.2 4.05Z" style="opacity:.55"/><path d="M182.14 338.49c0-2.62-1.84-3.68-4.1-2.37l-26.46 15.27a9.08 9.08 0 0 0-4.1 7.12v30.54c0 2.67 1.83 3.7 4.1 2.4l26.42-15.3a9.06 9.06 0 0 0 4.1-7.11Z" style="opacity:.45"/><path d="M182.09 337.8c-.31-2.08-2-2.84-4.06-1.66l-26.44 15.27a8.29 8.29 0 0 0-2.91 3.07l-11.55-6.67a8.24 8.24 0 0 1 2.9-3.06l26.45-15.28a9.09 9.09 0 0 1 8.22 0l3.3 1.93a9.19 9.19 0 0 1 4.09 6.4Z" style="opacity:.35000000000000003"/><path d="M159.12 369.58c.25 0 .48-.27.55-.75.05-.33.17-1.16.23-1.5s0-.61-.16-.86a4.55 4.55 0 0 1-.73-2.93c0-4.32 2.09-9.41 5.46-11.35 3-1.72 4.62.14 4.62 3.89 0 4.93-1.41 9.9-3.52 11.12-1.16.67-2-.31-1.75-2.28.33-2.36 1-5.07 1-6.64 0-1.4-.49-2.28-1.5-1.7-1.19.69-2.14 3.13-2.14 5.66a7.29 7.29 0 0 0 .36 2.51s-1.22 8.63-1.43 10.14a29 29 0 0 0 0 6.52c0 .19.19.14.27-.06a37.42 37.42 0 0 0 2-6.75c.14-.84.78-5.15.78-5.15.39.91 1.52 1.25 2.72.56 3.57-2.06 6-8.47 6-15.18 0-5.07-2.79-8.18-7-5.73-5.28 3-7.94 10.4-7.94 15.26-.1 2.94.62 5.14 2.18 5.22Z" style="fill:#fff"/><path d="m72.4 317.13 26.46-15.27a9.07 9.07 0 0 1 8.21 0l3.34 1.93a9.07 9.07 0 0 1 4.11 7.11v30.55a9.08 9.08 0 0 1-4.11 7.11L84 363.83a9.07 9.07 0 0 1-8.21 0l-3.39-1.93a9.06 9.06 0 0 1-4.1-7.11v-30.55a9.06 9.06 0 0 1 4.1-7.11Z" style="fill:#105f38"/><path d="M68.3 354.79a9.08 9.08 0 0 0 4.1 7.12l3.35 1.93a9.21 9.21 0 0 0 7.51.33c-1.94.73-3.41-.36-3.41-2.7v-30.55a8.44 8.44 0 0 1 1.2-4.05L69.5 320.2a8.44 8.44 0 0 0-1.2 4.05Z" style="opacity:.1"/><path d="M114.52 310.91c0-2.62-1.84-3.68-4.11-2.37L84 323.81a9.08 9.08 0 0 0-4.11 7.11v30.55c0 2.62 1.84 3.68 4.11 2.37l26.45-15.27a9.08 9.08 0 0 0 4.11-7.11Z" style="fill:#105f38"/><path d="M114.47 310.19c-.31-2.09-2-2.84-4.06-1.66L84 323.8a8.29 8.29 0 0 0-2.91 3.07l-11.59-6.68a8.39 8.39 0 0 1 2.9-3.06l26.46-15.28a9.13 9.13 0 0 1 8.21 0l3.34 1.94a9.18 9.18 0 0 1 4.06 6.4Z" style="fill:#fff;opacity:.4"/><path d="M97.19 325.1c2.7-1.57 3-1.74 4.09-2.29a4.56 4.56 0 0 1 1.89-.62 1.57 1.57 0 0 1 1.16.34 2.09 2.09 0 0 1 .76 1.11 7.6 7.6 0 0 1 .35 2.31c0 1.4.06 1.82.06 5.43s0 4-.06 5.5a12.62 12.62 0 0 1-.35 2.71 8 8 0 0 1-.76 2 7.42 7.42 0 0 1-1.16 1.69 9 9 0 0 1-1.89 1.55c-1.07.68-1.39.88-4.09 2.44s-3 1.74-4.1 2.29a4.58 4.58 0 0 1-1.88.62 1.59 1.59 0 0 1-1.17-.34 2.25 2.25 0 0 1-.76-1.11 7.6 7.6 0 0 1-.35-2.31c-.05-1.4-.06-1.82-.06-5.43s0-4 .06-5.5a12.62 12.62 0 0 1 .35-2.71 8.88 8.88 0 0 1 .76-2 7.15 7.15 0 0 1 1.17-1.69 8.61 8.61 0 0 1 1.88-1.55c1.07-.68 1.39-.88 4.1-2.44m0-2.44c-2.76 1.59-3.1 1.81-4.18 2.5a11.5 11.5 0 0 0-4.26 4.64 13.1 13.1 0 0 0-1.17 3.07 16.44 16.44 0 0 0-.47 3.55c0 1.47-.06 1.94-.06 5.61s0 4.13.06 5.54a9.92 9.92 0 0 0 .47 3 3.43 3.43 0 0 0 1.17 1.72 2.51 2.51 0 0 0 1.79.52A6.06 6.06 0 0 0 93 352c1.08-.56 1.42-.74 4.18-2.33s3.09-1.81 4.18-2.5a11.74 11.74 0 0 0 4.25-4.64 13.1 13.1 0 0 0 1.17-3.07 16.54 16.54 0 0 0 .47-3.56c0-1.47.06-1.93.06-5.6s0-4.13-.06-5.54a9.92 9.92 0 0 0-.47-3 3.38 3.38 0 0 0-1.17-1.72 2.51 2.51 0 0 0-1.79-.52 5.83 5.83 0 0 0-2.46.79c-1.09.56-1.43.74-4.18 2.33" style="fill:#fff"/><path d="M97.19 329.24c-2.88 1.66-5.21 6.11-5.21 9.95s2.33 5.59 5.21 3.93 5.2-6.11 5.2-9.95-2.33-5.59-5.2-3.93m0 11.45c-1.87 1.07-3.38-.07-3.38-2.56a8.09 8.09 0 0 1 3.38-6.46c1.86-1.07 3.38.07 3.38 2.56a8.12 8.12 0 0 1-3.38 6.46M103.81 325.14a2.92 2.92 0 0 1-1.21 2.32c-.67.39-1.22 0-1.22-.92a2.89 2.89 0 0 1 1.22-2.32c.67-.39 1.21 0 1.21.92" style="fill:#fff"/><path d="M182.14 247.36a9.1 9.1 0 0 0-4.1-7.12l-3.35-1.93a9.07 9.07 0 0 0-8.21 0L140 253.59a9.07 9.07 0 0 0-4.11 7.11v30.55a9.07 9.07 0 0 0 4.11 7.11l3.34 1.93a9.07 9.07 0 0 0 8.21 0L178 285a9.1 9.1 0 0 0 4.1-7.12Z" style="fill:#105f38"/><path d="M135.92 291.25a9.09 9.09 0 0 0 4.11 7.12l3.34 1.93a9.21 9.21 0 0 0 7.51.33c-1.93.73-3.4-.36-3.4-2.7v-30.55a8.35 8.35 0 0 1 1.21-4.05l-11.56-6.67a8.44 8.44 0 0 0-1.2 4Z" style="opacity:.55"/><path d="M182.14 247.36c0-2.62-1.84-3.68-4.1-2.37l-26.46 15.27a9.06 9.06 0 0 0-4.1 7.11v30.55c0 2.62 1.83 3.68 4.1 2.37L178 285a9.08 9.08 0 0 0 4.1-7.12Z" style="opacity:.45"/><path d="m162.05 289.51 4.41-2.55v-14.74l3.08-1.77.33-5.13-3.41 2v-2.81c0-1.16.18-1.72 1-2.21l2.39-1.38v-5.12l-3.06 1.76a9 9 0 0 0-4.76 8.37v3.94l-2.3 1.32v5l2.3-1.33Z" style="fill:#fff"/><path d="M182.09 246.65c-.31-2.09-2-2.85-4.06-1.66l-26.44 15.27a8.21 8.21 0 0 0-2.91 3.07l-11.55-6.68a8.24 8.24 0 0 1 2.9-3.06l26.45-15.28a9.09 9.09 0 0 1 8.22 0l3.33 1.94a9.15 9.15 0 0 1 4.06 6.4Z" style="opacity:.35000000000000003"/><path d="M371.57 167.6c6.38.29 9.42 1.28 12.76 5.21s20 28.1 20 28.1-2.95 8.28-9.41 7.57l-12.68-15.34Z" style="fill:#ffa8a7"/><path d="M370.72 167.61s4.58-.6 7.85.58 5.82 3.93 7.74 6.47 6 8.26 6 8.26-3.05 6.4-11.37 11.22Z" style="fill:#e0e0e0"/><path d="M363.12 160.65h-2.21a20.41 20.41 0 0 1-20.41-20.4 19.75 19.75 0 0 1 19.75-19.75h3.52a19.75 19.75 0 0 1 19.75 19.75 20.41 20.41 0 0 1-20.4 20.4Z" style="fill:#263238"/><path d="M341.85 182.86a13.25 13.25 0 0 0 13.24-13.25v-13.24a13.24 13.24 0 0 0-13.24 13.24ZM348.86 375v-1.38c.55 1.62 3.08 8.6 6.91 12.1 3.05 2.78 7.21 6 8.27 9.1s-5.79 4.3-8.64 3.8c-3.31-.59-7.59-2.46-9.92-5.33-1.64-2-2.68-4.4-3.86-6s-3.86-3.36-4.5-5.19c-.34-1 .07-3.21.56-5.07s.93-3.59 1.51-3.43v1.05a7.65 7.65 0 0 0 4.84 1.63c1.41.07 4.84-.21 4.83-1.28Z" style="fill:#263238"/><path d="M358.53 388.16c-.94-.85-1.89-1.67-2.76-2.46-2.68-2.44-4.72-6.59-5.89-9.42a13.25 13.25 0 0 1-1-5.09v-5.51h-9.67v9.24h.05c.47 2 4.91 7.35 7.43 10.83 1.69 2.34 4.9 5.31 8.73 5.82 3.58.49 5.48-.66 3.11-3.41Z" style="fill:#ffa8a7"/><path d="M383 365.46v-1.38c.55 1.62 3.08 8.6 6.91 12.1 3.05 2.78 7.21 6 8.27 9.09s-5.79 4.31-8.64 3.81c-3.31-.59-7.59-2.47-9.92-5.33-1.64-2-2.69-4.4-3.86-6s-3.87-3.36-4.5-5.19c-.35-1 .07-3.21.55-5.08.45-1.71.94-3.58 1.52-3.42v1.05a7.63 7.63 0 0 0 4.84 1.63c1.4.08 4.83-.2 4.83-1.28Z" style="fill:#263238"/><path d="M392.66 378.63c-.94-.85-1.89-1.67-2.76-2.46-2.68-2.45-4.72-6.59-5.89-9.42a13.29 13.29 0 0 1-1-5.09v-5.51h-9.67v9.24h.05c.47 2 4.9 7.35 7.42 10.83 1.69 2.34 4.91 5.31 8.74 5.82 3.62.49 5.45-.66 3.11-3.41Z" style="fill:#ffa8a7"/><path d="M341.12 224.73c-7.5 16.37.27 74 .27 74-.23 2.66-3.26 7.89-4.4 19.58-1.33 13.81 2.1 48.5 2.1 48.5a10.46 10.46 0 0 0 9.77.39s9.22-52.24 10.95-66c1.51-12 4.42-38.35 4.42-38.35l4.66 38.28a70.87 70.87 0 0 0-2.61 11.87c-.79 8.08 7 45.7 7 45.7s3.34 1.22 9.67.29c0 0 2.77-49.93 3.5-59.66 1.23-16.35.47-67.35-2.53-77Z" style="fill:#105f38"/><path d="M341.12 224.73c-7.5 16.37.27 74 .27 74-.23 2.66-3.26 7.89-4.4 19.58-1.33 13.81 2.1 48.5 2.1 48.5a10.46 10.46 0 0 0 9.77.39s9.22-52.24 10.95-66c1.51-12 4.42-38.35 4.42-38.35l4.66 38.28a70.87 70.87 0 0 0-2.61 11.87c-.79 8.08 7 45.7 7 45.7s3.34 1.22 9.67.29c0 0 2.77-49.93 3.5-59.66 1.23-16.35.47-67.35-2.53-77Z" style="opacity:.7000000000000001"/><path d="m364.23 262.91 2.43-15.2s10.29-2.14 15-6.53c0 0-4.9 6.1-12.17 8.09L366.72 261l1.86 37.66Z" style="opacity:.3"/><path d="M354.34 167.85c-2.85.2-3.8.13-5.87.34-4.13.43-5.13 6.47-6.82 10a16.45 16.45 0 0 0-.45 12.39l6.69 19.42s-3.13 7.58-6.77 14.74c16.8 9.38 37.79 4.45 42.84-2.4.21-1.45-1.08-12.8-1.88-20.21 3-7.43 3.74-12.13 2.49-17-2.32-9.11-10.62-17.49-13-17.48Z" style="fill:#ebebeb"/><path d="m340.06 127.4 2.91 4.68a2.68 2.68 0 0 1-3.79-.78 2.9 2.9 0 0 1 .88-3.9Z" style="fill:#263238"/><path d="m336.87 132.73 5.46-.76a2.68 2.68 0 0 1-2.25 3.15 2.91 2.91 0 0 1-3.21-2.39Z" style="fill:#263238"/><path d="M376.16 129.2c2.27 1.34 5.07 7.05 4.8 19-.24 10.15-3.53 12.66-5.18 13.38s-4.84.29-7.94-.23v6.27s4.28 4.79 4 7.59-6.19 3.45-10.19.72a26 26 0 0 1-6.58-6.88v-14.7s-2.09 2.8-5.51.52S346 147 348 145s6.35-1.44 7.15 1.35c0 0 5.07-3.77 5.07-13.1.02-3.92 10.53-4.38 15.94-4.05Z" style="fill:#ffa8a7"/><path d="M367.31 145.27a1.29 1.29 0 0 1-1.21 1.39 1.31 1.31 0 0 1-1.34-1.26A1.29 1.29 0 0 1 366 144a1.31 1.31 0 0 1 1.31 1.27Z" style="fill:#263238"/><path d="m368.84 154.41 3.47 1.11a1.79 1.79 0 0 1-2.26 1.24 1.9 1.9 0 0 1-1.21-2.35Z" style="fill:#f28f8f"/><path d="m365.89 140.64-2.89 1.12a1.5 1.5 0 0 1 .84-2 1.65 1.65 0 0 1 2.05.88ZM378 145.41a1.28 1.28 0 1 1-1.34-1.27 1.32 1.32 0 0 1 1.34 1.27Z" style="fill:#263238"/><path style="fill:#f28f8f" d="m372.04 144.71.2 7.68 4.04-1.25-4.24-6.43zM367.84 161.38c-3.26-.43-10-2.36-11-5a6.81 6.81 0 0 0 2.35 3.39c2 1.71 8.67 3.65 8.67 3.65Z"/><path d="M358.64 226.55a10.16 10.16 0 0 1-7.57-12.38 5.12 5.12 0 0 1 .18-.52 3.3 3.3 0 0 1 3.4-2.26 9.82 9.82 0 0 1-4.2-6.26s-2.73-13.23-2.35-11-1-6.08.7-10.78l-6.63-4.08-1.25.87a16.89 16.89 0 0 0 .28 10.47l6.69 19.39a110.37 110.37 0 0 0-6.77 14.74c12.38 6.91 27 6.05 35.91 2.38a49.07 49.07 0 0 1-18.39-.57Z" style="fill:#e0e0e0"/><path d="M348.47 168.19c-4.71.08-7 1.37-13.27 8.24-3.9 4.31-20.94 22.32-20.94 22.32s-25.61-5.09-26.94-6.06-1.38-2.41-1.45-3.85-.38-4.57-.3-5.5c.15-1.62-1.94-.65-2.88 1.06s-.81 4.58-1.34 5.21-6.88-3.75-10-5.86-5.51-4.06-6.82-2.52c-.94 1.1.33 2.84 2.63 4.74a27.16 27.16 0 0 1 3.52 3.22c.31.36-.24.86-.43 1.14-.35.54-1 1.42-.89 2.09a5.6 5.6 0 0 1 .2 1.07c0 .83-.89 1.44-1 2.27-.06.6.32 1.16.35 1.77 0 .38-.09.77-.06 1.16a2.59 2.59 0 0 0 1.28 1.8c2.18 1.56 4.66 1.74 7.16 2.39 2.08.54 4.08.5 6.42.89s31.3 10.24 36.2 7.84c4.5-2.21 25.87-23 25.87-23 7.22-8.7 2.69-20.42 2.69-20.42Z" style="fill:#ffa8a7"/><path d="M349.89 168.08s-6.29-.81-9.89 2.71c-4.54 4.43-12.18 12.53-12.18 12.53s3.36 8.5 11.8 12c0 0 6.83-5.17 8.85-9s3.24-10.21 1.42-18.24Z" style="fill:#e0e0e0"/><path style="fill:#105f38" d="M422.94 191.06 389 200l-9.34 38.4 32.27-9.37 11.01-37.97z"/><path style="opacity:.25" d="M422.94 191.06 389 200l-9.34 38.4 32.27-9.37 11.01-37.97z"/><path d="M407.6 218.25a6.76 6.76 0 0 0 6.35 3.8l.25-.85ZM412.72 197.16s.12-.58.28-1.3-1.84-.74-4.45-.06l-5 1.29c-2.61.68-4.86 1.81-5 2.52l-.28 1.3Z" style="opacity:.1"/><path d="M415.32 192.29c.1-.44-.71-.56-1.8-.26l-2 .55s.59-2.8-3.8-1.82-5.36 4.16-5.36 4.16l-2.11.6c-1.17.33-2.23 1-2.37 1.4l-.25.81 17.49-4.61s.1-.38.2-.83Z" style="fill:#37474f"/><path d="M412.91 193.67c-1.6.39-2.26.6-2.5 1.71s-.39 2.18-.39 2.18l-7.73 2s.37-1.59.49-2.21-.15-1-1.38-.67l-.1-.49 12.12-3.09Z" style="fill:#37474f"/><path d="m413.18 197.28.28-1.29c.16-.72-1.84-.75-4.45-.07l-5 1.3c-2.61.67-4.85 1.8-5 2.52l-.28 1.29Z" style="fill:#37474f"/><path d="M419.36 203.39s-1.27 4.34-1.56 5.37-4.09 2.9-6.58 3.58-5.23 1.5-4.05 5c1.09 3.22 5.2 3.95 7.29 3.86s5-2.09 6.08-5.31c1.43-4.11.66-8.49 1.23-10.89s-1.16-3-2.41-1.61Z" style="fill:#ffa8a7"/><path d="M355.17 145.53v5a3.42 3.42 0 0 0 3.42-3.42v-5.61ZM368.84 122a17 17 0 0 1 17 17v2.2h-8.31a7.73 7.73 0 0 1-7.66-6.69l-.31 6.69a6.14 6.14 0 0 1-6.12-5.61l-.1-1.09a7.28 7.28 0 0 1-7.26 6.7h-.74l-.85-12Z" style="fill:#263238"/><path d="M354.68 145.32h6.61v.15a4.13 4.13 0 0 0 4.13 4.12h.58a4.13 4.13 0 0 0 4.13-4.12 3.86 3.86 0 0 0-.09-.84 2.71 2.71 0 0 1 2.18-1.12 2.29 2.29 0 0 1 1.79.62 4.05 4.05 0 0 0-.23 1.31 4.13 4.13 0 0 0 4.13 4.12h.63a4.13 4.13 0 1 0 0-8.25H378a4.11 4.11 0 0 0-3.6 2.15 3 3 0 0 0-2.13-.64 3.57 3.57 0 0 0-2.41 1.05 4.13 4.13 0 0 0-3.81-2.56h-.63a4.13 4.13 0 0 0-4 3.28H354a3.66 3.66 0 0 1 .68.73Zm19.88.15A3.43 3.43 0 0 1 378 142h.63a3.43 3.43 0 0 1 0 6.86H378a3.43 3.43 0 0 1-3.44-3.39Zm-12.58 0a3.43 3.43 0 0 1 3.43-3.43h.59a3.43 3.43 0 0 1 0 6.86h-.63a3.43 3.43 0 0 1-3.37-3.43Z" style="fill:#105f38"/><path d="M354.68 145.32h6.61v.15a4.13 4.13 0 0 0 4.13 4.12h.58a4.13 4.13 0 0 0 4.13-4.12 3.86 3.86 0 0 0-.09-.84 2.71 2.71 0 0 1 2.18-1.12 2.29 2.29 0 0 1 1.79.62 4.05 4.05 0 0 0-.23 1.31 4.13 4.13 0 0 0 4.13 4.12h.63a4.13 4.13 0 1 0 0-8.25H378a4.11 4.11 0 0 0-3.6 2.15 3 3 0 0 0-2.13-.64 3.57 3.57 0 0 0-2.41 1.05 4.13 4.13 0 0 0-3.81-2.56h-.63a4.13 4.13 0 0 0-4 3.28H354a3.66 3.66 0 0 1 .68.73Zm19.88.15A3.43 3.43 0 0 1 378 142h.63a3.43 3.43 0 0 1 0 6.86H378a3.43 3.43 0 0 1-3.44-3.39Zm-12.58 0a3.43 3.43 0 0 1 3.43-3.43h.59a3.43 3.43 0 0 1 0 6.86h-.63a3.43 3.43 0 0 1-3.37-3.43Z" style="opacity:.5"/></svg>